ISO-10303-21;
HEADER;
/* Generated by software containing ST-Developer
 * from STEP Tools, Inc. (www.steptools.com) 
 */

FILE_DESCRIPTION(
/* description */ (''),
/* implementation_level */ '2;1');

FILE_NAME(
/* name */ 'lado2500.step',
/* time_stamp */ '2026-07-06T21:29:38-03:00',
/* author */ (''),
/* organization */ (''),
/* preprocessor_version */ 'ST-DEVELOPER v20.1',
/* originating_system */ 'Autodesk Translation Framework v15.8.0.0',
/* authorisation */ '');

FILE_SCHEMA (('AUTOMOTIVE_DESIGN { 1 0 10303 214 3 1 1 }'));
ENDSEC;

DATA;
#10=MECHANICAL_DESIGN_GEOMETRIC_PRESENTATION_REPRESENTATION('',(#13),#357);
#11=SHAPE_REPRESENTATION_RELATIONSHIP('SRR','None',#364,#12);
#12=ADVANCED_BREP_SHAPE_REPRESENTATION('',(#14),#356);
#13=STYLED_ITEM('',(#374),#14);
#14=MANIFOLD_SOLID_BREP('Corpo5',#203);
#15=CYLINDRICAL_SURFACE('',#224,25.);
#16=CYLINDRICAL_SURFACE('',#228,22.5);
#17=CYLINDRICAL_SURFACE('',#232,21.);
#18=CYLINDRICAL_SURFACE('',#234,10.);
#19=CONICAL_SURFACE('',#222,23.75,0.0831412318884412);
#20=CIRCLE('',#220,22.5);
#21=CIRCLE('',#221,10.);
#22=CIRCLE('',#223,25.);
#23=CIRCLE('',#225,25.);
#24=CIRCLE('',#227,22.5);
#25=CIRCLE('',#229,22.5);
#26=CIRCLE('',#231,21.);
#27=CIRCLE('',#233,21.);
#28=CIRCLE('',#235,10.);
#29=FACE_OUTER_BOUND('',#40,.T.);
#30=FACE_OUTER_BOUND('',#41,.T.);
#31=FACE_OUTER_BOUND('',#42,.T.);
#32=FACE_OUTER_BOUND('',#43,.T.);
#33=FACE_OUTER_BOUND('',#44,.T.);
#34=FACE_OUTER_BOUND('',#45,.T.);
#35=FACE_OUTER_BOUND('',#46,.T.);
#36=FACE_OUTER_BOUND('',#47,.T.);
#37=FACE_OUTER_BOUND('',#48,.T.);
#38=FACE_OUTER_BOUND('',#49,.T.);
#39=FACE_OUTER_BOUND('',#50,.T.);
#40=EDGE_LOOP('',(#132,#133,#134,#135,#136,#137,#138,#139,#140));
#41=EDGE_LOOP('',(#141,#142,#143,#144,#145,#146,#147,#148,#149));
#42=EDGE_LOOP('',(#150,#151,#152,#153));
#43=EDGE_LOOP('',(#154,#155,#156,#157));
#44=EDGE_LOOP('',(#158,#159,#160,#161));
#45=EDGE_LOOP('',(#162,#163,#164,#165));
#46=EDGE_LOOP('',(#166,#167,#168,#169));
#47=EDGE_LOOP('',(#170,#171,#172,#173));
#48=EDGE_LOOP('',(#174,#175,#176,#177));
#49=EDGE_LOOP('',(#178,#179,#180,#181));
#50=EDGE_LOOP('',(#182,#183,#184,#185));
#51=LINE('',#301,#69);
#52=LINE('',#303,#70);
#53=LINE('',#305,#71);
#54=LINE('',#307,#72);
#55=LINE('',#309,#73);
#56=LINE('',#311,#74);
#57=LINE('',#313,#75);
#58=LINE('',#315,#76);
#59=LINE('',#316,#77);
#60=LINE('',#320,#78);
#61=LINE('',#322,#79);
#62=LINE('',#324,#80);
#63=LINE('',#326,#81);
#64=LINE('',#328,#82);
#65=LINE('',#330,#83);
#66=LINE('',#332,#84);
#67=LINE('',#334,#85);
#68=LINE('',#335,#86);
#69=VECTOR('',#241,10.);
#70=VECTOR('',#242,10.);
#71=VECTOR('',#243,10.);
#72=VECTOR('',#244,10.);
#73=VECTOR('',#245,10.);
#74=VECTOR('',#246,10.);
#75=VECTOR('',#247,10.);
#76=VECTOR('',#248,10.);
#77=VECTOR('',#249,10.);
#78=VECTOR('',#252,10.);
#79=VECTOR('',#253,10.);
#80=VECTOR('',#254,10.);
#81=VECTOR('',#255,10.);
#82=VECTOR('',#256,10.);
#83=VECTOR('',#257,10.);
#84=VECTOR('',#258,10.);
#85=VECTOR('',#259,10.);
#86=VECTOR('',#260,10.);
#87=VERTEX_POINT('',#299);
#88=VERTEX_POINT('',#300);
#89=VERTEX_POINT('',#302);
#90=VERTEX_POINT('',#304);
#91=VERTEX_POINT('',#306);
#92=VERTEX_POINT('',#308);
#93=VERTEX_POINT('',#310);
#94=VERTEX_POINT('',#312);
#95=VERTEX_POINT('',#314);
#96=VERTEX_POINT('',#318);
#97=VERTEX_POINT('',#319);
#98=VERTEX_POINT('',#321);
#99=VERTEX_POINT('',#323);
#100=VERTEX_POINT('',#325);
#101=VERTEX_POINT('',#327);
#102=VERTEX_POINT('',#329);
#103=VERTEX_POINT('',#331);
#104=VERTEX_POINT('',#333);
#105=EDGE_CURVE('',#87,#88,#51,.T.);
#106=EDGE_CURVE('',#89,#87,#52,.T.);
#107=EDGE_CURVE('',#90,#89,#53,.T.);
#108=EDGE_CURVE('',#91,#90,#54,.T.);
#109=EDGE_CURVE('',#92,#91,#55,.T.);
#110=EDGE_CURVE('',#93,#92,#56,.T.);
#111=EDGE_CURVE('',#94,#93,#57,.T.);
#112=EDGE_CURVE('',#95,#94,#58,.T.);
#113=EDGE_CURVE('',#88,#95,#59,.T.);
#114=EDGE_CURVE('',#96,#97,#60,.T.);
#115=EDGE_CURVE('',#98,#96,#61,.T.);
#116=EDGE_CURVE('',#99,#98,#62,.T.);
#117=EDGE_CURVE('',#100,#99,#63,.T.);
#118=EDGE_CURVE('',#101,#100,#64,.T.);
#119=EDGE_CURVE('',#102,#101,#65,.T.);
#120=EDGE_CURVE('',#103,#102,#66,.T.);
#121=EDGE_CURVE('',#104,#103,#67,.T.);
#122=EDGE_CURVE('',#97,#104,#68,.T.);
#123=EDGE_CURVE('',#102,#91,#20,.T.);
#124=EDGE_CURVE('',#101,#92,#21,.T.);
#125=EDGE_CURVE('',#90,#103,#22,.T.);
#126=EDGE_CURVE('',#89,#104,#23,.T.);
#127=EDGE_CURVE('',#87,#97,#24,.T.);
#128=EDGE_CURVE('',#88,#96,#25,.T.);
#129=EDGE_CURVE('',#98,#95,#26,.T.);
#130=EDGE_CURVE('',#99,#94,#27,.T.);
#131=EDGE_CURVE('',#93,#100,#28,.T.);
#132=ORIENTED_EDGE('',*,*,#105,.F.);
#133=ORIENTED_EDGE('',*,*,#106,.F.);
#134=ORIENTED_EDGE('',*,*,#107,.F.);
#135=ORIENTED_EDGE('',*,*,#108,.F.);
#136=ORIENTED_EDGE('',*,*,#109,.F.);
#137=ORIENTED_EDGE('',*,*,#110,.F.);
#138=ORIENTED_EDGE('',*,*,#111,.F.);
#139=ORIENTED_EDGE('',*,*,#112,.F.);
#140=ORIENTED_EDGE('',*,*,#113,.F.);
#141=ORIENTED_EDGE('',*,*,#114,.F.);
#142=ORIENTED_EDGE('',*,*,#115,.F.);
#143=ORIENTED_EDGE('',*,*,#116,.F.);
#144=ORIENTED_EDGE('',*,*,#117,.F.);
#145=ORIENTED_EDGE('',*,*,#118,.F.);
#146=ORIENTED_EDGE('',*,*,#119,.F.);
#147=ORIENTED_EDGE('',*,*,#120,.F.);
#148=ORIENTED_EDGE('',*,*,#121,.F.);
#149=ORIENTED_EDGE('',*,*,#122,.F.);
#150=ORIENTED_EDGE('',*,*,#109,.T.);
#151=ORIENTED_EDGE('',*,*,#123,.F.);
#152=ORIENTED_EDGE('',*,*,#119,.T.);
#153=ORIENTED_EDGE('',*,*,#124,.T.);
#154=ORIENTED_EDGE('',*,*,#108,.T.);
#155=ORIENTED_EDGE('',*,*,#125,.T.);
#156=ORIENTED_EDGE('',*,*,#120,.T.);
#157=ORIENTED_EDGE('',*,*,#123,.T.);
#158=ORIENTED_EDGE('',*,*,#107,.T.);
#159=ORIENTED_EDGE('',*,*,#126,.T.);
#160=ORIENTED_EDGE('',*,*,#121,.T.);
#161=ORIENTED_EDGE('',*,*,#125,.F.);
#162=ORIENTED_EDGE('',*,*,#106,.T.);
#163=ORIENTED_EDGE('',*,*,#127,.T.);
#164=ORIENTED_EDGE('',*,*,#122,.T.);
#165=ORIENTED_EDGE('',*,*,#126,.F.);
#166=ORIENTED_EDGE('',*,*,#105,.T.);
#167=ORIENTED_EDGE('',*,*,#128,.T.);
#168=ORIENTED_EDGE('',*,*,#114,.T.);
#169=ORIENTED_EDGE('',*,*,#127,.F.);
#170=ORIENTED_EDGE('',*,*,#113,.T.);
#171=ORIENTED_EDGE('',*,*,#129,.F.);
#172=ORIENTED_EDGE('',*,*,#115,.T.);
#173=ORIENTED_EDGE('',*,*,#128,.F.);
#174=ORIENTED_EDGE('',*,*,#112,.T.);
#175=ORIENTED_EDGE('',*,*,#130,.F.);
#176=ORIENTED_EDGE('',*,*,#116,.T.);
#177=ORIENTED_EDGE('',*,*,#129,.T.);
#178=ORIENTED_EDGE('',*,*,#110,.T.);
#179=ORIENTED_EDGE('',*,*,#124,.F.);
#180=ORIENTED_EDGE('',*,*,#118,.T.);
#181=ORIENTED_EDGE('',*,*,#131,.F.);
#182=ORIENTED_EDGE('',*,*,#111,.T.);
#183=ORIENTED_EDGE('',*,*,#131,.T.);
#184=ORIENTED_EDGE('',*,*,#117,.T.);
#185=ORIENTED_EDGE('',*,*,#130,.T.);
#186=PLANE('',#217);
#187=PLANE('',#218);
#188=PLANE('',#219);
#189=PLANE('',#226);
#190=PLANE('',#230);
#191=PLANE('',#236);
#192=ADVANCED_FACE('',(#29),#186,.F.);
#193=ADVANCED_FACE('',(#30),#187,.F.);
#194=ADVANCED_FACE('',(#31),#188,.F.);
#195=ADVANCED_FACE('',(#32),#19,.T.);
#196=ADVANCED_FACE('',(#33),#15,.T.);
#197=ADVANCED_FACE('',(#34),#189,.T.);
#198=ADVANCED_FACE('',(#35),#16,.F.);
#199=ADVANCED_FACE('',(#36),#190,.T.);
#200=ADVANCED_FACE('',(#37),#17,.F.);
#201=ADVANCED_FACE('',(#38),#18,.F.);
#202=ADVANCED_FACE('',(#39),#191,.T.);
#203=CLOSED_SHELL('',(#192,#193,#194,#195,#196,#197,#198,#199,#200,#201,
#202));
#204=DERIVED_UNIT_ELEMENT(#206,1.);
#205=DERIVED_UNIT_ELEMENT(#359,-3.);
#206=(
MASS_UNIT()
NAMED_UNIT(*)
SI_UNIT(.KILO.,.GRAM.)
);
#207=DERIVED_UNIT((#204,#205));
#208=MEASURE_REPRESENTATION_ITEM('density measure',
POSITIVE_RATIO_MEASURE(7850.),#207);
#209=PROPERTY_DEFINITION_REPRESENTATION(#214,#211);
#210=PROPERTY_DEFINITION_REPRESENTATION(#215,#212);
#211=REPRESENTATION('material name',(#213),#356);
#212=REPRESENTATION('density',(#208),#356);
#213=DESCRIPTIVE_REPRESENTATION_ITEM('A\X\E7o','A\X\E7o');
#214=PROPERTY_DEFINITION('material property','material name',#366);
#215=PROPERTY_DEFINITION('material property','density of part',#366);
#216=AXIS2_PLACEMENT_3D('',#297,#237,#238);
#217=AXIS2_PLACEMENT_3D('',#298,#239,#240);
#218=AXIS2_PLACEMENT_3D('',#317,#250,#251);
#219=AXIS2_PLACEMENT_3D('',#336,#261,#262);
#220=AXIS2_PLACEMENT_3D('',#337,#263,#264);
#221=AXIS2_PLACEMENT_3D('',#338,#265,#266);
#222=AXIS2_PLACEMENT_3D('',#339,#267,#268);
#223=AXIS2_PLACEMENT_3D('',#340,#269,#270);
#224=AXIS2_PLACEMENT_3D('',#341,#271,#272);
#225=AXIS2_PLACEMENT_3D('',#342,#273,#274);
#226=AXIS2_PLACEMENT_3D('',#343,#275,#276);
#227=AXIS2_PLACEMENT_3D('',#344,#277,#278);
#228=AXIS2_PLACEMENT_3D('',#345,#279,#280);
#229=AXIS2_PLACEMENT_3D('',#346,#281,#282);
#230=AXIS2_PLACEMENT_3D('',#347,#283,#284);
#231=AXIS2_PLACEMENT_3D('',#348,#285,#286);
#232=AXIS2_PLACEMENT_3D('',#349,#287,#288);
#233=AXIS2_PLACEMENT_3D('',#350,#289,#290);
#234=AXIS2_PLACEMENT_3D('',#351,#291,#292);
#235=AXIS2_PLACEMENT_3D('',#352,#293,#294);
#236=AXIS2_PLACEMENT_3D('',#353,#295,#296);
#237=DIRECTION('axis',(0.,0.,1.));
#238=DIRECTION('refdir',(1.,0.,0.));
#239=DIRECTION('center_axis',(1.,0.,0.));
#240=DIRECTION('ref_axis',(0.,0.,-1.));
#241=DIRECTION('',(0.,-1.,0.));
#242=DIRECTION('',(0.,0.,1.));
#243=DIRECTION('',(0.,1.,0.));
#244=DIRECTION('',(0.,0.99654575824488,-0.08304547985374));
#245=DIRECTION('',(0.,0.,-1.));
#246=DIRECTION('',(0.,-1.,0.));
#247=DIRECTION('',(0.,0.,1.));
#248=DIRECTION('',(0.,-1.,0.));
#249=DIRECTION('',(0.,0.,1.));
#250=DIRECTION('center_axis',(1.,0.,0.));
#251=DIRECTION('ref_axis',(0.,0.,-1.));
#252=DIRECTION('',(0.,1.,0.));
#253=DIRECTION('',(0.,0.,1.));
#254=DIRECTION('',(0.,1.,0.));
#255=DIRECTION('',(0.,0.,1.));
#256=DIRECTION('',(0.,1.,0.));
#257=DIRECTION('',(0.,0.,-1.));
#258=DIRECTION('',(0.,-0.99654575824488,-0.08304547985374));
#259=DIRECTION('',(0.,-1.,0.));
#260=DIRECTION('',(0.,0.,1.));
#261=DIRECTION('center_axis',(0.,1.,0.));
#262=DIRECTION('ref_axis',(1.,0.,0.));
#263=DIRECTION('center_axis',(0.,1.,0.));
#264=DIRECTION('ref_axis',(1.,0.,0.));
#265=DIRECTION('center_axis',(0.,1.,0.));
#266=DIRECTION('ref_axis',(1.,0.,0.));
#267=DIRECTION('center_axis',(0.,1.,0.));
#268=DIRECTION('ref_axis',(1.,0.,0.));
#269=DIRECTION('center_axis',(0.,-1.,0.));
#270=DIRECTION('ref_axis',(1.,0.,0.));
#271=DIRECTION('center_axis',(0.,-1.,0.));
#272=DIRECTION('ref_axis',(1.,0.,0.));
#273=DIRECTION('center_axis',(0.,-1.,0.));
#274=DIRECTION('ref_axis',(1.,0.,0.));
#275=DIRECTION('center_axis',(0.,1.,0.));
#276=DIRECTION('ref_axis',(-1.,0.,0.));
#277=DIRECTION('center_axis',(0.,-1.,0.));
#278=DIRECTION('ref_axis',(-1.,0.,0.));
#279=DIRECTION('center_axis',(0.,-1.,0.));
#280=DIRECTION('ref_axis',(1.,0.,-1.22464679914735E-16));
#281=DIRECTION('center_axis',(0.,-1.,0.));
#282=DIRECTION('ref_axis',(-1.,0.,0.));
#283=DIRECTION('center_axis',(0.,1.,0.));
#284=DIRECTION('ref_axis',(-1.,0.,0.));
#285=DIRECTION('center_axis',(0.,1.,0.));
#286=DIRECTION('ref_axis',(1.,0.,0.));
#287=DIRECTION('center_axis',(0.,1.,0.));
#288=DIRECTION('ref_axis',(1.,0.,0.));
#289=DIRECTION('center_axis',(0.,1.,0.));
#290=DIRECTION('ref_axis',(1.,0.,0.));
#291=DIRECTION('center_axis',(0.,1.,0.));
#292=DIRECTION('ref_axis',(1.,0.,0.));
#293=DIRECTION('center_axis',(0.,-1.,0.));
#294=DIRECTION('ref_axis',(1.,0.,0.));
#295=DIRECTION('center_axis',(0.,1.,0.));
#296=DIRECTION('ref_axis',(1.,0.,0.));
#297=CARTESIAN_POINT('',(0.,0.,0.));
#298=CARTESIAN_POINT('Origin',(0.,27.5,0.));
#299=CARTESIAN_POINT('',(0.,115.,-22.5));
#300=CARTESIAN_POINT('',(0.,105.,-22.5));
#301=CARTESIAN_POINT('',(0.,115.,-22.5));
#302=CARTESIAN_POINT('',(0.,115.,-25.));
#303=CARTESIAN_POINT('',(0.,115.,0.));
#304=CARTESIAN_POINT('',(0.,-30.,-25.));
#305=CARTESIAN_POINT('',(0.,-30.,-25.));
#306=CARTESIAN_POINT('',(0.,-60.,-22.5));
#307=CARTESIAN_POINT('',(0.,-45.,-23.75));
#308=CARTESIAN_POINT('',(0.,-60.,-10.));
#309=CARTESIAN_POINT('',(0.,-60.,0.));
#310=CARTESIAN_POINT('',(0.,-20.,-10.));
#311=CARTESIAN_POINT('',(0.,-60.,-10.));
#312=CARTESIAN_POINT('',(0.,-20.,-21.));
#313=CARTESIAN_POINT('',(0.,-20.,0.));
#314=CARTESIAN_POINT('',(0.,105.,-21.));
#315=CARTESIAN_POINT('',(0.,-30.,-21.));
#316=CARTESIAN_POINT('',(0.,105.,0.));
#317=CARTESIAN_POINT('Origin',(0.,27.5,0.));
#318=CARTESIAN_POINT('',(0.,105.,22.5));
#319=CARTESIAN_POINT('',(0.,115.,22.5));
#320=CARTESIAN_POINT('',(0.,115.,22.5));
#321=CARTESIAN_POINT('',(0.,105.,21.));
#322=CARTESIAN_POINT('',(0.,105.,0.));
#323=CARTESIAN_POINT('',(0.,-20.,21.));
#324=CARTESIAN_POINT('',(0.,-30.,21.));
#325=CARTESIAN_POINT('',(0.,-20.,10.));
#326=CARTESIAN_POINT('',(0.,-20.,0.));
#327=CARTESIAN_POINT('',(0.,-60.,10.));
#328=CARTESIAN_POINT('',(0.,-60.,10.));
#329=CARTESIAN_POINT('',(0.,-60.,22.5));
#330=CARTESIAN_POINT('',(0.,-60.,0.));
#331=CARTESIAN_POINT('',(0.,-30.,25.));
#332=CARTESIAN_POINT('',(0.,-45.,23.75));
#333=CARTESIAN_POINT('',(0.,115.,25.));
#334=CARTESIAN_POINT('',(0.,-30.,25.));
#335=CARTESIAN_POINT('',(0.,115.,0.));
#336=CARTESIAN_POINT('Origin',(0.,-60.,0.));
#337=CARTESIAN_POINT('Origin',(0.,-60.,0.));
#338=CARTESIAN_POINT('Origin',(0.,-60.,0.));
#339=CARTESIAN_POINT('Origin',(0.,-45.,0.));
#340=CARTESIAN_POINT('Origin',(0.,-30.,0.));
#341=CARTESIAN_POINT('Origin',(0.,-30.,0.));
#342=CARTESIAN_POINT('Origin',(0.,115.,0.));
#343=CARTESIAN_POINT('Origin',(0.,115.,0.));
#344=CARTESIAN_POINT('Origin',(0.,115.,0.));
#345=CARTESIAN_POINT('Origin',(0.,115.,0.));
#346=CARTESIAN_POINT('Origin',(0.,105.,0.));
#347=CARTESIAN_POINT('Origin',(0.,105.,0.));
#348=CARTESIAN_POINT('Origin',(0.,105.,0.));
#349=CARTESIAN_POINT('Origin',(0.,-30.,0.));
#350=CARTESIAN_POINT('Origin',(0.,-20.,0.));
#351=CARTESIAN_POINT('Origin',(0.,-60.,0.));
#352=CARTESIAN_POINT('Origin',(0.,-20.,0.));
#353=CARTESIAN_POINT('Origin',(0.,-20.,0.));
#354=UNCERTAINTY_MEASURE_WITH_UNIT(LENGTH_MEASURE(0.01),#358,
'DISTANCE_ACCURACY_VALUE',
'Maximum model space distance between geometric entities at asserted c
onnectivities');
#355=UNCERTAINTY_MEASURE_WITH_UNIT(LENGTH_MEASURE(0.01),#358,
'DISTANCE_ACCURACY_VALUE',
'Maximum model space distance between geometric entities at asserted c
onnectivities');
#356=(
GEOMETRIC_REPRESENTATION_CONTEXT(3)
GLOBAL_UNCERTAINTY_ASSIGNED_CONTEXT((#354))
GLOBAL_UNIT_ASSIGNED_CONTEXT((#358,#360,#361))
REPRESENTATION_CONTEXT('','3D')
);
#357=(
GEOMETRIC_REPRESENTATION_CONTEXT(3)
GLOBAL_UNCERTAINTY_ASSIGNED_CONTEXT((#355))
GLOBAL_UNIT_ASSIGNED_CONTEXT((#358,#360,#361))
REPRESENTATION_CONTEXT('','3D')
);
#358=(
LENGTH_UNIT()
NAMED_UNIT(*)
SI_UNIT(.MILLI.,.METRE.)
);
#359=(
LENGTH_UNIT()
NAMED_UNIT(*)
SI_UNIT($,.METRE.)
);
#360=(
NAMED_UNIT(*)
PLANE_ANGLE_UNIT()
SI_UNIT($,.RADIAN.)
);
#361=(
NAMED_UNIT(*)
SI_UNIT($,.STERADIAN.)
SOLID_ANGLE_UNIT()
);
#362=SHAPE_DEFINITION_REPRESENTATION(#363,#364);
#363=PRODUCT_DEFINITION_SHAPE('',$,#366);
#364=SHAPE_REPRESENTATION('',(#216),#356);
#365=PRODUCT_DEFINITION_CONTEXT('part definition',#370,'design');
#366=PRODUCT_DEFINITION('molde100m2026','molde100m2026 v5',#367,#365);
#367=PRODUCT_DEFINITION_FORMATION('',$,#372);
#368=PRODUCT_RELATED_PRODUCT_CATEGORY('molde100m2026 v5',
'molde100m2026 v5',(#372));
#369=APPLICATION_PROTOCOL_DEFINITION('international standard',
'automotive_design',2009,#370);
#370=APPLICATION_CONTEXT(
'Core Data for Automotive Mechanical Design Process');
#371=PRODUCT_CONTEXT('part definition',#370,'mechanical');
#372=PRODUCT('molde100m2026','molde100m2026 v5',$,(#371));
#373=PRESENTATION_STYLE_ASSIGNMENT((#376));
#374=PRESENTATION_STYLE_ASSIGNMENT((#377));
#375=PRESENTATION_STYLE_ASSIGNMENT((#378));
#376=SURFACE_STYLE_USAGE(.BOTH.,#379);
#377=SURFACE_STYLE_USAGE(.BOTH.,#380);
#378=SURFACE_STYLE_USAGE(.BOTH.,#381);
#379=SURFACE_SIDE_STYLE('',(#382));
#380=SURFACE_SIDE_STYLE('',(#383));
#381=SURFACE_SIDE_STYLE('',(#384));
#382=SURFACE_STYLE_FILL_AREA(#385);
#383=SURFACE_STYLE_FILL_AREA(#386);
#384=SURFACE_STYLE_FILL_AREA(#387);
#385=FILL_AREA_STYLE('A\X\E7o - Acetinado',(#388));
#386=FILL_AREA_STYLE('Pintura - Met\X\E1lica (Verde)',(#389));
#387=FILL_AREA_STYLE('Pintura - Met\X\E1lica (Vermelho)',(#390));
#388=FILL_AREA_STYLE_COLOUR('A\X\E7o - Acetinado',#391);
#389=FILL_AREA_STYLE_COLOUR('Pintura - Met\X\E1lica (Verde)',#392);
#390=FILL_AREA_STYLE_COLOUR('Pintura - Met\X\E1lica (Vermelho)',#393);
#391=COLOUR_RGB('A\X\E7o - Acetinado',0.627450980392157,0.627450980392157,
0.627450980392157);
#392=COLOUR_RGB('Pintura - Met\X\E1lica (Verde)',0.266666666666667,0.588235294117647,
0.282352941176471);
#393=COLOUR_RGB('Pintura - Met\X\E1lica (Vermelho)',0.768627450980392,0.207843137254902,
0.152941176470588);
ENDSEC;
END-ISO-10303-21;
