ISO-10303-21;
HEADER;
FILE_DESCRIPTION (( 'STEP AP214' ),
    '1' );
FILE_NAME ('Guia_alma_teste_de_prop.STEP',
    '2026-07-02T15:15:38',
    ( '' ),
    ( '' ),
    'SwSTEP 2.0',
    'SolidWorks 2023',
    '' );
FILE_SCHEMA (( 'AUTOMOTIVE_DESIGN' ));
ENDSEC;

DATA;
#1 = LINE ( 'NONE', #712, #1164 ) ;
#2 = AXIS2_PLACEMENT_3D ( 'NONE', #103, #720, #512 ) ;
#3 = VERTEX_POINT ( 'NONE', #762 ) ;
#4 = DIRECTION ( 'NONE',  ( -0.000000000000000000, 0.000000000000000000, -1.000000000000000000 ) ) ;
#5 = VECTOR ( 'NONE', #473, 1000.000000000000000 ) ;
#6 = CARTESIAN_POINT ( 'NONE',  ( 0.000000000000000000, 3.000000000000000000, 0.000000000000000000 ) ) ;
#7 = AXIS2_PLACEMENT_3D ( 'NONE', #385, #471, #77 ) ;
#8 = EDGE_CURVE ( 'NONE', #1108, #1263, #1146, .T. ) ;
#9 = DIRECTION ( 'NONE',  ( -0.000000000000000000, 1.000000000000000000, -0.000000000000000000 ) ) ;
#10 = EDGE_LOOP ( 'NONE', ( #525, #537, #223, #827 ) ) ;
#11 = CYLINDRICAL_SURFACE ( 'NONE', #344, 1.500000000000000444 ) ;
#12 = DIRECTION ( 'NONE',  ( -0.000000000000000000, 1.000000000000000000, 0.000000000000000000 ) ) ;
#13 = CARTESIAN_POINT ( 'NONE',  ( -5.323170731707317138, 13.00000000000000000, -8.108874975056313161 ) ) ;
#14 = ADVANCED_BREP_SHAPE_REPRESENTATION ( 'Guia_alma_teste_de_prop', ( #649, #597, #1080 ), #198 ) ;
#15 = EDGE_LOOP ( 'NONE', ( #1154, #1082, #194, #221 ) ) ;
#16 = CARTESIAN_POINT ( 'NONE',  ( -4.500000000000000888, 13.00000000000000000, 6.854925236645541986 ) ) ;
#17 = ORIENTED_EDGE ( 'NONE', *, *, #769, .T. ) ;
#18 = DIRECTION ( 'NONE',  ( 0.000000000000000000, 1.000000000000000000, -0.000000000000000000 ) ) ;
#19 = CARTESIAN_POINT ( 'NONE',  ( -3.000000000000000000, 3.000000000000000000, 6.854925236645541986 ) ) ;
#20 = ORIENTED_EDGE ( 'NONE', *, *, #32, .F. ) ;
#21 = CARTESIAN_POINT ( 'NONE',  ( -4.500000000000000888, 3.000000000000000888, -6.854925236645541986 ) ) ;
#22 = ORIENTED_EDGE ( 'NONE', *, *, #182, .T. ) ;
#23 = CARTESIAN_POINT ( 'NONE',  ( 4.500000000000000888, 13.00000000000000000, -6.854925236645541986 ) ) ;
#24 = CIRCLE ( 'NONE', #838, 1.000000000000000000 ) ;
#25 = EDGE_CURVE ( 'NONE', #315, #1263, #474, .T. ) ;
#26 = CARTESIAN_POINT ( 'NONE',  ( -6.854925236645541986, 3.000000000000000000, 3.000000000000000000 ) ) ;
#27 = AXIS2_PLACEMENT_3D ( 'NONE', #175, #1256, #58 ) ;
#28 = DIRECTION ( 'NONE',  ( 0.000000000000000000, 0.000000000000000000, 1.000000000000000000 ) ) ;
#29 = VERTEX_POINT ( 'NONE', #966 ) ;
#30 = CARTESIAN_POINT ( 'NONE',  ( 3.673940397442060361E-16, 3.000000000000000000, 3.000000000000000444 ) ) ;
#31 = PRODUCT_RELATED_PRODUCT_CATEGORY ( 'part', '', ( #68 ) ) ;
#32 = EDGE_CURVE ( 'NONE', #862, #629, #1152, .T. ) ;
#33 = ORIENTED_EDGE ( 'NONE', *, *, #1018, .T. ) ;
#34 = SURFACE_STYLE_USAGE ( .BOTH. , #725 ) ;
#35 = CARTESIAN_POINT ( 'NONE',  ( 0.000000000000000000, 3.000000000000000888, 0.000000000000000000 ) ) ;
#36 = CARTESIAN_POINT ( 'NONE',  ( -3.000000000000000000, 3.903127820947815962E-16, -3.000000000000000000 ) ) ;
#37 = VERTEX_POINT ( 'NONE', #169 ) ;
#38 = CARTESIAN_POINT ( 'NONE',  ( 0.000000000000000000, 13.00000000000000000, -9.699999999999997513 ) ) ;
#39 = ADVANCED_FACE ( 'NONE', ( #571, #1259 ), #1062, .F. ) ;
#40 = ORIENTED_EDGE ( 'NONE', *, *, #355, .F. ) ;
#41 = CARTESIAN_POINT ( 'NONE',  ( 8.108874975056313161, 3.000000000000000888, -5.323170731707318026 ) ) ;
#42 = CARTESIAN_POINT ( 'NONE',  ( -6.854925236645541986, 3.000000000000000000, -3.000000000000000000 ) ) ;
#43 = DIRECTION ( 'NONE',  ( 0.000000000000000000, -1.000000000000000000, 0.000000000000000000 ) ) ;
#44 = ORIENTED_EDGE ( 'NONE', *, *, #806, .F. ) ;
#45 = DIRECTION ( 'NONE',  ( 0.000000000000000000, 1.000000000000000000, 0.000000000000000000 ) ) ;
#46 = EDGE_LOOP ( 'NONE', ( #44, #940, #722, #254, #1173, #96, #621 ) ) ;
#47 =( LENGTH_UNIT ( ) NAMED_UNIT ( * ) SI_UNIT ( .MILLI., .METRE. ) );
#48 = DIRECTION ( 'NONE',  ( 0.000000000000000000, 0.000000000000000000, -1.000000000000000000 ) ) ;
#49 = EDGE_CURVE ( 'NONE', #458, #1162, #225, .T. ) ;
#50 = DIRECTION ( 'NONE',  ( 0.000000000000000000, 1.000000000000000000, -0.000000000000000000 ) ) ;
#51 = VECTOR ( 'NONE', #1127, 1000.000000000000000 ) ;
#52 = FACE_OUTER_BOUND ( 'NONE', #370, .T. ) ;
#53 = ORIENTED_EDGE ( 'NONE', *, *, #423, .F. ) ;
#54 = PRESENTATION_STYLE_ASSIGNMENT (( #34 ) ) ;
#55 = FACE_OUTER_BOUND ( 'NONE', #765, .T. ) ;
#56 = DIRECTION ( 'NONE',  ( -0.000000000000000000, -1.000000000000000000, -0.000000000000000000 ) ) ;
#57 = VERTEX_POINT ( 'NONE', #815 ) ;
#58 = DIRECTION ( 'NONE',  ( 0.000000000000000000, 0.000000000000000000, 1.000000000000000000 ) ) ;
#59 = FACE_OUTER_BOUND ( 'NONE', #137, .T. ) ;
#60 = CARTESIAN_POINT ( 'NONE',  ( 0.000000000000000000, 13.00000000000000000, 0.000000000000000000 ) ) ;
#61 = VERTEX_POINT ( 'NONE', #900 ) ;
#62 = LINE ( 'NONE', #982, #383 ) ;
#63 = DIRECTION ( 'NONE',  ( 0.000000000000000000, 0.000000000000000000, -1.000000000000000000 ) ) ;
#64 = EDGE_CURVE ( 'NONE', #786, #1108, #955, .T. ) ;
#65 = ORIENTED_EDGE ( 'NONE', *, *, #1232, .F. ) ;
#66 = AXIS2_PLACEMENT_3D ( 'NONE', #848, #131, #934 ) ;
#67 = CIRCLE ( 'NONE', #151, 1.500000000000000444 ) ;
#68 = PRODUCT ( 'Guia_alma_teste_de_prop', 'Guia_alma_teste_de_prop', '', ( #669 ) ) ;
#69 = VECTOR ( 'NONE', #514, 1000.000000000000000 ) ;
#70 = CIRCLE ( 'NONE', #469, 1.000000000000000000 ) ;
#71 = ORIENTED_EDGE ( 'NONE', *, *, #374, .F. ) ;
#72 = FACE_BOUND ( 'NONE', #1182, .T. ) ;
#73 = EDGE_CURVE ( 'NONE', #629, #29, #1192, .T. ) ;
#74 = DIRECTION ( 'NONE',  ( 0.000000000000000000, 0.000000000000000000, -1.000000000000000000 ) ) ;
#75 = ORIENTED_EDGE ( 'NONE', *, *, #181, .F. ) ;
#76 = ORIENTED_EDGE ( 'NONE', *, *, #576, .T. ) ;
#77 = DIRECTION ( 'NONE',  ( 0.000000000000000000, 0.000000000000000000, -1.000000000000000000 ) ) ;
#78 = DIRECTION ( 'NONE',  ( 0.000000000000000000, 0.000000000000000000, 1.000000000000000000 ) ) ;
#79 = ORIENTED_EDGE ( 'NONE', *, *, #1178, .T. ) ;
#80 = ADVANCED_FACE ( 'NONE', ( #201 ), #516, .F. ) ;
#81 = ORIENTED_EDGE ( 'NONE', *, *, #648, .F. ) ;
#82 = CARTESIAN_POINT ( 'NONE',  ( -5.323170731707317138, 13.00000000000000000, 8.108874975056313161 ) ) ;
#83 = FACE_OUTER_BOUND ( 'NONE', #15, .T. ) ;
#84 = ORIENTED_EDGE ( 'NONE', *, *, #107, .T. ) ;
#85 = ADVANCED_FACE ( 'NONE', ( #1098, #619, #596, #1085, #118, #708 ), #986, .F. ) ;
#86 = VECTOR ( 'NONE', #220, 1000.000000000000000 ) ;
#87 = COLOUR_RGB ( '',0.7921568627450980005, 0.8196078431372548767, 0.9333333333333333481 ) ;
#88 = ORIENTED_EDGE ( 'NONE', *, *, #853, .T. ) ;
#89 = CARTESIAN_POINT ( 'NONE',  ( -6.854925236645541986, 0.000000000000000000, -3.000000000000000000 ) ) ;
#90 = AXIS2_PLACEMENT_3D ( 'NONE', #908, #126, #938 ) ;
#91 = VECTOR ( 'NONE', #43, 1000.000000000000000 ) ;
#92 = DIRECTION ( 'NONE',  ( 1.000000000000000000, 0.000000000000000000, -0.000000000000000000 ) ) ;
#93 = ORIENTED_EDGE ( 'NONE', *, *, #1094, .F. ) ;
#94 = ORIENTED_EDGE ( 'NONE', *, *, #945, .F. ) ;
#95 = CARTESIAN_POINT ( 'NONE',  ( -3.000000000000000000, -0.000000000000000000, -6.854925236645541986 ) ) ;
#96 = ORIENTED_EDGE ( 'NONE', *, *, #535, .T. ) ;
#97 = CARTESIAN_POINT ( 'NONE',  ( 0.000000000000000000, 13.00000000000000000, -12.69999999999999574 ) ) ;
#98 = LINE ( 'NONE', #497, #168 ) ;
#99 = EDGE_LOOP ( 'NONE', ( #981, #592, #274, #93 ) ) ;
#100 = FACE_OUTER_BOUND ( 'NONE', #121, .T. ) ;
#101 = EDGE_CURVE ( 'NONE', #292, #1087, #98, .T. ) ;
#102 = CARTESIAN_POINT ( 'NONE',  ( -3.000000000000000000, -10.00000000000000000, -3.000000000000000000 ) ) ;
#103 = CARTESIAN_POINT ( 'NONE',  ( -3.000000000000000000, 0.000000000000000000, 0.000000000000000000 ) ) ;
#104 = AXIS2_PLACEMENT_3D ( 'NONE', #328, #727, #625 ) ;
#105 = ORIENTED_EDGE ( 'NONE', *, *, #452, .F. ) ;
#106 = CARTESIAN_POINT ( 'NONE',  ( 6.854925236645541986, 3.000000000000000000, 3.000000000000000000 ) ) ;
#107 = EDGE_CURVE ( 'NONE', #1139, #1216, #1091, .T. ) ;
#108 = AXIS2_PLACEMENT_3D ( 'NONE', #1155, #359, #952 ) ;
#109 = ORIENTED_EDGE ( 'NONE', *, *, #1218, .T. ) ;
#110 = FACE_OUTER_BOUND ( 'NONE', #594, .T. ) ;
#111 = AXIS2_PLACEMENT_3D ( 'NONE', #252, #721, #913 ) ;
#112 = CARTESIAN_POINT ( 'NONE',  ( -3.000000000000000000, 3.000000000000000000, 0.000000000000000000 ) ) ;
#113 = CIRCLE ( 'NONE', #427, 1.500000000000000444 ) ;
#114 = ORIENTED_EDGE ( 'NONE', *, *, #282, .F. ) ;
#115 = CARTESIAN_POINT ( 'NONE',  ( 3.000000000000000444, 3.000000000000000000, 0.000000000000000000 ) ) ;
#116 = ORIENTED_EDGE ( 'NONE', *, *, #916, .T. ) ;
#117 = CARTESIAN_POINT ( 'NONE',  ( -3.000000000000000000, -10.00000000000000000, -3.000000000000000000 ) ) ;
#118 = FACE_BOUND ( 'NONE', #1014, .T. ) ;
#119 = ORIENTED_EDGE ( 'NONE', *, *, #418, .T. ) ;
#120 = PLANE ( 'NONE',  #717 ) ;
#121 = EDGE_LOOP ( 'NONE', ( #148, #1012, #294 ) ) ;
#122 = CYLINDRICAL_SURFACE ( 'NONE', #714, 1.500000000000000444 ) ;
#123 = CARTESIAN_POINT ( 'NONE',  ( 0.000000000000000000, 0.000000000000000000, 0.000000000000000000 ) ) ;
#124 = EDGE_CURVE ( 'NONE', #1139, #315, #1203, .T. ) ;
#125 = ORIENTED_EDGE ( 'NONE', *, *, #983, .F. ) ;
#126 = DIRECTION ( 'NONE',  ( 0.000000000000000000, -1.000000000000000000, 0.000000000000000000 ) ) ;
#127 = EDGE_LOOP ( 'NONE', ( #160, #615, #386, #672 ) ) ;
#128 =( NAMED_UNIT ( * ) SI_UNIT ( $, .STERADIAN. ) SOLID_ANGLE_UNIT ( ) );
#129 = AXIS2_PLACEMENT_3D ( 'NONE', #539, #139, #531 ) ;
#130 = AXIS2_PLACEMENT_3D ( 'NONE', #1281, #606, #490 ) ;
#131 = DIRECTION ( 'NONE',  ( 0.000000000000000000, 1.000000000000000000, -0.000000000000000000 ) ) ;
#132 = AXIS2_PLACEMENT_3D ( 'NONE', #687, #209, #1177 ) ;
#133 = CARTESIAN_POINT ( 'NONE',  ( -4.500000000000000888, 0.000000000000000000, -6.854925236645541986 ) ) ;
#134 = AXIS2_PLACEMENT_3D ( 'NONE', #154, #749, #356 ) ;
#135 = ORIENTED_EDGE ( 'NONE', *, *, #1274, .F. ) ;
#136 = CARTESIAN_POINT ( 'NONE',  ( 0.000000000000000000, 3.000000000000000000, 0.000000000000000000 ) ) ;
#137 = EDGE_LOOP ( 'NONE', ( #1117, #598, #40, #574 ) ) ;
#138 = DIRECTION ( 'NONE',  ( 0.000000000000000000, 1.000000000000000000, -0.000000000000000000 ) ) ;
#139 = DIRECTION ( 'NONE',  ( -0.000000000000000000, -1.000000000000000000, -0.000000000000000000 ) ) ;
#140 = CARTESIAN_POINT ( 'NONE',  ( 6.854925236645541986, 0.000000000000000000, 4.500000000000000888 ) ) ;
#141 = VERTEX_POINT ( 'NONE', #887 ) ;
#142 = DIRECTION ( 'NONE',  ( 0.000000000000000000, 1.000000000000000000, -0.000000000000000000 ) ) ;
#143 = VERTEX_POINT ( 'NONE', #302 ) ;
#144 = EDGE_CURVE ( 'NONE', #479, #37, #1, .T. ) ;
#145 = DIRECTION ( 'NONE',  ( 0.000000000000000000, -1.000000000000000000, 0.000000000000000000 ) ) ;
#146 = DIRECTION ( 'NONE',  ( 0.000000000000000000, 0.000000000000000000, -1.000000000000000000 ) ) ;
#147 = CARTESIAN_POINT ( 'NONE',  ( 8.108874975056313161, 13.00000000000000000, -5.323170731707317138 ) ) ;
#148 = ORIENTED_EDGE ( 'NONE', *, *, #987, .F. ) ;
#149 = CIRCLE ( 'NONE', #419, 1.000000000000000000 ) ;
#150 = CARTESIAN_POINT ( 'NONE',  ( -3.000000000000000000, 3.000000000000000000, 0.000000000000000000 ) ) ;
#151 = AXIS2_PLACEMENT_3D ( 'NONE', #1003, #18, #600 ) ;
#152 = AXIS2_PLACEMENT_3D ( 'NONE', #265, #1050, #868 ) ;
#153 = AXIS2_PLACEMENT_3D ( 'NONE', #140, #748, #935 ) ;
#154 = CARTESIAN_POINT ( 'NONE',  ( 0.000000000000000000, 3.000000000000000888, 0.000000000000000000 ) ) ;
#155 = ORIENTED_EDGE ( 'NONE', *, *, #1218, .F. ) ;
#156 = DIRECTION ( 'NONE',  ( 0.000000000000000000, 1.000000000000000000, -0.000000000000000000 ) ) ;
#157 = DIRECTION ( 'NONE',  ( 0.000000000000000000, -1.000000000000000000, -7.153498870007453145E-16 ) ) ;
#158 = CARTESIAN_POINT ( 'NONE',  ( -5.323170731707318026, 0.000000000000000000, 8.108874975056313161 ) ) ;
#159 = ADVANCED_FACE ( 'NONE', ( #1009 ), #905, .F. ) ;
#160 = ORIENTED_EDGE ( 'NONE', *, *, #836, .F. ) ;
#161 = DIRECTION ( 'NONE',  ( 0.000000000000000000, 1.000000000000000000, -0.000000000000000000 ) ) ;
#162 = DIRECTION ( 'NONE',  ( 0.000000000000000000, -1.000000000000000000, 0.000000000000000000 ) ) ;
#163 = ORIENTED_EDGE ( 'NONE', *, *, #642, .T. ) ;
#164 = EDGE_CURVE ( 'NONE', #984, #1159, #991, .T. ) ;
#165 = ORIENTED_EDGE ( 'NONE', *, *, #164, .T. ) ;
#166 = CARTESIAN_POINT ( 'NONE',  ( 3.000000000000000444, 3.000000000000000000, -4.000000000000000000 ) ) ;
#167 = DIRECTION ( 'NONE',  ( -0.000000000000000000, 0.000000000000000000, -1.000000000000000000 ) ) ;
#168 = VECTOR ( 'NONE', #1005, 1000.000000000000000 ) ;
#169 = CARTESIAN_POINT ( 'NONE',  ( 0.000000000000000000, 0.000000000000000000, -12.69999999999999574 ) ) ;
#170 = CIRCLE ( 'NONE', #893, 9.699999999999997513 ) ;
#171 =( GEOMETRIC_REPRESENTATION_CONTEXT ( 3 ) GLOBAL_UNCERTAINTY_ASSIGNED_CONTEXT ( ( #635 ) ) GLOBAL_UNIT_ASSIGNED_CONTEXT ( ( #47, #1210, #128 ) ) REPRESENTATION_CONTEXT ( 'NONE', 'WORKASPACE' ) );
#172 = CIRCLE ( 'NONE', #1125, 12.69999999999999574 ) ;
#173 = AXIS2_PLACEMENT_3D ( 'NONE', #21, #1132, #248 ) ;
#174 = ORIENTED_EDGE ( 'NONE', *, *, #1186, .F. ) ;
#175 = CARTESIAN_POINT ( 'NONE',  ( 0.000000000000000000, 13.00000000000000000, 0.000000000000000000 ) ) ;
#176 = DIRECTION ( 'NONE',  ( 0.000000000000000000, -1.000000000000000000, 0.000000000000000000 ) ) ;
#177 = EDGE_CURVE ( 'NONE', #1263, #1216, #1188, .T. ) ;
#178 = CARTESIAN_POINT ( 'NONE',  ( 0.000000000000000000, 3.000000000000000000, 0.000000000000000000 ) ) ;
#179 = ORIENTED_EDGE ( 'NONE', *, *, #798, .F. ) ;
#180 = DIRECTION ( 'NONE',  ( -0.000000000000000000, -1.000000000000000000, -0.000000000000000000 ) ) ;
#181 = EDGE_CURVE ( 'NONE', #862, #582, #406, .T. ) ;
#182 = EDGE_CURVE ( 'NONE', #380, #278, #653, .T. ) ;
#183 = DIRECTION ( 'NONE',  ( 0.000000000000000000, 0.000000000000000000, 1.000000000000000000 ) ) ;
#184 = ORIENTED_EDGE ( 'NONE', *, *, #583, .T. ) ;
#185 = EDGE_LOOP ( 'NONE', ( #105, #114, #730, #1025 ) ) ;
#186 = DIRECTION ( 'NONE',  ( -1.000000000000000000, 0.000000000000000000, 0.000000000000000000 ) ) ;
#187 = DIRECTION ( 'NONE',  ( 1.000000000000000000, 0.000000000000000000, -0.000000000000000000 ) ) ;
#188 = ADVANCED_FACE ( 'NONE', ( #212 ), #607, .F. ) ;
#189 = ORIENTED_EDGE ( 'NONE', *, *, #1036, .F. ) ;
#190 = EDGE_CURVE ( 'NONE', #1162, #336, #1202, .T. ) ;
#191 = CLOSED_SHELL ( 'NONE', ( #303, #1103, #1193, #80, #906 ) ) ;
#192 = AXIS2_PLACEMENT_3D ( 'NONE', #150, #552, #942 ) ;
#193 = AXIS2_PLACEMENT_3D ( 'NONE', #441, #834, #250 ) ;
#194 = ORIENTED_EDGE ( 'NONE', *, *, #783, .F. ) ;
#195 = CARTESIAN_POINT ( 'NONE',  ( -3.000000000000000000, 6.071532165918824830E-15, -12.69999999999999396 ) ) ;
#196 = AXIS2_PLACEMENT_3D ( 'NONE', #285, #683, #463 ) ;
#197 = VECTOR ( 'NONE', #1066, 1000.000000000000000 ) ;
#198 =( GEOMETRIC_REPRESENTATION_CONTEXT ( 3 ) GLOBAL_UNCERTAINTY_ASSIGNED_CONTEXT ( ( #1051 ) ) GLOBAL_UNIT_ASSIGNED_CONTEXT ( ( #554, #226, #1114 ) ) REPRESENTATION_CONTEXT ( 'NONE', 'WORKASPACE' ) );
#199 = ORIENTED_EDGE ( 'NONE', *, *, #511, .T. ) ;
#200 = CARTESIAN_POINT ( 'NONE',  ( 4.000000000000000000, 3.000000000000000000, -3.000000000000000000 ) ) ;
#201 = FACE_OUTER_BOUND ( 'NONE', #933, .T. ) ;
#202 = EDGE_CURVE ( 'NONE', #850, #495, #246, .T. ) ;
#203 = VERTEX_POINT ( 'NONE', #354 ) ;
#204 = LINE ( 'NONE', #794, #875 ) ;
#205 = DIRECTION ( 'NONE',  ( 0.000000000000000000, 1.000000000000000000, 0.000000000000000000 ) ) ;
#206 = CARTESIAN_POINT ( 'NONE',  ( 3.000000000000000000, -6.347055489721257437, -6.543356174970376138 ) ) ;
#207 = EDGE_CURVE ( 'NONE', #430, #330, #636, .T. ) ;
#208 = ORIENTED_EDGE ( 'NONE', *, *, #346, .F. ) ;
#209 = DIRECTION ( 'NONE',  ( 0.000000000000000000, -1.000000000000000000, 0.000000000000000000 ) ) ;
#210 = ORIENTED_EDGE ( 'NONE', *, *, #267, .F. ) ;
#211 = CARTESIAN_POINT ( 'NONE',  ( 8.108874975056313161, 0.000000000000000000, 5.323170731707318026 ) ) ;
#212 = FACE_OUTER_BOUND ( 'NONE', #715, .T. ) ;
#213 = AXIS2_PLACEMENT_3D ( 'NONE', #399, #601, #393 ) ;
#214 = ORIENTED_EDGE ( 'NONE', *, *, #536, .F. ) ;
#215 = DIRECTION ( 'NONE',  ( -0.000000000000000000, -1.000000000000000000, -0.000000000000000000 ) ) ;
#216 = CIRCLE ( 'NONE', #1059, 3.000000000000000444 ) ;
#217 = VECTOR ( 'NONE', #947, 1000.000000000000000 ) ;
#218 = VERTEX_POINT ( 'NONE', #843 ) ;
#219 = DIRECTION ( 'NONE',  ( 0.000000000000000000, 0.000000000000000000, 1.000000000000000000 ) ) ;
#220 = DIRECTION ( 'NONE',  ( -0.000000000000000000, -1.000000000000000000, -0.000000000000000000 ) ) ;
#221 = ORIENTED_EDGE ( 'NONE', *, *, #1235, .F. ) ;
#222 = LINE ( 'NONE', #147, #781 ) ;
#223 = ORIENTED_EDGE ( 'NONE', *, *, #8, .F. ) ;
#224 = FILL_AREA_STYLE_COLOUR ( '', #87 ) ;
#225 = LINE ( 'NONE', #1181, #86 ) ;
#226 =( NAMED_UNIT ( * ) PLANE_ANGLE_UNIT ( ) SI_UNIT ( $, .RADIAN. ) );
#227 = EDGE_LOOP ( 'NONE', ( #76, #931, #882, #1104 ) ) ;
#228 = DIRECTION ( 'NONE',  ( 0.000000000000000000, -1.000000000000000000, 0.000000000000000000 ) ) ;
#229 = VERTEX_POINT ( 'NONE', #1023 ) ;
#230 = DIRECTION ( 'NONE',  ( 0.000000000000000000, 0.000000000000000000, -1.000000000000000000 ) ) ;
#231 = DIRECTION ( 'NONE',  ( 0.000000000000000000, 1.000000000000000000, 0.000000000000000000 ) ) ;
#232 = ORIENTED_EDGE ( 'NONE', *, *, #536, .T. ) ;
#233 = DIRECTION ( 'NONE',  ( 0.000000000000000000, 0.000000000000000000, 1.000000000000000000 ) ) ;
#234 = ORIENTED_EDGE ( 'NONE', *, *, #783, .T. ) ;
#235 = VECTOR ( 'NONE', #911, 1000.000000000000000 ) ;
#236 =( GEOMETRIC_REPRESENTATION_CONTEXT ( 3 ) GLOBAL_UNCERTAINTY_ASSIGNED_CONTEXT ( ( #675 ) ) GLOBAL_UNIT_ASSIGNED_CONTEXT ( ( #927, #333, #847 ) ) REPRESENTATION_CONTEXT ( 'NONE', 'WORKASPACE' ) );
#237 = CARTESIAN_POINT ( 'NONE',  ( 3.000000000000000444, 3.000000000000000000, 4.000000000000000000 ) ) ;
#238 = AXIS2_PLACEMENT_3D ( 'NONE', #136, #1013, #421 ) ;
#239 = FACE_OUTER_BOUND ( 'NONE', #227, .T. ) ;
#240 = CIRCLE ( 'NONE', #153, 1.499999999999999556 ) ;
#241 = EDGE_CURVE ( 'NONE', #229, #218, #1130, .T. ) ;
#242 = VERTEX_POINT ( 'NONE', #26 ) ;
#243 = LINE ( 'NONE', #639, #1228 ) ;
#244 = ORIENTED_EDGE ( 'NONE', *, *, #768, .F. ) ;
#245 = CARTESIAN_POINT ( 'NONE',  ( 4.000000000000000000, 3.000000000000000000, 3.000000000000000000 ) ) ;
#246 = LINE ( 'NONE', #1219, #674 ) ;
#247 = CARTESIAN_POINT ( 'NONE',  ( 3.000000000000000444, 0.000000000000000000, -4.000000000000000000 ) ) ;
#248 = DIRECTION ( 'NONE',  ( 0.000000000000000000, 0.000000000000000000, -1.000000000000000000 ) ) ;
#249 = EDGE_LOOP ( 'NONE', ( #407, #348, #273, #962 ) ) ;
#250 = DIRECTION ( 'NONE',  ( 0.000000000000000000, 0.000000000000000000, 1.000000000000000000 ) ) ;
#251 = FACE_OUTER_BOUND ( 'NONE', #415, .T. ) ;
#252 = CARTESIAN_POINT ( 'NONE',  ( 6.854925236645541986, 0.000000000000000000, -4.500000000000000888 ) ) ;
#253 = LINE ( 'NONE', #263, #877 ) ;
#254 = ORIENTED_EDGE ( 'NONE', *, *, #1056, .T. ) ;
#255 = DIRECTION ( 'NONE',  ( 0.000000000000000000, 1.000000000000000000, -0.000000000000000000 ) ) ;
#256 = AXIS2_PLACEMENT_3D ( 'NONE', #35, #1253, #368 ) ;
#257 = PLANE ( 'NONE',  #1121 ) ;
#258 = VECTOR ( 'NONE', #1223, 1000.000000000000000 ) ;
#259 = CARTESIAN_POINT ( 'NONE',  ( 0.000000000000000000, 0.000000000000000000, 0.000000000000000000 ) ) ;
#260 = AXIS2_PLACEMENT_3D ( 'NONE', #1045, #161, #561 ) ;
#261 = EDGE_CURVE ( 'NONE', #141, #786, #912, .T. ) ;
#262 = VECTOR ( 'NONE', #1131, 1000.000000000000000 ) ;
#263 = CARTESIAN_POINT ( 'NONE',  ( -3.000000000000000000, -0.000000000000000000, 0.000000000000000000 ) ) ;
#264 = ORIENTED_EDGE ( 'NONE', *, *, #1251, .F. ) ;
#265 = CARTESIAN_POINT ( 'NONE',  ( -6.854925236645541986, 13.00000000000000000, 4.500000000000000888 ) ) ;
#266 = CARTESIAN_POINT ( 'NONE',  ( 0.000000000000000000, 0.000000000000000000, 0.000000000000000000 ) ) ;
#267 = EDGE_CURVE ( 'NONE', #1279, #1139, #24, .T. ) ;
#268 = ORIENTED_EDGE ( 'NONE', *, *, #8, .T. ) ;
#269 = DIRECTION ( 'NONE',  ( -0.000000000000000000, 0.6962579294579278599, 0.7177916798535346476 ) ) ;
#270 = VERTEX_POINT ( 'NONE', #929 ) ;
#271 = CARTESIAN_POINT ( 'NONE',  ( 4.500000000000000888, 3.000000000000000888, -8.354925236645541986 ) ) ;
#272 = DIRECTION ( 'NONE',  ( 0.000000000000000000, 0.000000000000000000, 1.000000000000000000 ) ) ;
#273 = ORIENTED_EDGE ( 'NONE', *, *, #382, .F. ) ;
#274 = ORIENTED_EDGE ( 'NONE', *, *, #695, .F. ) ;
#275 = DIRECTION ( 'NONE',  ( -0.000000000000000000, -1.000000000000000000, -0.000000000000000000 ) ) ;
#276 = DIRECTION ( 'NONE',  ( 0.000000000000000000, -1.000000000000000000, 0.000000000000000000 ) ) ;
#277 = CIRCLE ( 'NONE', #1244, 1.000000000000000000 ) ;
#278 = VERTEX_POINT ( 'NONE', #753 ) ;
#279 = CIRCLE ( 'NONE', #130, 1.000000000000000000 ) ;
#280 = AXIS2_PLACEMENT_3D ( 'NONE', #1007, #1221, #932 ) ;
#281 = CIRCLE ( 'NONE', #841, 9.699999999999997513 ) ;
#282 = EDGE_CURVE ( 'NONE', #786, #807, #1225, .T. ) ;
#283 = ADVANCED_FACE ( 'NONE', ( #650 ), #747, .F. ) ;
#284 = ORIENTED_EDGE ( 'NONE', *, *, #335, .F. ) ;
#285 = CARTESIAN_POINT ( 'NONE',  ( 4.000000000000000000, 3.000000000000000000, -4.000000000000000000 ) ) ;
#286 = LINE ( 'NONE', #1174, #5 ) ;
#287 = ORIENTED_EDGE ( 'NONE', *, *, #797, .T. ) ;
#288 = ORIENTED_EDGE ( 'NONE', *, *, #181, .T. ) ;
#289 = DIRECTION ( 'NONE',  ( 0.000000000000000000, 0.000000000000000000, -1.000000000000000000 ) ) ;
#290 = EDGE_CURVE ( 'NONE', #462, #380, #731, .T. ) ;
#291 = ORIENTED_EDGE ( 'NONE', *, *, #1269, .F. ) ;
#292 = VERTEX_POINT ( 'NONE', #428 ) ;
#293 = PLANE ( 'NONE',  #758 ) ;
#294 = ORIENTED_EDGE ( 'NONE', *, *, #73, .F. ) ;
#295 = CARTESIAN_POINT ( 'NONE',  ( -4.500000000000000888, 13.00000000000000000, -8.354925236645541986 ) ) ;
#296 = DIRECTION ( 'NONE',  ( 0.000000000000000000, -0.7177916798535347587, 0.6962579294579277489 ) ) ;
#297 = EDGE_CURVE ( 'NONE', #846, #756, #1135, .T. ) ;
#298 = ORIENTED_EDGE ( 'NONE', *, *, #101, .F. ) ;
#299 = DIRECTION ( 'NONE',  ( 1.000000000000000000, 0.000000000000000000, -0.000000000000000000 ) ) ;
#300 = AXIS2_PLACEMENT_3D ( 'NONE', #36, #643, #540 ) ;
#301 = CARTESIAN_POINT ( 'NONE',  ( 3.000000000000000444, 0.000000000000000000, 0.000000000000000000 ) ) ;
#302 = CARTESIAN_POINT ( 'NONE',  ( -4.500000000000000888, 3.000000000000000888, -8.354925236645541986 ) ) ;
#303 = ADVANCED_FACE ( 'NONE', ( #251 ), #343, .F. ) ;
#304 = ADVANCED_FACE ( 'NONE', ( #823 ), #1034, .F. ) ;
#305 = ORIENTED_EDGE ( 'NONE', *, *, #64, .T. ) ;
#306 = CARTESIAN_POINT ( 'NONE',  ( 8.108874975056313161, 3.000000000000000888, 5.323170731707318026 ) ) ;
#307 = LINE ( 'NONE', #295, #314 ) ;
#308 = DIRECTION ( 'NONE',  ( 0.000000000000000000, 0.000000000000000000, -1.000000000000000000 ) ) ;
#309 = ORIENTED_EDGE ( 'NONE', *, *, #1274, .T. ) ;
#310 = DIRECTION ( 'NONE',  ( 0.000000000000000000, 1.000000000000000000, -0.000000000000000000 ) ) ;
#311 = CYLINDRICAL_SURFACE ( 'NONE', #504, 1.000000000000000000 ) ;
#312 = ADVANCED_FACE ( 'NONE', ( #55 ), #257, .F. ) ;
#313 = DIRECTION ( 'NONE',  ( 0.000000000000000000, 0.000000000000000000, -1.000000000000000000 ) ) ;
#314 = VECTOR ( 'NONE', #995, 1000.000000000000000 ) ;
#315 = VERTEX_POINT ( 'NONE', #1238 ) ;
#316 = DIRECTION ( 'NONE',  ( 0.000000000000000000, -1.000000000000000000, 0.000000000000000000 ) ) ;
#317 = EDGE_CURVE ( 'NONE', #444, #458, #799, .T. ) ;
#318 = VECTOR ( 'NONE', #891, 1000.000000000000000 ) ;
#319 = AXIS2_PLACEMENT_3D ( 'NONE', #808, #593, #402 ) ;
#320 = ORIENTED_EDGE ( 'NONE', *, *, #1048, .F. ) ;
#321 = DIRECTION ( 'NONE',  ( 0.000000000000000000, 0.000000000000000000, 1.000000000000000000 ) ) ;
#322 = DIRECTION ( 'NONE',  ( -0.000000000000000000, -1.000000000000000000, -0.000000000000000000 ) ) ;
#323 = ORIENTED_EDGE ( 'NONE', *, *, #657, .F. ) ;
#324 = CARTESIAN_POINT ( 'NONE',  ( -3.000000000000000000, 3.000000000000000000, -4.000000000000000000 ) ) ;
#325 = EDGE_CURVE ( 'NONE', #1087, #784, #360, .T. ) ;
#326 = ORIENTED_EDGE ( 'NONE', *, *, #688, .F. ) ;
#327 = DIRECTION ( 'NONE',  ( 0.000000000000000000, 0.000000000000000000, -1.000000000000000000 ) ) ;
#328 = CARTESIAN_POINT ( 'NONE',  ( 4.500000000000000888, 3.000000000000000888, -6.854925236645541986 ) ) ;
#329 = CARTESIAN_POINT ( 'NONE',  ( -4.000000000000000000, 3.000000000000000000, 3.000000000000000000 ) ) ;
#330 = VERTEX_POINT ( 'NONE', #1015 ) ;
#331 = CARTESIAN_POINT ( 'NONE',  ( -6.854925236645541986, 0.000000000000000000, -4.500000000000000888 ) ) ;
#332 = ORIENTED_EDGE ( 'NONE', *, *, #335, .T. ) ;
#333 =( NAMED_UNIT ( * ) PLANE_ANGLE_UNIT ( ) SI_UNIT ( $, .RADIAN. ) );
#334 = DIRECTION ( 'NONE',  ( 0.000000000000000000, 1.000000000000000000, -0.000000000000000000 ) ) ;
#335 = EDGE_CURVE ( 'NONE', #920, #61, #1075, .T. ) ;
#336 = VERTEX_POINT ( 'NONE', #1065 ) ;
#337 = DIRECTION ( 'NONE',  ( 0.000000000000000000, 0.000000000000000000, -1.000000000000000000 ) ) ;
#338 = AXIS2_PLACEMENT_3D ( 'NONE', #874, #372, #187 ) ;
#339 = ORIENTED_EDGE ( 'NONE', *, *, #1258, .T. ) ;
#340 = LINE ( 'NONE', #426, #258 ) ;
#341 = VECTOR ( 'NONE', #1120, 1000.000000000000000 ) ;
#342 = MECHANICAL_DESIGN_GEOMETRIC_PRESENTATION_REPRESENTATION (  '', ( #609 ), #171 ) ;
#343 = PLANE ( 'NONE',  #713 ) ;
#344 = AXIS2_PLACEMENT_3D ( 'NONE', #973, #395, #409 ) ;
#345 = CARTESIAN_POINT ( 'NONE',  ( 0.000000000000000000, 13.00000000000000000, 0.000000000000000000 ) ) ;
#346 = EDGE_CURVE ( 'NONE', #807, #413, #548, .T. ) ;
#347 = FACE_OUTER_BOUND ( 'NONE', #1008, .T. ) ;
#348 = ORIENTED_EDGE ( 'NONE', *, *, #511, .F. ) ;
#349 = FACE_OUTER_BOUND ( 'NONE', #605, .T. ) ;
#350 = DIRECTION ( 'NONE',  ( -0.000000000000000000, -1.000000000000000000, -0.000000000000000000 ) ) ;
#351 = DIRECTION ( 'NONE',  ( 0.000000000000000000, 0.000000000000000000, -1.000000000000000000 ) ) ;
#352 = DIRECTION ( 'NONE',  ( 0.000000000000000000, 0.000000000000000000, -1.000000000000000000 ) ) ;
#353 = VERTEX_POINT ( 'NONE', #787 ) ;
#354 = CARTESIAN_POINT ( 'NONE',  ( 3.000000000000000444, 3.000000000000000000, -4.000000000000000000 ) ) ;
#355 = EDGE_CURVE ( 'NONE', #447, #818, #377, .T. ) ;
#356 = DIRECTION ( 'NONE',  ( 0.000000000000000000, 0.000000000000000000, -1.000000000000000000 ) ) ;
#357 = ORIENTED_EDGE ( 'NONE', *, *, #956, .F. ) ;
#358 = ADVANCED_FACE ( 'NONE', ( #577 ), #361, .F. ) ;
#359 = DIRECTION ( 'NONE',  ( 0.000000000000000000, 1.000000000000000000, -0.000000000000000000 ) ) ;
#360 = CIRCLE ( 'NONE', #104, 1.500000000000000444 ) ;
#361 = PLANE ( 'NONE',  #338 ) ;
#362 = VECTOR ( 'NONE', #694, 1000.000000000000000 ) ;
#363 = EDGE_LOOP ( 'NONE', ( #125, #1273, #825, #119 ) ) ;
#364 = CIRCLE ( 'NONE', #979, 1.500000000000000444 ) ;
#365 = CARTESIAN_POINT ( 'NONE',  ( 4.000000000000000000, 3.000000000000000000, -4.000000000000000000 ) ) ;
#366 = ORIENTED_EDGE ( 'NONE', *, *, #1232, .T. ) ;
#367 = CARTESIAN_POINT ( 'NONE',  ( 4.000000000000000000, 0.000000000000000000, 4.000000000000000000 ) ) ;
#368 = DIRECTION ( 'NONE',  ( 0.000000000000000000, 0.000000000000000000, -1.000000000000000000 ) ) ;
#369 = ORIENTED_EDGE ( 'NONE', *, *, #1141, .T. ) ;
#370 = EDGE_LOOP ( 'NONE', ( #788, #861, #1233, #972 ) ) ;
#371 = FACE_OUTER_BOUND ( 'NONE', #249, .T. ) ;
#372 = DIRECTION ( 'NONE',  ( 0.000000000000000000, 0.000000000000000000, 1.000000000000000000 ) ) ;
#373 = EDGE_LOOP ( 'NONE', ( #1237, #179, #401, #640 ) ) ;
#374 = EDGE_CURVE ( 'NONE', #1209, #682, #892, .T. ) ;
#375 = EDGE_LOOP ( 'NONE', ( #988, #1028, #1240, #1000, #79, #71, #541, #369, #533, #1032, #775, #489 ) ) ;
#376 = DIRECTION ( 'NONE',  ( 0.000000000000000000, -1.000000000000000000, 0.000000000000000000 ) ) ;
#377 = LINE ( 'NONE', #1257, #974 ) ;
#378 = VECTOR ( 'NONE', #417, 1000.000000000000114 ) ;
#379 = DIRECTION ( 'NONE',  ( 0.000000000000000000, 0.000000000000000000, 1.000000000000000000 ) ) ;
#380 = VERTEX_POINT ( 'NONE', #969 ) ;
#381 = VECTOR ( 'NONE', #205, 1000.000000000000000 ) ;
#382 = EDGE_CURVE ( 'NONE', #1170, #3, #149, .T. ) ;
#383 = VECTOR ( 'NONE', #186, 1000.000000000000000 ) ;
#384 = ORIENTED_EDGE ( 'NONE', *, *, #282, .T. ) ;
#385 = CARTESIAN_POINT ( 'NONE',  ( 0.000000000000000000, 3.000000000000000888, 0.000000000000000000 ) ) ;
#386 = ORIENTED_EDGE ( 'NONE', *, *, #1004, .F. ) ;
#387 = CARTESIAN_POINT ( 'NONE',  ( 1.187907395172932002E-15, 13.00000000000000000, 9.699999999999997513 ) ) ;
#388 = ORIENTED_EDGE ( 'NONE', *, *, #695, .T. ) ;
#389 = VERTEX_POINT ( 'NONE', #677 ) ;
#390 = FACE_OUTER_BOUND ( 'NONE', #10, .T. ) ;
#391 = LINE ( 'NONE', #301, #656 ) ;
#392 = ADVANCED_FACE ( 'NONE', ( #83 ), #562, .F. ) ;
#393 = DIRECTION ( 'NONE',  ( 0.000000000000000000, 0.000000000000000000, -1.000000000000000000 ) ) ;
#394 = VERTEX_POINT ( 'NONE', #387 ) ;
#395 = DIRECTION ( 'NONE',  ( -0.000000000000000000, -1.000000000000000000, -0.000000000000000000 ) ) ;
#396 = EDGE_CURVE ( 'NONE', #330, #588, #277, .T. ) ;
#397 = ORIENTED_EDGE ( 'NONE', *, *, #435, .T. ) ;
#398 = CARTESIAN_POINT ( 'NONE',  ( 6.854925236645541986, -0.000000000000000000, -3.000000000000000000 ) ) ;
#399 = CARTESIAN_POINT ( 'NONE',  ( 6.854925236645541986, 13.00000000000000000, -4.500000000000000888 ) ) ;
#400 = AXIS2_PLACEMENT_3D ( 'NONE', #641, #334, #1029 ) ;
#401 = ORIENTED_EDGE ( 'NONE', *, *, #144, .T. ) ;
#402 = DIRECTION ( 'NONE',  ( 0.000000000000000000, 0.000000000000000000, -1.000000000000000000 ) ) ;
#403 = VECTOR ( 'NONE', #519, 1000.000000000000000 ) ;
#404 = AXIS2_PLACEMENT_3D ( 'NONE', #345, #50, #626 ) ;
#405 = CYLINDRICAL_SURFACE ( 'NONE', #777, 1.000000000000000000 ) ;
#406 = LINE ( 'NONE', #411, #378 ) ;
#407 = ORIENTED_EDGE ( 'NONE', *, *, #1113, .F. ) ;
#408 = EDGE_CURVE ( 'NONE', #143, #447, #464, .T. ) ;
#409 = DIRECTION ( 'NONE',  ( 0.000000000000000000, 0.000000000000000000, -1.000000000000000000 ) ) ;
#410 = FACE_OUTER_BOUND ( 'NONE', #802, .T. ) ;
#411 = CARTESIAN_POINT ( 'NONE',  ( -3.000000000000000000, -6.347055489721257437, -6.543356174970376138 ) ) ;
#412 = ADVANCED_FACE ( 'NONE', ( #59 ), #852, .F. ) ;
#413 = VERTEX_POINT ( 'NONE', #1242 ) ;
#414 = CARTESIAN_POINT ( 'NONE',  ( 4.500000000000000888, 0.000000000000000000, -6.854925236645541986 ) ) ;
#415 = EDGE_LOOP ( 'NONE', ( #709, #751, #20, #1092 ) ) ;
#416 = LINE ( 'NONE', #904, #1224 ) ;
#417 = DIRECTION ( 'NONE',  ( 0.000000000000000000, -0.7177916798535347587, 0.6962579294579277489 ) ) ;
#418 = EDGE_CURVE ( 'NONE', #242, #141, #1169, .T. ) ;
#419 = AXIS2_PLACEMENT_3D ( 'NONE', #859, #1156, #272 ) ;
#420 = ORIENTED_EDGE ( 'NONE', *, *, #346, .T. ) ;
#421 = DIRECTION ( 'NONE',  ( 0.000000000000000000, 0.000000000000000000, -1.000000000000000000 ) ) ;
#422 = COLOUR_RGB ( '',0.7921568627450980005, 0.8196078431372548767, 0.9333333333333333481 ) ;
#423 = EDGE_CURVE ( 'NONE', #513, #1279, #286, .T. ) ;
#424 = AXIS2_PLACEMENT_3D ( 'NONE', #1109, #228, #337 ) ;
#425 = VERTEX_POINT ( 'NONE', #1151 ) ;
#426 = CARTESIAN_POINT ( 'NONE',  ( 0.000000000000000000, 3.000000000000000000, 3.000000000000000000 ) ) ;
#427 = AXIS2_PLACEMENT_3D ( 'NONE', #133, #450, #844 ) ;
#428 = CARTESIAN_POINT ( 'NONE',  ( 3.000000000000000444, 0.000000000000000000, -6.854925236645541986 ) ) ;
#429 = LINE ( 'NONE', #1212, #1128 ) ;
#430 = VERTEX_POINT ( 'NONE', #773 ) ;
#431 = CARTESIAN_POINT ( 'NONE',  ( 4.500000000000000888, 13.00000000000000000, -6.854925236645541986 ) ) ;
#432 = ORIENTED_EDGE ( 'NONE', *, *, #627, .F. ) ;
#433 = ADVANCED_FACE ( 'NONE', ( #953 ), #1161, .F. ) ;
#434 = LINE ( 'NONE', #752, #1165 ) ;
#435 = EDGE_CURVE ( 'NONE', #336, #495, #170, .T. ) ;
#436 = CARTESIAN_POINT ( 'NONE',  ( -3.000000000000000000, 2.646977960179318209E-21, -3.000000000000000000 ) ) ;
#437 = DIRECTION ( 'NONE',  ( -1.000000000000000000, 0.000000000000000000, 0.000000000000000000 ) ) ;
#438 = ORIENTED_EDGE ( 'NONE', *, *, #622, .T. ) ;
#439 = CARTESIAN_POINT ( 'NONE',  ( 0.000000000000000000, 3.000000000000000000, -3.000000000000000000 ) ) ;
#440 = ORIENTED_EDGE ( 'NONE', *, *, #642, .F. ) ;
#441 = CARTESIAN_POINT ( 'NONE',  ( -4.000000000000000000, 0.000000000000000000, -4.000000000000000000 ) ) ;
#442 = CARTESIAN_POINT ( 'NONE',  ( 0.000000000000000000, 3.000000000000000000, -3.000000000000000444 ) ) ;
#443 = PLANE ( 'NONE',  #573 ) ;
#444 = VERTEX_POINT ( 'NONE', #1069 ) ;
#445 = DIRECTION ( 'NONE',  ( -1.000000000000000000, 0.000000000000000000, 0.000000000000000000 ) ) ;
#446 = CIRCLE ( 'NONE', #1055, 1.500000000000000000 ) ;
#447 = VERTEX_POINT ( 'NONE', #869 ) ;
#448 = CIRCLE ( 'NONE', #7, 9.699999999999997513 ) ;
#449 = DIRECTION ( 'NONE',  ( 0.000000000000000000, 7.153498870007453145E-16, -1.000000000000000000 ) ) ;
#450 = DIRECTION ( 'NONE',  ( 0.000000000000000000, 1.000000000000000000, -0.000000000000000000 ) ) ;
#451 = DIRECTION ( 'NONE',  ( 0.000000000000000000, 0.000000000000000000, -1.000000000000000000 ) ) ;
#452 = EDGE_CURVE ( 'NONE', #807, #242, #446, .T. ) ;
#453 = PRODUCT_DEFINITION_CONTEXT ( 'detailed design', #980, 'design' ) ;
#454 = DIRECTION ( 'NONE',  ( 1.000000000000000000, 0.000000000000000000, -0.000000000000000000 ) ) ;
#455 = LINE ( 'NONE', #824, #262 ) ;
#456 = ADVANCED_FACE ( 'NONE', ( #110 ), #405, .F. ) ;
#457 = CARTESIAN_POINT ( 'NONE',  ( -3.000000000000000000, -6.347055489721257437, -6.543356174970376138 ) ) ;
#458 = VERTEX_POINT ( 'NONE', #496 ) ;
#459 = CARTESIAN_POINT ( 'NONE',  ( 0.000000000000000000, 3.000000000000000000, -3.000000000000000000 ) ) ;
#460 = DIRECTION ( 'NONE',  ( 0.000000000000000000, 0.000000000000000000, -1.000000000000000000 ) ) ;
#461 = EDGE_CURVE ( 'NONE', #143, #518, #307, .T. ) ;
#462 = VERTEX_POINT ( 'NONE', #707 ) ;
#463 = DIRECTION ( 'NONE',  ( 0.000000000000000000, 0.000000000000000000, -1.000000000000000000 ) ) ;
#464 = CIRCLE ( 'NONE', #587, 1.500000000000000444 ) ;
#465 = CARTESIAN_POINT ( 'NONE',  ( 4.000000000000000000, 3.000000000000000000, 4.000000000000000000 ) ) ;
#466 = EDGE_LOOP ( 'NONE', ( #789, #1194, #693, #1249, #432, #1129, #109, #856, #357, #854, #771, #878, #1254, #33, #1198, #208, #1148, #326, #1095, #84, #560, #284, #645, #774, #94, #793, #1175, #88 ) ) ;
#467 = CIRCLE ( 'NONE', #631, 9.699999999999997513 ) ;
#468 = AXIS2_PLACEMENT_3D ( 'NONE', #685, #1278, #478 ) ;
#469 = AXIS2_PLACEMENT_3D ( 'NONE', #365, #845, #352 ) ;
#470 = VERTEX_POINT ( 'NONE', #1089 ) ;
#471 = DIRECTION ( 'NONE',  ( 0.000000000000000000, -1.000000000000000000, 0.000000000000000000 ) ) ;
#472 = EDGE_CURVE ( 'NONE', #353, #462, #1035, .T. ) ;
#473 = DIRECTION ( 'NONE',  ( -0.000000000000000000, 1.000000000000000000, -0.000000000000000000 ) ) ;
#474 = LINE ( 'NONE', #1047, #197 ) ;
#475 = ORIENTED_EDGE ( 'NONE', *, *, #1071, .F. ) ;
#476 = LINE ( 'NONE', #968, #1247 ) ;
#477 = DIRECTION ( 'NONE',  ( 0.000000000000000000, 0.000000000000000000, 1.000000000000000000 ) ) ;
#478 = DIRECTION ( 'NONE',  ( 0.000000000000000000, 0.000000000000000000, 1.000000000000000000 ) ) ;
#479 = VERTEX_POINT ( 'NONE', #97 ) ;
#480 = FACE_OUTER_BOUND ( 'NONE', #994, .T. ) ;
#481 = CARTESIAN_POINT ( 'NONE',  ( 0.000000000000000000, 3.000000000000000888, 0.000000000000000000 ) ) ;
#482 = VECTOR ( 'NONE', #557, 1000.000000000000000 ) ;
#483 = ORIENTED_EDGE ( 'NONE', *, *, #583, .F. ) ;
#484 = AXIS2_PLACEMENT_3D ( 'NONE', #813, #1201, #321 ) ;
#485 = CIRCLE ( 'NONE', #1204, 1.500000000000000000 ) ;
#486 = ORIENTED_EDGE ( 'NONE', *, *, #983, .T. ) ;
#487 = DIRECTION ( 'NONE',  ( 0.000000000000000000, -1.000000000000000000, 0.000000000000000000 ) ) ;
#488 = EDGE_CURVE ( 'NONE', #666, #389, #416, .T. ) ;
#489 = ORIENTED_EDGE ( 'NONE', *, *, #732, .T. ) ;
#490 = DIRECTION ( 'NONE',  ( 0.000000000000000000, 0.000000000000000000, -1.000000000000000000 ) ) ;
#491 = ORIENTED_EDGE ( 'NONE', *, *, #870, .T. ) ;
#492 = ADVANCED_FACE ( 'NONE', ( #976 ), #311, .F. ) ;
#493 = ORIENTED_EDGE ( 'NONE', *, *, #1178, .F. ) ;
#494 = LINE ( 'NONE', #701, #1099 ) ;
#495 = VERTEX_POINT ( 'NONE', #211 ) ;
#496 = CARTESIAN_POINT ( 'NONE',  ( 3.000000000000000444, 3.000000000000000000, 6.854925236645541986 ) ) ;
#497 = CARTESIAN_POINT ( 'NONE',  ( 3.000000000000000444, 3.000000000000004441, -6.854925236645541986 ) ) ;
#498 = VERTEX_POINT ( 'NONE', #1180 ) ;
#499 = CARTESIAN_POINT ( 'NONE',  ( 3.000000000000000444, 3.000000000000000000, 0.000000000000000000 ) ) ;
#500 = ADVANCED_FACE ( 'NONE', ( #410 ), #1185, .T. ) ;
#501 = DIRECTION ( 'NONE',  ( 1.000000000000000000, 0.000000000000000000, 0.000000000000000000 ) ) ;
#502 = CARTESIAN_POINT ( 'NONE',  ( 0.000000000000000000, 0.000000000000000000, 0.000000000000000000 ) ) ;
#503 = AXIS2_PLACEMENT_3D ( 'NONE', #6, #795, #899 ) ;
#504 = AXIS2_PLACEMENT_3D ( 'NONE', #515, #12, #219 ) ;
#505 = MECHANICAL_DESIGN_GEOMETRIC_PRESENTATION_REPRESENTATION (  '', ( #915 ), #236 ) ;
#506 = EDGE_LOOP ( 'NONE', ( #632, #745, #665, #662 ) ) ;
#507 = FACE_OUTER_BOUND ( 'NONE', #909, .T. ) ;
#508 = EDGE_LOOP ( 'NONE', ( #1260, #1126, #978, #116 ) ) ;
#509 = CARTESIAN_POINT ( 'NONE',  ( -4.000000000000000000, 0.000000000000000000, 3.000000000000000000 ) ) ;
#510 = EDGE_CURVE ( 'NONE', #818, #1101, #279, .T. ) ;
#511 = EDGE_CURVE ( 'NONE', #3, #498, #719, .T. ) ;
#512 = DIRECTION ( 'NONE',  ( 0.000000000000000000, 0.000000000000000000, -1.000000000000000000 ) ) ;
#513 = VERTEX_POINT ( 'NONE', #509 ) ;
#514 = DIRECTION ( 'NONE',  ( 0.000000000000000000, 0.000000000000000000, 1.000000000000000000 ) ) ;
#515 = CARTESIAN_POINT ( 'NONE',  ( -4.000000000000000000, 3.000000000000000000, -4.000000000000000000 ) ) ;
#516 = PLANE ( 'NONE',  #2 ) ;
#517 = EDGE_CURVE ( 'NONE', #315, #513, #570, .T. ) ;
#518 = VERTEX_POINT ( 'NONE', #711 ) ;
#519 = DIRECTION ( 'NONE',  ( -0.000000000000000000, -1.000000000000000000, -0.000000000000000000 ) ) ;
#520 = ORIENTED_EDGE ( 'NONE', *, *, #517, .T. ) ;
#521 = CARTESIAN_POINT ( 'NONE',  ( 0.000000000000000000, 3.000000000000000000, 0.000000000000000000 ) ) ;
#522 = DIRECTION ( 'NONE',  ( 0.000000000000000000, -1.000000000000000000, 0.000000000000000000 ) ) ;
#523 = CARTESIAN_POINT ( 'NONE',  ( 5.323170731707317138, 13.00000000000000000, -8.108874975056313161 ) ) ;
#524 = AXIS2_PLACEMENT_3D ( 'NONE', #266, #767, #477 ) ;
#525 = ORIENTED_EDGE ( 'NONE', *, *, #1010, .F. ) ;
#526 = CARTESIAN_POINT ( 'NONE',  ( 0.000000000000000000, 13.00000000000000000, -9.699999999999997513 ) ) ;
#527 = CIRCLE ( 'NONE', #975, 12.69999999999999574 ) ;
#528 = VERTEX_POINT ( 'NONE', #398 ) ;
#529 = FILL_AREA_STYLE_COLOUR ( '', #422 ) ;
#530 = EDGE_CURVE ( 'NONE', #413, #971, #880, .T. ) ;
#531 = DIRECTION ( 'NONE',  ( 0.000000000000000000, 0.000000000000000000, -1.000000000000000000 ) ) ;
#532 = DIRECTION ( 'NONE',  ( 0.000000000000000000, -1.000000000000000000, 0.000000000000000000 ) ) ;
#533 = ORIENTED_EDGE ( 'NONE', *, *, #202, .T. ) ;
#534 = LINE ( 'NONE', #1230, #1229 ) ;
#535 = EDGE_CURVE ( 'NONE', #292, #1170, #391, .T. ) ;
#536 = EDGE_CURVE ( 'NONE', #430, #1162, #702, .T. ) ;
#537 = ORIENTED_EDGE ( 'NONE', *, *, #177, .F. ) ;
#538 = SURFACE_STYLE_FILL_AREA ( #634 ) ;
#539 = CARTESIAN_POINT ( 'NONE',  ( -4.500000000000000888, 13.00000000000000000, -6.854925236645541986 ) ) ;
#540 = DIRECTION ( 'NONE',  ( 0.000000000000000000, -1.000000000000000000, -1.301042606982605321E-16 ) ) ;
#541 = ORIENTED_EDGE ( 'NONE', *, *, #1048, .T. ) ;
#542 = DIRECTION ( 'NONE',  ( 0.000000000000000000, -1.000000000000000000, 0.000000000000000000 ) ) ;
#543 = ORIENTED_EDGE ( 'NONE', *, *, #1042, .F. ) ;
#544 = CARTESIAN_POINT ( 'NONE',  ( -4.000000000000000000, 3.000000000000000000, 4.000000000000000000 ) ) ;
#545 = CARTESIAN_POINT ( 'NONE',  ( 8.108874975056313161, 0.000000000000000000, -5.323170731707318026 ) ) ;
#546 = EDGE_CURVE ( 'NONE', #336, #444, #613, .T. ) ;
#547 = FACE_OUTER_BOUND ( 'NONE', #363, .T. ) ;
#548 = CIRCLE ( 'NONE', #996, 9.699999999999997513 ) ;
#549 = EDGE_LOOP ( 'NONE', ( #1171, #520, #486, #579, #305, #268 ) ) ;
#550 = DIRECTION ( 'NONE',  ( -0.000000000000000000, -1.000000000000000000, -0.000000000000000000 ) ) ;
#551 = AXIS2_PLACEMENT_3D ( 'NONE', #809, #1196, #804 ) ;
#552 = DIRECTION ( 'NONE',  ( 1.000000000000000000, 0.000000000000000000, -0.000000000000000000 ) ) ;
#553 = CIRCLE ( 'NONE', #801, 1.500000000000000444 ) ;
#554 =( LENGTH_UNIT ( ) NAMED_UNIT ( * ) SI_UNIT ( .MILLI., .METRE. ) );
#555 = DIRECTION ( 'NONE',  ( -1.000000000000000000, 0.000000000000000000, 0.000000000000000000 ) ) ;
#556 = FACE_OUTER_BOUND ( 'NONE', #185, .T. ) ;
#557 = DIRECTION ( 'NONE',  ( 1.000000000000000000, 0.000000000000000000, 0.000000000000000000 ) ) ;
#558 = DIRECTION ( 'NONE',  ( 1.000000000000000000, 0.000000000000000000, 0.000000000000000000 ) ) ;
#559 = CYLINDRICAL_SURFACE ( 'NONE', #699, 12.69999999999999574 ) ;
#560 = ORIENTED_EDGE ( 'NONE', *, *, #1010, .T. ) ;
#561 = DIRECTION ( 'NONE',  ( 0.000000000000000000, 0.000000000000000000, 1.000000000000000000 ) ) ;
#562 = CYLINDRICAL_SURFACE ( 'NONE', #1016, 1.000000000000000000 ) ;
#563 = ORIENTED_EDGE ( 'NONE', *, *, #704, .F. ) ;
#564 = EDGE_CURVE ( 'NONE', #270, #292, #67, .T. ) ;
#565 = ORIENTED_EDGE ( 'NONE', *, *, #190, .F. ) ;
#566 = DIRECTION ( 'NONE',  ( -1.000000000000000000, 0.000000000000000000, 0.000000000000000000 ) ) ;
#567 = VECTOR ( 'NONE', #296, 1000.000000000000114 ) ;
#568 = AXIS2_PLACEMENT_3D ( 'NONE', #658, #1041, #1112 ) ;
#569 = CARTESIAN_POINT ( 'NONE',  ( -6.854925236645541986, 3.469446951953614189E-15, 3.000000000000000000 ) ) ;
#570 = CIRCLE ( 'NONE', #551, 1.000000000000000000 ) ;
#571 = FACE_BOUND ( 'NONE', #967, .T. ) ;
#572 = CIRCLE ( 'NONE', #27, 9.699999999999997513 ) ;
#573 = AXIS2_PLACEMENT_3D ( 'NONE', #651, #28, #1227 ) ;
#574 = ORIENTED_EDGE ( 'NONE', *, *, #1094, .T. ) ;
#575 = LINE ( 'NONE', #166, #1145 ) ;
#576 = EDGE_CURVE ( 'NONE', #582, #29, #990, .T. ) ;
#577 = FACE_OUTER_BOUND ( 'NONE', #770, .T. ) ;
#578 = ORIENTED_EDGE ( 'NONE', *, *, #73, .T. ) ;
#579 = ORIENTED_EDGE ( 'NONE', *, *, #261, .T. ) ;
#580 = CARTESIAN_POINT ( 'NONE',  ( 1.555301434917137841E-15, 13.00000000000000000, 12.69999999999999574 ) ) ;
#581 = DIRECTION ( 'NONE',  ( 1.000000000000000000, 0.000000000000000000, -0.000000000000000000 ) ) ;
#582 = VERTEX_POINT ( 'NONE', #117 ) ;
#583 = EDGE_CURVE ( 'NONE', #984, #971, #779, .T. ) ;
#584 = ORIENTED_EDGE ( 'NONE', *, *, #1027, .F. ) ;
#585 = DIRECTION ( 'NONE',  ( 0.000000000000000000, 0.000000000000000000, -1.000000000000000000 ) ) ;
#586 = DIRECTION ( 'NONE',  ( 0.000000000000000000, 0.000000000000000000, -1.000000000000000000 ) ) ;
#587 = AXIS2_PLACEMENT_3D ( 'NONE', #759, #780, #74 ) ;
#588 = VERTEX_POINT ( 'NONE', #245 ) ;
#589 = EDGE_CURVE ( 'NONE', #394, #920, #434, .T. ) ;
#590 = VECTOR ( 'NONE', #985, 1000.000000000000000 ) ;
#591 = AXIS2_PLACEMENT_3D ( 'NONE', #16, #1074, #585 ) ;
#592 = ORIENTED_EDGE ( 'NONE', *, *, #461, .T. ) ;
#593 = DIRECTION ( 'NONE',  ( 1.000000000000000000, -0.000000000000000000, 0.000000000000000000 ) ) ;
#594 = EDGE_LOOP ( 'NONE', ( #210, #53, #896, #885 ) ) ;
#595 = CARTESIAN_POINT ( 'NONE',  ( 3.000000000000000444, 3.000000000000000000, 0.000000000000000000 ) ) ;
#596 = FACE_BOUND ( 'NONE', #549, .T. ) ;
#597 = MANIFOLD_SOLID_BREP ( 'Ressalto-extrusão8', #191 ) ;
#598 = ORIENTED_EDGE ( 'NONE', *, *, #1027, .T. ) ;
#599 = CARTESIAN_POINT ( 'NONE',  ( -8.108874975056313161, 3.000000000000000888, 5.323170731707318026 ) ) ;
#600 = DIRECTION ( 'NONE',  ( 0.000000000000000000, 0.000000000000000000, 1.000000000000000000 ) ) ;
#601 = DIRECTION ( 'NONE',  ( -0.000000000000000000, -1.000000000000000000, -0.000000000000000000 ) ) ;
#602 = ORIENTED_EDGE ( 'NONE', *, *, #535, .F. ) ;
#603 = CARTESIAN_POINT ( 'NONE',  ( -3.000000000000000000, 3.000000000000000000, -4.000000000000000000 ) ) ;
#604 = ADVANCED_FACE ( 'NONE', ( #349 ), #122, .F. ) ;
#605 = EDGE_LOOP ( 'NONE', ( #155, #1166, #1220, #493 ) ) ;
#606 = DIRECTION ( 'NONE',  ( 0.000000000000000000, -1.000000000000000000, 0.000000000000000000 ) ) ;
#607 = CYLINDRICAL_SURFACE ( 'NONE', #1097, 1.500000000000000444 ) ;
#608 = AXIS2_PLACEMENT_3D ( 'NONE', #684, #664, #63 ) ;
#609 = STYLED_ITEM ( 'NONE', ( #1111 ), #597 ) ;
#610 = CIRCLE ( 'NONE', #132, 1.499999999999999556 ) ;
#611 = VERTEX_POINT ( 'NONE', #41 ) ;
#612 = DIRECTION ( 'NONE',  ( 0.000000000000000000, 0.000000000000000000, -1.000000000000000000 ) ) ;
#613 = LINE ( 'NONE', #791, #381 ) ;
#614 = DIRECTION ( 'NONE',  ( 0.000000000000000000, 1.000000000000000000, -0.000000000000000000 ) ) ;
#615 = ORIENTED_EDGE ( 'NONE', *, *, #297, .F. ) ;
#616 = DIRECTION ( 'NONE',  ( 0.000000000000000000, 0.000000000000000000, 1.000000000000000000 ) ) ;
#617 = ORIENTED_EDGE ( 'NONE', *, *, #999, .F. ) ;
#618 = SURFACE_STYLE_USAGE ( .BOTH. , #647 ) ;
#619 = FACE_BOUND ( 'NONE', #898, .T. ) ;
#620 = CARTESIAN_POINT ( 'NONE',  ( -3.000000000000000000, 0.000000000000000000, 6.854925236645541986 ) ) ;
#621 = ORIENTED_EDGE ( 'NONE', *, *, #382, .T. ) ;
#622 = EDGE_CURVE ( 'NONE', #462, #353, #216, .T. ) ;
#623 = CYLINDRICAL_SURFACE ( 'NONE', #238, 3.000000000000000444 ) ;
#624 = ORIENTED_EDGE ( 'NONE', *, *, #164, .F. ) ;
#625 = DIRECTION ( 'NONE',  ( 0.000000000000000000, 0.000000000000000000, -1.000000000000000000 ) ) ;
#626 = DIRECTION ( 'NONE',  ( 0.000000000000000000, 0.000000000000000000, 1.000000000000000000 ) ) ;
#627 = EDGE_CURVE ( 'NONE', #1087, #203, #746, .T. ) ;
#628 = VECTOR ( 'NONE', #9, 1000.000000000000000 ) ;
#629 = VERTEX_POINT ( 'NONE', #739 ) ;
#630 = FACE_OUTER_BOUND ( 'NONE', #821, .T. ) ;
#631 = AXIS2_PLACEMENT_3D ( 'NONE', #785, #1172, #289 ) ;
#632 = ORIENTED_EDGE ( 'NONE', *, *, #107, .F. ) ;
#633 = AXIS2_PLACEMENT_3D ( 'NONE', #178, #1106, #1079 ) ;
#634 = FILL_AREA_STYLE ('',( #224 ) ) ;
#635 = UNCERTAINTY_MEASURE_WITH_UNIT (LENGTH_MEASURE( 1.000000000000000082E-05 ), #47, 'distance_accuracy_value', 'NONE');
#636 = LINE ( 'NONE', #237, #696 ) ;
#637 = DIRECTION ( 'NONE',  ( -0.000000000000000000, -1.000000000000000000, -0.000000000000000000 ) ) ;
#638 = ORIENTED_EDGE ( 'NONE', *, *, #945, .T. ) ;
#639 = CARTESIAN_POINT ( 'NONE',  ( 3.000000000000000000, -2.146049661002236239E-15, -1.535176382495937372E-30 ) ) ;
#640 = ORIENTED_EDGE ( 'NONE', *, *, #648, .T. ) ;
#641 = CARTESIAN_POINT ( 'NONE',  ( -6.854925236645541986, 0.000000000000000000, 4.500000000000000888 ) ) ;
#642 = EDGE_CURVE ( 'NONE', #57, #470, #1265, .T. ) ;
#643 = DIRECTION ( 'NONE',  ( 0.000000000000000000, -1.301042606982605321E-16, 1.000000000000000000 ) ) ;
#644 = DIRECTION ( 'NONE',  ( 1.000000000000000000, 0.000000000000000000, -0.000000000000000000 ) ) ;
#645 = ORIENTED_EDGE ( 'NONE', *, *, #732, .F. ) ;
#646 = EDGE_CURVE ( 'NONE', #881, #588, #340, .T. ) ;
#647 = SURFACE_SIDE_STYLE ('',( #538 ) ) ;
#648 = EDGE_CURVE ( 'NONE', #37, #389, #527, .T. ) ;
#649 = MANIFOLD_SOLID_BREP ( 'Filete2', #796 ) ;
#650 = FACE_OUTER_BOUND ( 'NONE', #876, .T. ) ;
#651 = CARTESIAN_POINT ( 'NONE',  ( 0.000000000000000000, 3.000000000000000000, 3.000000000000000000 ) ) ;
#652 = DIRECTION ( 'NONE',  ( 0.000000000000000000, 0.000000000000000000, -1.000000000000000000 ) ) ;
#653 = CIRCLE ( 'NONE', #1143, 3.000000000000000444 ) ;
#654 = EDGE_LOOP ( 'NONE', ( #924, #700, #65, #1207 ) ) ;
#655 = CARTESIAN_POINT ( 'NONE',  ( -8.108874975056313161, 0.000000000000000000, 5.323170731707318026 ) ) ;
#656 = VECTOR ( 'NONE', #1096, 1000.000000000000000 ) ;
#657 = EDGE_CURVE ( 'NONE', #278, #380, #1226, .T. ) ;
#658 = CARTESIAN_POINT ( 'NONE',  ( 4.500000000000000888, 3.000000000000000888, 6.854925236645541986 ) ) ;
#659 = VECTOR ( 'NONE', #316, 1000.000000000000000 ) ;
#660 = EDGE_CURVE ( 'NONE', #394, #1057, #572, .T. ) ;
#661 = FACE_OUTER_BOUND ( 'NONE', #373, .T. ) ;
#662 = ORIENTED_EDGE ( 'NONE', *, *, #177, .T. ) ;
#663 = CYLINDRICAL_SURFACE ( 'NONE', #1017, 9.699999999999997513 ) ;
#664 = DIRECTION ( 'NONE',  ( -0.000000000000000000, -1.000000000000000000, -0.000000000000000000 ) ) ;
#665 = ORIENTED_EDGE ( 'NONE', *, *, #25, .T. ) ;
#666 = VERTEX_POINT ( 'NONE', #580 ) ;
#667 = CYLINDRICAL_SURFACE ( 'NONE', #196, 1.000000000000000000 ) ;
#668 = DIRECTION ( 'NONE',  ( -0.000000000000000000, 1.000000000000000000, 0.000000000000000000 ) ) ;
#669 = PRODUCT_CONTEXT ( 'NONE', #914, 'mechanical' ) ;
#670 = CARTESIAN_POINT ( 'NONE',  ( -3.000000000000000000, 6.071532165918824830E-15, -12.69999999999999396 ) ) ;
#671 = ADVANCED_FACE ( 'NONE', ( #556 ), #766, .F. ) ;
#672 = ORIENTED_EDGE ( 'NONE', *, *, #530, .F. ) ;
#673 = DIRECTION ( 'NONE',  ( 0.000000000000000000, 0.000000000000000000, -1.000000000000000000 ) ) ;
#674 = VECTOR ( 'NONE', #350, 1000.000000000000000 ) ;
#675 = UNCERTAINTY_MEASURE_WITH_UNIT (LENGTH_MEASURE( 1.000000000000000082E-05 ), #927, 'distance_accuracy_value', 'NONE');
#676 = AXIS2_PLACEMENT_3D ( 'NONE', #910, #1118, #757 ) ;
#677 = CARTESIAN_POINT ( 'NONE',  ( 1.555301434917137841E-15, 0.000000000000000000, 12.69999999999999574 ) ) ;
#678 = CIRCLE ( 'NONE', #90, 1.500000000000000444 ) ;
#679 = ORIENTED_EDGE ( 'NONE', *, *, #461, .F. ) ;
#680 = AXIS2_PLACEMENT_3D ( 'NONE', #1068, #1183, #1195 ) ;
#681 = VECTOR ( 'NONE', #532, 1000.000000000000000 ) ;
#682 = VERTEX_POINT ( 'NONE', #959 ) ;
#683 = DIRECTION ( 'NONE',  ( 0.000000000000000000, -1.000000000000000000, 0.000000000000000000 ) ) ;
#684 = CARTESIAN_POINT ( 'NONE',  ( -6.854925236645541986, 13.00000000000000000, -4.500000000000000888 ) ) ;
#685 = CARTESIAN_POINT ( 'NONE',  ( -4.500000000000000888, 0.000000000000000000, 6.854925236645541986 ) ) ;
#686 = ORIENTED_EDGE ( 'NONE', *, *, #806, .T. ) ;
#687 = CARTESIAN_POINT ( 'NONE',  ( -6.854925236645541986, 3.000000000000000888, -4.500000000000000888 ) ) ;
#688 = EDGE_CURVE ( 'NONE', #1279, #242, #476, .T. ) ;
#689 = DIRECTION ( 'NONE',  ( 0.000000000000000000, 1.000000000000000000, -0.000000000000000000 ) ) ;
#690 = ORIENTED_EDGE ( 'NONE', *, *, #1213, .T. ) ;
#691 = EDGE_LOOP ( 'NONE', ( #866, #339 ) ) ;
#692 = CARTESIAN_POINT ( 'NONE',  ( 6.854925236645541986, 3.000000000000000888, 4.500000000000000888 ) ) ;
#693 = ORIENTED_EDGE ( 'NONE', *, *, #704, .T. ) ;
#694 = DIRECTION ( 'NONE',  ( 0.000000000000000000, 0.000000000000000000, 1.000000000000000000 ) ) ;
#695 = EDGE_CURVE ( 'NONE', #888, #518, #1268, .T. ) ;
#696 = VECTOR ( 'NONE', #830, 1000.000000000000000 ) ;
#697 = DIRECTION ( 'NONE',  ( 0.000000000000000000, 1.000000000000000000, -0.000000000000000000 ) ) ;
#698 = AXIS2_PLACEMENT_3D ( 'NONE', #367, #255, #1058 ) ;
#699 = AXIS2_PLACEMENT_3D ( 'NONE', #849, #1043, #652 ) ;
#700 = ORIENTED_EDGE ( 'NONE', *, *, #916, .F. ) ;
#701 = CARTESIAN_POINT ( 'NONE',  ( -4.000000000000000000, 0.000000000000000000, -3.000000000000000000 ) ) ;
#702 = LINE ( 'NONE', #1084, #362 ) ;
#703 = CARTESIAN_POINT ( 'NONE',  ( -3.000000000000000000, 3.000000000000000000, 4.000000000000000000 ) ) ;
#704 = EDGE_CURVE ( 'NONE', #954, #498, #1167, .T. ) ;
#705 = ORIENTED_EDGE ( 'NONE', *, *, #297, .T. ) ;
#706 = FACE_OUTER_BOUND ( 'NONE', #654, .T. ) ;
#707 = CARTESIAN_POINT ( 'NONE',  ( 0.000000000000000000, 3.000000000000000000, -3.000000000000000444 ) ) ;
#708 = FACE_BOUND ( 'NONE', #1176, .T. ) ;
#709 = ORIENTED_EDGE ( 'NONE', *, *, #241, .T. ) ;
#710 = CYLINDRICAL_SURFACE ( 'NONE', #1038, 1.500000000000000000 ) ;
#711 = CARTESIAN_POINT ( 'NONE',  ( -4.500000000000000888, 0.000000000000000000, -8.354925236645541986 ) ) ;
#712 = CARTESIAN_POINT ( 'NONE',  ( 0.000000000000000000, 13.00000000000000000, -12.69999999999999574 ) ) ;
#713 = AXIS2_PLACEMENT_3D ( 'NONE', #741, #157, #449 ) ;
#714 = AXIS2_PLACEMENT_3D ( 'NONE', #23, #550, #230 ) ;
#715 = EDGE_LOOP ( 'NONE', ( #718, #1070, #565, #992 ) ) ;
#716 = CARTESIAN_POINT ( 'NONE',  ( -4.000000000000000000, 3.000000000000000000, -3.000000000000000000 ) ) ;
#717 = AXIS2_PLACEMENT_3D ( 'NONE', #457, #269, #1236 ) ;
#718 = ORIENTED_EDGE ( 'NONE', *, *, #317, .F. ) ;
#719 = LINE ( 'NONE', #200, #318 ) ;
#720 = DIRECTION ( 'NONE',  ( 1.000000000000000000, -0.000000000000000000, 0.000000000000000000 ) ) ;
#721 = DIRECTION ( 'NONE',  ( 0.000000000000000000, 1.000000000000000000, -0.000000000000000000 ) ) ;
#722 = ORIENTED_EDGE ( 'NONE', *, *, #374, .T. ) ;
#723 = DIRECTION ( 'NONE',  ( 0.000000000000000000, 1.000000000000000000, -0.000000000000000000 ) ) ;
#724 = ORIENTED_EDGE ( 'NONE', *, *, #1258, .F. ) ;
#725 = SURFACE_SIDE_STYLE ('',( #921 ) ) ;
#726 = EDGE_CURVE ( 'NONE', #203, #1170, #575, .T. ) ;
#727 = DIRECTION ( 'NONE',  ( 0.000000000000000000, -1.000000000000000000, 0.000000000000000000 ) ) ;
#728 = EDGE_LOOP ( 'NONE', ( #1006, #584, #440, #1200 ) ) ;
#729 = CYLINDRICAL_SURFACE ( 'NONE', #1231, 1.500000000000000444 ) ;
#730 = ORIENTED_EDGE ( 'NONE', *, *, #261, .F. ) ;
#731 = LINE ( 'NONE', #442, #341 ) ;
#732 = EDGE_CURVE ( 'NONE', #444, #920, #448, .T. ) ;
#733 = APPLICATION_PROTOCOL_DEFINITION ( 'draft international standard', 'automotive_design', 1998, #914 ) ;
#734 = AXIS2_PLACEMENT_3D ( 'NONE', #894, #614, #997 ) ;
#735 = ORIENTED_EDGE ( 'NONE', *, *, #660, .F. ) ;
#736 = CARTESIAN_POINT ( 'NONE',  ( -8.108874975056313161, 0.000000000000000000, -5.323170731707318026 ) ) ;
#737 = AXIS2_PLACEMENT_3D ( 'NONE', #1140, #857, #1261 ) ;
#738 = EDGE_LOOP ( 'NONE', ( #724, #946, #287, #963 ) ) ;
#739 = CARTESIAN_POINT ( 'NONE',  ( 3.000000000000000000, 6.071532165918824830E-15, -12.69999999999999396 ) ) ;
#740 = CIRCLE ( 'NONE', #173, 1.500000000000000444 ) ;
#741 = CARTESIAN_POINT ( 'NONE',  ( -3.000000000000000000, -2.146049661002236239E-15, -1.535176382495937372E-30 ) ) ;
#742 = LINE ( 'NONE', #943, #681 ) ;
#743 = ADVANCED_FACE ( 'NONE', ( #72, #863 ), #851, .T. ) ;
#744 = LINE ( 'NONE', #30, #1206 ) ;
#745 = ORIENTED_EDGE ( 'NONE', *, *, #124, .T. ) ;
#746 = LINE ( 'NONE', #1134, #1076 ) ;
#747 = CYLINDRICAL_SURFACE ( 'NONE', #129, 1.500000000000000444 ) ;
#748 = DIRECTION ( 'NONE',  ( 0.000000000000000000, 1.000000000000000000, -0.000000000000000000 ) ) ;
#749 = DIRECTION ( 'NONE',  ( 0.000000000000000000, -1.000000000000000000, 0.000000000000000000 ) ) ;
#750 = EDGE_CURVE ( 'NONE', #229, #582, #964, .T. ) ;
#751 = ORIENTED_EDGE ( 'NONE', *, *, #987, .T. ) ;
#752 = CARTESIAN_POINT ( 'NONE',  ( 1.187907395172932002E-15, 13.00000000000000000, 9.699999999999997513 ) ) ;
#753 = CARTESIAN_POINT ( 'NONE',  ( 3.673940397442060361E-16, 0.000000000000000000, 3.000000000000000444 ) ) ;
#754 = CYLINDRICAL_SURFACE ( 'NONE', #760, 3.000000000000000444 ) ;
#755 = VECTOR ( 'NONE', #231, 1000.000000000000000 ) ;
#756 = VERTEX_POINT ( 'NONE', #1267 ) ;
#757 = DIRECTION ( 'NONE',  ( 0.000000000000000000, 0.000000000000000000, -1.000000000000000000 ) ) ;
#758 = AXIS2_PLACEMENT_3D ( 'NONE', #499, #299, #4 ) ;
#759 = CARTESIAN_POINT ( 'NONE',  ( -4.500000000000000888, 3.000000000000000888, -6.854925236645541986 ) ) ;
#760 = AXIS2_PLACEMENT_3D ( 'NONE', #1246, #1153, #451 ) ;
#761 = SHAPE_DEFINITION_REPRESENTATION ( #828, #14 ) ;
#762 = CARTESIAN_POINT ( 'NONE',  ( 4.000000000000000000, -0.000000000000000000, -3.000000000000000000 ) ) ;
#763 = ADVANCED_FACE ( 'NONE', ( #371 ), #667, .F. ) ;
#764 = CARTESIAN_POINT ( 'NONE',  ( -3.000000000000000000, 3.000000000000000000, 4.000000000000000000 ) ) ;
#765 = EDGE_LOOP ( 'NONE', ( #686, #199, #563, #1222 ) ) ;
#766 = CYLINDRICAL_SURFACE ( 'NONE', #152, 1.500000000000000000 ) ;
#767 = DIRECTION ( 'NONE',  ( 0.000000000000000000, 1.000000000000000000, -0.000000000000000000 ) ) ;
#768 = EDGE_CURVE ( 'NONE', #784, #270, #1149, .T. ) ;
#769 = EDGE_CURVE ( 'NONE', #61, #1108, #1064, .T. ) ;
#770 = EDGE_LOOP ( 'NONE', ( #1115, #491, #309, #705 ) ) ;
#771 = ORIENTED_EDGE ( 'NONE', *, *, #408, .T. ) ;
#772 = CARTESIAN_POINT ( 'NONE',  ( -3.000000000000000000, 3.903127820947815962E-16, -3.000000000000000000 ) ) ;
#773 = CARTESIAN_POINT ( 'NONE',  ( 3.000000000000000444, 0.000000000000000000, 4.000000000000000000 ) ) ;
#774 = ORIENTED_EDGE ( 'NONE', *, *, #317, .T. ) ;
#775 = ORIENTED_EDGE ( 'NONE', *, *, #546, .T. ) ;
#776 = CARTESIAN_POINT ( 'NONE',  ( 4.500000000000000888, 13.00000000000000000, -8.354925236645541986 ) ) ;
#777 = AXIS2_PLACEMENT_3D ( 'NONE', #1191, #1105, #586 ) ;
#778 = ADVANCED_FACE ( 'NONE', ( #480 ), #663, .F. ) ;
#779 = CIRCLE ( 'NONE', #484, 9.699999999999997513 ) ;
#780 = DIRECTION ( 'NONE',  ( 0.000000000000000000, -1.000000000000000000, 0.000000000000000000 ) ) ;
#781 = VECTOR ( 'NONE', #45, 1000.000000000000000 ) ;
#782 = ORIENTED_EDGE ( 'NONE', *, *, #589, .T. ) ;
#783 = EDGE_CURVE ( 'NONE', #842, #430, #1168, .T. ) ;
#784 = VERTEX_POINT ( 'NONE', #271 ) ;
#785 = CARTESIAN_POINT ( 'NONE',  ( 0.000000000000000000, 3.000000000000000888, 0.000000000000000000 ) ) ;
#786 = VERTEX_POINT ( 'NONE', #655 ) ;
#787 = CARTESIAN_POINT ( 'NONE',  ( 3.673940397442060361E-16, 3.000000000000000000, 3.000000000000000444 ) ) ;
#788 = ORIENTED_EDGE ( 'NONE', *, *, #472, .F. ) ;
#789 = ORIENTED_EDGE ( 'NONE', *, *, #1141, .F. ) ;
#790 = CARTESIAN_POINT ( 'NONE',  ( 0.000000000000000000, 3.000000000000000888, -9.699999999999997513 ) ) ;
#791 = CARTESIAN_POINT ( 'NONE',  ( 5.323170731707317138, 13.00000000000000000, 8.108874975056313161 ) ) ;
#792 = DIRECTION ( 'NONE',  ( 0.000000000000000000, 1.000000000000000000, 0.000000000000000000 ) ) ;
#793 = ORIENTED_EDGE ( 'NONE', *, *, #396, .T. ) ;
#794 = CARTESIAN_POINT ( 'NONE',  ( 3.000000000000000000, 3.903127820947815962E-16, -3.000000000000000000 ) ) ;
#795 = DIRECTION ( 'NONE',  ( 0.000000000000000000, -1.000000000000000000, 0.000000000000000000 ) ) ;
#796 = CLOSED_SHELL ( 'NONE', ( #884, #604, #1163, #864, #778, #1158, #1136, #743, #85, #39, #412, #1090, #312, #500, #814, #1252, #304, #970, #358, #1081, #283, #159, #928, #188, #867, #433, #671, #492, #763, #392, #456 ) ) ;
#797 = EDGE_CURVE ( 'NONE', #389, #37, #172, .T. ) ;
#798 = EDGE_CURVE ( 'NONE', #479, #666, #895, .T. ) ;
#799 = CIRCLE ( 'NONE', #568, 1.500000000000000444 ) ;
#800 = DIRECTION ( 'NONE',  ( 0.000000000000000000, 0.000000000000000000, 1.000000000000000000 ) ) ;
#801 = AXIS2_PLACEMENT_3D ( 'NONE', #1030, #837, #146 ) ;
#802 = EDGE_LOOP ( 'NONE', ( #1002, #1214, #602, #1271 ) ) ;
#803 = LINE ( 'NONE', #1093, #1060 ) ;
#804 = DIRECTION ( 'NONE',  ( 0.000000000000000000, 0.000000000000000000, 1.000000000000000000 ) ) ;
#805 = DIRECTION ( 'NONE',  ( 0.000000000000000000, 0.000000000000000000, 1.000000000000000000 ) ) ;
#806 = EDGE_CURVE ( 'NONE', #528, #3, #62, .T. ) ;
#807 = VERTEX_POINT ( 'NONE', #599 ) ;
#808 = CARTESIAN_POINT ( 'NONE',  ( 3.000000000000000000, 0.000000000000000000, 0.000000000000000000 ) ) ;
#809 = CARTESIAN_POINT ( 'NONE',  ( -4.000000000000000000, 0.000000000000000000, 4.000000000000000000 ) ) ;
#810 = CARTESIAN_POINT ( 'NONE',  ( 4.500000000000000888, 13.00000000000000000, 6.854925236645541986 ) ) ;
#811 = ORIENTED_EDGE ( 'NONE', *, *, #956, .T. ) ;
#812 = DIRECTION ( 'NONE',  ( 0.000000000000000000, 0.000000000000000000, 1.000000000000000000 ) ) ;
#813 = CARTESIAN_POINT ( 'NONE',  ( 0.000000000000000000, 0.000000000000000000, 0.000000000000000000 ) ) ;
#814 = ADVANCED_FACE ( 'NONE', ( #507 ), #293, .T. ) ;
#815 = CARTESIAN_POINT ( 'NONE',  ( -4.000000000000000000, 0.000000000000000000, -3.000000000000000000 ) ) ;
#816 = PRESENTATION_LAYER_ASSIGNMENT (  '', '', ( #609 ) ) ;
#817 = VECTOR ( 'NONE', #832, 1000.000000000000000 ) ;
#818 = VERTEX_POINT ( 'NONE', #603 ) ;
#819 = CARTESIAN_POINT ( 'NONE',  ( 3.000000000000000444, 3.000000000000000000, -6.854925236645541986 ) ) ;
#820 = CIRCLE ( 'NONE', #134, 9.699999999999997513 ) ;
#821 = EDGE_LOOP ( 'NONE', ( #475, #1039, #1073, #22 ) ) ;
#822 = FILL_AREA_STYLE ('',( #529 ) ) ;
#823 = FACE_OUTER_BOUND ( 'NONE', #506, .T. ) ;
#824 = CARTESIAN_POINT ( 'NONE',  ( -3.000000000000000000, -2.146049661002236239E-15, -1.535176382495937372E-30 ) ) ;
#825 = ORIENTED_EDGE ( 'NONE', *, *, #688, .T. ) ;
#826 = DIRECTION ( 'NONE',  ( -0.000000000000000000, -1.000000000000000000, -0.000000000000000000 ) ) ;
#827 = ORIENTED_EDGE ( 'NONE', *, *, #769, .F. ) ;
#828 = PRODUCT_DEFINITION_SHAPE ( 'NONE', 'NONE',  #949 ) ;
#829 = DIRECTION ( 'NONE',  ( 0.000000000000000000, 0.000000000000000000, 1.000000000000000000 ) ) ;
#830 = DIRECTION ( 'NONE',  ( -0.000000000000000000, 1.000000000000000000, -0.000000000000000000 ) ) ;
#831 = EDGE_LOOP ( 'NONE', ( #958, #578, #917, #75 ) ) ;
#832 = DIRECTION ( 'NONE',  ( -1.000000000000000000, 0.000000000000000000, 0.000000000000000000 ) ) ;
#833 = ORIENTED_EDGE ( 'NONE', *, *, #190, .T. ) ;
#834 = DIRECTION ( 'NONE',  ( 0.000000000000000000, 1.000000000000000000, -0.000000000000000000 ) ) ;
#835 = DIRECTION ( 'NONE',  ( -0.000000000000000000, 1.000000000000000000, -0.000000000000000000 ) ) ;
#836 = EDGE_CURVE ( 'NONE', #756, #413, #610, .T. ) ;
#837 = DIRECTION ( 'NONE',  ( 0.000000000000000000, -1.000000000000000000, 0.000000000000000000 ) ) ;
#838 = AXIS2_PLACEMENT_3D ( 'NONE', #544, #145, #48 ) ;
#839 = DIRECTION ( 'NONE',  ( 0.000000000000000000, 7.153498870007453145E-16, -1.000000000000000000 ) ) ;
#840 = CIRCLE ( 'NONE', #280, 9.699999999999997513 ) ;
#841 = AXIS2_PLACEMENT_3D ( 'NONE', #1107, #930, #351 ) ;
#842 = VERTEX_POINT ( 'NONE', #993 ) ;
#843 = CARTESIAN_POINT ( 'NONE',  ( 3.000000000000000000, 2.646977960179318209E-21, -3.000000000000000000 ) ) ;
#844 = DIRECTION ( 'NONE',  ( 0.000000000000000000, 0.000000000000000000, 1.000000000000000000 ) ) ;
#845 = DIRECTION ( 'NONE',  ( 0.000000000000000000, -1.000000000000000000, 0.000000000000000000 ) ) ;
#846 = VERTEX_POINT ( 'NONE', #89 ) ;
#847 =( NAMED_UNIT ( * ) SI_UNIT ( $, .STERADIAN. ) SOLID_ANGLE_UNIT ( ) );
#848 = CARTESIAN_POINT ( 'NONE',  ( 4.500000000000000888, 0.000000000000000000, 6.854925236645541986 ) ) ;
#849 = CARTESIAN_POINT ( 'NONE',  ( 0.000000000000000000, 13.00000000000000000, 0.000000000000000000 ) ) ;
#850 = VERTEX_POINT ( 'NONE', #306 ) ;
#851 = PLANE ( 'NONE',  #737 ) ;
#852 = PLANE ( 'NONE',  #1184 ) ;
#853 = EDGE_CURVE ( 'NONE', #881, #850, #858, .T. ) ;
#854 = ORIENTED_EDGE ( 'NONE', *, *, #1086, .T. ) ;
#855 = CARTESIAN_POINT ( 'NONE',  ( 3.000000000000000444, 0.000000000000000000, 6.854925236645541986 ) ) ;
#856 = ORIENTED_EDGE ( 'NONE', *, *, #1179, .F. ) ;
#857 = DIRECTION ( 'NONE',  ( 0.000000000000000000, 1.000000000000000000, -0.000000000000000000 ) ) ;
#858 = CIRCLE ( 'NONE', #1187, 1.500000000000000000 ) ;
#859 = CARTESIAN_POINT ( 'NONE',  ( 4.000000000000000000, 0.000000000000000000, -4.000000000000000000 ) ) ;
#860 = VECTOR ( 'NONE', #637, 1000.000000000000000 ) ;
#861 = ORIENTED_EDGE ( 'NONE', *, *, #1071, .T. ) ;
#862 = VERTEX_POINT ( 'NONE', #195 ) ;
#863 = FACE_OUTER_BOUND ( 'NONE', #691, .T. ) ;
#864 = ADVANCED_FACE ( 'NONE', ( #1276 ), #883, .T. ) ;
#865 = DIRECTION ( 'NONE',  ( 0.000000000000000000, 0.000000000000000000, -1.000000000000000000 ) ) ;
#866 = ORIENTED_EDGE ( 'NONE', *, *, #798, .T. ) ;
#867 = ADVANCED_FACE ( 'NONE', ( #390 ), #897, .F. ) ;
#868 = DIRECTION ( 'NONE',  ( 0.000000000000000000, 0.000000000000000000, -1.000000000000000000 ) ) ;
#869 = CARTESIAN_POINT ( 'NONE',  ( -3.000000000000000000, 3.000000000000000000, -6.854925236645541986 ) ) ;
#870 = EDGE_CURVE ( 'NONE', #1101, #57, #494, .T. ) ;
#871 = ORIENTED_EDGE ( 'NONE', *, *, #1150, .T. ) ;
#872 = CARTESIAN_POINT ( 'NONE',  ( 0.000000000000000000, 13.00000000000000000, 0.000000000000000000 ) ) ;
#873 = VECTOR ( 'NONE', #960, 1000.000000000000000 ) ;
#874 = CARTESIAN_POINT ( 'NONE',  ( 0.000000000000000000, 3.000000000000000000, -3.000000000000000000 ) ) ;
#875 = VECTOR ( 'NONE', #989, 1000.000000000000000 ) ;
#876 = EDGE_LOOP ( 'NONE', ( #679, #1275, #624, #291 ) ) ;
#877 = VECTOR ( 'NONE', #950, 1000.000000000000000 ) ;
#878 = ORIENTED_EDGE ( 'NONE', *, *, #355, .T. ) ;
#879 = DIRECTION ( 'NONE',  ( 0.000000000000000000, 0.000000000000000000, -1.000000000000000000 ) ) ;
#880 = LINE ( 'NONE', #1277, #590 ) ;
#881 = VERTEX_POINT ( 'NONE', #106 ) ;
#882 = ORIENTED_EDGE ( 'NONE', *, *, #241, .F. ) ;
#883 = CYLINDRICAL_SURFACE ( 'NONE', #680, 12.69999999999999574 ) ;
#884 = ADVANCED_FACE ( 'NONE', ( #1083 ), #11, .F. ) ;
#885 = ORIENTED_EDGE ( 'NONE', *, *, #124, .F. ) ;
#886 = DIRECTION ( 'NONE',  ( -0.000000000000000000, 0.000000000000000000, -1.000000000000000000 ) ) ;
#887 = CARTESIAN_POINT ( 'NONE',  ( -6.854925236645541986, 0.000000000000000000, 3.000000000000000000 ) ) ;
#888 = VERTEX_POINT ( 'NONE', #95 ) ;
#889 = PLANE ( 'NONE',  #319 ) ;
#890 = EDGE_CURVE ( 'NONE', #218, #29, #204, .T. ) ;
#891 = DIRECTION ( 'NONE',  ( -0.000000000000000000, 1.000000000000000000, -0.000000000000000000 ) ) ;
#892 = CIRCLE ( 'NONE', #524, 9.699999999999997513 ) ;
#893 = AXIS2_PLACEMENT_3D ( 'NONE', #965, #689, #78 ) ;
#894 = CARTESIAN_POINT ( 'NONE',  ( 0.000000000000000000, 0.000000000000000000, 0.000000000000000000 ) ) ;
#895 = CIRCLE ( 'NONE', #108, 12.69999999999999574 ) ;
#896 = ORIENTED_EDGE ( 'NONE', *, *, #517, .F. ) ;
#897 = CYLINDRICAL_SURFACE ( 'NONE', #591, 1.500000000000000444 ) ;
#898 = EDGE_LOOP ( 'NONE', ( #871, #234, #232, #833, #397, #366 ) ) ;
#899 = DIRECTION ( 'NONE',  ( 0.000000000000000000, 0.000000000000000000, -1.000000000000000000 ) ) ;
#900 = CARTESIAN_POINT ( 'NONE',  ( -5.323170731707318026, 3.000000000000000888, 8.108874975056313161 ) ) ;
#901 = ORIENTED_EDGE ( 'NONE', *, *, #472, .T. ) ;
#902 = CARTESIAN_POINT ( 'NONE',  ( 6.854925236645541986, 3.000000000000000000, -3.000000000000000000 ) ) ;
#903 = EDGE_LOOP ( 'NONE', ( #81, #1019 ) ) ;
#904 = CARTESIAN_POINT ( 'NONE',  ( 1.555301434917137841E-15, 13.00000000000000000, 12.69999999999999574 ) ) ;
#905 = CYLINDRICAL_SURFACE ( 'NONE', #213, 1.499999999999999556 ) ;
#906 = ADVANCED_FACE ( 'NONE', ( #100 ), #889, .T. ) ;
#907 = VERTEX_POINT ( 'NONE', #790 ) ;
#908 = CARTESIAN_POINT ( 'NONE',  ( -4.500000000000000888, 3.000000000000000888, 6.854925236645541986 ) ) ;
#909 = EDGE_LOOP ( 'NONE', ( #214, #1021, #638, #1255 ) ) ;
#910 = CARTESIAN_POINT ( 'NONE',  ( 0.000000000000000000, 0.000000000000000000, 0.000000000000000000 ) ) ;
#911 = DIRECTION ( 'NONE',  ( 0.000000000000000000, -1.000000000000000000, 0.000000000000000000 ) ) ;
#912 = CIRCLE ( 'NONE', #400, 1.499999999999999556 ) ;
#913 = DIRECTION ( 'NONE',  ( 0.000000000000000000, 0.000000000000000000, 1.000000000000000000 ) ) ;
#914 = APPLICATION_CONTEXT ( 'automotive_design' ) ;
#915 = STYLED_ITEM ( 'NONE', ( #54 ), #649 ) ;
#916 = EDGE_CURVE ( 'NONE', #425, #881, #803, .T. ) ;
#917 = ORIENTED_EDGE ( 'NONE', *, *, #576, .F. ) ;
#918 = LINE ( 'NONE', #38, #403 ) ;
#919 = CIRCLE ( 'NONE', #404, 12.69999999999999574 ) ;
#920 = VERTEX_POINT ( 'NONE', #1190 ) ;
#921 = SURFACE_STYLE_FILL_AREA ( #822 ) ;
#922 = DIRECTION ( 'NONE',  ( 0.000000000000000000, 0.000000000000000000, 1.000000000000000000 ) ) ;
#923 = FACE_OUTER_BOUND ( 'NONE', #508, .T. ) ;
#924 = ORIENTED_EDGE ( 'NONE', *, *, #853, .F. ) ;
#925 = CARTESIAN_POINT ( 'NONE',  ( -5.323170731707318026, 0.000000000000000000, -8.108874975056313161 ) ) ;
#926 = ORIENTED_EDGE ( 'NONE', *, *, #1123, .F. ) ;
#927 =( LENGTH_UNIT ( ) NAMED_UNIT ( * ) SI_UNIT ( .MILLI., .METRE. ) );
#928 = ADVANCED_FACE ( 'NONE', ( #706 ), #710, .F. ) ;
#929 = CARTESIAN_POINT ( 'NONE',  ( 4.500000000000000888, 0.000000000000000000, -8.354925236645541986 ) ) ;
#930 = DIRECTION ( 'NONE',  ( 0.000000000000000000, -1.000000000000000000, 0.000000000000000000 ) ) ;
#931 = ORIENTED_EDGE ( 'NONE', *, *, #890, .F. ) ;
#932 = DIRECTION ( 'NONE',  ( 0.000000000000000000, 0.000000000000000000, 1.000000000000000000 ) ) ;
#933 = EDGE_LOOP ( 'NONE', ( #690, #288, #951 ) ) ;
#934 = DIRECTION ( 'NONE',  ( 0.000000000000000000, 0.000000000000000000, 1.000000000000000000 ) ) ;
#935 = DIRECTION ( 'NONE',  ( 0.000000000000000000, 0.000000000000000000, 1.000000000000000000 ) ) ;
#936 = VECTOR ( 'NONE', #835, 1000.000000000000000 ) ;
#937 = AXIS2_PLACEMENT_3D ( 'NONE', #595, #92, #886 ) ;
#938 = DIRECTION ( 'NONE',  ( 0.000000000000000000, 0.000000000000000000, -1.000000000000000000 ) ) ;
#939 = VECTOR ( 'NONE', #180, 1000.000000000000000 ) ;
#940 = ORIENTED_EDGE ( 'NONE', *, *, #1251, .T. ) ;
#941 = CARTESIAN_POINT ( 'NONE',  ( 0.000000000000000000, 0.000000000000000000, 0.000000000000000000 ) ) ;
#942 = DIRECTION ( 'NONE',  ( -0.000000000000000000, 0.000000000000000000, -1.000000000000000000 ) ) ;
#943 = CARTESIAN_POINT ( 'NONE',  ( 6.854925236645541986, 3.000000000000000000, -3.000000000000000000 ) ) ;
#944 = CYLINDRICAL_SURFACE ( 'NONE', #1270, 9.699999999999997513 ) ;
#945 = EDGE_CURVE ( 'NONE', #330, #458, #1001, .T. ) ;
#946 = ORIENTED_EDGE ( 'NONE', *, *, #488, .T. ) ;
#947 = DIRECTION ( 'NONE',  ( -0.000000000000000000, -1.000000000000000000, -0.000000000000000000 ) ) ;
#948 = DIRECTION ( 'NONE',  ( 0.000000000000000000, 0.000000000000000000, -1.000000000000000000 ) ) ;
#949 = PRODUCT_DEFINITION ( 'UNKNOWN', '', #1100, #453 ) ;
#950 = DIRECTION ( 'NONE',  ( 0.000000000000000000, 0.000000000000000000, 1.000000000000000000 ) ) ;
#951 = ORIENTED_EDGE ( 'NONE', *, *, #750, .F. ) ;
#952 = DIRECTION ( 'NONE',  ( 0.000000000000000000, 0.000000000000000000, 1.000000000000000000 ) ) ;
#953 = FACE_OUTER_BOUND ( 'NONE', #127, .T. ) ;
#954 = VERTEX_POINT ( 'NONE', #902 ) ;
#955 = CIRCLE ( 'NONE', #1119, 9.699999999999997513 ) ;
#956 = EDGE_CURVE ( 'NONE', #1159, #907, #467, .T. ) ;
#957 = VECTOR ( 'NONE', #792, 1000.000000000000000 ) ;
#958 = ORIENTED_EDGE ( 'NONE', *, *, #32, .T. ) ;
#959 = CARTESIAN_POINT ( 'NONE',  ( 5.323170731707318026, 0.000000000000000000, -8.108874975056313161 ) ) ;
#960 = DIRECTION ( 'NONE',  ( -0.000000000000000000, -1.000000000000000000, 0.000000000000000000 ) ) ;
#961 = CIRCLE ( 'NONE', #111, 1.500000000000000000 ) ;
#962 = ORIENTED_EDGE ( 'NONE', *, *, #726, .F. ) ;
#963 = ORIENTED_EDGE ( 'NONE', *, *, #144, .F. ) ;
#964 = LINE ( 'NONE', #772, #998 ) ;
#965 = CARTESIAN_POINT ( 'NONE',  ( 0.000000000000000000, 0.000000000000000000, 0.000000000000000000 ) ) ;
#966 = CARTESIAN_POINT ( 'NONE',  ( 3.000000000000000000, -10.00000000000000000, -3.000000000000000000 ) ) ;
#967 = EDGE_LOOP ( 'NONE', ( #438, #901 ) ) ;
#968 = CARTESIAN_POINT ( 'NONE',  ( 0.000000000000000000, 3.000000000000000000, 3.000000000000000000 ) ) ;
#969 = CARTESIAN_POINT ( 'NONE',  ( 0.000000000000000000, 0.000000000000000000, -3.000000000000000444 ) ) ;
#970 = ADVANCED_FACE ( 'NONE', ( #630 ), #623, .F. ) ;
#971 = VERTEX_POINT ( 'NONE', #736 ) ;
#972 = ORIENTED_EDGE ( 'NONE', *, *, #290, .F. ) ;
#973 = CARTESIAN_POINT ( 'NONE',  ( -4.500000000000000888, 13.00000000000000000, -6.854925236645541986 ) ) ;
#974 = VECTOR ( 'NONE', #183, 1000.000000000000000 ) ;
#975 = AXIS2_PLACEMENT_3D ( 'NONE', #941, #138, #1033 ) ;
#976 = FACE_OUTER_BOUND ( 'NONE', #728, .T. ) ;
#977 = CIRCLE ( 'NONE', #424, 1.499999999999999556 ) ;
#978 = ORIENTED_EDGE ( 'NONE', *, *, #1150, .F. ) ;
#979 = AXIS2_PLACEMENT_3D ( 'NONE', #414, #142, #812 ) ;
#980 = APPLICATION_CONTEXT ( 'automotive_design' ) ;
#981 = ORIENTED_EDGE ( 'NONE', *, *, #408, .F. ) ;
#982 = CARTESIAN_POINT ( 'NONE',  ( 0.000000000000000000, -0.000000000000000000, -3.000000000000000000 ) ) ;
#983 = EDGE_CURVE ( 'NONE', #513, #141, #534, .T. ) ;
#984 = VERTEX_POINT ( 'NONE', #925 ) ;
#985 = DIRECTION ( 'NONE',  ( -0.000000000000000000, -1.000000000000000000, -0.000000000000000000 ) ) ;
#986 = PLANE ( 'NONE',  #734 ) ;
#987 = EDGE_CURVE ( 'NONE', #218, #629, #243, .T. ) ;
#988 = ORIENTED_EDGE ( 'NONE', *, *, #589, .F. ) ;
#989 = DIRECTION ( 'NONE',  ( 0.000000000000000000, -1.000000000000000000, -1.301042606982605321E-16 ) ) ;
#990 = LINE ( 'NONE', #102, #1124 ) ;
#991 = LINE ( 'NONE', #13, #957 ) ;
#992 = ORIENTED_EDGE ( 'NONE', *, *, #49, .F. ) ;
#993 = CARTESIAN_POINT ( 'NONE',  ( 4.000000000000000000, 0.000000000000000000, 3.000000000000000000 ) ) ;
#994 = EDGE_LOOP ( 'NONE', ( #1266, #782, #332, #17, #1044, #384, #420, #1110, #483, #165, #811, #617 ) ) ;
#995 = DIRECTION ( 'NONE',  ( -0.000000000000000000, -1.000000000000000000, -0.000000000000000000 ) ) ;
#996 = AXIS2_PLACEMENT_3D ( 'NONE', #481, #276, #865 ) ;
#997 = DIRECTION ( 'NONE',  ( 0.000000000000000000, 0.000000000000000000, 1.000000000000000000 ) ) ;
#998 = VECTOR ( 'NONE', #1160, 1000.000000000000000 ) ;
#999 = EDGE_CURVE ( 'NONE', #1057, #907, #918, .T. ) ;
#1000 = ORIENTED_EDGE ( 'NONE', *, *, #1179, .T. ) ;
#1001 = LINE ( 'NONE', #115, #69 ) ;
#1002 = ORIENTED_EDGE ( 'NONE', *, *, #627, .T. ) ;
#1003 = CARTESIAN_POINT ( 'NONE',  ( 4.500000000000000888, 0.000000000000000000, -6.854925236645541986 ) ) ;
#1004 = EDGE_CURVE ( 'NONE', #971, #846, #485, .T. ) ;
#1005 = DIRECTION ( 'NONE',  ( 0.000000000000000000, 1.000000000000000000, 0.000000000000000000 ) ) ;
#1006 = ORIENTED_EDGE ( 'NONE', *, *, #510, .F. ) ;
#1007 = CARTESIAN_POINT ( 'NONE',  ( 0.000000000000000000, 13.00000000000000000, 0.000000000000000000 ) ) ;
#1008 = EDGE_LOOP ( 'NONE', ( #244, #1133, #298, #1067 ) ) ;
#1009 = FACE_OUTER_BOUND ( 'NONE', #1049, .T. ) ;
#1010 = EDGE_CURVE ( 'NONE', #1216, #61, #678, .T. ) ;
#1011 = PLANE ( 'NONE',  #300 ) ;
#1012 = ORIENTED_EDGE ( 'NONE', *, *, #890, .T. ) ;
#1013 = DIRECTION ( 'NONE',  ( 0.000000000000000000, -1.000000000000000000, 0.000000000000000000 ) ) ;
#1014 = EDGE_LOOP ( 'NONE', ( #926, #388, #1157, #184, #1243, #135, #163 ) ) ;
#1015 = CARTESIAN_POINT ( 'NONE',  ( 3.000000000000000444, 3.000000000000000000, 4.000000000000000000 ) ) ;
#1016 = AXIS2_PLACEMENT_3D ( 'NONE', #1272, #668, #1061 ) ;
#1017 = AXIS2_PLACEMENT_3D ( 'NONE', #872, #275, #673 ) ;
#1018 = EDGE_CURVE ( 'NONE', #1101, #756, #1020, .T. ) ;
#1019 = ORIENTED_EDGE ( 'NONE', *, *, #797, .F. ) ;
#1020 = LINE ( 'NONE', #439, #817 ) ;
#1021 = ORIENTED_EDGE ( 'NONE', *, *, #207, .T. ) ;
#1022 = DIRECTION ( 'NONE',  ( -0.000000000000000000, -1.000000000000000000, -0.000000000000000000 ) ) ;
#1023 = CARTESIAN_POINT ( 'NONE',  ( -3.000000000000000000, 2.646977960179318209E-21, -3.000000000000000000 ) ) ;
#1024 = CARTESIAN_POINT ( 'NONE',  ( -3.000000000000000000, 3.000000000000000000, 6.854925236645541986 ) ) ;
#1025 = ORIENTED_EDGE ( 'NONE', *, *, #418, .F. ) ;
#1026 = LINE ( 'NONE', #324, #51 ) ;
#1027 = EDGE_CURVE ( 'NONE', #470, #818, #1026, .T. ) ;
#1028 = ORIENTED_EDGE ( 'NONE', *, *, #660, .T. ) ;
#1029 = DIRECTION ( 'NONE',  ( 0.000000000000000000, 0.000000000000000000, 1.000000000000000000 ) ) ;
#1030 = CARTESIAN_POINT ( 'NONE',  ( 4.500000000000000888, 3.000000000000000888, -6.854925236645541986 ) ) ;
#1031 = LINE ( 'NONE', #1199, #659 ) ;
#1032 = ORIENTED_EDGE ( 'NONE', *, *, #435, .F. ) ;
#1033 = DIRECTION ( 'NONE',  ( 0.000000000000000000, 0.000000000000000000, 1.000000000000000000 ) ) ;
#1034 = PLANE ( 'NONE',  #192 ) ;
#1035 = CIRCLE ( 'NONE', #503, 3.000000000000000444 ) ;
#1036 = EDGE_CURVE ( 'NONE', #1057, #394, #840, .T. ) ;
#1037 = CARTESIAN_POINT ( 'NONE',  ( 0.000000000000000000, 0.000000000000000000, 3.000000000000000000 ) ) ;
#1038 = AXIS2_PLACEMENT_3D ( 'NONE', #1088, #215, #612 ) ;
#1039 = ORIENTED_EDGE ( 'NONE', *, *, #622, .F. ) ;
#1040 = CARTESIAN_POINT ( 'NONE',  ( 0.000000000000000000, 0.000000000000000000, 0.000000000000000000 ) ) ;
#1041 = DIRECTION ( 'NONE',  ( 0.000000000000000000, -1.000000000000000000, 0.000000000000000000 ) ) ;
#1042 = EDGE_CURVE ( 'NONE', #611, #954, #977, .T. ) ;
#1043 = DIRECTION ( 'NONE',  ( -0.000000000000000000, -1.000000000000000000, -0.000000000000000000 ) ) ;
#1044 = ORIENTED_EDGE ( 'NONE', *, *, #64, .F. ) ;
#1045 = CARTESIAN_POINT ( 'NONE',  ( -4.500000000000000888, 0.000000000000000000, -6.854925236645541986 ) ) ;
#1046 = CARTESIAN_POINT ( 'NONE',  ( -6.854925236645541986, 3.000000000000000888, 4.500000000000000888 ) ) ;
#1047 = CARTESIAN_POINT ( 'NONE',  ( -3.000000000000000000, -0.000000000000000000, 0.000000000000000000 ) ) ;
#1048 = EDGE_CURVE ( 'NONE', #1209, #611, #222, .T. ) ;
#1049 = EDGE_LOOP ( 'NONE', ( #543, #320, #264, #174 ) ) ;
#1050 = DIRECTION ( 'NONE',  ( -0.000000000000000000, -1.000000000000000000, -0.000000000000000000 ) ) ;
#1051 = UNCERTAINTY_MEASURE_WITH_UNIT (LENGTH_MEASURE( 1.000000000000000082E-05 ), #554, 'distance_accuracy_value', 'NONE');
#1052 = CARTESIAN_POINT ( 'NONE',  ( -3.000000000000000000, 3.000000000000000000, 0.000000000000000000 ) ) ;
#1053 = APPLICATION_PROTOCOL_DEFINITION ( 'draft international standard', 'automotive_design', 1998, #980 ) ;
#1054 = DIRECTION ( 'NONE',  ( 1.000000000000000000, 0.000000000000000000, 0.000000000000000000 ) ) ;
#1055 = AXIS2_PLACEMENT_3D ( 'NONE', #1046, #162, #1262 ) ;
#1056 = EDGE_CURVE ( 'NONE', #682, #270, #364, .T. ) ;
#1057 = VERTEX_POINT ( 'NONE', #526 ) ;
#1058 = DIRECTION ( 'NONE',  ( 0.000000000000000000, 0.000000000000000000, 1.000000000000000000 ) ) ;
#1059 = AXIS2_PLACEMENT_3D ( 'NONE', #521, #1217, #327 ) ;
#1060 = VECTOR ( 'NONE', #310, 1000.000000000000000 ) ;
#1061 = DIRECTION ( 'NONE',  ( 0.000000000000000000, 0.000000000000000000, 1.000000000000000000 ) ) ;
#1062 = PLANE ( 'NONE',  #633 ) ;
#1063 = ORIENTED_EDGE ( 'NONE', *, *, #182, .F. ) ;
#1064 = LINE ( 'NONE', #82, #217 ) ;
#1065 = CARTESIAN_POINT ( 'NONE',  ( 5.323170731707318026, 0.000000000000000000, 8.108874975056313161 ) ) ;
#1066 = DIRECTION ( 'NONE',  ( 0.000000000000000000, 0.000000000000000000, 1.000000000000000000 ) ) ;
#1067 = ORIENTED_EDGE ( 'NONE', *, *, #564, .F. ) ;
#1068 = CARTESIAN_POINT ( 'NONE',  ( 0.000000000000000000, 13.00000000000000000, 0.000000000000000000 ) ) ;
#1069 = CARTESIAN_POINT ( 'NONE',  ( 5.323170731707318026, 3.000000000000000888, 8.108874975056313161 ) ) ;
#1070 = ORIENTED_EDGE ( 'NONE', *, *, #546, .F. ) ;
#1071 = EDGE_CURVE ( 'NONE', #353, #278, #744, .T. ) ;
#1072 = VECTOR ( 'NONE', #1054, 1000.000000000000000 ) ;
#1073 = ORIENTED_EDGE ( 'NONE', *, *, #290, .T. ) ;
#1074 = DIRECTION ( 'NONE',  ( -0.000000000000000000, -1.000000000000000000, -0.000000000000000000 ) ) ;
#1075 = CIRCLE ( 'NONE', #256, 9.699999999999997513 ) ;
#1076 = VECTOR ( 'NONE', #829, 1000.000000000000000 ) ;
#1077 = DIRECTION ( 'NONE',  ( -0.000000000000000000, -1.000000000000000000, -0.000000000000000000 ) ) ;
#1078 = VECTOR ( 'NONE', #566, 1000.000000000000000 ) ;
#1079 = DIRECTION ( 'NONE',  ( 0.000000000000000000, -0.000000000000000000, -1.000000000000000000 ) ) ;
#1080 = AXIS2_PLACEMENT_3D ( 'NONE', #259, #379, #558 ) ;
#1081 = ADVANCED_FACE ( 'NONE', ( #347 ), #729, .F. ) ;
#1082 = ORIENTED_EDGE ( 'NONE', *, *, #207, .F. ) ;
#1083 = FACE_OUTER_BOUND ( 'NONE', #99, .T. ) ;
#1084 = CARTESIAN_POINT ( 'NONE',  ( 3.000000000000000444, 0.000000000000000000, 0.000000000000000000 ) ) ;
#1085 = FACE_OUTER_BOUND ( 'NONE', #903, .T. ) ;
#1086 = EDGE_CURVE ( 'NONE', #1159, #143, #740, .T. ) ;
#1087 = VERTEX_POINT ( 'NONE', #819 ) ;
#1088 = CARTESIAN_POINT ( 'NONE',  ( 6.854925236645541986, 13.00000000000000000, 4.500000000000000888 ) ) ;
#1089 = CARTESIAN_POINT ( 'NONE',  ( -3.000000000000000000, -0.000000000000000000, -4.000000000000000000 ) ) ;
#1090 = ADVANCED_FACE ( 'NONE', ( #547 ), #1215, .T. ) ;
#1091 = LINE ( 'NONE', #112, #1264 ) ;
#1092 = ORIENTED_EDGE ( 'NONE', *, *, #1213, .F. ) ;
#1093 = CARTESIAN_POINT ( 'NONE',  ( 6.854925236645541986, 3.000000000000004441, 3.000000000000000000 ) ) ;
#1094 = EDGE_CURVE ( 'NONE', #447, #888, #1031, .T. ) ;
#1095 = ORIENTED_EDGE ( 'NONE', *, *, #267, .T. ) ;
#1096 = DIRECTION ( 'NONE',  ( 0.000000000000000000, 0.000000000000000000, 1.000000000000000000 ) ) ;
#1097 = AXIS2_PLACEMENT_3D ( 'NONE', #810, #1197, #313 ) ;
#1098 = FACE_BOUND ( 'NONE', #46, .T. ) ;
#1099 = VECTOR ( 'NONE', #1280, 1000.000000000000000 ) ;
#1100 = PRODUCT_DEFINITION_FORMATION_WITH_SPECIFIED_SOURCE ( 'ANY', '', #68, .NOT_KNOWN. ) ;
#1101 = VERTEX_POINT ( 'NONE', #716 ) ;
#1102 = FACE_OUTER_BOUND ( 'NONE', #831, .T. ) ;
#1103 = ADVANCED_FACE ( 'NONE', ( #1102 ), #120, .F. ) ;
#1104 = ORIENTED_EDGE ( 'NONE', *, *, #750, .T. ) ;
#1105 = DIRECTION ( 'NONE',  ( 0.000000000000000000, -1.000000000000000000, 0.000000000000000000 ) ) ;
#1106 = DIRECTION ( 'NONE',  ( 0.000000000000000000, -1.000000000000000000, 0.000000000000000000 ) ) ;
#1107 = CARTESIAN_POINT ( 'NONE',  ( 0.000000000000000000, 3.000000000000000888, 0.000000000000000000 ) ) ;
#1108 = VERTEX_POINT ( 'NONE', #158 ) ;
#1109 = CARTESIAN_POINT ( 'NONE',  ( 6.854925236645541986, 3.000000000000000888, -4.500000000000000888 ) ) ;
#1110 = ORIENTED_EDGE ( 'NONE', *, *, #530, .T. ) ;
#1111 = PRESENTATION_STYLE_ASSIGNMENT (( #618 ) ) ;
#1112 = DIRECTION ( 'NONE',  ( 0.000000000000000000, 0.000000000000000000, -1.000000000000000000 ) ) ;
#1113 = EDGE_CURVE ( 'NONE', #498, #203, #70, .T. ) ;
#1114 =( NAMED_UNIT ( * ) SI_UNIT ( $, .STERADIAN. ) SOLID_ANGLE_UNIT ( ) );
#1115 = ORIENTED_EDGE ( 'NONE', *, *, #1018, .F. ) ;
#1116 = CARTESIAN_POINT ( 'NONE',  ( 0.000000000000000000, 3.000000000000000000, 3.000000000000000000 ) ) ;
#1117 = ORIENTED_EDGE ( 'NONE', *, *, #1123, .T. ) ;
#1118 = DIRECTION ( 'NONE',  ( 0.000000000000000000, -1.000000000000000000, 0.000000000000000000 ) ) ;
#1119 = AXIS2_PLACEMENT_3D ( 'NONE', #502, #697, #805 ) ;
#1120 = DIRECTION ( 'NONE',  ( 0.000000000000000000, -1.000000000000000000, 0.000000000000000000 ) ) ;
#1121 = AXIS2_PLACEMENT_3D ( 'NONE', #1211, #922, #454 ) ;
#1122 = CARTESIAN_POINT ( 'NONE',  ( 5.323170731707318026, 3.000000000000000888, -8.108874975056313161 ) ) ;
#1123 = EDGE_CURVE ( 'NONE', #888, #470, #253, .T. ) ;
#1124 = VECTOR ( 'NONE', #501, 1000.000000000000000 ) ;
#1125 = AXIS2_PLACEMENT_3D ( 'NONE', #1040, #156, #1241 ) ;
#1126 = ORIENTED_EDGE ( 'NONE', *, *, #1235, .T. ) ;
#1127 = DIRECTION ( 'NONE',  ( -0.000000000000000000, 1.000000000000000000, -0.000000000000000000 ) ) ;
#1128 = VECTOR ( 'NONE', #437, 1000.000000000000000 ) ;
#1129 = ORIENTED_EDGE ( 'NONE', *, *, #325, .T. ) ;
#1130 = LINE ( 'NONE', #436, #482 ) ;
#1131 = DIRECTION ( 'NONE',  ( 0.000000000000000000, 7.153498870007453145E-16, -1.000000000000000000 ) ) ;
#1132 = DIRECTION ( 'NONE',  ( 0.000000000000000000, -1.000000000000000000, 0.000000000000000000 ) ) ;
#1133 = ORIENTED_EDGE ( 'NONE', *, *, #325, .F. ) ;
#1134 = CARTESIAN_POINT ( 'NONE',  ( 3.000000000000000444, 3.000000000000000000, 0.000000000000000000 ) ) ;
#1135 = LINE ( 'NONE', #42, #936 ) ;
#1136 = ADVANCED_FACE ( 'NONE', ( #661 ), #559, .T. ) ;
#1137 = LINE ( 'NONE', #1205, #91 ) ;
#1138 = LINE ( 'NONE', #1037, #1147 ) ;
#1139 = VERTEX_POINT ( 'NONE', #764 ) ;
#1140 = CARTESIAN_POINT ( 'NONE',  ( 0.000000000000000000, 13.00000000000000000, 0.000000000000000000 ) ) ;
#1141 = EDGE_CURVE ( 'NONE', #611, #850, #820, .T. ) ;
#1142 = CARTESIAN_POINT ( 'NONE',  ( -8.108874975056313161, 13.00000000000000000, 5.323170731707317138 ) ) ;
#1143 = AXIS2_PLACEMENT_3D ( 'NONE', #123, #522, #308 ) ;
#1144 = FACE_OUTER_BOUND ( 'NONE', #375, .T. ) ;
#1145 = VECTOR ( 'NONE', #376, 1000.000000000000000 ) ;
#1146 = CIRCLE ( 'NONE', #468, 1.500000000000000444 ) ;
#1147 = VECTOR ( 'NONE', #555, 1000.000000000000000 ) ;
#1148 = ORIENTED_EDGE ( 'NONE', *, *, #452, .T. ) ;
#1149 = LINE ( 'NONE', #776, #939 ) ;
#1150 = EDGE_CURVE ( 'NONE', #425, #842, #1138, .T. ) ;
#1151 = CARTESIAN_POINT ( 'NONE',  ( 6.854925236645541986, 0.000000000000000000, 3.000000000000000000 ) ) ;
#1152 = LINE ( 'NONE', #670, #1072 ) ;
#1153 = DIRECTION ( 'NONE',  ( 0.000000000000000000, -1.000000000000000000, 0.000000000000000000 ) ) ;
#1154 = ORIENTED_EDGE ( 'NONE', *, *, #396, .F. ) ;
#1155 = CARTESIAN_POINT ( 'NONE',  ( 0.000000000000000000, 13.00000000000000000, 0.000000000000000000 ) ) ;
#1156 = DIRECTION ( 'NONE',  ( 0.000000000000000000, 1.000000000000000000, -0.000000000000000000 ) ) ;
#1157 = ORIENTED_EDGE ( 'NONE', *, *, #1269, .T. ) ;
#1158 = ADVANCED_FACE ( 'NONE', ( #1144 ), #944, .F. ) ;
#1159 = VERTEX_POINT ( 'NONE', #1239 ) ;
#1160 = DIRECTION ( 'NONE',  ( 0.000000000000000000, -1.000000000000000000, -1.301042606982605321E-16 ) ) ;
#1161 = CYLINDRICAL_SURFACE ( 'NONE', #608, 1.499999999999999556 ) ;
#1162 = VERTEX_POINT ( 'NONE', #855 ) ;
#1163 = ADVANCED_FACE ( 'NONE', ( #52 ), #754, .F. ) ;
#1164 = VECTOR ( 'NONE', #322, 1000.000000000000000 ) ;
#1165 = VECTOR ( 'NONE', #1022, 1000.000000000000000 ) ;
#1166 = ORIENTED_EDGE ( 'NONE', *, *, #768, .T. ) ;
#1167 = LINE ( 'NONE', #459, #1078 ) ;
#1168 = CIRCLE ( 'NONE', #698, 1.000000000000000000 ) ;
#1169 = LINE ( 'NONE', #569, #873 ) ;
#1170 = VERTEX_POINT ( 'NONE', #247 ) ;
#1171 = ORIENTED_EDGE ( 'NONE', *, *, #25, .F. ) ;
#1172 = DIRECTION ( 'NONE',  ( 0.000000000000000000, -1.000000000000000000, 0.000000000000000000 ) ) ;
#1173 = ORIENTED_EDGE ( 'NONE', *, *, #564, .T. ) ;
#1174 = CARTESIAN_POINT ( 'NONE',  ( -4.000000000000000000, 3.000000000000000000, 3.000000000000000000 ) ) ;
#1175 = ORIENTED_EDGE ( 'NONE', *, *, #646, .F. ) ;
#1176 = EDGE_LOOP ( 'NONE', ( #1063, #323 ) ) ;
#1177 = DIRECTION ( 'NONE',  ( 0.000000000000000000, 0.000000000000000000, -1.000000000000000000 ) ) ;
#1178 = EDGE_CURVE ( 'NONE', #1189, #682, #1234, .T. ) ;
#1179 = EDGE_CURVE ( 'NONE', #907, #1189, #281, .T. ) ;
#1180 = CARTESIAN_POINT ( 'NONE',  ( 4.000000000000000000, 3.000000000000000000, -3.000000000000000000 ) ) ;
#1181 = CARTESIAN_POINT ( 'NONE',  ( 3.000000000000000444, 3.469446951953614189E-15, 6.854925236645541986 ) ) ;
#1182 = EDGE_LOOP ( 'NONE', ( #189, #735 ) ) ;
#1183 = DIRECTION ( 'NONE',  ( -0.000000000000000000, -1.000000000000000000, -0.000000000000000000 ) ) ;
#1184 = AXIS2_PLACEMENT_3D ( 'NONE', #1052, #581, #167 ) ;
#1185 = PLANE ( 'NONE',  #937 ) ;
#1186 = EDGE_CURVE ( 'NONE', #954, #528, #742, .T. ) ;
#1187 = AXIS2_PLACEMENT_3D ( 'NONE', #692, #487, #879 ) ;
#1188 = LINE ( 'NONE', #19, #628 ) ;
#1189 = VERTEX_POINT ( 'NONE', #1122 ) ;
#1190 = CARTESIAN_POINT ( 'NONE',  ( 1.187907395172932002E-15, 3.000000000000000888, 9.699999999999997513 ) ) ;
#1191 = CARTESIAN_POINT ( 'NONE',  ( -4.000000000000000000, 3.000000000000000000, 4.000000000000000000 ) ) ;
#1192 = LINE ( 'NONE', #206, #567 ) ;
#1193 = ADVANCED_FACE ( 'NONE', ( #239 ), #1011, .T. ) ;
#1194 = ORIENTED_EDGE ( 'NONE', *, *, #1042, .T. ) ;
#1195 = DIRECTION ( 'NONE',  ( 0.000000000000000000, 0.000000000000000000, -1.000000000000000000 ) ) ;
#1196 = DIRECTION ( 'NONE',  ( 0.000000000000000000, 1.000000000000000000, -0.000000000000000000 ) ) ;
#1197 = DIRECTION ( 'NONE',  ( -0.000000000000000000, -1.000000000000000000, -0.000000000000000000 ) ) ;
#1198 = ORIENTED_EDGE ( 'NONE', *, *, #836, .T. ) ;
#1199 = CARTESIAN_POINT ( 'NONE',  ( -3.000000000000000000, 3.000000000000000000, -6.854925236645541986 ) ) ;
#1200 = ORIENTED_EDGE ( 'NONE', *, *, #870, .F. ) ;
#1201 = DIRECTION ( 'NONE',  ( 0.000000000000000000, 1.000000000000000000, -0.000000000000000000 ) ) ;
#1202 = CIRCLE ( 'NONE', #66, 1.500000000000000444 ) ;
#1203 = LINE ( 'NONE', #703, #235 ) ;
#1204 = AXIS2_PLACEMENT_3D ( 'NONE', #331, #723, #616 ) ;
#1205 = CARTESIAN_POINT ( 'NONE',  ( 4.000000000000000000, 0.000000000000000000, 3.000000000000000000 ) ) ;
#1206 = VECTOR ( 'NONE', #542, 1000.000000000000000 ) ;
#1207 = ORIENTED_EDGE ( 'NONE', *, *, #202, .F. ) ;
#1208 = DIRECTION ( 'NONE',  ( 0.000000000000000000, 0.000000000000000000, -1.000000000000000000 ) ) ;
#1209 = VERTEX_POINT ( 'NONE', #545 ) ;
#1210 =( NAMED_UNIT ( * ) PLANE_ANGLE_UNIT ( ) SI_UNIT ( $, .RADIAN. ) );
#1211 = CARTESIAN_POINT ( 'NONE',  ( 0.000000000000000000, 3.000000000000000000, -3.000000000000000000 ) ) ;
#1212 = CARTESIAN_POINT ( 'NONE',  ( 0.000000000000000000, -0.000000000000000000, -3.000000000000000000 ) ) ;
#1213 = EDGE_CURVE ( 'NONE', #229, #862, #455, .T. ) ;
#1214 = ORIENTED_EDGE ( 'NONE', *, *, #726, .T. ) ;
#1215 = PLANE ( 'NONE',  #1248 ) ;
#1216 = VERTEX_POINT ( 'NONE', #1024 ) ;
#1217 = DIRECTION ( 'NONE',  ( 0.000000000000000000, -1.000000000000000000, 0.000000000000000000 ) ) ;
#1218 = EDGE_CURVE ( 'NONE', #784, #1189, #553, .T. ) ;
#1219 = CARTESIAN_POINT ( 'NONE',  ( 8.108874975056313161, 13.00000000000000000, 5.323170731707317138 ) ) ;
#1220 = ORIENTED_EDGE ( 'NONE', *, *, #1056, .F. ) ;
#1221 = DIRECTION ( 'NONE',  ( 0.000000000000000000, 1.000000000000000000, -0.000000000000000000 ) ) ;
#1222 = ORIENTED_EDGE ( 'NONE', *, *, #1186, .T. ) ;
#1223 = DIRECTION ( 'NONE',  ( -1.000000000000000000, 0.000000000000000000, 0.000000000000000000 ) ) ;
#1224 = VECTOR ( 'NONE', #1077, 1000.000000000000000 ) ;
#1225 = LINE ( 'NONE', #1142, #755 ) ;
#1226 = CIRCLE ( 'NONE', #676, 3.000000000000000444 ) ;
#1227 = DIRECTION ( 'NONE',  ( 1.000000000000000000, 0.000000000000000000, -0.000000000000000000 ) ) ;
#1228 = VECTOR ( 'NONE', #839, 1000.000000000000000 ) ;
#1229 = VECTOR ( 'NONE', #445, 1000.000000000000000 ) ;
#1230 = CARTESIAN_POINT ( 'NONE',  ( 0.000000000000000000, 0.000000000000000000, 3.000000000000000000 ) ) ;
#1231 = AXIS2_PLACEMENT_3D ( 'NONE', #431, #826, #1208 ) ;
#1232 = EDGE_CURVE ( 'NONE', #495, #425, #240, .T. ) ;
#1233 = ORIENTED_EDGE ( 'NONE', *, *, #657, .T. ) ;
#1234 = LINE ( 'NONE', #523, #860 ) ;
#1235 = EDGE_CURVE ( 'NONE', #588, #842, #1137, .T. ) ;
#1236 = DIRECTION ( 'NONE',  ( 0.000000000000000000, -0.7177916798535346476, 0.6962579294579278599 ) ) ;
#1237 = ORIENTED_EDGE ( 'NONE', *, *, #488, .F. ) ;
#1238 = CARTESIAN_POINT ( 'NONE',  ( -3.000000000000000000, 0.000000000000000000, 4.000000000000000000 ) ) ;
#1239 = CARTESIAN_POINT ( 'NONE',  ( -5.323170731707318026, 3.000000000000000888, -8.108874975056313161 ) ) ;
#1240 = ORIENTED_EDGE ( 'NONE', *, *, #999, .T. ) ;
#1241 = DIRECTION ( 'NONE',  ( 0.000000000000000000, 0.000000000000000000, 1.000000000000000000 ) ) ;
#1242 = CARTESIAN_POINT ( 'NONE',  ( -8.108874975056313161, 3.000000000000000888, -5.323170731707318026 ) ) ;
#1243 = ORIENTED_EDGE ( 'NONE', *, *, #1004, .T. ) ;
#1244 = AXIS2_PLACEMENT_3D ( 'NONE', #465, #176, #948 ) ;
#1245 = PRESENTATION_LAYER_ASSIGNMENT (  '', '', ( #915 ) ) ;
#1246 = CARTESIAN_POINT ( 'NONE',  ( 0.000000000000000000, 3.000000000000000000, 0.000000000000000000 ) ) ;
#1247 = VECTOR ( 'NONE', #1250, 1000.000000000000000 ) ;
#1248 = AXIS2_PLACEMENT_3D ( 'NONE', #1116, #233, #644 ) ;
#1249 = ORIENTED_EDGE ( 'NONE', *, *, #1113, .T. ) ;
#1250 = DIRECTION ( 'NONE',  ( -1.000000000000000000, 0.000000000000000000, 0.000000000000000000 ) ) ;
#1251 = EDGE_CURVE ( 'NONE', #528, #1209, #961, .T. ) ;
#1252 = ADVANCED_FACE ( 'NONE', ( #923 ), #443, .T. ) ;
#1253 = DIRECTION ( 'NONE',  ( 0.000000000000000000, -1.000000000000000000, 0.000000000000000000 ) ) ;
#1254 = ORIENTED_EDGE ( 'NONE', *, *, #510, .T. ) ;
#1255 = ORIENTED_EDGE ( 'NONE', *, *, #49, .T. ) ;
#1256 = DIRECTION ( 'NONE',  ( 0.000000000000000000, 1.000000000000000000, -0.000000000000000000 ) ) ;
#1257 = CARTESIAN_POINT ( 'NONE',  ( -3.000000000000000000, 3.000000000000000000, 0.000000000000000000 ) ) ;
#1258 = EDGE_CURVE ( 'NONE', #666, #479, #919, .T. ) ;
#1259 = FACE_OUTER_BOUND ( 'NONE', #466, .T. ) ;
#1260 = ORIENTED_EDGE ( 'NONE', *, *, #646, .T. ) ;
#1261 = DIRECTION ( 'NONE',  ( 0.000000000000000000, 0.000000000000000000, 1.000000000000000000 ) ) ;
#1262 = DIRECTION ( 'NONE',  ( 0.000000000000000000, 0.000000000000000000, -1.000000000000000000 ) ) ;
#1263 = VERTEX_POINT ( 'NONE', #620 ) ;
#1264 = VECTOR ( 'NONE', #800, 1000.000000000000000 ) ;
#1265 = CIRCLE ( 'NONE', #193, 1.000000000000000000 ) ;
#1266 = ORIENTED_EDGE ( 'NONE', *, *, #1036, .T. ) ;
#1267 = CARTESIAN_POINT ( 'NONE',  ( -6.854925236645541986, 3.000000000000000000, -3.000000000000000000 ) ) ;
#1268 = CIRCLE ( 'NONE', #260, 1.500000000000000444 ) ;
#1269 = EDGE_CURVE ( 'NONE', #518, #984, #113, .T. ) ;
#1270 = AXIS2_PLACEMENT_3D ( 'NONE', #60, #56, #460 ) ;
#1271 = ORIENTED_EDGE ( 'NONE', *, *, #101, .T. ) ;
#1272 = CARTESIAN_POINT ( 'NONE',  ( 4.000000000000000000, 3.000000000000000000, 4.000000000000000000 ) ) ;
#1273 = ORIENTED_EDGE ( 'NONE', *, *, #423, .T. ) ;
#1274 = EDGE_CURVE ( 'NONE', #57, #846, #429, .T. ) ;
#1275 = ORIENTED_EDGE ( 'NONE', *, *, #1086, .F. ) ;
#1276 = FACE_OUTER_BOUND ( 'NONE', #738, .T. ) ;
#1277 = CARTESIAN_POINT ( 'NONE',  ( -8.108874975056313161, 13.00000000000000000, -5.323170731707317138 ) ) ;
#1278 = DIRECTION ( 'NONE',  ( 0.000000000000000000, 1.000000000000000000, -0.000000000000000000 ) ) ;
#1279 = VERTEX_POINT ( 'NONE', #329 ) ;
#1280 = DIRECTION ( 'NONE',  ( 0.000000000000000000, -1.000000000000000000, 0.000000000000000000 ) ) ;
#1281 = CARTESIAN_POINT ( 'NONE',  ( -4.000000000000000000, 3.000000000000000000, -4.000000000000000000 ) ) ;
ENDSEC;
END-ISO-10303-21;
