ISO-10303-21;
HEADER;
FILE_DESCRIPTION (( 'STEP AP214' ),
    '1' );
FILE_NAME ('Inibidor_Papelão.STEP',
    '2026-07-02T15:17:22',
    ( '' ),
    ( '' ),
    'SwSTEP 2.0',
    'SolidWorks 2023',
    '' );
FILE_SCHEMA (( 'AUTOMOTIVE_DESIGN' ));
ENDSEC;

DATA;
#1 = EDGE_CURVE ( 'NONE', #175, #30, #173, .T. ) ;
#2 = VECTOR ( 'NONE', #165, 1000.000000000000000 ) ;
#3 = CARTESIAN_POINT ( 'NONE',  ( 0.000000000000000000, 0.000000000000000000, 200.0000000000000000 ) ) ;
#4 = PRODUCT_RELATED_PRODUCT_CATEGORY ( 'part', '', ( #146 ) ) ;
#5 = VERTEX_POINT ( 'NONE', #80 ) ;
#6 = ADVANCED_BREP_SHAPE_REPRESENTATION ( 'Inibidor_Papel\X2\00e3\X0\o', ( #32, #125 ), #181 ) ;
#7 = DIRECTION ( 'NONE',  ( 1.000000000000000000, 0.000000000000000000, 0.000000000000000000 ) ) ;
#8 = CIRCLE ( 'NONE', #50, 20.22999999999999687 ) ;
#9 = DIRECTION ( 'NONE',  ( 0.000000000000000000, 0.000000000000000000, 1.000000000000000000 ) ) ;
#10 = DIRECTION ( 'NONE',  ( 0.000000000000000000, 0.000000000000000000, 1.000000000000000000 ) ) ;
#11 = ORIENTED_EDGE ( 'NONE', *, *, #1, .F. ) ;
#12 = CARTESIAN_POINT ( 'NONE',  ( 0.000000000000000000, 0.000000000000000000, 0.000000000000000000 ) ) ;
#13 = VERTEX_POINT ( 'NONE', #137 ) ;
#14 = ORIENTED_EDGE ( 'NONE', *, *, #131, .T. ) ;
#15 = APPLICATION_PROTOCOL_DEFINITION ( 'draft international standard', 'automotive_design', 1998, #108 ) ;
#16 = PRODUCT_DEFINITION_SHAPE ( 'NONE', 'NONE',  #44 ) ;
#17 = UNCERTAINTY_MEASURE_WITH_UNIT (LENGTH_MEASURE( 1.000000000000000082E-05 ), #46, 'distance_accuracy_value', 'NONE');
#18 = AXIS2_PLACEMENT_3D ( 'NONE', #132, #134, #133 ) ;
#19 = LINE ( 'NONE', #97, #48 ) ;
#20 = CYLINDRICAL_SURFACE ( 'NONE', #18, 22.23000000000000043 ) ;
#21 = EDGE_CURVE ( 'NONE', #29, #83, #198, .T. ) ;
#22 = DIRECTION ( 'NONE',  ( 1.000000000000000000, 0.000000000000000000, 0.000000000000000000 ) ) ;
#23 = DIRECTION ( 'NONE',  ( 0.000000000000000000, 0.000000000000000000, 1.000000000000000000 ) ) ;
#24 = DIRECTION ( 'NONE',  ( -1.000000000000000000, 0.000000000000000000, 0.000000000000000000 ) ) ;
#25 = APPLICATION_PROTOCOL_DEFINITION ( 'draft international standard', 'automotive_design', 1998, #79 ) ;
#26 = EDGE_LOOP ( 'NONE', ( #61, #91, #157, #56 ) ) ;
#27 = DIRECTION ( 'NONE',  ( 1.000000000000000000, 0.000000000000000000, 0.000000000000000000 ) ) ;
#28 = ADVANCED_FACE ( 'NONE', ( #188 ), #20, .T. ) ;
#29 = VERTEX_POINT ( 'NONE', #122 ) ;
#30 = VERTEX_POINT ( 'NONE', #199 ) ;
#31 = ORIENTED_EDGE ( 'NONE', *, *, #197, .T. ) ;
#32 = MANIFOLD_SOLID_BREP ( 'Ressalto-extrusão1', #38 ) ;
#33 = EDGE_CURVE ( 'NONE', #149, #5, #19, .T. ) ;
#34 = PRESENTATION_STYLE_ASSIGNMENT (( #120 ) ) ;
#35 = CARTESIAN_POINT ( 'NONE',  ( 0.000000000000000000, 0.000000000000000000, 200.0000000000000000 ) ) ;
#36 = DIRECTION ( 'NONE',  ( 0.000000000000000000, 0.000000000000000000, 1.000000000000000000 ) ) ;
#37 = EDGE_CURVE ( 'NONE', #13, #5, #179, .T. ) ;
#38 = CLOSED_SHELL ( 'NONE', ( #180, #28, #94, #167, #104, #145 ) ) ;
#39 = CARTESIAN_POINT ( 'NONE',  ( 0.000000000000000000, 0.000000000000000000, 0.000000000000000000 ) ) ;
#40 = CARTESIAN_POINT ( 'NONE',  ( 0.000000000000000000, 0.000000000000000000, 200.0000000000000000 ) ) ;
#41 = ORIENTED_EDGE ( 'NONE', *, *, #21, .T. ) ;
#42 = AXIS2_PLACEMENT_3D ( 'NONE', #40, #23, #27 ) ;
#43 = DIRECTION ( 'NONE',  ( -0.000000000000000000, -0.000000000000000000, -1.000000000000000000 ) ) ;
#44 = PRODUCT_DEFINITION ( 'UNKNOWN', '', #77, #163 ) ;
#45 = ORIENTED_EDGE ( 'NONE', *, *, #37, .F. ) ;
#46 =( LENGTH_UNIT ( ) NAMED_UNIT ( * ) SI_UNIT ( .MILLI., .METRE. ) );
#47 = ORIENTED_EDGE ( 'NONE', *, *, #131, .F. ) ;
#48 = VECTOR ( 'NONE', #187, 1000.000000000000000 ) ;
#49 = EDGE_CURVE ( 'NONE', #149, #63, #99, .T. ) ;
#50 = AXIS2_PLACEMENT_3D ( 'NONE', #127, #86, #7 ) ;
#51 = UNCERTAINTY_MEASURE_WITH_UNIT (LENGTH_MEASURE( 1.000000000000000082E-05 ), #170, 'distance_accuracy_value', 'NONE');
#52 = PLANE ( 'NONE',  #93 ) ;
#53 = FACE_OUTER_BOUND ( 'NONE', #142, .T. ) ;
#54 =( NAMED_UNIT ( * ) PLANE_ANGLE_UNIT ( ) SI_UNIT ( $, .RADIAN. ) );
#55 = EDGE_LOOP ( 'NONE', ( #128, #156, #114, #14 ) ) ;
#56 = ORIENTED_EDGE ( 'NONE', *, *, #62, .F. ) ;
#57 = CYLINDRICAL_SURFACE ( 'NONE', #65, 20.22999999999999687 ) ;
#58 = DIRECTION ( 'NONE',  ( 1.000000000000000000, 0.000000000000000000, 0.000000000000000000 ) ) ;
#59 = DIRECTION ( 'NONE',  ( 0.000000000000000000, 0.000000000000000000, 1.000000000000000000 ) ) ;
#60 =( GEOMETRIC_REPRESENTATION_CONTEXT ( 3 ) GLOBAL_UNCERTAINTY_ASSIGNED_CONTEXT ( ( #51 ) ) GLOBAL_UNIT_ASSIGNED_CONTEXT ( ( #170, #54, #182 ) ) REPRESENTATION_CONTEXT ( 'NONE', 'WORKASPACE' ) );
#61 = ORIENTED_EDGE ( 'NONE', *, *, #197, .F. ) ;
#62 = EDGE_CURVE ( 'NONE', #29, #30, #96, .T. ) ;
#63 = VERTEX_POINT ( 'NONE', #117 ) ;
#64 = CARTESIAN_POINT ( 'NONE',  ( 0.000000000000000000, 0.000000000000000000, 0.000000000000000000 ) ) ;
#65 = AXIS2_PLACEMENT_3D ( 'NONE', #172, #43, #155 ) ;
#66 = FILL_AREA_STYLE_COLOUR ( '', #106 ) ;
#67 = SURFACE_STYLE_FILL_AREA ( #78 ) ;
#68 = CIRCLE ( 'NONE', #42, 20.22999999999999687 ) ;
#69 = DIRECTION ( 'NONE',  ( -0.000000000000000000, -0.000000000000000000, -1.000000000000000000 ) ) ;
#70 = FACE_OUTER_BOUND ( 'NONE', #74, .T. ) ;
#71 = DIRECTION ( 'NONE',  ( -0.000000000000000000, -0.000000000000000000, -1.000000000000000000 ) ) ;
#72 = DIRECTION ( 'NONE',  ( 0.000000000000000000, 0.000000000000000000, 1.000000000000000000 ) ) ;
#73 = EDGE_LOOP ( 'NONE', ( #90, #129 ) ) ;
#74 = EDGE_LOOP ( 'NONE', ( #196, #141, #174, #87 ) ) ;
#75 =( NAMED_UNIT ( * ) SI_UNIT ( $, .STERADIAN. ) SOLID_ANGLE_UNIT ( ) );
#76 = VECTOR ( 'NONE', #103, 1000.000000000000000 ) ;
#77 = PRODUCT_DEFINITION_FORMATION_WITH_SPECIFIED_SOURCE ( 'ANY', '', #146, .NOT_KNOWN. ) ;
#78 = FILL_AREA_STYLE ('',( #66 ) ) ;
#79 = APPLICATION_CONTEXT ( 'automotive_design' ) ;
#80 = CARTESIAN_POINT ( 'NONE',  ( -20.22999999999999687, 0.000000000000000000, 0.000000000000000000 ) ) ;
#81 = ORIENTED_EDGE ( 'NONE', *, *, #33, .T. ) ;
#82 = AXIS2_PLACEMENT_3D ( 'NONE', #102, #9, #193 ) ;
#83 = VERTEX_POINT ( 'NONE', #110 ) ;
#84 = DIRECTION ( 'NONE',  ( 0.000000000000000000, 0.000000000000000000, 1.000000000000000000 ) ) ;
#85 = FACE_BOUND ( 'NONE', #136, .T. ) ;
#86 = DIRECTION ( 'NONE',  ( 0.000000000000000000, 0.000000000000000000, 1.000000000000000000 ) ) ;
#87 = ORIENTED_EDGE ( 'NONE', *, *, #33, .F. ) ;
#88 = DIRECTION ( 'NONE',  ( -1.000000000000000000, 0.000000000000000000, 0.000000000000000000 ) ) ;
#89 = SHAPE_DEFINITION_REPRESENTATION ( #16, #6 ) ;
#90 = ORIENTED_EDGE ( 'NONE', *, *, #49, .F. ) ;
#91 = ORIENTED_EDGE ( 'NONE', *, *, #186, .T. ) ;
#92 = DIRECTION ( 'NONE',  ( 1.000000000000000000, 0.000000000000000000, 0.000000000000000000 ) ) ;
#93 = AXIS2_PLACEMENT_3D ( 'NONE', #35, #166, #109 ) ;
#94 = ADVANCED_FACE ( 'NONE', ( #53, #168 ), #52, .T. ) ;
#95 = CIRCLE ( 'NONE', #82, 22.23000000000000043 ) ;
#96 = LINE ( 'NONE', #184, #2 ) ;
#97 = CARTESIAN_POINT ( 'NONE',  ( -20.22999999999999687, 0.000000000000000000, 200.0000000000000000 ) ) ;
#98 = CARTESIAN_POINT ( 'NONE',  ( 0.000000000000000000, 0.000000000000000000, 200.0000000000000000 ) ) ;
#99 = CIRCLE ( 'NONE', #119, 20.22999999999999687 ) ;
#100 = DIRECTION ( 'NONE',  ( 1.000000000000000000, 0.000000000000000000, 0.000000000000000000 ) ) ;
#101 = CYLINDRICAL_SURFACE ( 'NONE', #144, 20.22999999999999687 ) ;
#102 = CARTESIAN_POINT ( 'NONE',  ( 0.000000000000000000, 0.000000000000000000, 0.000000000000000000 ) ) ;
#103 = DIRECTION ( 'NONE',  ( -0.000000000000000000, -0.000000000000000000, -1.000000000000000000 ) ) ;
#104 = ADVANCED_FACE ( 'NONE', ( #164 ), #126, .T. ) ;
#105 = EDGE_LOOP ( 'NONE', ( #47, #11 ) ) ;
#106 = COLOUR_RGB ( '',0.7921568627450980005, 0.8196078431372548767, 0.9333333333333333481 ) ;
#107 = AXIS2_PLACEMENT_3D ( 'NONE', #12, #59, #113 ) ;
#108 = APPLICATION_CONTEXT ( 'automotive_design' ) ;
#109 = DIRECTION ( 'NONE',  ( 1.000000000000000000, 0.000000000000000000, -0.000000000000000000 ) ) ;
#110 = CARTESIAN_POINT ( 'NONE',  ( 22.23000000000000043, 2.722389834504566240E-15, 200.0000000000000000 ) ) ;
#111 = SURFACE_SIDE_STYLE ('',( #67 ) ) ;
#112 = FACE_OUTER_BOUND ( 'NONE', #192, .T. ) ;
#113 = DIRECTION ( 'NONE',  ( 1.000000000000000000, 0.000000000000000000, -0.000000000000000000 ) ) ;
#114 = ORIENTED_EDGE ( 'NONE', *, *, #62, .T. ) ;
#115 = EDGE_CURVE ( 'NONE', #63, #13, #171, .T. ) ;
#116 = EDGE_CURVE ( 'NONE', #63, #149, #68, .T. ) ;
#117 = CARTESIAN_POINT ( 'NONE',  ( 20.22999999999999687, 2.477460474675095155E-15, 200.0000000000000000 ) ) ;
#118 = DIRECTION ( 'NONE',  ( 1.000000000000000000, 0.000000000000000000, 0.000000000000000000 ) ) ;
#119 = AXIS2_PLACEMENT_3D ( 'NONE', #98, #151, #100 ) ;
#120 = SURFACE_STYLE_USAGE ( .BOTH. , #111 ) ;
#121 = DIRECTION ( 'NONE',  ( 1.000000000000000000, 0.000000000000000000, 0.000000000000000000 ) ) ;
#122 = CARTESIAN_POINT ( 'NONE',  ( -22.23000000000000043, 0.000000000000000000, 200.0000000000000000 ) ) ;
#123 = MECHANICAL_DESIGN_GEOMETRIC_PRESENTATION_REPRESENTATION (  '', ( #135 ), #60 ) ;
#124 = CARTESIAN_POINT ( 'NONE',  ( 22.23000000000000043, 2.722389834504566240E-15, 0.000000000000000000 ) ) ;
#125 = AXIS2_PLACEMENT_3D ( 'NONE', #161, #10, #92 ) ;
#126 = CYLINDRICAL_SURFACE ( 'NONE', #194, 22.23000000000000043 ) ;
#127 = CARTESIAN_POINT ( 'NONE',  ( 0.000000000000000000, 0.000000000000000000, 0.000000000000000000 ) ) ;
#128 = ORIENTED_EDGE ( 'NONE', *, *, #186, .F. ) ;
#129 = ORIENTED_EDGE ( 'NONE', *, *, #116, .F. ) ;
#130 = ORIENTED_EDGE ( 'NONE', *, *, #37, .T. ) ;
#131 = EDGE_CURVE ( 'NONE', #30, #175, #95, .T. ) ;
#132 = CARTESIAN_POINT ( 'NONE',  ( 0.000000000000000000, 0.000000000000000000, 200.0000000000000000 ) ) ;
#133 = DIRECTION ( 'NONE',  ( -1.000000000000000000, 0.000000000000000000, 0.000000000000000000 ) ) ;
#134 = DIRECTION ( 'NONE',  ( -0.000000000000000000, -0.000000000000000000, -1.000000000000000000 ) ) ;
#135 = STYLED_ITEM ( 'NONE', ( #34 ), #32 ) ;
#136 = EDGE_LOOP ( 'NONE', ( #195, #130 ) ) ;
#137 = CARTESIAN_POINT ( 'NONE',  ( 20.22999999999999687, 2.477460474675095155E-15, 0.000000000000000000 ) ) ;
#138 = PLANE ( 'NONE',  #107 ) ;
#139 = CARTESIAN_POINT ( 'NONE',  ( 20.22999999999999687, 2.477460474675095155E-15, 200.0000000000000000 ) ) ;
#140 = CARTESIAN_POINT ( 'NONE',  ( -20.22999999999999687, 0.000000000000000000, 200.0000000000000000 ) ) ;
#141 = ORIENTED_EDGE ( 'NONE', *, *, #115, .T. ) ;
#142 = EDGE_LOOP ( 'NONE', ( #41, #31 ) ) ;
#143 =( NAMED_UNIT ( * ) PLANE_ANGLE_UNIT ( ) SI_UNIT ( $, .RADIAN. ) );
#144 = AXIS2_PLACEMENT_3D ( 'NONE', #153, #191, #24 ) ;
#145 = ADVANCED_FACE ( 'NONE', ( #112 ), #101, .F. ) ;
#146 = PRODUCT ( 'Inibidor_Papel\X2\00e3\X0\o', 'Inibidor_Papel\X2\00e3\X0\o', '', ( #176 ) ) ;
#147 = VECTOR ( 'NONE', #71, 1000.000000000000000 ) ;
#148 = DIRECTION ( 'NONE',  ( 0.000000000000000000, 0.000000000000000000, 1.000000000000000000 ) ) ;
#149 = VERTEX_POINT ( 'NONE', #140 ) ;
#150 = AXIS2_PLACEMENT_3D ( 'NONE', #154, #72, #58 ) ;
#151 = DIRECTION ( 'NONE',  ( 0.000000000000000000, 0.000000000000000000, 1.000000000000000000 ) ) ;
#152 = FACE_OUTER_BOUND ( 'NONE', #105, .T. ) ;
#153 = CARTESIAN_POINT ( 'NONE',  ( 0.000000000000000000, 0.000000000000000000, 200.0000000000000000 ) ) ;
#154 = CARTESIAN_POINT ( 'NONE',  ( 0.000000000000000000, 0.000000000000000000, 200.0000000000000000 ) ) ;
#155 = DIRECTION ( 'NONE',  ( -1.000000000000000000, 0.000000000000000000, 0.000000000000000000 ) ) ;
#156 = ORIENTED_EDGE ( 'NONE', *, *, #21, .F. ) ;
#157 = ORIENTED_EDGE ( 'NONE', *, *, #1, .T. ) ;
#158 = CARTESIAN_POINT ( 'NONE',  ( 22.23000000000000043, 2.722389834504566240E-15, 200.0000000000000000 ) ) ;
#159 = AXIS2_PLACEMENT_3D ( 'NONE', #3, #148, #22 ) ;
#160 = ORIENTED_EDGE ( 'NONE', *, *, #115, .F. ) ;
#161 = CARTESIAN_POINT ( 'NONE',  ( 0.000000000000000000, 0.000000000000000000, 0.000000000000000000 ) ) ;
#162 = AXIS2_PLACEMENT_3D ( 'NONE', #39, #84, #121 ) ;
#163 = PRODUCT_DEFINITION_CONTEXT ( 'detailed design', #108, 'design' ) ;
#164 = FACE_OUTER_BOUND ( 'NONE', #55, .T. ) ;
#165 = DIRECTION ( 'NONE',  ( -0.000000000000000000, -0.000000000000000000, -1.000000000000000000 ) ) ;
#166 = DIRECTION ( 'NONE',  ( 0.000000000000000000, 0.000000000000000000, 1.000000000000000000 ) ) ;
#167 = ADVANCED_FACE ( 'NONE', ( #152, #85 ), #138, .F. ) ;
#168 = FACE_BOUND ( 'NONE', #73, .T. ) ;
#169 = AXIS2_PLACEMENT_3D ( 'NONE', #64, #36, #118 ) ;
#170 =( LENGTH_UNIT ( ) NAMED_UNIT ( * ) SI_UNIT ( .MILLI., .METRE. ) );
#171 = LINE ( 'NONE', #139, #147 ) ;
#172 = CARTESIAN_POINT ( 'NONE',  ( 0.000000000000000000, 0.000000000000000000, 200.0000000000000000 ) ) ;
#173 = CIRCLE ( 'NONE', #162, 22.23000000000000043 ) ;
#174 = ORIENTED_EDGE ( 'NONE', *, *, #178, .F. ) ;
#175 = VERTEX_POINT ( 'NONE', #124 ) ;
#176 = PRODUCT_CONTEXT ( 'NONE', #79, 'mechanical' ) ;
#177 = PRESENTATION_LAYER_ASSIGNMENT (  '', '', ( #135 ) ) ;
#178 = EDGE_CURVE ( 'NONE', #5, #13, #8, .T. ) ;
#179 = CIRCLE ( 'NONE', #169, 20.22999999999999687 ) ;
#180 = ADVANCED_FACE ( 'NONE', ( #70 ), #57, .F. ) ;
#181 =( GEOMETRIC_REPRESENTATION_CONTEXT ( 3 ) GLOBAL_UNCERTAINTY_ASSIGNED_CONTEXT ( ( #17 ) ) GLOBAL_UNIT_ASSIGNED_CONTEXT ( ( #46, #143, #75 ) ) REPRESENTATION_CONTEXT ( 'NONE', 'WORKASPACE' ) );
#182 =( NAMED_UNIT ( * ) SI_UNIT ( $, .STERADIAN. ) SOLID_ANGLE_UNIT ( ) );
#183 = CIRCLE ( 'NONE', #150, 22.23000000000000043 ) ;
#184 = CARTESIAN_POINT ( 'NONE',  ( -22.23000000000000043, 0.000000000000000000, 200.0000000000000000 ) ) ;
#185 = ORIENTED_EDGE ( 'NONE', *, *, #116, .T. ) ;
#186 = EDGE_CURVE ( 'NONE', #83, #175, #190, .T. ) ;
#187 = DIRECTION ( 'NONE',  ( -0.000000000000000000, -0.000000000000000000, -1.000000000000000000 ) ) ;
#188 = FACE_OUTER_BOUND ( 'NONE', #26, .T. ) ;
#189 = CARTESIAN_POINT ( 'NONE',  ( 0.000000000000000000, 0.000000000000000000, 200.0000000000000000 ) ) ;
#190 = LINE ( 'NONE', #158, #76 ) ;
#191 = DIRECTION ( 'NONE',  ( -0.000000000000000000, -0.000000000000000000, -1.000000000000000000 ) ) ;
#192 = EDGE_LOOP ( 'NONE', ( #160, #185, #81, #45 ) ) ;
#193 = DIRECTION ( 'NONE',  ( 1.000000000000000000, 0.000000000000000000, 0.000000000000000000 ) ) ;
#194 = AXIS2_PLACEMENT_3D ( 'NONE', #189, #69, #88 ) ;
#195 = ORIENTED_EDGE ( 'NONE', *, *, #178, .T. ) ;
#196 = ORIENTED_EDGE ( 'NONE', *, *, #49, .T. ) ;
#197 = EDGE_CURVE ( 'NONE', #83, #29, #183, .T. ) ;
#198 = CIRCLE ( 'NONE', #159, 22.23000000000000043 ) ;
#199 = CARTESIAN_POINT ( 'NONE',  ( -22.23000000000000043, 0.000000000000000000, 0.000000000000000000 ) ) ;
ENDSEC;
END-ISO-10303-21;
