ISO-10303-21;
HEADER;
FILE_DESCRIPTION (( 'STEP AP214' ),
    '1' );
FILE_NAME ('Inibidor.STEP',
    '2026-07-02T15:04:09',
    ( '' ),
    ( '' ),
    'SwSTEP 2.0',
    'SolidWorks 2023',
    '' );
FILE_SCHEMA (( 'AUTOMOTIVE_DESIGN' ));
ENDSEC;

DATA;
#1 = VECTOR ( 'NONE', #80, 1000.000000000000000 ) ;
#2 = SURFACE_STYLE_FILL_AREA ( #138 ) ;
#3 = DIRECTION ( 'NONE',  ( -1.000000000000000000, 0.000000000000000000, 0.000000000000000000 ) ) ;
#4 = CYLINDRICAL_SURFACE ( 'NONE', #153, 21.00000000000000000 ) ;
#5 = ORIENTED_EDGE ( 'NONE', *, *, #96, .F. ) ;
#6 = DIRECTION ( 'NONE',  ( 0.000000000000000000, 0.000000000000000000, 1.000000000000000000 ) ) ;
#7 = ORIENTED_EDGE ( 'NONE', *, *, #96, .T. ) ;
#8 = ORIENTED_EDGE ( 'NONE', *, *, #177, .F. ) ;
#9 = ORIENTED_EDGE ( 'NONE', *, *, #184, .T. ) ;
#10 = ORIENTED_EDGE ( 'NONE', *, *, #155, .T. ) ;
#11 = DIRECTION ( 'NONE',  ( 1.000000000000000000, 0.000000000000000000, -0.000000000000000000 ) ) ;
#12 = DIRECTION ( 'NONE',  ( 1.000000000000000000, 0.000000000000000000, 0.000000000000000000 ) ) ;
#13 = CARTESIAN_POINT ( 'NONE',  ( 0.000000000000000000, 0.000000000000000000, 0.000000000000000000 ) ) ;
#14 = CIRCLE ( 'NONE', #102, 21.00000000000000000 ) ;
#15 = DIRECTION ( 'NONE',  ( -0.000000000000000000, -0.000000000000000000, -1.000000000000000000 ) ) ;
#16 = AXIS2_PLACEMENT_3D ( 'NONE', #13, #30, #89 ) ;
#17 = ADVANCED_FACE ( 'NONE', ( #53 ), #4, .F. ) ;
#18 = CARTESIAN_POINT ( 'NONE',  ( 0.000000000000000000, 0.000000000000000000, 0.000000000000000000 ) ) ;
#19 = FACE_OUTER_BOUND ( 'NONE', #189, .T. ) ;
#20 = DIRECTION ( 'NONE',  ( -1.000000000000000000, 0.000000000000000000, 0.000000000000000000 ) ) ;
#21 = FACE_OUTER_BOUND ( 'NONE', #85, .T. ) ;
#22 = ORIENTED_EDGE ( 'NONE', *, *, #117, .F. ) ;
#23 = CARTESIAN_POINT ( 'NONE',  ( 22.23000000000000043, 2.722389834504566240E-15, 0.000000000000000000 ) ) ;
#24 = ORIENTED_EDGE ( 'NONE', *, *, #88, .T. ) ;
#25 = ORIENTED_EDGE ( 'NONE', *, *, #184, .F. ) ;
#26 = MANIFOLD_SOLID_BREP ( 'Ressalto-extrusão1', #92 ) ;
#27 = LINE ( 'NONE', #193, #86 ) ;
#28 =( LENGTH_UNIT ( ) NAMED_UNIT ( * ) SI_UNIT ( .MILLI., .METRE. ) );
#29 = PRODUCT_DEFINITION_CONTEXT ( 'detailed design', #197, 'design' ) ;
#30 = DIRECTION ( 'NONE',  ( 0.000000000000000000, 0.000000000000000000, 1.000000000000000000 ) ) ;
#31 = CARTESIAN_POINT ( 'NONE',  ( -21.00000000000000000, 0.000000000000000000, 275.0000000000000000 ) ) ;
#32 = CARTESIAN_POINT ( 'NONE',  ( 0.000000000000000000, 0.000000000000000000, 275.0000000000000000 ) ) ;
#33 = EDGE_CURVE ( 'NONE', #57, #84, #146, .T. ) ;
#34 = PRESENTATION_LAYER_ASSIGNMENT (  '', '', ( #180 ) ) ;
#35 = CYLINDRICAL_SURFACE ( 'NONE', #76, 22.23000000000000043 ) ;
#36 = CARTESIAN_POINT ( 'NONE',  ( 0.000000000000000000, 0.000000000000000000, 275.0000000000000000 ) ) ;
#37 = EDGE_CURVE ( 'NONE', #111, #141, #51, .T. ) ;
#38 = CIRCLE ( 'NONE', #64, 22.23000000000000043 ) ;
#39 = ORIENTED_EDGE ( 'NONE', *, *, #191, .F. ) ;
#40 = LINE ( 'NONE', #56, #192 ) ;
#41 = EDGE_LOOP ( 'NONE', ( #73, #194, #58, #5 ) ) ;
#42 = CIRCLE ( 'NONE', #150, 21.00000000000000000 ) ;
#43 = ORIENTED_EDGE ( 'NONE', *, *, #88, .F. ) ;
#44 = DIRECTION ( 'NONE',  ( 0.000000000000000000, 0.000000000000000000, 1.000000000000000000 ) ) ;
#45 = DIRECTION ( 'NONE',  ( -0.000000000000000000, -0.000000000000000000, -1.000000000000000000 ) ) ;
#46 = CARTESIAN_POINT ( 'NONE',  ( 0.000000000000000000, 0.000000000000000000, 275.0000000000000000 ) ) ;
#47 = CARTESIAN_POINT ( 'NONE',  ( 21.00000000000000000, 2.571758278209441661E-15, 275.0000000000000000 ) ) ;
#48 = PRODUCT_CONTEXT ( 'NONE', #140, 'mechanical' ) ;
#49 = ORIENTED_EDGE ( 'NONE', *, *, #37, .F. ) ;
#50 = PRESENTATION_STYLE_ASSIGNMENT (( #94 ) ) ;
#51 = CIRCLE ( 'NONE', #190, 22.23000000000000043 ) ;
#52 = DIRECTION ( 'NONE',  ( 0.000000000000000000, 0.000000000000000000, 1.000000000000000000 ) ) ;
#53 = FACE_OUTER_BOUND ( 'NONE', #178, .T. ) ;
#54 = FACE_OUTER_BOUND ( 'NONE', #118, .T. ) ;
#55 = AXIS2_PLACEMENT_3D ( 'NONE', #166, #6, #11 ) ;
#56 = CARTESIAN_POINT ( 'NONE',  ( 22.23000000000000043, 2.722389834504566240E-15, 275.0000000000000000 ) ) ;
#57 = VERTEX_POINT ( 'NONE', #31 ) ;
#58 = ORIENTED_EDGE ( 'NONE', *, *, #37, .T. ) ;
#59 = ADVANCED_BREP_SHAPE_REPRESENTATION ( 'Inibidor', ( #26, #97 ), #199 ) ;
#60 = CARTESIAN_POINT ( 'NONE',  ( 22.23000000000000043, 2.722389834504566240E-15, 275.0000000000000000 ) ) ;
#61 = DIRECTION ( 'NONE',  ( -1.000000000000000000, 0.000000000000000000, 0.000000000000000000 ) ) ;
#62 = AXIS2_PLACEMENT_3D ( 'NONE', #32, #171, #78 ) ;
#63 = PRODUCT_DEFINITION_FORMATION_WITH_SPECIFIED_SOURCE ( 'ANY', '', #173, .NOT_KNOWN. ) ;
#64 = AXIS2_PLACEMENT_3D ( 'NONE', #82, #129, #120 ) ;
#65 = CARTESIAN_POINT ( 'NONE',  ( 0.000000000000000000, 0.000000000000000000, 0.000000000000000000 ) ) ;
#66 = DIRECTION ( 'NONE',  ( 0.000000000000000000, 0.000000000000000000, 1.000000000000000000 ) ) ;
#67 =( LENGTH_UNIT ( ) NAMED_UNIT ( * ) SI_UNIT ( .MILLI., .METRE. ) );
#68 = ADVANCED_FACE ( 'NONE', ( #135 ), #35, .T. ) ;
#69 = COLOUR_RGB ( '',0.7921568627450980005, 0.8196078431372548767, 0.9333333333333333481 ) ;
#70 = CARTESIAN_POINT ( 'NONE',  ( -21.00000000000000000, 0.000000000000000000, 0.000000000000000000 ) ) ;
#71 = CARTESIAN_POINT ( 'NONE',  ( 21.00000000000000000, 2.571758278209441661E-15, 0.000000000000000000 ) ) ;
#72 = ORIENTED_EDGE ( 'NONE', *, *, #177, .T. ) ;
#73 = ORIENTED_EDGE ( 'NONE', *, *, #90, .F. ) ;
#74 = PRODUCT_RELATED_PRODUCT_CATEGORY ( 'part', '', ( #173 ) ) ;
#75 = CARTESIAN_POINT ( 'NONE',  ( 0.000000000000000000, 0.000000000000000000, 275.0000000000000000 ) ) ;
#76 = AXIS2_PLACEMENT_3D ( 'NONE', #107, #169, #157 ) ;
#77 = CARTESIAN_POINT ( 'NONE',  ( 0.000000000000000000, 0.000000000000000000, 275.0000000000000000 ) ) ;
#78 = DIRECTION ( 'NONE',  ( 1.000000000000000000, 0.000000000000000000, 0.000000000000000000 ) ) ;
#79 = MECHANICAL_DESIGN_GEOMETRIC_PRESENTATION_REPRESENTATION (  '', ( #180 ), #134 ) ;
#80 = DIRECTION ( 'NONE',  ( -0.000000000000000000, -0.000000000000000000, -1.000000000000000000 ) ) ;
#81 = ORIENTED_EDGE ( 'NONE', *, *, #158, .F. ) ;
#82 = CARTESIAN_POINT ( 'NONE',  ( 0.000000000000000000, 0.000000000000000000, 0.000000000000000000 ) ) ;
#83 = VECTOR ( 'NONE', #154, 1000.000000000000000 ) ;
#84 = VERTEX_POINT ( 'NONE', #47 ) ;
#85 = EDGE_LOOP ( 'NONE', ( #161, #49 ) ) ;
#86 = VECTOR ( 'NONE', #151, 1000.000000000000000 ) ;
#87 = CYLINDRICAL_SURFACE ( 'NONE', #99, 22.23000000000000043 ) ;
#88 = EDGE_CURVE ( 'NONE', #84, #132, #127, .T. ) ;
#89 = DIRECTION ( 'NONE',  ( 1.000000000000000000, 0.000000000000000000, 0.000000000000000000 ) ) ;
#90 = EDGE_CURVE ( 'NONE', #131, #163, #170, .T. ) ;
#91 = CARTESIAN_POINT ( 'NONE',  ( 21.00000000000000000, 2.571758278209441661E-15, 275.0000000000000000 ) ) ;
#92 = CLOSED_SHELL ( 'NONE', ( #104, #121, #149, #139, #68, #17 ) ) ;
#93 = CARTESIAN_POINT ( 'NONE',  ( 0.000000000000000000, 0.000000000000000000, 275.0000000000000000 ) ) ;
#94 = SURFACE_STYLE_USAGE ( .BOTH. , #137 ) ;
#95 = ORIENTED_EDGE ( 'NONE', *, *, #33, .T. ) ;
#96 = EDGE_CURVE ( 'NONE', #163, #141, #156, .T. ) ;
#97 = AXIS2_PLACEMENT_3D ( 'NONE', #18, #66, #125 ) ;
#98 = ORIENTED_EDGE ( 'NONE', *, *, #90, .T. ) ;
#99 = AXIS2_PLACEMENT_3D ( 'NONE', #75, #45, #61 ) ;
#100 = UNCERTAINTY_MEASURE_WITH_UNIT (LENGTH_MEASURE( 1.000000000000000082E-05 ), #28, 'distance_accuracy_value', 'NONE');
#101 = FACE_OUTER_BOUND ( 'NONE', #41, .T. ) ;
#102 = AXIS2_PLACEMENT_3D ( 'NONE', #46, #152, #12 ) ;
#103 = DIRECTION ( 'NONE',  ( 1.000000000000000000, 0.000000000000000000, 0.000000000000000000 ) ) ;
#104 = ADVANCED_FACE ( 'NONE', ( #19 ), #174, .F. ) ;
#105 =( NAMED_UNIT ( * ) PLANE_ANGLE_UNIT ( ) SI_UNIT ( $, .RADIAN. ) );
#106 = APPLICATION_PROTOCOL_DEFINITION ( 'draft international standard', 'automotive_design', 1998, #197 ) ;
#107 = CARTESIAN_POINT ( 'NONE',  ( 0.000000000000000000, 0.000000000000000000, 275.0000000000000000 ) ) ;
#108 = PRODUCT_DEFINITION ( 'UNKNOWN', '', #63, #29 ) ;
#109 = PRODUCT_DEFINITION_SHAPE ( 'NONE', 'NONE',  #108 ) ;
#110 = CARTESIAN_POINT ( 'NONE',  ( -22.23000000000000043, 0.000000000000000000, 275.0000000000000000 ) ) ;
#111 = VERTEX_POINT ( 'NONE', #23 ) ;
#112 = EDGE_LOOP ( 'NONE', ( #9, #147 ) ) ;
#113 = FACE_BOUND ( 'NONE', #195, .T. ) ;
#114 = ORIENTED_EDGE ( 'NONE', *, *, #155, .F. ) ;
#115 = DIRECTION ( 'NONE',  ( -0.000000000000000000, -0.000000000000000000, -1.000000000000000000 ) ) ;
#116 = EDGE_LOOP ( 'NONE', ( #81, #39, #7, #128 ) ) ;
#117 = EDGE_CURVE ( 'NONE', #132, #143, #42, .T. ) ;
#118 = EDGE_LOOP ( 'NONE', ( #162, #98 ) ) ;
#119 = FACE_BOUND ( 'NONE', #112, .T. ) ;
#120 = DIRECTION ( 'NONE',  ( 1.000000000000000000, 0.000000000000000000, 0.000000000000000000 ) ) ;
#121 = ADVANCED_FACE ( 'NONE', ( #101 ), #87, .T. ) ;
#122 = CIRCLE ( 'NONE', #172, 22.23000000000000043 ) ;
#123 = AXIS2_PLACEMENT_3D ( 'NONE', #36, #159, #20 ) ;
#124 = DIRECTION ( 'NONE',  ( 1.000000000000000000, 0.000000000000000000, 0.000000000000000000 ) ) ;
#125 = DIRECTION ( 'NONE',  ( 1.000000000000000000, 0.000000000000000000, 0.000000000000000000 ) ) ;
#126 = CIRCLE ( 'NONE', #16, 21.00000000000000000 ) ;
#127 = LINE ( 'NONE', #91, #1 ) ;
#128 = ORIENTED_EDGE ( 'NONE', *, *, #145, .T. ) ;
#129 = DIRECTION ( 'NONE',  ( 0.000000000000000000, 0.000000000000000000, 1.000000000000000000 ) ) ;
#130 = DIRECTION ( 'NONE',  ( 1.000000000000000000, 0.000000000000000000, -0.000000000000000000 ) ) ;
#131 = VERTEX_POINT ( 'NONE', #60 ) ;
#132 = VERTEX_POINT ( 'NONE', #71 ) ;
#133 =( NAMED_UNIT ( * ) PLANE_ANGLE_UNIT ( ) SI_UNIT ( $, .RADIAN. ) );
#134 =( GEOMETRIC_REPRESENTATION_CONTEXT ( 3 ) GLOBAL_UNCERTAINTY_ASSIGNED_CONTEXT ( ( #182 ) ) GLOBAL_UNIT_ASSIGNED_CONTEXT ( ( #67, #105, #160 ) ) REPRESENTATION_CONTEXT ( 'NONE', 'WORKASPACE' ) );
#135 = FACE_OUTER_BOUND ( 'NONE', #116, .T. ) ;
#136 = CARTESIAN_POINT ( 'NONE',  ( 0.000000000000000000, 0.000000000000000000, 275.0000000000000000 ) ) ;
#137 = SURFACE_SIDE_STYLE ('',( #2 ) ) ;
#138 = FILL_AREA_STYLE ('',( #175 ) ) ;
#139 = ADVANCED_FACE ( 'NONE', ( #21, #119 ), #142, .F. ) ;
#140 = APPLICATION_CONTEXT ( 'automotive_design' ) ;
#141 = VERTEX_POINT ( 'NONE', #148 ) ;
#142 = PLANE ( 'NONE',  #55 ) ;
#143 = VERTEX_POINT ( 'NONE', #70 ) ;
#144 = DIRECTION ( 'NONE',  ( 0.000000000000000000, 0.000000000000000000, 1.000000000000000000 ) ) ;
#145 = EDGE_CURVE ( 'NONE', #141, #111, #38, .T. ) ;
#146 = CIRCLE ( 'NONE', #62, 21.00000000000000000 ) ;
#147 = ORIENTED_EDGE ( 'NONE', *, *, #117, .T. ) ;
#148 = CARTESIAN_POINT ( 'NONE',  ( -22.23000000000000043, 0.000000000000000000, 0.000000000000000000 ) ) ;
#149 = ADVANCED_FACE ( 'NONE', ( #54, #113 ), #183, .T. ) ;
#150 = AXIS2_PLACEMENT_3D ( 'NONE', #165, #44, #196 ) ;
#151 = DIRECTION ( 'NONE',  ( -0.000000000000000000, -0.000000000000000000, -1.000000000000000000 ) ) ;
#152 = DIRECTION ( 'NONE',  ( 0.000000000000000000, 0.000000000000000000, 1.000000000000000000 ) ) ;
#153 = AXIS2_PLACEMENT_3D ( 'NONE', #136, #15, #3 ) ;
#154 = DIRECTION ( 'NONE',  ( -0.000000000000000000, -0.000000000000000000, -1.000000000000000000 ) ) ;
#155 = EDGE_CURVE ( 'NONE', #57, #143, #27, .T. ) ;
#156 = LINE ( 'NONE', #110, #83 ) ;
#157 = DIRECTION ( 'NONE',  ( -1.000000000000000000, 0.000000000000000000, 0.000000000000000000 ) ) ;
#158 = EDGE_CURVE ( 'NONE', #131, #111, #40, .T. ) ;
#159 = DIRECTION ( 'NONE',  ( -0.000000000000000000, -0.000000000000000000, -1.000000000000000000 ) ) ;
#160 =( NAMED_UNIT ( * ) SI_UNIT ( $, .STERADIAN. ) SOLID_ANGLE_UNIT ( ) );
#161 = ORIENTED_EDGE ( 'NONE', *, *, #145, .F. ) ;
#162 = ORIENTED_EDGE ( 'NONE', *, *, #191, .T. ) ;
#163 = VERTEX_POINT ( 'NONE', #181 ) ;
#164 = AXIS2_PLACEMENT_3D ( 'NONE', #176, #144, #130 ) ;
#165 = CARTESIAN_POINT ( 'NONE',  ( 0.000000000000000000, 0.000000000000000000, 0.000000000000000000 ) ) ;
#166 = CARTESIAN_POINT ( 'NONE',  ( 0.000000000000000000, 0.000000000000000000, 0.000000000000000000 ) ) ;
#167 = DIRECTION ( 'NONE',  ( 0.000000000000000000, 0.000000000000000000, 1.000000000000000000 ) ) ;
#168 = DIRECTION ( 'NONE',  ( 1.000000000000000000, 0.000000000000000000, 0.000000000000000000 ) ) ;
#169 = DIRECTION ( 'NONE',  ( -0.000000000000000000, -0.000000000000000000, -1.000000000000000000 ) ) ;
#170 = CIRCLE ( 'NONE', #185, 22.23000000000000043 ) ;
#171 = DIRECTION ( 'NONE',  ( 0.000000000000000000, 0.000000000000000000, 1.000000000000000000 ) ) ;
#172 = AXIS2_PLACEMENT_3D ( 'NONE', #77, #167, #103 ) ;
#173 = PRODUCT ( 'Inibidor', 'Inibidor', '', ( #48 ) ) ;
#174 = CYLINDRICAL_SURFACE ( 'NONE', #123, 21.00000000000000000 ) ;
#175 = FILL_AREA_STYLE_COLOUR ( '', #69 ) ;
#176 = CARTESIAN_POINT ( 'NONE',  ( 0.000000000000000000, 0.000000000000000000, 275.0000000000000000 ) ) ;
#177 = EDGE_CURVE ( 'NONE', #84, #57, #14, .T. ) ;
#178 = EDGE_LOOP ( 'NONE', ( #43, #72, #10, #22 ) ) ;
#179 = ORIENTED_EDGE ( 'NONE', *, *, #33, .F. ) ;
#180 = STYLED_ITEM ( 'NONE', ( #50 ), #26 ) ;
#181 = CARTESIAN_POINT ( 'NONE',  ( -22.23000000000000043, 0.000000000000000000, 275.0000000000000000 ) ) ;
#182 = UNCERTAINTY_MEASURE_WITH_UNIT (LENGTH_MEASURE( 1.000000000000000082E-05 ), #67, 'distance_accuracy_value', 'NONE');
#183 = PLANE ( 'NONE',  #164 ) ;
#184 = EDGE_CURVE ( 'NONE', #143, #132, #126, .T. ) ;
#185 = AXIS2_PLACEMENT_3D ( 'NONE', #93, #52, #168 ) ;
#186 = DIRECTION ( 'NONE',  ( 0.000000000000000000, 0.000000000000000000, 1.000000000000000000 ) ) ;
#187 = APPLICATION_PROTOCOL_DEFINITION ( 'draft international standard', 'automotive_design', 1998, #140 ) ;
#188 = SHAPE_DEFINITION_REPRESENTATION ( #109, #59 ) ;
#189 = EDGE_LOOP ( 'NONE', ( #95, #24, #25, #114 ) ) ;
#190 = AXIS2_PLACEMENT_3D ( 'NONE', #65, #186, #124 ) ;
#191 = EDGE_CURVE ( 'NONE', #163, #131, #122, .T. ) ;
#192 = VECTOR ( 'NONE', #115, 1000.000000000000000 ) ;
#193 = CARTESIAN_POINT ( 'NONE',  ( -21.00000000000000000, 0.000000000000000000, 275.0000000000000000 ) ) ;
#194 = ORIENTED_EDGE ( 'NONE', *, *, #158, .T. ) ;
#195 = EDGE_LOOP ( 'NONE', ( #179, #8 ) ) ;
#196 = DIRECTION ( 'NONE',  ( 1.000000000000000000, 0.000000000000000000, 0.000000000000000000 ) ) ;
#197 = APPLICATION_CONTEXT ( 'automotive_design' ) ;
#198 =( NAMED_UNIT ( * ) SI_UNIT ( $, .STERADIAN. ) SOLID_ANGLE_UNIT ( ) );
#199 =( GEOMETRIC_REPRESENTATION_CONTEXT ( 3 ) GLOBAL_UNCERTAINTY_ASSIGNED_CONTEXT ( ( #100 ) ) GLOBAL_UNIT_ASSIGNED_CONTEXT ( ( #28, #133, #198 ) ) REPRESENTATION_CONTEXT ( 'NONE', 'WORKASPACE' ) );
ENDSEC;
END-ISO-10303-21;
