ISO-10303-21;
HEADER;
FILE_DESCRIPTION (( 'STEP AP214' ),
    '1' );
FILE_NAME ('moldeprop.STEP',
    '2026-07-02T15:12:56',
    ( '' ),
    ( '' ),
    'SwSTEP 2.0',
    'SolidWorks 2023',
    '' );
FILE_SCHEMA (( 'AUTOMOTIVE_DESIGN' ));
ENDSEC;

DATA;
#1 = CIRCLE ( 'NONE', #30, 21.00000000000000000 ) ;
#2 = DIRECTION ( 'NONE',  ( 0.000000000000000000, 0.000000000000000000, 1.000000000000000000 ) ) ;
#3 = VERTEX_POINT ( 'NONE', #45 ) ;
#4 = ADVANCED_FACE ( 'NONE', ( #188 ), #218, .F. ) ;
#5 = ORIENTED_EDGE ( 'NONE', *, *, #386, .T. ) ;
#6 = DIRECTION ( 'NONE',  ( 0.000000000000000000, 1.000000000000000000, -0.000000000000000000 ) ) ;
#7 = CARTESIAN_POINT ( 'NONE',  ( 2.571758278209441661E-15, 142.5000000000000000, 21.00000000000000000 ) ) ;
#8 = EDGE_LOOP ( 'NONE', ( #235, #278, #436, #370 ) ) ;
#9 = VECTOR ( 'NONE', #444, 1000.000000000000000 ) ;
#10 = PRODUCT_DEFINITION_FORMATION_WITH_SPECIFIED_SOURCE ( 'ANY', '', #32, .NOT_KNOWN. ) ;
#11 = AXIS2_PLACEMENT_3D ( 'NONE', #59, #377, #333 ) ;
#12 = EDGE_CURVE ( 'NONE', #281, #3, #369, .T. ) ;
#13 = PLANE ( 'NONE',  #103 ) ;
#14 = ORIENTED_EDGE ( 'NONE', *, *, #342, .F. ) ;
#15 = DIRECTION ( 'NONE',  ( 0.000000000000000000, 0.000000000000000000, -1.000000000000000000 ) ) ;
#16 = DIRECTION ( 'NONE',  ( 0.000000000000000000, 1.000000000000000000, -0.000000000000000000 ) ) ;
#17 = CARTESIAN_POINT ( 'NONE',  ( 3.061616997868383043E-15, 0.000000000000000000, 25.00000000000000000 ) ) ;
#18 = ORIENTED_EDGE ( 'NONE', *, *, #105, .T. ) ;
#19 = ADVANCED_BREP_SHAPE_REPRESENTATION ( 'moldeprop', ( #91, #71, #265 ), #279 ) ;
#20 = DIRECTION ( 'NONE',  ( 0.000000000000000000, 1.000000000000000000, -0.000000000000000000 ) ) ;
#21 = LINE ( 'NONE', #26, #9 ) ;
#22 = AXIS2_PLACEMENT_3D ( 'NONE', #154, #227, #403 ) ;
#23 = AXIS2_PLACEMENT_3D ( 'NONE', #324, #54, #185 ) ;
#24 = CARTESIAN_POINT ( 'NONE',  ( 0.000000000000000000, 0.000000000000000000, 0.000000000000000000 ) ) ;
#25 = SHAPE_DEFINITION_REPRESENTATION ( #397, #19 ) ;
#26 = CARTESIAN_POINT ( 'NONE',  ( 3.061616997868383043E-15, 142.5000000000000000, 25.00000000000000000 ) ) ;
#27 = CARTESIAN_POINT ( 'NONE',  ( 0.000000000000000000, -10.00000000000000000, 0.000000000000000000 ) ) ;
#28 = CLOSED_SHELL ( 'NONE', ( #62, #401, #4, #305, #87, #233 ) ) ;
#29 = AXIS2_PLACEMENT_3D ( 'NONE', #199, #31, #193 ) ;
#30 = AXIS2_PLACEMENT_3D ( 'NONE', #56, #16, #139 ) ;
#31 = DIRECTION ( 'NONE',  ( 0.000000000000000000, -1.000000000000000000, 0.000000000000000000 ) ) ;
#32 = PRODUCT ( 'moldeprop', 'moldeprop', '', ( #408 ) ) ;
#33 = ORIENTED_EDGE ( 'NONE', *, *, #55, .F. ) ;
#34 = CARTESIAN_POINT ( 'NONE',  ( 2.571758278209441661E-15, 142.5000000000000000, 21.00000000000000000 ) ) ;
#35 = ORIENTED_EDGE ( 'NONE', *, *, #165, .T. ) ;
#36 = CYLINDRICAL_SURFACE ( 'NONE', #214, 25.00000000000000000 ) ;
#37 = ORIENTED_EDGE ( 'NONE', *, *, #453, .F. ) ;
#38 = EDGE_CURVE ( 'NONE', #312, #418, #1, .T. ) ;
#39 = DIRECTION ( 'NONE',  ( 0.000000000000000000, -1.000000000000000000, 0.000000000000000000 ) ) ;
#40 = VERTEX_POINT ( 'NONE', #393 ) ;
#41 = CARTESIAN_POINT ( 'NONE',  ( 0.000000000000000000, 19.99999999999999645, 0.000000000000000000 ) ) ;
#42 = ORIENTED_EDGE ( 'NONE', *, *, #289, .F. ) ;
#43 = DIRECTION ( 'NONE',  ( 0.000000000000000000, 1.000000000000000000, -0.000000000000000000 ) ) ;
#44 = ORIENTED_EDGE ( 'NONE', *, *, #155, .F. ) ;
#45 = CARTESIAN_POINT ( 'NONE',  ( 3.061616997868383043E-15, 19.99999999999999645, 25.00000000000000000 ) ) ;
#46 = EDGE_CURVE ( 'NONE', #84, #115, #237, .T. ) ;
#47 = FACE_OUTER_BOUND ( 'NONE', #106, .T. ) ;
#48 = VERTEX_POINT ( 'NONE', #257 ) ;
#49 = AXIS2_PLACEMENT_3D ( 'NONE', #207, #6, #435 ) ;
#50 = DIRECTION ( 'NONE',  ( 0.000000000000000000, 0.000000000000000000, -1.000000000000000000 ) ) ;
#51 = CIRCLE ( 'NONE', #179, 25.00000000000000000 ) ;
#52 = LINE ( 'NONE', #220, #405 ) ;
#53 = VERTEX_POINT ( 'NONE', #284 ) ;
#54 = DIRECTION ( 'NONE',  ( 0.000000000000000000, 1.000000000000000000, -0.000000000000000000 ) ) ;
#55 = EDGE_CURVE ( 'NONE', #3, #389, #399, .T. ) ;
#56 = CARTESIAN_POINT ( 'NONE',  ( 0.000000000000000000, 0.000000000000000000, 0.000000000000000000 ) ) ;
#57 = VECTOR ( 'NONE', #104, 1000.000000000000000 ) ;
#58 = ORIENTED_EDGE ( 'NONE', *, *, #286, .T. ) ;
#59 = CARTESIAN_POINT ( 'NONE',  ( 0.000000000000000000, 142.5000000000000000, 0.000000000000000000 ) ) ;
#60 =( NAMED_UNIT ( * ) PLANE_ANGLE_UNIT ( ) SI_UNIT ( $, .RADIAN. ) );
#61 = DIRECTION ( 'NONE',  ( 0.000000000000000000, -1.000000000000000000, 0.000000000000000000 ) ) ;
#62 = ADVANCED_FACE ( 'NONE', ( #328 ), #288, .T. ) ;
#63 = ORIENTED_EDGE ( 'NONE', *, *, #149, .T. ) ;
#64 = AXIS2_PLACEMENT_3D ( 'NONE', #354, #216, #258 ) ;
#65 = AXIS2_PLACEMENT_3D ( 'NONE', #428, #373, #270 ) ;
#66 = FACE_OUTER_BOUND ( 'NONE', #174, .T. ) ;
#67 = VERTEX_POINT ( 'NONE', #259 ) ;
#68 = FACE_OUTER_BOUND ( 'NONE', #170, .T. ) ;
#69 = ORIENTED_EDGE ( 'NONE', *, *, #286, .F. ) ;
#70 = LINE ( 'NONE', #166, #57 ) ;
#71 = MANIFOLD_SOLID_BREP ( 'Combinar1', #344 ) ;
#72 = DIRECTION ( 'NONE',  ( 0.000000000000000000, 0.000000000000000000, 1.000000000000000000 ) ) ;
#73 = ORIENTED_EDGE ( 'NONE', *, *, #347, .T. ) ;
#74 = DIRECTION ( 'NONE',  ( 0.000000000000000000, 0.000000000000000000, 1.000000000000000000 ) ) ;
#75 = EDGE_CURVE ( 'NONE', #296, #437, #89, .T. ) ;
#76 = SURFACE_STYLE_FILL_AREA ( #391 ) ;
#77 = CARTESIAN_POINT ( 'NONE',  ( 0.000000000000000000, 142.5000000000000000, 0.000000000000000000 ) ) ;
#78 = EDGE_LOOP ( 'NONE', ( #367, #238 ) ) ;
#79 = ORIENTED_EDGE ( 'NONE', *, *, #12, .T. ) ;
#80 = PLANE ( 'NONE',  #360 ) ;
#81 = AXIS2_PLACEMENT_3D ( 'NONE', #27, #135, #2 ) ;
#82 = DIRECTION ( 'NONE',  ( 0.000000000000000000, 0.000000000000000000, -1.000000000000000000 ) ) ;
#83 = DIRECTION ( 'NONE',  ( 0.000000000000000000, 0.000000000000000000, 1.000000000000000000 ) ) ;
#84 = VERTEX_POINT ( 'NONE', #261 ) ;
#85 = ORIENTED_EDGE ( 'NONE', *, *, #38, .F. ) ;
#86 = EDGE_LOOP ( 'NONE', ( #5, #121, #44, #358 ) ) ;
#87 = ADVANCED_FACE ( 'NONE', ( #409, #161 ), #407, .T. ) ;
#88 = VERTEX_POINT ( 'NONE', #330 ) ;
#89 = CIRCLE ( 'NONE', #65, 25.00000000000000000 ) ;
#90 = VECTOR ( 'NONE', #181, 1000.000000000000000 ) ;
#91 = MANIFOLD_SOLID_BREP ( 'Ressalto-extrusão1', #28 ) ;
#92 = EDGE_CURVE ( 'NONE', #88, #437, #21, .T. ) ;
#93 = SURFACE_STYLE_USAGE ( .BOTH. , #411 ) ;
#94 = EDGE_CURVE ( 'NONE', #182, #316, #322, .T. ) ;
#95 = APPLICATION_PROTOCOL_DEFINITION ( 'draft international standard', 'automotive_design', 1998, #412 ) ;
#96 = DIRECTION ( 'NONE',  ( 0.000000000000000000, 1.000000000000000000, -0.000000000000000000 ) ) ;
#97 = PRODUCT_DEFINITION_CONTEXT ( 'detailed design', #156, 'design' ) ;
#98 = CARTESIAN_POINT ( 'NONE',  ( 0.000000000000000000, 0.000000000000000000, 0.000000000000000000 ) ) ;
#99 = LINE ( 'NONE', #101, #157 ) ;
#100 = ORIENTED_EDGE ( 'NONE', *, *, #183, .T. ) ;
#101 = CARTESIAN_POINT ( 'NONE',  ( 0.000000000000000000, 19.99999999999999645, -25.00000000000000000 ) ) ;
#102 = CIRCLE ( 'NONE', #228, 25.00000000000000000 ) ;
#103 = AXIS2_PLACEMENT_3D ( 'NONE', #362, #431, #74 ) ;
#104 = DIRECTION ( 'NONE',  ( 0.000000000000000000, -1.000000000000000000, 0.000000000000000000 ) ) ;
#105 = EDGE_CURVE ( 'NONE', #437, #296, #122, .T. ) ;
#106 = EDGE_LOOP ( 'NONE', ( #249, #351, #353, #400 ) ) ;
#107 = ORIENTED_EDGE ( 'NONE', *, *, #165, .F. ) ;
#108 = DIRECTION ( 'NONE',  ( 0.000000000000000000, 0.000000000000000000, 1.000000000000000000 ) ) ;
#109 = EDGE_LOOP ( 'NONE', ( #130, #73 ) ) ;
#110 = CIRCLE ( 'NONE', #64, 21.00000000000000000 ) ;
#111 = CARTESIAN_POINT ( 'NONE',  ( 0.000000000000000000, -10.00000000000000000, 0.000000000000000000 ) ) ;
#112 = FILL_AREA_STYLE_COLOUR ( '', #304 ) ;
#113 = CARTESIAN_POINT ( 'NONE',  ( 0.000000000000000000, 19.99999999999999645, -50.00000000000000000 ) ) ;
#114 = DIRECTION ( 'NONE',  ( 0.000000000000000000, 0.000000000000000000, -1.000000000000000000 ) ) ;
#115 = VERTEX_POINT ( 'NONE', #158 ) ;
#116 = FACE_OUTER_BOUND ( 'NONE', #167, .T. ) ;
#117 = ORIENTED_EDGE ( 'NONE', *, *, #430, .T. ) ;
#118 = DIRECTION ( 'NONE',  ( 0.000000000000000000, -1.000000000000000000, 0.000000000000000000 ) ) ;
#119 = CYLINDRICAL_SURFACE ( 'NONE', #302, 21.00000000000000000 ) ;
#120 = DIRECTION ( 'NONE',  ( 0.000000000000000000, 0.000000000000000000, -1.000000000000000000 ) ) ;
#121 = ORIENTED_EDGE ( 'NONE', *, *, #309, .T. ) ;
#122 = CIRCLE ( 'NONE', #198, 25.00000000000000000 ) ;
#123 = DIRECTION ( 'NONE',  ( 0.000000000000000000, 0.000000000000000000, 1.000000000000000000 ) ) ;
#124 = AXIS2_PLACEMENT_3D ( 'NONE', #348, #280, #423 ) ;
#125 = DIRECTION ( 'NONE',  ( 0.000000000000000000, 0.000000000000000000, 1.000000000000000000 ) ) ;
#126 =( NAMED_UNIT ( * ) SI_UNIT ( $, .STERADIAN. ) SOLID_ANGLE_UNIT ( ) );
#127 = CARTESIAN_POINT ( 'NONE',  ( 0.000000000000000000, 0.000000000000000000, 0.000000000000000000 ) ) ;
#128 = DIRECTION ( 'NONE',  ( 0.000000000000000000, 0.000000000000000000, 1.000000000000000000 ) ) ;
#129 = CARTESIAN_POINT ( 'NONE',  ( 0.000000000000000000, 19.99999999999999645, 0.000000000000000000 ) ) ;
#130 = ORIENTED_EDGE ( 'NONE', *, *, #376, .T. ) ;
#131 = CARTESIAN_POINT ( 'NONE',  ( 0.000000000000000000, -10.00000000000000000, 0.000000000000000000 ) ) ;
#132 = ORIENTED_EDGE ( 'NONE', *, *, #105, .F. ) ;
#133 = DIRECTION ( 'NONE',  ( 0.000000000000000000, -1.000000000000000000, 0.000000000000000000 ) ) ;
#134 = AXIS2_PLACEMENT_3D ( 'NONE', #147, #365, #50 ) ;
#135 = DIRECTION ( 'NONE',  ( 0.000000000000000000, 1.000000000000000000, 0.000000000000000000 ) ) ;
#136 = DIRECTION ( 'NONE',  ( 0.000000000000000000, -1.000000000000000000, 0.000000000000000000 ) ) ;
#137 = ORIENTED_EDGE ( 'NONE', *, *, #46, .T. ) ;
#138 = DIRECTION ( 'NONE',  ( 0.000000000000000000, 1.000000000000000000, -0.000000000000000000 ) ) ;
#139 = DIRECTION ( 'NONE',  ( 0.000000000000000000, 0.000000000000000000, 1.000000000000000000 ) ) ;
#140 = EDGE_CURVE ( 'NONE', #260, #67, #300, .T. ) ;
#141 = AXIS2_PLACEMENT_3D ( 'NONE', #224, #118, #250 ) ;
#142 = VECTOR ( 'NONE', #255, 1000.000000000000000 ) ;
#143 = DIRECTION ( 'NONE',  ( 0.000000000000000000, -1.000000000000000000, 0.000000000000000000 ) ) ;
#144 = EDGE_LOOP ( 'NONE', ( #293, #196, #209, #107 ) ) ;
#145 = DIRECTION ( 'NONE',  ( 0.000000000000000000, 0.000000000000000000, -1.000000000000000000 ) ) ;
#146 = ORIENTED_EDGE ( 'NONE', *, *, #178, .T. ) ;
#147 = CARTESIAN_POINT ( 'NONE',  ( 0.000000000000000000, 142.5000000000000000, 0.000000000000000000 ) ) ;
#148 = FACE_OUTER_BOUND ( 'NONE', #366, .T. ) ;
#149 = EDGE_CURVE ( 'NONE', #40, #389, #51, .T. ) ;
#150 = CARTESIAN_POINT ( 'NONE',  ( 0.000000000000000000, 0.000000000000000000, -21.00000000000000000 ) ) ;
#151 = ADVANCED_FACE ( 'NONE', ( #336 ), #232, .F. ) ;
#152 = CARTESIAN_POINT ( 'NONE',  ( 0.000000000000000000, 142.5000000000000000, 0.000000000000000000 ) ) ;
#153 = EDGE_LOOP ( 'NONE', ( #42, #14 ) ) ;
#154 = CARTESIAN_POINT ( 'NONE',  ( 0.000000000000000000, 0.000000000000000000, 0.000000000000000000 ) ) ;
#155 = EDGE_CURVE ( 'NONE', #418, #312, #384, .T. ) ;
#156 = APPLICATION_CONTEXT ( 'automotive_design' ) ;
#157 = VECTOR ( 'NONE', #39, 1000.000000000000000 ) ;
#158 = CARTESIAN_POINT ( 'NONE',  ( 6.123233995736766085E-15, -10.00000000000000000, 50.00000000000000000 ) ) ;
#159 = MECHANICAL_DESIGN_GEOMETRIC_PRESENTATION_REPRESENTATION (  '', ( #361 ), #194 ) ;
#160 = DIRECTION ( 'NONE',  ( 0.000000000000000000, 0.000000000000000000, 1.000000000000000000 ) ) ;
#161 = FACE_OUTER_BOUND ( 'NONE', #109, .T. ) ;
#162 = CARTESIAN_POINT ( 'NONE',  ( 0.000000000000000000, 19.99999999999999645, 0.000000000000000000 ) ) ;
#163 = FACE_OUTER_BOUND ( 'NONE', #153, .T. ) ;
#164 = EDGE_LOOP ( 'NONE', ( #202, #146, #425, #213 ) ) ;
#165 = EDGE_CURVE ( 'NONE', #115, #84, #429, .T. ) ;
#166 = CARTESIAN_POINT ( 'NONE',  ( 6.123233995736766085E-15, 19.99999999999999645, 50.00000000000000000 ) ) ;
#167 = EDGE_LOOP ( 'NONE', ( #137, #35 ) ) ;
#168 = EDGE_CURVE ( 'NONE', #3, #281, #102, .T. ) ;
#169 = DIRECTION ( 'NONE',  ( 0.000000000000000000, -1.000000000000000000, 0.000000000000000000 ) ) ;
#170 = EDGE_LOOP ( 'NONE', ( #33, #442, #204, #379 ) ) ;
#171 = DIRECTION ( 'NONE',  ( 0.000000000000000000, 0.000000000000000000, 1.000000000000000000 ) ) ;
#172 = ORIENTED_EDGE ( 'NONE', *, *, #149, .F. ) ;
#173 = CARTESIAN_POINT ( 'NONE',  ( 8.572527594031473190E-16, 0.000000000000000000, -7.000000000000000000 ) ) ;
#174 = EDGE_LOOP ( 'NONE', ( #402, #132 ) ) ;
#175 = LINE ( 'NONE', #7, #90 ) ;
#176 = EDGE_LOOP ( 'NONE', ( #100, #58 ) ) ;
#177 = SURFACE_STYLE_USAGE ( .BOTH. , #210 ) ;
#178 = EDGE_CURVE ( 'NONE', #245, #115, #70, .T. ) ;
#179 = AXIS2_PLACEMENT_3D ( 'NONE', #98, #20, #123 ) ;
#180 = AXIS2_PLACEMENT_3D ( 'NONE', #357, #43, #72 ) ;
#181 = DIRECTION ( 'NONE',  ( -0.000000000000000000, -1.000000000000000000, -0.000000000000000000 ) ) ;
#182 = VERTEX_POINT ( 'NONE', #201 ) ;
#183 = EDGE_CURVE ( 'NONE', #48, #455, #359, .T. ) ;
#184 = CYLINDRICAL_SURFACE ( 'NONE', #246, 25.00000000000000000 ) ;
#185 = DIRECTION ( 'NONE',  ( 0.000000000000000000, 0.000000000000000000, 1.000000000000000000 ) ) ;
#186 = DIRECTION ( 'NONE',  ( 0.000000000000000000, -1.000000000000000000, 0.000000000000000000 ) ) ;
#187 = AXIS2_PLACEMENT_3D ( 'NONE', #129, #271, #234 ) ;
#188 = FACE_OUTER_BOUND ( 'NONE', #243, .T. ) ;
#189 = ORIENTED_EDGE ( 'NONE', *, *, #309, .F. ) ;
#190 = PRODUCT_RELATED_PRODUCT_CATEGORY ( 'part', '', ( #32 ) ) ;
#191 = DIRECTION ( 'NONE',  ( 0.000000000000000000, 1.000000000000000000, -0.000000000000000000 ) ) ;
#192 = CYLINDRICAL_SURFACE ( 'NONE', #29, 25.00000000000000000 ) ;
#193 = DIRECTION ( 'NONE',  ( 0.000000000000000000, 0.000000000000000000, -1.000000000000000000 ) ) ;
#194 =( GEOMETRIC_REPRESENTATION_CONTEXT ( 3 ) GLOBAL_UNCERTAINTY_ASSIGNED_CONTEXT ( ( #256 ) ) GLOBAL_UNIT_ASSIGNED_CONTEXT ( ( #334, #306, #307 ) ) REPRESENTATION_CONTEXT ( 'NONE', 'WORKASPACE' ) );
#195 = EDGE_CURVE ( 'NONE', #281, #40, #99, .T. ) ;
#196 = ORIENTED_EDGE ( 'NONE', *, *, #342, .T. ) ;
#197 = AXIS2_PLACEMENT_3D ( 'NONE', #162, #136, #282 ) ;
#198 = AXIS2_PLACEMENT_3D ( 'NONE', #127, #332, #128 ) ;
#199 = CARTESIAN_POINT ( 'NONE',  ( 0.000000000000000000, 19.99999999999999645, 0.000000000000000000 ) ) ;
#200 = ORIENTED_EDGE ( 'NONE', *, *, #338, .T. ) ;
#201 = CARTESIAN_POINT ( 'NONE',  ( 0.000000000000000000, 0.000000000000000000, 7.000000000000000000 ) ) ;
#202 = ORIENTED_EDGE ( 'NONE', *, *, #289, .T. ) ;
#203 = DIRECTION ( 'NONE',  ( 0.000000000000000000, 0.000000000000000000, -1.000000000000000000 ) ) ;
#204 = ORIENTED_EDGE ( 'NONE', *, *, #195, .T. ) ;
#205 = DIRECTION ( 'NONE',  ( 0.000000000000000000, 1.000000000000000000, 0.000000000000000000 ) ) ;
#206 = ORIENTED_EDGE ( 'NONE', *, *, #140, .F. ) ;
#207 = CARTESIAN_POINT ( 'NONE',  ( 0.000000000000000000, 142.5000000000000000, 0.000000000000000000 ) ) ;
#208 = ADVANCED_FACE ( 'NONE', ( #382 ), #311, .F. ) ;
#209 = ORIENTED_EDGE ( 'NONE', *, *, #219, .T. ) ;
#210 = SURFACE_SIDE_STYLE ('',( #76 ) ) ;
#211 = CARTESIAN_POINT ( 'NONE',  ( 3.061616997868383043E-15, 0.000000000000000000, 25.00000000000000000 ) ) ;
#212 = ORIENTED_EDGE ( 'NONE', *, *, #347, .F. ) ;
#213 = ORIENTED_EDGE ( 'NONE', *, *, #219, .F. ) ;
#214 = AXIS2_PLACEMENT_3D ( 'NONE', #276, #169, #240 ) ;
#215 = CIRCLE ( 'NONE', #285, 25.00000000000000000 ) ;
#216 = DIRECTION ( 'NONE',  ( 0.000000000000000000, 1.000000000000000000, -0.000000000000000000 ) ) ;
#217 = COLOUR_RGB ( '',0.7921568627450980005, 0.8196078431372548767, 0.9333333333333333481 ) ;
#218 = CYLINDRICAL_SURFACE ( 'NONE', #134, 21.00000000000000000 ) ;
#219 = EDGE_CURVE ( 'NONE', #421, #84, #388, .T. ) ;
#220 = CARTESIAN_POINT ( 'NONE',  ( 0.000000000000000000, 142.5000000000000000, -21.00000000000000000 ) ) ;
#221 = CARTESIAN_POINT ( 'NONE',  ( 3.061616997868383043E-15, 19.99999999999999645, 25.00000000000000000 ) ) ;
#222 = ORIENTED_EDGE ( 'NONE', *, *, #140, .T. ) ;
#223 = UNCERTAINTY_MEASURE_WITH_UNIT (LENGTH_MEASURE( 1.000000000000000082E-05 ), #441, 'distance_accuracy_value', 'NONE');
#224 = CARTESIAN_POINT ( 'NONE',  ( 0.000000000000000000, -10.00000000000000000, 0.000000000000000000 ) ) ;
#225 = EDGE_LOOP ( 'NONE', ( #295, #206 ) ) ;
#226 = ADVANCED_FACE ( 'NONE', ( #68 ), #36, .F. ) ;
#227 = DIRECTION ( 'NONE',  ( 0.000000000000000000, 1.000000000000000000, -0.000000000000000000 ) ) ;
#228 = AXIS2_PLACEMENT_3D ( 'NONE', #420, #417, #314 ) ;
#229 = ADVANCED_FACE ( 'NONE', ( #242 ), #192, .F. ) ;
#230 = VECTOR ( 'NONE', #410, 1000.000000000000000 ) ;
#231 =( NAMED_UNIT ( * ) SI_UNIT ( $, .STERADIAN. ) SOLID_ANGLE_UNIT ( ) );
#232 = CYLINDRICAL_SURFACE ( 'NONE', #277, 7.000000000000000000 ) ;
#233 = ADVANCED_FACE ( 'NONE', ( #236, #66 ), #345, .F. ) ;
#234 = DIRECTION ( 'NONE',  ( 0.000000000000000000, 0.000000000000000000, -1.000000000000000000 ) ) ;
#235 = ORIENTED_EDGE ( 'NONE', *, *, #434, .F. ) ;
#236 = FACE_BOUND ( 'NONE', #78, .T. ) ;
#237 = CIRCLE ( 'NONE', #141, 50.00000000000000000 ) ;
#238 = ORIENTED_EDGE ( 'NONE', *, *, #38, .T. ) ;
#239 = CIRCLE ( 'NONE', #315, 50.00000000000000000 ) ;
#240 = DIRECTION ( 'NONE',  ( 0.000000000000000000, 0.000000000000000000, -1.000000000000000000 ) ) ;
#241 = ORIENTED_EDGE ( 'NONE', *, *, #168, .T. ) ;
#242 = FACE_OUTER_BOUND ( 'NONE', #254, .T. ) ;
#243 = EDGE_LOOP ( 'NONE', ( #189, #222, #272, #85 ) ) ;
#244 = CARTESIAN_POINT ( 'NONE',  ( 0.000000000000000000, 19.99999999999999645, -50.00000000000000000 ) ) ;
#245 = VERTEX_POINT ( 'NONE', #341 ) ;
#246 = AXIS2_PLACEMENT_3D ( 'NONE', #283, #364, #439 ) ;
#247 = AXIS2_PLACEMENT_3D ( 'NONE', #24, #191, #160 ) ;
#248 = CARTESIAN_POINT ( 'NONE',  ( 2.571758278209441661E-15, 0.000000000000000000, 21.00000000000000000 ) ) ;
#249 = ORIENTED_EDGE ( 'NONE', *, *, #92, .F. ) ;
#250 = DIRECTION ( 'NONE',  ( 0.000000000000000000, 0.000000000000000000, -1.000000000000000000 ) ) ;
#251 = CARTESIAN_POINT ( 'NONE',  ( 0.000000000000000000, 142.5000000000000000, 0.000000000000000000 ) ) ;
#252 =( LENGTH_UNIT ( ) NAMED_UNIT ( * ) SI_UNIT ( .MILLI., .METRE. ) );
#253 = LINE ( 'NONE', #335, #230 ) ;
#254 = EDGE_LOOP ( 'NONE', ( #331, #356, #172, #318 ) ) ;
#255 = DIRECTION ( 'NONE',  ( 0.000000000000000000, 1.000000000000000000, 0.000000000000000000 ) ) ;
#256 = UNCERTAINTY_MEASURE_WITH_UNIT (LENGTH_MEASURE( 1.000000000000000082E-05 ), #334, 'distance_accuracy_value', 'NONE');
#257 = CARTESIAN_POINT ( 'NONE',  ( 0.000000000000000000, -10.00000000000000000, 7.000000000000000000 ) ) ;
#258 = DIRECTION ( 'NONE',  ( 0.000000000000000000, 0.000000000000000000, 1.000000000000000000 ) ) ;
#259 = CARTESIAN_POINT ( 'NONE',  ( 0.000000000000000000, 142.5000000000000000, -21.00000000000000000 ) ) ;
#260 = VERTEX_POINT ( 'NONE', #34 ) ;
#261 = CARTESIAN_POINT ( 'NONE',  ( 0.000000000000000000, -10.00000000000000000, -50.00000000000000000 ) ) ;
#262 = ADVANCED_FACE ( 'NONE', ( #317 ), #274, .T. ) ;
#263 = VECTOR ( 'NONE', #186, 1000.000000000000000 ) ;
#264 = CARTESIAN_POINT ( 'NONE',  ( 8.572527594031473190E-16, -10.00000000000000000, -7.000000000000000000 ) ) ;
#265 = AXIS2_PLACEMENT_3D ( 'NONE', #269, #299, #449 ) ;
#266 =( GEOMETRIC_REPRESENTATION_CONTEXT ( 3 ) GLOBAL_UNCERTAINTY_ASSIGNED_CONTEXT ( ( #267 ) ) GLOBAL_UNIT_ASSIGNED_CONTEXT ( ( #252, #60, #231 ) ) REPRESENTATION_CONTEXT ( 'NONE', 'WORKASPACE' ) );
#267 = UNCERTAINTY_MEASURE_WITH_UNIT (LENGTH_MEASURE( 1.000000000000000082E-05 ), #252, 'distance_accuracy_value', 'NONE');
#268 = ADVANCED_FACE ( 'NONE', ( #337, #163 ), #350, .F. ) ;
#269 = CARTESIAN_POINT ( 'NONE',  ( 0.000000000000000000, 0.000000000000000000, 0.000000000000000000 ) ) ;
#270 = DIRECTION ( 'NONE',  ( 0.000000000000000000, 0.000000000000000000, 1.000000000000000000 ) ) ;
#271 = DIRECTION ( 'NONE',  ( 0.000000000000000000, -1.000000000000000000, 0.000000000000000000 ) ) ;
#272 = ORIENTED_EDGE ( 'NONE', *, *, #363, .T. ) ;
#273 = PRODUCT_DEFINITION ( 'UNKNOWN', '', #10, #97 ) ;
#274 = CYLINDRICAL_SURFACE ( 'NONE', #340, 50.00000000000000000 ) ;
#275 = ORIENTED_EDGE ( 'NONE', *, *, #434, .T. ) ;
#276 = CARTESIAN_POINT ( 'NONE',  ( 0.000000000000000000, 19.99999999999999645, 0.000000000000000000 ) ) ;
#277 = AXIS2_PLACEMENT_3D ( 'NONE', #303, #448, #374 ) ;
#278 = ORIENTED_EDGE ( 'NONE', *, *, #183, .F. ) ;
#279 =( GEOMETRIC_REPRESENTATION_CONTEXT ( 3 ) GLOBAL_UNCERTAINTY_ASSIGNED_CONTEXT ( ( #223 ) ) GLOBAL_UNIT_ASSIGNED_CONTEXT ( ( #441, #372, #126 ) ) REPRESENTATION_CONTEXT ( 'NONE', 'WORKASPACE' ) );
#280 = DIRECTION ( 'NONE',  ( 0.000000000000000000, 1.000000000000000000, -0.000000000000000000 ) ) ;
#281 = VERTEX_POINT ( 'NONE', #424 ) ;
#282 = DIRECTION ( 'NONE',  ( 0.000000000000000000, -0.000000000000000000, -1.000000000000000000 ) ) ;
#283 = CARTESIAN_POINT ( 'NONE',  ( 0.000000000000000000, 142.5000000000000000, 0.000000000000000000 ) ) ;
#284 = CARTESIAN_POINT ( 'NONE',  ( 0.000000000000000000, 142.5000000000000000, -25.00000000000000000 ) ) ;
#285 = AXIS2_PLACEMENT_3D ( 'NONE', #251, #290, #83 ) ;
#286 = EDGE_CURVE ( 'NONE', #455, #48, #446, .T. ) ;
#287 = DIRECTION ( 'NONE',  ( -0.000000000000000000, -1.000000000000000000, -0.000000000000000000 ) ) ;
#288 = CYLINDRICAL_SURFACE ( 'NONE', #406, 25.00000000000000000 ) ;
#289 = EDGE_CURVE ( 'NONE', #421, #245, #413, .T. ) ;
#290 = DIRECTION ( 'NONE',  ( 0.000000000000000000, 1.000000000000000000, -0.000000000000000000 ) ) ;
#291 = CARTESIAN_POINT ( 'NONE',  ( 0.000000000000000000, 19.99999999999999645, 0.000000000000000000 ) ) ;
#292 = FACE_BOUND ( 'NONE', #176, .T. ) ;
#293 = ORIENTED_EDGE ( 'NONE', *, *, #178, .F. ) ;
#294 = CARTESIAN_POINT ( 'NONE',  ( 8.572527594031473190E-16, -10.00000000000000000, -7.000000000000000000 ) ) ;
#295 = ORIENTED_EDGE ( 'NONE', *, *, #386, .F. ) ;
#296 = VERTEX_POINT ( 'NONE', #378 ) ;
#297 = CARTESIAN_POINT ( 'NONE',  ( 0.000000000000000000, 142.5000000000000000, 0.000000000000000000 ) ) ;
#298 = ADVANCED_FACE ( 'NONE', ( #292, #116 ), #80, .F. ) ;
#299 = DIRECTION ( 'NONE',  ( 0.000000000000000000, 0.000000000000000000, 1.000000000000000000 ) ) ;
#300 = CIRCLE ( 'NONE', #380, 21.00000000000000000 ) ;
#301 = APPLICATION_PROTOCOL_DEFINITION ( 'draft international standard', 'automotive_design', 1998, #156 ) ;
#302 = AXIS2_PLACEMENT_3D ( 'NONE', #77, #287, #145 ) ;
#303 = CARTESIAN_POINT ( 'NONE',  ( 0.000000000000000000, -10.00000000000000000, 0.000000000000000000 ) ) ;
#304 = COLOUR_RGB ( '',0.7921568627450980005, 0.8196078431372548767, 0.9333333333333333481 ) ;
#305 = ADVANCED_FACE ( 'NONE', ( #47 ), #184, .T. ) ;
#306 =( NAMED_UNIT ( * ) PLANE_ANGLE_UNIT ( ) SI_UNIT ( $, .RADIAN. ) );
#307 =( NAMED_UNIT ( * ) SI_UNIT ( $, .STERADIAN. ) SOLID_ANGLE_UNIT ( ) );
#308 = CARTESIAN_POINT ( 'NONE',  ( 0.000000000000000000, -10.00000000000000000, 0.000000000000000000 ) ) ;
#309 = EDGE_CURVE ( 'NONE', #260, #312, #175, .T. ) ;
#310 = DIRECTION ( 'NONE',  ( 0.000000000000000000, 0.000000000000000000, -1.000000000000000000 ) ) ;
#311 = CYLINDRICAL_SURFACE ( 'NONE', #81, 7.000000000000000000 ) ;
#312 = VERTEX_POINT ( 'NONE', #248 ) ;
#313 = EDGE_CURVE ( 'NONE', #48, #182, #398, .T. ) ;
#314 = DIRECTION ( 'NONE',  ( 0.000000000000000000, 0.000000000000000000, -1.000000000000000000 ) ) ;
#315 = AXIS2_PLACEMENT_3D ( 'NONE', #319, #325, #15 ) ;
#316 = VERTEX_POINT ( 'NONE', #173 ) ;
#317 = FACE_OUTER_BOUND ( 'NONE', #144, .T. ) ;
#318 = ORIENTED_EDGE ( 'NONE', *, *, #195, .F. ) ;
#319 = CARTESIAN_POINT ( 'NONE',  ( 0.000000000000000000, 19.99999999999999645, 0.000000000000000000 ) ) ;
#320 = FACE_OUTER_BOUND ( 'NONE', #164, .T. ) ;
#321 = PRESENTATION_STYLE_ASSIGNMENT (( #177 ) ) ;
#322 = CIRCLE ( 'NONE', #22, 7.000000000000000000 ) ;
#323 = AXIS2_PLACEMENT_3D ( 'NONE', #131, #456, #171 ) ;
#324 = CARTESIAN_POINT ( 'NONE',  ( 0.000000000000000000, 0.000000000000000000, 0.000000000000000000 ) ) ;
#325 = DIRECTION ( 'NONE',  ( 0.000000000000000000, -1.000000000000000000, 0.000000000000000000 ) ) ;
#326 = DIRECTION ( 'NONE',  ( 0.000000000000000000, -1.000000000000000000, 0.000000000000000000 ) ) ;
#327 = DIRECTION ( 'NONE',  ( -0.000000000000000000, -1.000000000000000000, -0.000000000000000000 ) ) ;
#328 = FACE_OUTER_BOUND ( 'NONE', #346, .T. ) ;
#329 = VECTOR ( 'NONE', #205, 1000.000000000000000 ) ;
#330 = CARTESIAN_POINT ( 'NONE',  ( 3.061616997868383043E-15, 142.5000000000000000, 25.00000000000000000 ) ) ;
#331 = ORIENTED_EDGE ( 'NONE', *, *, #168, .F. ) ;
#332 = DIRECTION ( 'NONE',  ( 0.000000000000000000, 1.000000000000000000, -0.000000000000000000 ) ) ;
#333 = DIRECTION ( 'NONE',  ( 0.000000000000000000, 0.000000000000000000, 1.000000000000000000 ) ) ;
#334 =( LENGTH_UNIT ( ) NAMED_UNIT ( * ) SI_UNIT ( .MILLI., .METRE. ) );
#335 = CARTESIAN_POINT ( 'NONE',  ( 0.000000000000000000, 142.5000000000000000, -25.00000000000000000 ) ) ;
#336 = FACE_OUTER_BOUND ( 'NONE', #349, .T. ) ;
#337 = FACE_BOUND ( 'NONE', #383, .T. ) ;
#338 = EDGE_CURVE ( 'NONE', #316, #182, #381, .T. ) ;
#339 = AXIS2_PLACEMENT_3D ( 'NONE', #291, #326, #82 ) ;
#340 = AXIS2_PLACEMENT_3D ( 'NONE', #387, #61, #203 ) ;
#341 = CARTESIAN_POINT ( 'NONE',  ( 6.123233995736766085E-15, 19.99999999999999645, 50.00000000000000000 ) ) ;
#342 = EDGE_CURVE ( 'NONE', #245, #421, #239, .T. ) ;
#343 = ORIENTED_EDGE ( 'NONE', *, *, #313, .F. ) ;
#344 = CLOSED_SHELL ( 'NONE', ( #229, #443, #151, #208, #298, #355, #262, #268, #226 ) ) ;
#345 = PLANE ( 'NONE',  #124 ) ;
#346 = EDGE_LOOP ( 'NONE', ( #212, #433, #18, #37 ) ) ;
#347 = EDGE_CURVE ( 'NONE', #88, #53, #215, .T. ) ;
#348 = CARTESIAN_POINT ( 'NONE',  ( 0.000000000000000000, 0.000000000000000000, 0.000000000000000000 ) ) ;
#349 = EDGE_LOOP ( 'NONE', ( #69, #275, #200, #343 ) ) ;
#350 = PLANE ( 'NONE',  #197 ) ;
#351 = ORIENTED_EDGE ( 'NONE', *, *, #376, .F. ) ;
#352 = CYLINDRICAL_SURFACE ( 'NONE', #375, 50.00000000000000000 ) ;
#353 = ORIENTED_EDGE ( 'NONE', *, *, #453, .T. ) ;
#354 = CARTESIAN_POINT ( 'NONE',  ( 0.000000000000000000, 142.5000000000000000, 0.000000000000000000 ) ) ;
#355 = ADVANCED_FACE ( 'NONE', ( #390, #148 ), #13, .T. ) ;
#356 = ORIENTED_EDGE ( 'NONE', *, *, #55, .T. ) ;
#357 = CARTESIAN_POINT ( 'NONE',  ( 0.000000000000000000, 0.000000000000000000, 0.000000000000000000 ) ) ;
#358 = ORIENTED_EDGE ( 'NONE', *, *, #363, .F. ) ;
#359 = CIRCLE ( 'NONE', #323, 7.000000000000000000 ) ;
#360 = AXIS2_PLACEMENT_3D ( 'NONE', #111, #138, #392 ) ;
#361 = STYLED_ITEM ( 'NONE', ( #414 ), #91 ) ;
#362 = CARTESIAN_POINT ( 'NONE',  ( 0.000000000000000000, 0.000000000000000000, 0.000000000000000000 ) ) ;
#363 = EDGE_CURVE ( 'NONE', #67, #418, #52, .T. ) ;
#364 = DIRECTION ( 'NONE',  ( -0.000000000000000000, -1.000000000000000000, -0.000000000000000000 ) ) ;
#365 = DIRECTION ( 'NONE',  ( -0.000000000000000000, -1.000000000000000000, -0.000000000000000000 ) ) ;
#366 = EDGE_LOOP ( 'NONE', ( #63, #117 ) ) ;
#367 = ORIENTED_EDGE ( 'NONE', *, *, #155, .T. ) ;
#368 = CIRCLE ( 'NONE', #180, 25.00000000000000000 ) ;
#369 = CIRCLE ( 'NONE', #339, 25.00000000000000000 ) ;
#370 = ORIENTED_EDGE ( 'NONE', *, *, #94, .T. ) ;
#371 = FILL_AREA_STYLE ('',( #451 ) ) ;
#372 =( NAMED_UNIT ( * ) PLANE_ANGLE_UNIT ( ) SI_UNIT ( $, .RADIAN. ) );
#373 = DIRECTION ( 'NONE',  ( 0.000000000000000000, 1.000000000000000000, -0.000000000000000000 ) ) ;
#374 = DIRECTION ( 'NONE',  ( 0.000000000000000000, 0.000000000000000000, 1.000000000000000000 ) ) ;
#375 = AXIS2_PLACEMENT_3D ( 'NONE', #41, #143, #114 ) ;
#376 = EDGE_CURVE ( 'NONE', #53, #88, #438, .T. ) ;
#377 = DIRECTION ( 'NONE',  ( 0.000000000000000000, 1.000000000000000000, -0.000000000000000000 ) ) ;
#378 = CARTESIAN_POINT ( 'NONE',  ( 0.000000000000000000, 0.000000000000000000, -25.00000000000000000 ) ) ;
#379 = ORIENTED_EDGE ( 'NONE', *, *, #430, .F. ) ;
#380 = AXIS2_PLACEMENT_3D ( 'NONE', #297, #96, #125 ) ;
#381 = CIRCLE ( 'NONE', #23, 7.000000000000000000 ) ;
#382 = FACE_OUTER_BOUND ( 'NONE', #8, .T. ) ;
#383 = EDGE_LOOP ( 'NONE', ( #79, #241 ) ) ;
#384 = CIRCLE ( 'NONE', #247, 21.00000000000000000 ) ;
#385 = ORIENTED_EDGE ( 'NONE', *, *, #338, .F. ) ;
#386 = EDGE_CURVE ( 'NONE', #67, #260, #110, .T. ) ;
#387 = CARTESIAN_POINT ( 'NONE',  ( 0.000000000000000000, 19.99999999999999645, 0.000000000000000000 ) ) ;
#388 = LINE ( 'NONE', #244, #419 ) ;
#389 = VERTEX_POINT ( 'NONE', #17 ) ;
#390 = FACE_BOUND ( 'NONE', #416, .T. ) ;
#391 = FILL_AREA_STYLE ('',( #112 ) ) ;
#392 = DIRECTION ( 'NONE',  ( 0.000000000000000000, 0.000000000000000000, 1.000000000000000000 ) ) ;
#393 = CARTESIAN_POINT ( 'NONE',  ( 0.000000000000000000, 0.000000000000000000, -25.00000000000000000 ) ) ;
#394 = FACE_OUTER_BOUND ( 'NONE', #86, .T. ) ;
#395 = ORIENTED_EDGE ( 'NONE', *, *, #94, .F. ) ;
#396 = STYLED_ITEM ( 'NONE', ( #321 ), #71 ) ;
#397 = PRODUCT_DEFINITION_SHAPE ( 'NONE', 'NONE',  #273 ) ;
#398 = LINE ( 'NONE', #426, #142 ) ;
#399 = LINE ( 'NONE', #221, #263 ) ;
#400 = ORIENTED_EDGE ( 'NONE', *, *, #75, .T. ) ;
#401 = ADVANCED_FACE ( 'NONE', ( #394 ), #119, .F. ) ;
#402 = ORIENTED_EDGE ( 'NONE', *, *, #75, .F. ) ;
#403 = DIRECTION ( 'NONE',  ( 0.000000000000000000, 0.000000000000000000, 1.000000000000000000 ) ) ;
#404 = PRESENTATION_LAYER_ASSIGNMENT (  '', '', ( #361 ) ) ;
#405 = VECTOR ( 'NONE', #327, 1000.000000000000000 ) ;
#406 = AXIS2_PLACEMENT_3D ( 'NONE', #152, #440, #120 ) ;
#407 = PLANE ( 'NONE',  #11 ) ;
#408 = PRODUCT_CONTEXT ( 'NONE', #412, 'mechanical' ) ;
#409 = FACE_BOUND ( 'NONE', #225, .T. ) ;
#410 = DIRECTION ( 'NONE',  ( -0.000000000000000000, -1.000000000000000000, -0.000000000000000000 ) ) ;
#411 = SURFACE_SIDE_STYLE ('',( #450 ) ) ;
#412 = APPLICATION_CONTEXT ( 'automotive_design' ) ;
#413 = CIRCLE ( 'NONE', #187, 50.00000000000000000 ) ;
#414 = PRESENTATION_STYLE_ASSIGNMENT (( #93 ) ) ;
#415 = DIRECTION ( 'NONE',  ( 0.000000000000000000, -1.000000000000000000, 0.000000000000000000 ) ) ;
#416 = EDGE_LOOP ( 'NONE', ( #395, #385 ) ) ;
#417 = DIRECTION ( 'NONE',  ( 0.000000000000000000, -1.000000000000000000, 0.000000000000000000 ) ) ;
#418 = VERTEX_POINT ( 'NONE', #150 ) ;
#419 = VECTOR ( 'NONE', #133, 1000.000000000000000 ) ;
#420 = CARTESIAN_POINT ( 'NONE',  ( 0.000000000000000000, 19.99999999999999645, 0.000000000000000000 ) ) ;
#421 = VERTEX_POINT ( 'NONE', #113 ) ;
#422 = PRESENTATION_LAYER_ASSIGNMENT (  '', '', ( #396 ) ) ;
#423 = DIRECTION ( 'NONE',  ( 0.000000000000000000, 0.000000000000000000, 1.000000000000000000 ) ) ;
#424 = CARTESIAN_POINT ( 'NONE',  ( 0.000000000000000000, 19.99999999999999645, -25.00000000000000000 ) ) ;
#425 = ORIENTED_EDGE ( 'NONE', *, *, #46, .F. ) ;
#426 = CARTESIAN_POINT ( 'NONE',  ( 0.000000000000000000, -10.00000000000000000, 7.000000000000000000 ) ) ;
#427 = AXIS2_PLACEMENT_3D ( 'NONE', #308, #452, #108 ) ;
#428 = CARTESIAN_POINT ( 'NONE',  ( 0.000000000000000000, 0.000000000000000000, 0.000000000000000000 ) ) ;
#429 = CIRCLE ( 'NONE', #445, 50.00000000000000000 ) ;
#430 = EDGE_CURVE ( 'NONE', #389, #40, #368, .T. ) ;
#431 = DIRECTION ( 'NONE',  ( 0.000000000000000000, 1.000000000000000000, -0.000000000000000000 ) ) ;
#432 = LINE ( 'NONE', #294, #329 ) ;
#433 = ORIENTED_EDGE ( 'NONE', *, *, #92, .T. ) ;
#434 = EDGE_CURVE ( 'NONE', #455, #316, #432, .T. ) ;
#435 = DIRECTION ( 'NONE',  ( 0.000000000000000000, 0.000000000000000000, 1.000000000000000000 ) ) ;
#436 = ORIENTED_EDGE ( 'NONE', *, *, #313, .T. ) ;
#437 = VERTEX_POINT ( 'NONE', #211 ) ;
#438 = CIRCLE ( 'NONE', #49, 25.00000000000000000 ) ;
#439 = DIRECTION ( 'NONE',  ( 0.000000000000000000, 0.000000000000000000, -1.000000000000000000 ) ) ;
#440 = DIRECTION ( 'NONE',  ( -0.000000000000000000, -1.000000000000000000, -0.000000000000000000 ) ) ;
#441 =( LENGTH_UNIT ( ) NAMED_UNIT ( * ) SI_UNIT ( .MILLI., .METRE. ) );
#442 = ORIENTED_EDGE ( 'NONE', *, *, #12, .F. ) ;
#443 = ADVANCED_FACE ( 'NONE', ( #320 ), #352, .T. ) ;
#444 = DIRECTION ( 'NONE',  ( -0.000000000000000000, -1.000000000000000000, -0.000000000000000000 ) ) ;
#445 = AXIS2_PLACEMENT_3D ( 'NONE', #454, #415, #310 ) ;
#446 = CIRCLE ( 'NONE', #427, 7.000000000000000000 ) ;
#447 = MECHANICAL_DESIGN_GEOMETRIC_PRESENTATION_REPRESENTATION (  '', ( #396 ), #266 ) ;
#448 = DIRECTION ( 'NONE',  ( 0.000000000000000000, 1.000000000000000000, 0.000000000000000000 ) ) ;
#449 = DIRECTION ( 'NONE',  ( 1.000000000000000000, 0.000000000000000000, 0.000000000000000000 ) ) ;
#450 = SURFACE_STYLE_FILL_AREA ( #371 ) ;
#451 = FILL_AREA_STYLE_COLOUR ( '', #217 ) ;
#452 = DIRECTION ( 'NONE',  ( 0.000000000000000000, 1.000000000000000000, -0.000000000000000000 ) ) ;
#453 = EDGE_CURVE ( 'NONE', #53, #296, #253, .T. ) ;
#454 = CARTESIAN_POINT ( 'NONE',  ( 0.000000000000000000, -10.00000000000000000, 0.000000000000000000 ) ) ;
#455 = VERTEX_POINT ( 'NONE', #264 ) ;
#456 = DIRECTION ( 'NONE',  ( 0.000000000000000000, 1.000000000000000000, -0.000000000000000000 ) ) ;
ENDSEC;
END-ISO-10303-21;
