ISO-10303-21;
HEADER;
FILE_DESCRIPTION (( 'STEP AP214' ),
    '1' );
FILE_NAME ('moldeprop-Ressalto-extrusão3.STEP',
    '2026-07-02T15:02:53',
    ( '' ),
    ( '' ),
    'SwSTEP 2.0',
    'SolidWorks 2023',
    '' );
FILE_SCHEMA (( 'AUTOMOTIVE_DESIGN' ));
ENDSEC;

DATA;
#1 = ORIENTED_EDGE ( 'NONE', *, *, #114, .F. ) ;
#2 = CLOSED_SHELL ( 'NONE', ( #175, #167, #246, #240, #219, #277, #279, #152, #255 ) ) ;
#3 = CARTESIAN_POINT ( 'NONE',  ( 0.000000000000000000, 0.000000000000000000, 0.000000000000000000 ) ) ;
#4 = ORIENTED_EDGE ( 'NONE', *, *, #139, .F. ) ;
#5 = CARTESIAN_POINT ( 'NONE',  ( 0.000000000000000000, -10.00000000000000000, 7.000000000000000000 ) ) ;
#6 = FACE_OUTER_BOUND ( 'NONE', #45, .T. ) ;
#7 = ORIENTED_EDGE ( 'NONE', *, *, #14, .T. ) ;
#8 = CARTESIAN_POINT ( 'NONE',  ( 0.000000000000000000, 19.99999999999999645, -50.00000000000000000 ) ) ;
#9 = ORIENTED_EDGE ( 'NONE', *, *, #213, .F. ) ;
#10 = CARTESIAN_POINT ( 'NONE',  ( 3.061616997868383043E-15, 0.000000000000000000, 25.00000000000000000 ) ) ;
#11 = ORIENTED_EDGE ( 'NONE', *, *, #122, .F. ) ;
#12 = CARTESIAN_POINT ( 'NONE',  ( 8.572527594031473190E-16, -10.00000000000000000, -7.000000000000000000 ) ) ;
#13 =( GEOMETRIC_REPRESENTATION_CONTEXT ( 3 ) GLOBAL_UNCERTAINTY_ASSIGNED_CONTEXT ( ( #169 ) ) GLOBAL_UNIT_ASSIGNED_CONTEXT ( ( #99, #252, #143 ) ) REPRESENTATION_CONTEXT ( 'NONE', 'WORKASPACE' ) );
#14 = EDGE_CURVE ( 'NONE', #264, #131, #196, .T. ) ;
#15 = PLANE ( 'NONE',  #276 ) ;
#16 = FACE_OUTER_BOUND ( 'NONE', #108, .T. ) ;
#17 = SURFACE_STYLE_FILL_AREA ( #161 ) ;
#18 = AXIS2_PLACEMENT_3D ( 'NONE', #208, #67, #249 ) ;
#19 = DIRECTION ( 'NONE',  ( 0.000000000000000000, -1.000000000000000000, 0.000000000000000000 ) ) ;
#20 = PRODUCT_RELATED_PRODUCT_CATEGORY ( 'part', '', ( #36 ) ) ;
#21 = AXIS2_PLACEMENT_3D ( 'NONE', #53, #34, #229 ) ;
#22 = SHAPE_DEFINITION_REPRESENTATION ( #29, #136 ) ;
#23 = ORIENTED_EDGE ( 'NONE', *, *, #74, .T. ) ;
#24 = VERTEX_POINT ( 'NONE', #10 ) ;
#25 = DIRECTION ( 'NONE',  ( 0.000000000000000000, 1.000000000000000000, -0.000000000000000000 ) ) ;
#26 = DIRECTION ( 'NONE',  ( 0.000000000000000000, 0.000000000000000000, -1.000000000000000000 ) ) ;
#27 = ORIENTED_EDGE ( 'NONE', *, *, #46, .T. ) ;
#28 = EDGE_CURVE ( 'NONE', #131, #264, #85, .T. ) ;
#29 = PRODUCT_DEFINITION_SHAPE ( 'NONE', 'NONE',  #83 ) ;
#30 = APPLICATION_PROTOCOL_DEFINITION ( 'draft international standard', 'automotive_design', 1998, #38 ) ;
#31 = ORIENTED_EDGE ( 'NONE', *, *, #200, .T. ) ;
#32 = DIRECTION ( 'NONE',  ( 0.000000000000000000, -1.000000000000000000, 0.000000000000000000 ) ) ;
#33 = ORIENTED_EDGE ( 'NONE', *, *, #63, .T. ) ;
#34 = DIRECTION ( 'NONE',  ( 0.000000000000000000, 1.000000000000000000, -0.000000000000000000 ) ) ;
#35 = CARTESIAN_POINT ( 'NONE',  ( 0.000000000000000000, -10.00000000000000000, 0.000000000000000000 ) ) ;
#36 = PRODUCT ( 'moldeprop-Ressalto-extrus\X2\00e3\X0\o3', 'moldeprop-Ressalto-extrus\X2\00e3\X0\o3', '', ( #127 ) ) ;
#37 = AXIS2_PLACEMENT_3D ( 'NONE', #3, #80, #130 ) ;
#38 = APPLICATION_CONTEXT ( 'automotive_design' ) ;
#39 = DIRECTION ( 'NONE',  ( 0.000000000000000000, 0.000000000000000000, 1.000000000000000000 ) ) ;
#40 = EDGE_CURVE ( 'NONE', #91, #93, #107, .T. ) ;
#41 = PRODUCT_DEFINITION_CONTEXT ( 'detailed design', #38, 'design' ) ;
#42 = DIRECTION ( 'NONE',  ( 0.000000000000000000, 0.000000000000000000, -1.000000000000000000 ) ) ;
#43 = VECTOR ( 'NONE', #199, 1000.000000000000000 ) ;
#44 = EDGE_LOOP ( 'NONE', ( #4, #172, #27, #195 ) ) ;
#45 = EDGE_LOOP ( 'NONE', ( #218, #33 ) ) ;
#46 = EDGE_CURVE ( 'NONE', #207, #177, #216, .T. ) ;
#47 = ORIENTED_EDGE ( 'NONE', *, *, #234, .F. ) ;
#48 = LINE ( 'NONE', #225, #115 ) ;
#49 = AXIS2_PLACEMENT_3D ( 'NONE', #118, #236, #39 ) ;
#50 = CYLINDRICAL_SURFACE ( 'NONE', #59, 50.00000000000000000 ) ;
#51 = VERTEX_POINT ( 'NONE', #5 ) ;
#52 = DIRECTION ( 'NONE',  ( 0.000000000000000000, 1.000000000000000000, -0.000000000000000000 ) ) ;
#53 = CARTESIAN_POINT ( 'NONE',  ( 0.000000000000000000, 0.000000000000000000, 0.000000000000000000 ) ) ;
#54 = CARTESIAN_POINT ( 'NONE',  ( 0.000000000000000000, 19.99999999999999645, -25.00000000000000000 ) ) ;
#55 = CARTESIAN_POINT ( 'NONE',  ( 0.000000000000000000, 0.000000000000000000, 7.000000000000000000 ) ) ;
#56 = EDGE_CURVE ( 'NONE', #51, #177, #135, .T. ) ;
#57 = DIRECTION ( 'NONE',  ( 0.000000000000000000, 0.000000000000000000, -1.000000000000000000 ) ) ;
#58 = FACE_OUTER_BOUND ( 'NONE', #69, .T. ) ;
#59 = AXIS2_PLACEMENT_3D ( 'NONE', #88, #256, #26 ) ;
#60 = FACE_BOUND ( 'NONE', #224, .T. ) ;
#61 = MECHANICAL_DESIGN_GEOMETRIC_PRESENTATION_REPRESENTATION (  '', ( #76 ), #13 ) ;
#62 = ORIENTED_EDGE ( 'NONE', *, *, #28, .F. ) ;
#63 = EDGE_CURVE ( 'NONE', #24, #158, #146, .T. ) ;
#64 = ORIENTED_EDGE ( 'NONE', *, *, #14, .F. ) ;
#65 = CARTESIAN_POINT ( 'NONE',  ( 0.000000000000000000, 0.000000000000000000, 0.000000000000000000 ) ) ;
#66 = VERTEX_POINT ( 'NONE', #12 ) ;
#67 = DIRECTION ( 'NONE',  ( 0.000000000000000000, -1.000000000000000000, 0.000000000000000000 ) ) ;
#68 = AXIS2_PLACEMENT_3D ( 'NONE', #121, #97, #57 ) ;
#69 = EDGE_LOOP ( 'NONE', ( #241, #31, #156, #47 ) ) ;
#70 = CARTESIAN_POINT ( 'NONE',  ( 0.000000000000000000, -10.00000000000000000, 7.000000000000000000 ) ) ;
#71 = CARTESIAN_POINT ( 'NONE',  ( 0.000000000000000000, 19.99999999999999645, 0.000000000000000000 ) ) ;
#72 = DIRECTION ( 'NONE',  ( 0.000000000000000000, 0.000000000000000000, 1.000000000000000000 ) ) ;
#73 = SURFACE_STYLE_USAGE ( .BOTH. , #273 ) ;
#74 = EDGE_CURVE ( 'NONE', #177, #207, #144, .T. ) ;
#75 = CARTESIAN_POINT ( 'NONE',  ( 8.572527594031473190E-16, -10.00000000000000000, -7.000000000000000000 ) ) ;
#76 = STYLED_ITEM ( 'NONE', ( #212 ), #184 ) ;
#77 = UNCERTAINTY_MEASURE_WITH_UNIT (LENGTH_MEASURE( 1.000000000000000082E-05 ), #106, 'distance_accuracy_value', 'NONE');
#78 = APPLICATION_CONTEXT ( 'automotive_design' ) ;
#79 = AXIS2_PLACEMENT_3D ( 'NONE', #265, #129, #133 ) ;
#80 = DIRECTION ( 'NONE',  ( 0.000000000000000000, 1.000000000000000000, -0.000000000000000000 ) ) ;
#81 = CARTESIAN_POINT ( 'NONE',  ( 0.000000000000000000, 19.99999999999999645, 0.000000000000000000 ) ) ;
#82 = ORIENTED_EDGE ( 'NONE', *, *, #28, .T. ) ;
#83 = PRODUCT_DEFINITION ( 'UNKNOWN', '', #223, #41 ) ;
#84 = DIRECTION ( 'NONE',  ( 0.000000000000000000, 0.000000000000000000, 1.000000000000000000 ) ) ;
#85 = CIRCLE ( 'NONE', #18, 50.00000000000000000 ) ;
#86 = ORIENTED_EDGE ( 'NONE', *, *, #190, .T. ) ;
#87 = CARTESIAN_POINT ( 'NONE',  ( 0.000000000000000000, 19.99999999999999645, 0.000000000000000000 ) ) ;
#88 = CARTESIAN_POINT ( 'NONE',  ( 0.000000000000000000, 19.99999999999999645, 0.000000000000000000 ) ) ;
#89 = EDGE_LOOP ( 'NONE', ( #82, #198, #126, #228 ) ) ;
#90 = DIRECTION ( 'NONE',  ( 0.000000000000000000, 1.000000000000000000, -0.000000000000000000 ) ) ;
#91 = VERTEX_POINT ( 'NONE', #113 ) ;
#92 = DIRECTION ( 'NONE',  ( 0.000000000000000000, -1.000000000000000000, 0.000000000000000000 ) ) ;
#93 = VERTEX_POINT ( 'NONE', #54 ) ;
#94 = DIRECTION ( 'NONE',  ( 0.000000000000000000, -1.000000000000000000, 0.000000000000000000 ) ) ;
#95 = DIRECTION ( 'NONE',  ( 0.000000000000000000, -1.000000000000000000, 0.000000000000000000 ) ) ;
#96 = DIRECTION ( 'NONE',  ( 0.000000000000000000, 1.000000000000000000, 0.000000000000000000 ) ) ;
#97 = DIRECTION ( 'NONE',  ( 0.000000000000000000, -1.000000000000000000, 0.000000000000000000 ) ) ;
#98 = FACE_OUTER_BOUND ( 'NONE', #153, .T. ) ;
#99 =( LENGTH_UNIT ( ) NAMED_UNIT ( * ) SI_UNIT ( .MILLI., .METRE. ) );
#100 = AXIS2_PLACEMENT_3D ( 'NONE', #71, #109, #221 ) ;
#101 = EDGE_CURVE ( 'NONE', #131, #220, #48, .T. ) ;
#102 = CYLINDRICAL_SURFACE ( 'NONE', #138, 25.00000000000000000 ) ;
#103 = VERTEX_POINT ( 'NONE', #159 ) ;
#104 = ORIENTED_EDGE ( 'NONE', *, *, #56, .T. ) ;
#105 = DIRECTION ( 'NONE',  ( 0.000000000000000000, 1.000000000000000000, 0.000000000000000000 ) ) ;
#106 =( LENGTH_UNIT ( ) NAMED_UNIT ( * ) SI_UNIT ( .MILLI., .METRE. ) );
#107 = CIRCLE ( 'NONE', #79, 25.00000000000000000 ) ;
#108 = EDGE_LOOP ( 'NONE', ( #9, #11, #104, #23 ) ) ;
#109 = DIRECTION ( 'NONE',  ( 0.000000000000000000, -1.000000000000000000, 0.000000000000000000 ) ) ;
#110 = ORIENTED_EDGE ( 'NONE', *, *, #63, .F. ) ;
#111 = DIRECTION ( 'NONE',  ( 0.000000000000000000, 0.000000000000000000, -1.000000000000000000 ) ) ;
#112 = ORIENTED_EDGE ( 'NONE', *, *, #234, .T. ) ;
#113 = CARTESIAN_POINT ( 'NONE',  ( 3.061616997868383043E-15, 19.99999999999999645, 25.00000000000000000 ) ) ;
#114 = EDGE_CURVE ( 'NONE', #264, #103, #182, .T. ) ;
#115 = VECTOR ( 'NONE', #94, 1000.000000000000000 ) ;
#116 = FACE_BOUND ( 'NONE', #178, .T. ) ;
#117 = EDGE_CURVE ( 'NONE', #93, #91, #180, .T. ) ;
#118 = CARTESIAN_POINT ( 'NONE',  ( 0.000000000000000000, -10.00000000000000000, 0.000000000000000000 ) ) ;
#119 = DIRECTION ( 'NONE',  ( 0.000000000000000000, -1.000000000000000000, 0.000000000000000000 ) ) ;
#120 = CYLINDRICAL_SURFACE ( 'NONE', #237, 7.000000000000000000 ) ;
#121 = CARTESIAN_POINT ( 'NONE',  ( 0.000000000000000000, -10.00000000000000000, 0.000000000000000000 ) ) ;
#122 = EDGE_CURVE ( 'NONE', #51, #66, #217, .T. ) ;
#123 = DIRECTION ( 'NONE',  ( 0.000000000000000000, -1.000000000000000000, 0.000000000000000000 ) ) ;
#124 = CARTESIAN_POINT ( 'NONE',  ( 0.000000000000000000, 0.000000000000000000, 0.000000000000000000 ) ) ;
#125 = AXIS2_PLACEMENT_3D ( 'NONE', #231, #90, #154 ) ;
#126 = ORIENTED_EDGE ( 'NONE', *, *, #269, .F. ) ;
#127 = PRODUCT_CONTEXT ( 'NONE', #78, 'mechanical' ) ;
#128 = ORIENTED_EDGE ( 'NONE', *, *, #200, .F. ) ;
#129 = DIRECTION ( 'NONE',  ( 0.000000000000000000, -1.000000000000000000, 0.000000000000000000 ) ) ;
#130 = DIRECTION ( 'NONE',  ( 0.000000000000000000, 0.000000000000000000, 1.000000000000000000 ) ) ;
#131 = VERTEX_POINT ( 'NONE', #8 ) ;
#132 = ORIENTED_EDGE ( 'NONE', *, *, #40, .T. ) ;
#133 = DIRECTION ( 'NONE',  ( 0.000000000000000000, 0.000000000000000000, -1.000000000000000000 ) ) ;
#134 = ORIENTED_EDGE ( 'NONE', *, *, #101, .T. ) ;
#135 = LINE ( 'NONE', #70, #186 ) ;
#136 = ADVANCED_BREP_SHAPE_REPRESENTATION ( 'moldeprop-Ressalto-extrus\X2\00e3\X0\o3', ( #184, #230 ), #189 ) ;
#137 = DIRECTION ( 'NONE',  ( 0.000000000000000000, 0.000000000000000000, 1.000000000000000000 ) ) ;
#138 = AXIS2_PLACEMENT_3D ( 'NONE', #81, #123, #42 ) ;
#139 = EDGE_CURVE ( 'NONE', #66, #51, #140, .T. ) ;
#140 = CIRCLE ( 'NONE', #125, 7.000000000000000000 ) ;
#141 = CARTESIAN_POINT ( 'NONE',  ( 0.000000000000000000, -10.00000000000000000, -50.00000000000000000 ) ) ;
#142 = FILL_AREA_STYLE_COLOUR ( '', #191 ) ;
#143 =( NAMED_UNIT ( * ) SI_UNIT ( $, .STERADIAN. ) SOLID_ANGLE_UNIT ( ) );
#144 = CIRCLE ( 'NONE', #21, 7.000000000000000000 ) ;
#145 = AXIS2_PLACEMENT_3D ( 'NONE', #263, #92, #183 ) ;
#146 = CIRCLE ( 'NONE', #166, 25.00000000000000000 ) ;
#147 = FACE_OUTER_BOUND ( 'NONE', #245, .T. ) ;
#148 = CIRCLE ( 'NONE', #165, 25.00000000000000000 ) ;
#149 = ORIENTED_EDGE ( 'NONE', *, *, #139, .T. ) ;
#150 = ORIENTED_EDGE ( 'NONE', *, *, #122, .T. ) ;
#151 = DIRECTION ( 'NONE',  ( 0.000000000000000000, -1.000000000000000000, 0.000000000000000000 ) ) ;
#152 = ADVANCED_FACE ( 'NONE', ( #116, #210 ), #15, .F. ) ;
#153 = EDGE_LOOP ( 'NONE', ( #202, #86 ) ) ;
#154 = DIRECTION ( 'NONE',  ( 0.000000000000000000, 0.000000000000000000, 1.000000000000000000 ) ) ;
#155 = VECTOR ( 'NONE', #19, 1000.000000000000000 ) ;
#156 = ORIENTED_EDGE ( 'NONE', *, *, #162, .F. ) ;
#157 = DIRECTION ( 'NONE',  ( 0.000000000000000000, 1.000000000000000000, -0.000000000000000000 ) ) ;
#158 = VERTEX_POINT ( 'NONE', #160 ) ;
#159 = CARTESIAN_POINT ( 'NONE',  ( 6.123233995736766085E-15, -10.00000000000000000, 50.00000000000000000 ) ) ;
#160 = CARTESIAN_POINT ( 'NONE',  ( 0.000000000000000000, 0.000000000000000000, -25.00000000000000000 ) ) ;
#161 = FILL_AREA_STYLE ('',( #142 ) ) ;
#162 = EDGE_CURVE ( 'NONE', #158, #24, #148, .T. ) ;
#163 = PLANE ( 'NONE',  #49 ) ;
#164 = CARTESIAN_POINT ( 'NONE',  ( 0.000000000000000000, 19.99999999999999645, -25.00000000000000000 ) ) ;
#165 = AXIS2_PLACEMENT_3D ( 'NONE', #247, #52, #72 ) ;
#166 = AXIS2_PLACEMENT_3D ( 'NONE', #65, #243, #248 ) ;
#167 = ADVANCED_FACE ( 'NONE', ( #250 ), #174, .T. ) ;
#168 = CIRCLE ( 'NONE', #257, 50.00000000000000000 ) ;
#169 = UNCERTAINTY_MEASURE_WITH_UNIT (LENGTH_MEASURE( 1.000000000000000082E-05 ), #99, 'distance_accuracy_value', 'NONE');
#170 =( NAMED_UNIT ( * ) SI_UNIT ( $, .STERADIAN. ) SOLID_ANGLE_UNIT ( ) );
#171 =( NAMED_UNIT ( * ) PLANE_ANGLE_UNIT ( ) SI_UNIT ( $, .RADIAN. ) );
#172 = ORIENTED_EDGE ( 'NONE', *, *, #213, .T. ) ;
#173 = EDGE_LOOP ( 'NONE', ( #62, #64 ) ) ;
#174 = CYLINDRICAL_SURFACE ( 'NONE', #259, 50.00000000000000000 ) ;
#175 = ADVANCED_FACE ( 'NONE', ( #58 ), #274, .F. ) ;
#176 = CYLINDRICAL_SURFACE ( 'NONE', #275, 7.000000000000000000 ) ;
#177 = VERTEX_POINT ( 'NONE', #55 ) ;
#178 = EDGE_LOOP ( 'NONE', ( #242, #132 ) ) ;
#179 = ORIENTED_EDGE ( 'NONE', *, *, #190, .F. ) ;
#180 = CIRCLE ( 'NONE', #100, 25.00000000000000000 ) ;
#181 = ORIENTED_EDGE ( 'NONE', *, *, #46, .F. ) ;
#182 = LINE ( 'NONE', #267, #43 ) ;
#183 = DIRECTION ( 'NONE',  ( 0.000000000000000000, 0.000000000000000000, -1.000000000000000000 ) ) ;
#184 = MANIFOLD_SOLID_BREP ( 'Bruto-moldeprop-1', #2 ) ;
#185 = DIRECTION ( 'NONE',  ( 0.000000000000000000, 0.000000000000000000, 1.000000000000000000 ) ) ;
#186 = VECTOR ( 'NONE', #105, 1000.000000000000000 ) ;
#187 = CARTESIAN_POINT ( 'NONE',  ( 8.572527594031473190E-16, 0.000000000000000000, -7.000000000000000000 ) ) ;
#188 = CARTESIAN_POINT ( 'NONE',  ( 3.061616997868383043E-15, 19.99999999999999645, 25.00000000000000000 ) ) ;
#189 =( GEOMETRIC_REPRESENTATION_CONTEXT ( 3 ) GLOBAL_UNCERTAINTY_ASSIGNED_CONTEXT ( ( #77 ) ) GLOBAL_UNIT_ASSIGNED_CONTEXT ( ( #106, #171, #170 ) ) REPRESENTATION_CONTEXT ( 'NONE', 'WORKASPACE' ) );
#190 = EDGE_CURVE ( 'NONE', #103, #220, #192, .T. ) ;
#191 = COLOUR_RGB ( '',0.7921568627450980005, 0.8196078431372548767, 0.9333333333333333481 ) ;
#192 = CIRCLE ( 'NONE', #68, 50.00000000000000000 ) ;
#193 = DIRECTION ( 'NONE',  ( 1.000000000000000000, 0.000000000000000000, 0.000000000000000000 ) ) ;
#194 = PLANE ( 'NONE',  #37 ) ;
#195 = ORIENTED_EDGE ( 'NONE', *, *, #56, .F. ) ;
#196 = CIRCLE ( 'NONE', #145, 50.00000000000000000 ) ;
#197 = VECTOR ( 'NONE', #211, 1000.000000000000000 ) ;
#198 = ORIENTED_EDGE ( 'NONE', *, *, #114, .T. ) ;
#199 = DIRECTION ( 'NONE',  ( 0.000000000000000000, -1.000000000000000000, 0.000000000000000000 ) ) ;
#200 = EDGE_CURVE ( 'NONE', #91, #24, #235, .T. ) ;
#201 = DIRECTION ( 'NONE',  ( 0.000000000000000000, 0.000000000000000000, -1.000000000000000000 ) ) ;
#202 = ORIENTED_EDGE ( 'NONE', *, *, #269, .T. ) ;
#203 = DIRECTION ( 'NONE',  ( 0.000000000000000000, 0.000000000000000000, 1.000000000000000000 ) ) ;
#204 = DIRECTION ( 'NONE',  ( 0.000000000000000000, 1.000000000000000000, 0.000000000000000000 ) ) ;
#205 = ORIENTED_EDGE ( 'NONE', *, *, #74, .F. ) ;
#206 = CARTESIAN_POINT ( 'NONE',  ( 0.000000000000000000, 0.000000000000000000, 0.000000000000000000 ) ) ;
#207 = VERTEX_POINT ( 'NONE', #187 ) ;
#208 = CARTESIAN_POINT ( 'NONE',  ( 0.000000000000000000, 19.99999999999999645, 0.000000000000000000 ) ) ;
#209 = AXIS2_PLACEMENT_3D ( 'NONE', #271, #119, #214 ) ;
#210 = FACE_OUTER_BOUND ( 'NONE', #173, .T. ) ;
#211 = DIRECTION ( 'NONE',  ( 0.000000000000000000, -1.000000000000000000, 0.000000000000000000 ) ) ;
#212 = PRESENTATION_STYLE_ASSIGNMENT (( #73 ) ) ;
#213 = EDGE_CURVE ( 'NONE', #66, #207, #215, .T. ) ;
#214 = DIRECTION ( 'NONE',  ( 0.000000000000000000, 0.000000000000000000, -1.000000000000000000 ) ) ;
#215 = LINE ( 'NONE', #75, #270 ) ;
#216 = CIRCLE ( 'NONE', #251, 7.000000000000000000 ) ;
#217 = CIRCLE ( 'NONE', #232, 7.000000000000000000 ) ;
#218 = ORIENTED_EDGE ( 'NONE', *, *, #162, .T. ) ;
#219 = ADVANCED_FACE ( 'NONE', ( #272, #98 ), #163, .F. ) ;
#220 = VERTEX_POINT ( 'NONE', #141 ) ;
#221 = DIRECTION ( 'NONE',  ( 0.000000000000000000, 0.000000000000000000, -1.000000000000000000 ) ) ;
#222 = CARTESIAN_POINT ( 'NONE',  ( 0.000000000000000000, -10.00000000000000000, 0.000000000000000000 ) ) ;
#223 = PRODUCT_DEFINITION_FORMATION_WITH_SPECIFIED_SOURCE ( 'ANY', '', #36, .NOT_KNOWN. ) ;
#224 = EDGE_LOOP ( 'NONE', ( #205, #181 ) ) ;
#225 = CARTESIAN_POINT ( 'NONE',  ( 0.000000000000000000, 19.99999999999999645, -50.00000000000000000 ) ) ;
#226 = APPLICATION_PROTOCOL_DEFINITION ( 'draft international standard', 'automotive_design', 1998, #78 ) ;
#227 = CARTESIAN_POINT ( 'NONE',  ( 0.000000000000000000, 19.99999999999999645, 0.000000000000000000 ) ) ;
#228 = ORIENTED_EDGE ( 'NONE', *, *, #101, .F. ) ;
#229 = DIRECTION ( 'NONE',  ( 0.000000000000000000, 0.000000000000000000, 1.000000000000000000 ) ) ;
#230 = AXIS2_PLACEMENT_3D ( 'NONE', #124, #84, #193 ) ;
#231 = CARTESIAN_POINT ( 'NONE',  ( 0.000000000000000000, -10.00000000000000000, 0.000000000000000000 ) ) ;
#232 = AXIS2_PLACEMENT_3D ( 'NONE', #35, #25, #137 ) ;
#233 = LINE ( 'NONE', #164, #197 ) ;
#234 = EDGE_CURVE ( 'NONE', #93, #158, #233, .T. ) ;
#235 = LINE ( 'NONE', #188, #155 ) ;
#236 = DIRECTION ( 'NONE',  ( 0.000000000000000000, 1.000000000000000000, -0.000000000000000000 ) ) ;
#237 = AXIS2_PLACEMENT_3D ( 'NONE', #254, #96, #185 ) ;
#238 = CARTESIAN_POINT ( 'NONE',  ( 0.000000000000000000, -10.00000000000000000, 0.000000000000000000 ) ) ;
#239 = PRESENTATION_LAYER_ASSIGNMENT (  '', '', ( #76 ) ) ;
#240 = ADVANCED_FACE ( 'NONE', ( #16 ), #120, .F. ) ;
#241 = ORIENTED_EDGE ( 'NONE', *, *, #40, .F. ) ;
#242 = ORIENTED_EDGE ( 'NONE', *, *, #117, .T. ) ;
#243 = DIRECTION ( 'NONE',  ( 0.000000000000000000, 1.000000000000000000, -0.000000000000000000 ) ) ;
#244 = FACE_OUTER_BOUND ( 'NONE', #44, .T. ) ;
#245 = EDGE_LOOP ( 'NONE', ( #1, #7, #134, #179 ) ) ;
#246 = ADVANCED_FACE ( 'NONE', ( #244 ), #176, .F. ) ;
#247 = CARTESIAN_POINT ( 'NONE',  ( 0.000000000000000000, 0.000000000000000000, 0.000000000000000000 ) ) ;
#248 = DIRECTION ( 'NONE',  ( 0.000000000000000000, 0.000000000000000000, 1.000000000000000000 ) ) ;
#249 = DIRECTION ( 'NONE',  ( 0.000000000000000000, 0.000000000000000000, -1.000000000000000000 ) ) ;
#250 = FACE_OUTER_BOUND ( 'NONE', #89, .T. ) ;
#251 = AXIS2_PLACEMENT_3D ( 'NONE', #206, #157, #203 ) ;
#252 =( NAMED_UNIT ( * ) PLANE_ANGLE_UNIT ( ) SI_UNIT ( $, .RADIAN. ) );
#253 = DIRECTION ( 'NONE',  ( 0.000000000000000000, 1.000000000000000000, 0.000000000000000000 ) ) ;
#254 = CARTESIAN_POINT ( 'NONE',  ( 0.000000000000000000, -10.00000000000000000, 0.000000000000000000 ) ) ;
#255 = ADVANCED_FACE ( 'NONE', ( #260 ), #102, .F. ) ;
#256 = DIRECTION ( 'NONE',  ( 0.000000000000000000, -1.000000000000000000, 0.000000000000000000 ) ) ;
#257 = AXIS2_PLACEMENT_3D ( 'NONE', #222, #151, #201 ) ;
#258 = ORIENTED_EDGE ( 'NONE', *, *, #117, .F. ) ;
#259 = AXIS2_PLACEMENT_3D ( 'NONE', #227, #32, #111 ) ;
#260 = FACE_OUTER_BOUND ( 'NONE', #266, .T. ) ;
#261 = DIRECTION ( 'NONE',  ( 0.000000000000000000, 0.000000000000000000, 1.000000000000000000 ) ) ;
#262 = EDGE_LOOP ( 'NONE', ( #150, #149 ) ) ;
#263 = CARTESIAN_POINT ( 'NONE',  ( 0.000000000000000000, 19.99999999999999645, 0.000000000000000000 ) ) ;
#264 = VERTEX_POINT ( 'NONE', #278 ) ;
#265 = CARTESIAN_POINT ( 'NONE',  ( 0.000000000000000000, 19.99999999999999645, 0.000000000000000000 ) ) ;
#266 = EDGE_LOOP ( 'NONE', ( #128, #258, #112, #110 ) ) ;
#267 = CARTESIAN_POINT ( 'NONE',  ( 6.123233995736766085E-15, 19.99999999999999645, 50.00000000000000000 ) ) ;
#268 = DIRECTION ( 'NONE',  ( 0.000000000000000000, -0.000000000000000000, -1.000000000000000000 ) ) ;
#269 = EDGE_CURVE ( 'NONE', #220, #103, #168, .T. ) ;
#270 = VECTOR ( 'NONE', #253, 1000.000000000000000 ) ;
#271 = CARTESIAN_POINT ( 'NONE',  ( 0.000000000000000000, 19.99999999999999645, 0.000000000000000000 ) ) ;
#272 = FACE_BOUND ( 'NONE', #262, .T. ) ;
#273 = SURFACE_SIDE_STYLE ('',( #17 ) ) ;
#274 = CYLINDRICAL_SURFACE ( 'NONE', #209, 25.00000000000000000 ) ;
#275 = AXIS2_PLACEMENT_3D ( 'NONE', #238, #204, #261 ) ;
#276 = AXIS2_PLACEMENT_3D ( 'NONE', #87, #95, #268 ) ;
#277 = ADVANCED_FACE ( 'NONE', ( #60, #6 ), #194, .T. ) ;
#278 = CARTESIAN_POINT ( 'NONE',  ( 6.123233995736766085E-15, 19.99999999999999645, 50.00000000000000000 ) ) ;
#279 = ADVANCED_FACE ( 'NONE', ( #147 ), #50, .T. ) ;
ENDSEC;
END-ISO-10303-21;
