ISO-10303-21;
HEADER;
FILE_DESCRIPTION (( 'STEP AP214' ),
    '1' );
FILE_NAME ('Peça3.STEP',
    '2026-07-02T14:58:37',
    ( '' ),
    ( '' ),
    'SwSTEP 2.0',
    'SolidWorks 2023',
    '' );
FILE_SCHEMA (( 'AUTOMOTIVE_DESIGN' ));
ENDSEC;

DATA;
#1 = CYLINDRICAL_SURFACE ( 'NONE', #407, 7.000000000000000000 ) ;
#2 = CARTESIAN_POINT ( 'NONE',  ( -3.925154942805311347E-16, 1.999999999999996669, -22.00000000000000000 ) ) ;
#3 = DIRECTION ( 'NONE',  ( -1.000000000000000000, -0.000000000000000000, -0.000000000000000000 ) ) ;
#4 = DIRECTION ( 'NONE',  ( 4.493836536903551601E-32, -2.312964634635743450E-16, -1.000000000000000000 ) ) ;
#5 = ADVANCED_FACE ( 'NONE', ( #557 ), #550, .T. ) ;
#6 = DIRECTION ( 'NONE',  ( -1.962577471402659125E-16, 1.000000000000000000, 0.000000000000000000 ) ) ;
#7 = AXIS2_PLACEMENT_3D ( 'NONE', #502, #70, #261 ) ;
#8 = AXIS2_PLACEMENT_3D ( 'NONE', #117, #346, #112 ) ;
#9 = DIRECTION ( 'NONE',  ( -1.000000000000000000, -1.962577471402659125E-16, 0.000000000000000000 ) ) ;
#10 = ORIENTED_EDGE ( 'NONE', *, *, #316, .T. ) ;
#11 = DIRECTION ( 'NONE',  ( 0.000000000000000000, 0.000000000000000000, 1.000000000000000000 ) ) ;
#12 = CARTESIAN_POINT ( 'NONE',  ( 30.00000000000001066, 5.887732414207979198E-15, 0.000000000000000000 ) ) ;
#13 = CIRCLE ( 'NONE', #35, 7.000000000000000000 ) ;
#14 = EDGE_CURVE ( 'NONE', #457, #458, #180, .T. ) ;
#15 = CARTESIAN_POINT ( 'NONE',  ( 0.000000000000000000, 0.000000000000000000, 0.000000000000000000 ) ) ;
#16 = CARTESIAN_POINT ( 'NONE',  ( 1.999999999999998224, 3.925154942805313319E-16, 0.000000000000000000 ) ) ;
#17 = CIRCLE ( 'NONE', #7, 25.00000000000000000 ) ;
#18 = PLANE ( 'NONE',  #587 ) ;
#19 = CARTESIAN_POINT ( 'NONE',  ( 0.000000000000000000, 0.000000000000000000, 0.000000000000000000 ) ) ;
#20 = AXIS2_PLACEMENT_3D ( 'NONE', #52, #186, #192 ) ;
#21 = DIRECTION ( 'NONE',  ( -1.000000000000000000, -1.962577471402659125E-16, -0.000000000000000000 ) ) ;
#22 = DIRECTION ( 'NONE',  ( 1.962577471402659125E-16, -1.000000000000000000, 0.000000000000000000 ) ) ;
#23 = CARTESIAN_POINT ( 'NONE',  ( 1.999999999999998224, 3.925154942805313319E-16, -22.00000000000000000 ) ) ;
#24 = CARTESIAN_POINT ( 'NONE',  ( 1.999999999999998224, 3.925154942805313319E-16, 22.00000000000000000 ) ) ;
#25 = ADVANCED_FACE ( 'NONE', ( #43 ), #504, .T. ) ;
#26 = CARTESIAN_POINT ( 'NONE',  ( -3.925154942805321700E-16, 2.000000000000001776, 21.90890230020664475 ) ) ;
#27 = ORIENTED_EDGE ( 'NONE', *, *, #181, .T. ) ;
#28 = VERTEX_POINT ( 'NONE', #79 ) ;
#29 = CYLINDRICAL_SURFACE ( 'NONE', #297, 22.00000000000000000 ) ;
#30 = VERTEX_POINT ( 'NONE', #45 ) ;
#31 = ORIENTED_EDGE ( 'NONE', *, *, #340, .T. ) ;
#32 = ORIENTED_EDGE ( 'NONE', *, *, #588, .T. ) ;
#33 = PLANE ( 'NONE',  #150 ) ;
#34 = EDGE_CURVE ( 'NONE', #602, #465, #320, .T. ) ;
#35 = AXIS2_PLACEMENT_3D ( 'NONE', #470, #328, #383 ) ;
#36 = FILL_AREA_STYLE ('',( #134 ) ) ;
#37 = EDGE_LOOP ( 'NONE', ( #363, #10, #508, #459 ) ) ;
#38 = ORIENTED_EDGE ( 'NONE', *, *, #305, .T. ) ;
#39 = AXIS2_PLACEMENT_3D ( 'NONE', #77, #118, #252 ) ;
#40 = VECTOR ( 'NONE', #382, 1000.000000000000000 ) ;
#41 = ORIENTED_EDGE ( 'NONE', *, *, #405, .T. ) ;
#42 = ORIENTED_EDGE ( 'NONE', *, *, #324, .T. ) ;
#43 = FACE_OUTER_BOUND ( 'NONE', #274, .T. ) ;
#44 = AXIS2_PLACEMENT_3D ( 'NONE', #228, #369, #323 ) ;
#45 = CARTESIAN_POINT ( 'NONE',  ( 1.999999999999997780, 1.999999999999997780, 7.745966692414833155 ) ) ;
#46 = CARTESIAN_POINT ( 'NONE',  ( -9.224133403191320269E-16, -1.810307641031602511E-31, 0.000000000000000000 ) ) ;
#47 = APPLICATION_CONTEXT ( 'automotive_design' ) ;
#48 = FACE_BOUND ( 'NONE', #121, .T. ) ;
#49 = EDGE_LOOP ( 'NONE', ( #413, #90, #505, #32, #126, #38 ) ) ;
#50 = LINE ( 'NONE', #521, #95 ) ;
#51 = DIRECTION ( 'NONE',  ( -1.000000000000000000, -1.962577471402659125E-16, 0.000000000000000000 ) ) ;
#52 = CARTESIAN_POINT ( 'NONE',  ( 30.00000000000000711, -24.99999999999999289, 0.000000000000000000 ) ) ;
#53 = CARTESIAN_POINT ( 'NONE',  ( -3.925154942805313812E-16, 1.999999999999997780, 7.745966692414834931 ) ) ;
#54 = ORIENTED_EDGE ( 'NONE', *, *, #331, .T. ) ;
#55 = CARTESIAN_POINT ( 'NONE',  ( 0.000000000000000000, 0.000000000000000000, 0.000000000000000000 ) ) ;
#56 = VECTOR ( 'NONE', #155, 1000.000000000000000 ) ;
#57 = PRODUCT_CONTEXT ( 'NONE', #503, 'mechanical' ) ;
#58 = DIRECTION ( 'NONE',  ( -1.000000000000000000, -1.962577471402659125E-16, 0.000000000000000000 ) ) ;
#59 = CARTESIAN_POINT ( 'NONE',  ( 30.00000000000001066, 5.887732414207979198E-15, 0.000000000000000000 ) ) ;
#60 = CARTESIAN_POINT ( 'NONE',  ( 0.000000000000000000, -7.703719777548943412E-31, 0.000000000000000000 ) ) ;
#61 = MANIFOLD_SOLID_BREP ( 'Ressalto-extrusão2', #265 ) ;
#62 = EDGE_CURVE ( 'NONE', #597, #136, #220, .T. ) ;
#63 = DIRECTION ( 'NONE',  ( 1.000000000000000000, 1.962577471402659125E-16, -0.000000000000000000 ) ) ;
#64 = LINE ( 'NONE', #237, #135 ) ;
#65 = CARTESIAN_POINT ( 'NONE',  ( 30.00000000000000711, 22.00000000000000711, 2.694222958124176809E-15 ) ) ;
#66 = CARTESIAN_POINT ( 'NONE',  ( 30.00000000000001421, -21.99999999999999289, 0.000000000000000000 ) ) ;
#67 = FACE_OUTER_BOUND ( 'NONE', #321, .T. ) ;
#68 = DIRECTION ( 'NONE',  ( -1.000000000000000000, -1.962577471402659125E-16, -0.000000000000000000 ) ) ;
#69 = ADVANCED_FACE ( 'NONE', ( #185 ), #231, .F. ) ;
#70 = DIRECTION ( 'NONE',  ( 1.000000000000000000, 1.962577471402659125E-16, -0.000000000000000000 ) ) ;
#71 = ORIENTED_EDGE ( 'NONE', *, *, #398, .T. ) ;
#72 = ORIENTED_EDGE ( 'NONE', *, *, #91, .T. ) ;
#73 = DIRECTION ( 'NONE',  ( -1.000000000000000000, -0.000000000000000000, -0.000000000000000000 ) ) ;
#74 = ORIENTED_EDGE ( 'NONE', *, *, #271, .F. ) ;
#75 = EDGE_LOOP ( 'NONE', ( #325, #353 ) ) ;
#76 = EDGE_CURVE ( 'NONE', #414, #229, #567, .T. ) ;
#77 = CARTESIAN_POINT ( 'NONE',  ( 1.999999999999998224, 3.925154942805313319E-16, 0.000000000000000000 ) ) ;
#78 = ORIENTED_EDGE ( 'NONE', *, *, #91, .F. ) ;
#79 = CARTESIAN_POINT ( 'NONE',  ( 30.00000000000000711, 22.00000000000000711, 2.694222958124177598E-15 ) ) ;
#80 = ORIENTED_EDGE ( 'NONE', *, *, #154, .F. ) ;
#81 = ORIENTED_EDGE ( 'NONE', *, *, #343, .T. ) ;
#82 = DIRECTION ( 'NONE',  ( -1.000000000000000000, -1.962577471402659125E-16, -0.000000000000000000 ) ) ;
#83 = ORIENTED_EDGE ( 'NONE', *, *, #14, .T. ) ;
#84 = VECTOR ( 'NONE', #569, 1000.000000000000000 ) ;
#85 =( NAMED_UNIT ( * ) SI_UNIT ( $, .STERADIAN. ) SOLID_ANGLE_UNIT ( ) );
#86 = VERTEX_POINT ( 'NONE', #422 ) ;
#87 = EDGE_CURVE ( 'NONE', #105, #209, #13, .T. ) ;
#88 = ORIENTED_EDGE ( 'NONE', *, *, #386, .F. ) ;
#89 = AXIS2_PLACEMENT_3D ( 'NONE', #425, #51, #142 ) ;
#90 = ORIENTED_EDGE ( 'NONE', *, *, #340, .F. ) ;
#91 = EDGE_CURVE ( 'NONE', #558, #465, #277, .T. ) ;
#92 =( NAMED_UNIT ( * ) PLANE_ANGLE_UNIT ( ) SI_UNIT ( $, .RADIAN. ) );
#93 = AXIS2_PLACEMENT_3D ( 'NONE', #60, #347, #339 ) ;
#94 = FACE_OUTER_BOUND ( 'NONE', #169, .T. ) ;
#95 = VECTOR ( 'NONE', #563, 1000.000000000000000 ) ;
#96 = ADVANCED_FACE ( 'NONE', ( #472, #518, #48, #94 ), #475, .F. ) ;
#97 = CARTESIAN_POINT ( 'NONE',  ( 30.00000000000000355, 0.000000000000000000, 0.000000000000000000 ) ) ;
#98 = DIRECTION ( 'NONE',  ( 1.577021341797097314E-16, -1.000000000000000000, 0.000000000000000000 ) ) ;
#99 = AXIS2_PLACEMENT_3D ( 'NONE', #240, #196, #539 ) ;
#100 = ORIENTED_EDGE ( 'NONE', *, *, #271, .T. ) ;
#101 = STYLED_ITEM ( 'NONE', ( #412 ), #61 ) ;
#102 = DIRECTION ( 'NONE',  ( -1.000000000000000000, -1.962577471402659125E-16, 0.000000000000000000 ) ) ;
#103 = DIRECTION ( 'NONE',  ( -1.000000000000000000, -1.962577471402659125E-16, 0.000000000000000000 ) ) ;
#104 = LINE ( 'NONE', #110, #370 ) ;
#105 = VERTEX_POINT ( 'NONE', #191 ) ;
#106 = CARTESIAN_POINT ( 'NONE',  ( 1.999999999999997780, 2.000000000000001332, 21.90890230020664120 ) ) ;
#107 = CARTESIAN_POINT ( 'NONE',  ( 1.999999999999998224, 3.925154942805313319E-16, 0.000000000000000000 ) ) ;
#108 = EDGE_CURVE ( 'NONE', #225, #590, #111, .T. ) ;
#109 = DIRECTION ( 'NONE',  ( 1.962577471402659371E-16, -1.000000000000000000, 0.000000000000000000 ) ) ;
#110 = CARTESIAN_POINT ( 'NONE',  ( 29.99999999999999289, 25.00000000000000711, 0.000000000000000000 ) ) ;
#111 = CIRCLE ( 'NONE', #89, 22.00000000000000000 ) ;
#112 = DIRECTION ( 'NONE',  ( -1.962577471402659125E-16, 1.000000000000000000, 0.000000000000000000 ) ) ;
#113 = CARTESIAN_POINT ( 'NONE',  ( 3.813496559912064074E-31, -1.943106254647133463E-15, 8.000000000000000000 ) ) ;
#114 = DIRECTION ( 'NONE',  ( 0.000000000000000000, -1.000000000000000000, 0.000000000000000000 ) ) ;
#115 = DIRECTION ( 'NONE',  ( 1.962577471402659125E-16, -1.000000000000000000, 0.000000000000000000 ) ) ;
#116 = AXIS2_PLACEMENT_3D ( 'NONE', #344, #63, #533 ) ;
#117 = CARTESIAN_POINT ( 'NONE',  ( 0.000000000000000000, -7.703719777548943412E-31, 0.000000000000000000 ) ) ;
#118 = DIRECTION ( 'NONE',  ( 1.000000000000000000, 1.962577471402659371E-16, -4.553574718364116405E-34 ) ) ;
#119 = ORIENTED_EDGE ( 'NONE', *, *, #132, .F. ) ;
#120 = CYLINDRICAL_SURFACE ( 'NONE', #485, 25.00000000000000000 ) ;
#121 = EDGE_LOOP ( 'NONE', ( #360, #131 ) ) ;
#122 = ADVANCED_FACE ( 'NONE', ( #144 ), #1, .F. ) ;
#123 = ORIENTED_EDGE ( 'NONE', *, *, #468, .T. ) ;
#124 = AXIS2_PLACEMENT_3D ( 'NONE', #577, #58, #437 ) ;
#125 = DIRECTION ( 'NONE',  ( -1.000000000000000000, -1.962577471402659125E-16, 0.000000000000000000 ) ) ;
#126 = ORIENTED_EDGE ( 'NONE', *, *, #238, .T. ) ;
#127 = CARTESIAN_POINT ( 'NONE',  ( 30.00000000000001066, 5.887732414207979198E-15, 0.000000000000000000 ) ) ;
#128 = EDGE_LOOP ( 'NONE', ( #210, #130 ) ) ;
#129 = ORIENTED_EDGE ( 'NONE', *, *, #588, .F. ) ;
#130 = ORIENTED_EDGE ( 'NONE', *, *, #427, .F. ) ;
#131 = ORIENTED_EDGE ( 'NONE', *, *, #579, .F. ) ;
#132 = EDGE_CURVE ( 'NONE', #28, #177, #438, .T. ) ;
#133 = VECTOR ( 'NONE', #4, 1000.000000000000000 ) ;
#134 = FILL_AREA_STYLE_COLOUR ( '', #165 ) ;
#135 = VECTOR ( 'NONE', #202, 1000.000000000000000 ) ;
#136 = VERTEX_POINT ( 'NONE', #235 ) ;
#137 = PLANE ( 'NONE',  #212 ) ;
#138 = ADVANCED_FACE ( 'NONE', ( #428 ), #373, .T. ) ;
#139 = CARTESIAN_POINT ( 'NONE',  ( 2.000000000000000000, 3.925154942805318249E-16, -22.00000000000000000 ) ) ;
#140 = DIRECTION ( 'NONE',  ( 0.000000000000000000, -1.000000000000000000, 0.000000000000000000 ) ) ;
#141 = VECTOR ( 'NONE', #342, 1000.000000000000000 ) ;
#142 = DIRECTION ( 'NONE',  ( 1.962577471402659371E-16, -1.000000000000000000, 0.000000000000000000 ) ) ;
#143 = CARTESIAN_POINT ( 'NONE',  ( 0.000000000000000000, 0.000000000000000000, 22.00000000000000000 ) ) ;
#144 = FACE_OUTER_BOUND ( 'NONE', #543, .T. ) ;
#145 = LINE ( 'NONE', #248, #257 ) ;
#146 = ORIENTED_EDGE ( 'NONE', *, *, #418, .F. ) ;
#147 = VECTOR ( 'NONE', #604, 1000.000000000000000 ) ;
#148 = DIRECTION ( 'NONE',  ( 0.000000000000000000, 0.000000000000000000, 1.000000000000000000 ) ) ;
#149 = DIRECTION ( 'NONE',  ( -1.000000000000000000, -1.962577471402659125E-16, 0.000000000000000000 ) ) ;
#150 = AXIS2_PLACEMENT_3D ( 'NONE', #410, #172, #581 ) ;
#151 = AXIS2_PLACEMENT_3D ( 'NONE', #97, #377, #292 ) ;
#152 = CARTESIAN_POINT ( 'NONE',  ( 30.00000000000001066, 2.000000000000007994, 21.90890230020664475 ) ) ;
#153 = DIRECTION ( 'NONE',  ( 1.000000000000000000, 1.962577471402659125E-16, 5.473822126268816683E-48 ) ) ;
#154 = EDGE_CURVE ( 'NONE', #458, #602, #336, .T. ) ;
#155 = DIRECTION ( 'NONE',  ( -1.000000000000000000, -1.962577471402659125E-16, -0.000000000000000000 ) ) ;
#156 = DIRECTION ( 'NONE',  ( 1.971276677246371765E-16, -1.000000000000000000, 0.000000000000000000 ) ) ;
#157 = ADVANCED_FACE ( 'NONE', ( #497 ), #120, .T. ) ;
#158 = CARTESIAN_POINT ( 'NONE',  ( 4.906443678506647885E-15, -25.00000000000000355, 3.061616997868383831E-15 ) ) ;
#159 = DIRECTION ( 'NONE',  ( 2.723926114222901893E-32, -1.387933039033666935E-16, -1.000000000000000000 ) ) ;
#160 = FACE_OUTER_BOUND ( 'NONE', #170, .T. ) ;
#161 = CARTESIAN_POINT ( 'NONE',  ( 30.00000000000001066, 3.944626159560846918E-15, -8.000000000000000000 ) ) ;
#162 = VECTOR ( 'NONE', #298, 1000.000000000000000 ) ;
#163 = DIRECTION ( 'NONE',  ( 1.000000000000000000, 1.962577471402659125E-16, -0.000000000000000000 ) ) ;
#164 = EDGE_LOOP ( 'NONE', ( #411, #146, #500, #461 ) ) ;
#165 = COLOUR_RGB ( '',0.7921568627450980005, 0.8196078431372548767, 0.9333333333333333481 ) ;
#166 = CARTESIAN_POINT ( 'NONE',  ( 0.000000000000000000, 0.000000000000000000, 0.000000000000000000 ) ) ;
#167 = ORIENTED_EDGE ( 'NONE', *, *, #132, .T. ) ;
#168 = ADVANCED_FACE ( 'NONE', ( #589 ), #29, .F. ) ;
#169 = EDGE_LOOP ( 'NONE', ( #222, #594 ) ) ;
#170 = EDGE_LOOP ( 'NONE', ( #119, #123, #337, #551, #367, #319, #54, #214 ) ) ;
#171 = AXIS2_PLACEMENT_3D ( 'NONE', #16, #153, #156 ) ;
#172 = DIRECTION ( 'NONE',  ( -1.962577471402659371E-16, 1.000000000000000000, -2.312964634635743943E-16 ) ) ;
#173 = VERTEX_POINT ( 'NONE', #548 ) ;
#174 = CARTESIAN_POINT ( 'NONE',  ( 30.00000000000001066, 2.000000000000002665, -7.745966692414834931 ) ) ;
#175 = EDGE_LOOP ( 'NONE', ( #355, #74, #71, #31, #545, #409, #41, #358 ) ) ;
#176 = ORIENTED_EDGE ( 'NONE', *, *, #181, .F. ) ;
#177 = VERTEX_POINT ( 'NONE', #302 ) ;
#178 = EDGE_CURVE ( 'NONE', #30, #318, #396, .T. ) ;
#179 = VERTEX_POINT ( 'NONE', #446 ) ;
#180 = LINE ( 'NONE', #315, #147 ) ;
#181 = EDGE_CURVE ( 'NONE', #30, #86, #562, .T. ) ;
#182 = DIRECTION ( 'NONE',  ( 2.723926114222901893E-32, -1.387933039033666935E-16, 1.000000000000000000 ) ) ;
#183 = CARTESIAN_POINT ( 'NONE',  ( 30.00000000000001066, 5.887732414207979198E-15, 0.000000000000000000 ) ) ;
#184 = VECTOR ( 'NONE', #73, 1000.000000000000000 ) ;
#185 = FACE_OUTER_BOUND ( 'NONE', #552, .T. ) ;
#186 = DIRECTION ( 'NONE',  ( -1.000000000000000000, -1.962577471402659125E-16, 0.000000000000000000 ) ) ;
#187 = DIRECTION ( 'NONE',  ( -1.000000000000000000, 0.000000000000000000, 0.000000000000000000 ) ) ;
#188 = AXIS2_PLACEMENT_3D ( 'NONE', #531, #488, #115 ) ;
#189 = FACE_BOUND ( 'NONE', #249, .T. ) ;
#190 = VERTEX_POINT ( 'NONE', #24 ) ;
#191 = CARTESIAN_POINT ( 'NONE',  ( 0.000000000000000000, 0.000000000000000000, 7.000000000000000000 ) ) ;
#192 = DIRECTION ( 'NONE',  ( 1.962577471402659125E-16, -1.000000000000000000, 0.000000000000000000 ) ) ;
#193 = LINE ( 'NONE', #245, #40 ) ;
#194 = PRESENTATION_LAYER_ASSIGNMENT (  '', '', ( #101 ) ) ;
#195 = DIRECTION ( 'NONE',  ( 2.723926114222901893E-32, -1.387933039033666935E-16, -1.000000000000000000 ) ) ;
#196 = DIRECTION ( 'NONE',  ( -1.000000000000000000, -1.962577471402659125E-16, 0.000000000000000000 ) ) ;
#197 = EDGE_CURVE ( 'NONE', #136, #105, #585, .T. ) ;
#198 = CIRCLE ( 'NONE', #93, 25.00000000000000000 ) ;
#199 = PRODUCT_DEFINITION_SHAPE ( 'NONE', 'NONE',  #520 ) ;
#200 = AXIS2_PLACEMENT_3D ( 'NONE', #232, #288, #476 ) ;
#201 = DIRECTION ( 'NONE',  ( -1.000000000000000000, -0.000000000000000000, -0.000000000000000000 ) ) ;
#202 = DIRECTION ( 'NONE',  ( -1.000000000000000000, -1.962577471402659125E-16, -0.000000000000000000 ) ) ;
#203 = EDGE_CURVE ( 'NONE', #306, #419, #593, .T. ) ;
#204 = ORIENTED_EDGE ( 'NONE', *, *, #34, .F. ) ;
#205 = DIRECTION ( 'NONE',  ( 1.000000000000000000, 1.962577471402659125E-16, 0.000000000000000000 ) ) ;
#206 = DIRECTION ( 'NONE',  ( -1.000000000000000000, -1.962577471402659125E-16, -0.000000000000000000 ) ) ;
#207 = LINE ( 'NONE', #247, #609 ) ;
#208 = DIRECTION ( 'NONE',  ( -1.000000000000000000, -1.962577471402659125E-16, -0.000000000000000000 ) ) ;
#209 = VERTEX_POINT ( 'NONE', #211 ) ;
#210 = ORIENTED_EDGE ( 'NONE', *, *, #555, .F. ) ;
#211 = CARTESIAN_POINT ( 'NONE',  ( 0.000000000000000000, 8.572527594031471218E-16, -7.000000000000000000 ) ) ;
#212 = AXIS2_PLACEMENT_3D ( 'NONE', #327, #424, #527 ) ;
#213 = ORIENTED_EDGE ( 'NONE', *, *, #278, .F. ) ;
#214 = ORIENTED_EDGE ( 'NONE', *, *, #398, .F. ) ;
#215 = EDGE_CURVE ( 'NONE', #506, #190, #467, .T. ) ;
#216 = DIRECTION ( 'NONE',  ( 1.000000000000000000, 1.962577471402659125E-16, 0.000000000000000000 ) ) ;
#217 = ORIENTED_EDGE ( 'NONE', *, *, #215, .T. ) ;
#218 = ORIENTED_EDGE ( 'NONE', *, *, #62, .F. ) ;
#219 = ORIENTED_EDGE ( 'NONE', *, *, #394, .F. ) ;
#220 = CIRCLE ( 'NONE', #525, 7.000000000000000000 ) ;
#221 = DIRECTION ( 'NONE',  ( -1.387778780781445676E-16, 1.000000000000000000, 0.000000000000000000 ) ) ;
#222 = ORIENTED_EDGE ( 'NONE', *, *, #423, .F. ) ;
#223 = SURFACE_STYLE_USAGE ( .BOTH. , #268 ) ;
#224 = VERTEX_POINT ( 'NONE', #401 ) ;
#225 = VERTEX_POINT ( 'NONE', #26 ) ;
#226 = ADVANCED_FACE ( 'NONE', ( #544 ), #359, .F. ) ;
#227 = EDGE_LOOP ( 'NONE', ( #507, #514 ) ) ;
#228 = CARTESIAN_POINT ( 'NONE',  ( 29.99999999999999645, 5.887732414207975254E-15, 0.000000000000000000 ) ) ;
#229 = VERTEX_POINT ( 'NONE', #352 ) ;
#230 = CIRCLE ( 'NONE', #313, 7.000000000000000000 ) ;
#231 = PLANE ( 'NONE',  #385 ) ;
#232 = CARTESIAN_POINT ( 'NONE',  ( 0.000000000000000000, 0.000000000000000000, 0.000000000000000000 ) ) ;
#233 = DIRECTION ( 'NONE',  ( 1.000000000000000000, 1.962577471402659125E-16, -0.000000000000000000 ) ) ;
#234 = FACE_BOUND ( 'NONE', #75, .T. ) ;
#235 = CARTESIAN_POINT ( 'NONE',  ( 30.00000000000000355, 0.000000000000000000, 7.000000000000000000 ) ) ;
#236 = CARTESIAN_POINT ( 'NONE',  ( -3.925154942805321700E-16, 2.000000000000001776, 22.00000000000000000 ) ) ;
#237 = CARTESIAN_POINT ( 'NONE',  ( 30.00000000000001066, 2.000000000000002665, -21.90890230020664475 ) ) ;
#238 = EDGE_CURVE ( 'NONE', #306, #173, #376, .T. ) ;
#239 = SHAPE_DEFINITION_REPRESENTATION ( #199, #512 ) ;
#240 = CARTESIAN_POINT ( 'NONE',  ( 0.000000000000000000, 0.000000000000000000, 0.000000000000000000 ) ) ;
#241 = CARTESIAN_POINT ( 'NONE',  ( 0.000000000000000000, 0.000000000000000000, 0.000000000000000000 ) ) ;
#242 = CARTESIAN_POINT ( 'NONE',  ( 1.999999999999999556, 2.000000000000002220, 22.00000000000000000 ) ) ;
#243 = AXIS2_PLACEMENT_3D ( 'NONE', #183, #522, #98 ) ;
#244 = CARTESIAN_POINT ( 'NONE',  ( 30.00000000000000355, 0.000000000000000000, 0.000000000000000000 ) ) ;
#245 = CARTESIAN_POINT ( 'NONE',  ( 2.000000000000000000, 3.925154942805318249E-16, -22.00000000000000000 ) ) ;
#246 = AXIS2_PLACEMENT_3D ( 'NONE', #384, #393, #390 ) ;
#247 = CARTESIAN_POINT ( 'NONE',  ( 30.00000000000000000, -24.99999999999999289, 3.061616997868383043E-15 ) ) ;
#248 = CARTESIAN_POINT ( 'NONE',  ( 30.00000000000001066, -7.999999999999994671, 0.000000000000000000 ) ) ;
#249 = EDGE_LOOP ( 'NONE', ( #100, #167 ) ) ;
#250 = LINE ( 'NONE', #580, #281 ) ;
#251 = DIRECTION ( 'NONE',  ( 1.000000000000000000, 1.962577471402659371E-16, -4.553574718364116405E-34 ) ) ;
#252 = DIRECTION ( 'NONE',  ( 1.971276677246371765E-16, -1.000000000000000000, -1.065814103640150279E-14 ) ) ;
#253 = ORIENTED_EDGE ( 'NONE', *, *, #400, .T. ) ;
#254 = EDGE_CURVE ( 'NONE', #547, #179, #17, .T. ) ;
#255 = VERTEX_POINT ( 'NONE', #447 ) ;
#256 = CARTESIAN_POINT ( 'NONE',  ( 30.00000000000001066, 2.000000000000004441, 7.745966692414834043 ) ) ;
#257 = VECTOR ( 'NONE', #477, 1000.000000000000000 ) ;
#258 = ORIENTED_EDGE ( 'NONE', *, *, #560, .F. ) ;
#259 = ORIENTED_EDGE ( 'NONE', *, *, #350, .F. ) ;
#260 = ADVANCED_FACE ( 'NONE', ( #454 ), #33, .T. ) ;
#261 = DIRECTION ( 'NONE',  ( -1.387778780781445676E-16, 1.000000000000000000, 0.000000000000000000 ) ) ;
#262 = ORIENTED_EDGE ( 'NONE', *, *, #405, .F. ) ;
#263 = CARTESIAN_POINT ( 'NONE',  ( 30.00000000000000355, 0.000000000000000000, 0.000000000000000000 ) ) ;
#264 = ORIENTED_EDGE ( 'NONE', *, *, #34, .T. ) ;
#265 = CLOSED_SHELL ( 'NONE', ( #122, #25, #5, #463, #168, #310, #96, #157, #380, #486, #226, #138, #444, #509, #260, #69, #600 ) ) ;
#266 = EDGE_CURVE ( 'NONE', #465, #419, #309, .T. ) ;
#267 = ORIENTED_EDGE ( 'NONE', *, *, #178, .F. ) ;
#268 = SURFACE_SIDE_STYLE ('',( #275 ) ) ;
#269 = ORIENTED_EDGE ( 'NONE', *, *, #254, .F. ) ;
#270 = AXIS2_PLACEMENT_3D ( 'NONE', #107, #443, #534 ) ;
#271 = EDGE_CURVE ( 'NONE', #177, #28, #537, .T. ) ;
#272 = CIRCLE ( 'NONE', #349, 8.000000000000000000 ) ;
#273 = ORIENTED_EDGE ( 'NONE', *, *, #203, .F. ) ;
#274 = EDGE_LOOP ( 'NONE', ( #415, #448, #269, #219 ) ) ;
#275 = SURFACE_STYLE_FILL_AREA ( #36 ) ;
#276 =( GEOMETRIC_REPRESENTATION_CONTEXT ( 3 ) GLOBAL_UNCERTAINTY_ASSIGNED_CONTEXT ( ( #416 ) ) GLOBAL_UNIT_ASSIGNED_CONTEXT ( ( #460, #554, #85 ) ) REPRESENTATION_CONTEXT ( 'NONE', 'WORKASPACE' ) );
#277 = LINE ( 'NONE', #571, #357 ) ;
#278 = EDGE_CURVE ( 'NONE', #506, #30, #441, .T. ) ;
#279 = AXIS2_PLACEMENT_3D ( 'NONE', #12, #206, #430 ) ;
#280 = LINE ( 'NONE', #236, #133 ) ;
#281 = VECTOR ( 'NONE', #195, 1000.000000000000000 ) ;
#282 = DIRECTION ( 'NONE',  ( 1.962577471402659371E-16, -1.000000000000000000, 0.000000000000000000 ) ) ;
#283 = CARTESIAN_POINT ( 'NONE',  ( 0.000000000000000000, 0.000000000000000000, -22.00000000000000000 ) ) ;
#284 = CARTESIAN_POINT ( 'NONE',  ( 2.000000000000000000, 3.925154942805318249E-16, -1.736295536279584716E-65 ) ) ;
#285 = EDGE_CURVE ( 'NONE', #599, #308, #583, .T. ) ;
#286 = DIRECTION ( 'NONE',  ( 0.000000000000000000, 0.000000000000000000, 1.000000000000000000 ) ) ;
#287 = DIRECTION ( 'NONE',  ( 1.962577471402659125E-16, -1.000000000000000000, 0.000000000000000000 ) ) ;
#288 = DIRECTION ( 'NONE',  ( 0.000000000000000000, 0.000000000000000000, 1.000000000000000000 ) ) ;
#289 = CARTESIAN_POINT ( 'NONE',  ( 30.00000000000000711, -24.99999999999999289, 0.000000000000000000 ) ) ;
#290 = PRODUCT_RELATED_PRODUCT_CATEGORY ( 'part', '', ( #296 ) ) ;
#291 =( GEOMETRIC_REPRESENTATION_CONTEXT ( 3 ) GLOBAL_UNCERTAINTY_ASSIGNED_CONTEXT ( ( #556 ) ) GLOBAL_UNIT_ASSIGNED_CONTEXT ( ( #517, #92, #429 ) ) REPRESENTATION_CONTEXT ( 'NONE', 'WORKASPACE' ) );
#292 = DIRECTION ( 'NONE',  ( 0.000000000000000000, 0.000000000000000000, 1.000000000000000000 ) ) ;
#293 = LINE ( 'NONE', #473, #469 ) ;
#294 = LINE ( 'NONE', #65, #462 ) ;
#295 = CARTESIAN_POINT ( 'NONE',  ( 3.851859888774471706E-31, -1.746848507506866688E-15, -8.000000000000000000 ) ) ;
#296 = PRODUCT ( 'Pe\X2\00e7\X0\a3', 'Pe\X2\00e7\X0\a3', '', ( #57 ) ) ;
#297 = AXIS2_PLACEMENT_3D ( 'NONE', #491, #208, #354 ) ;
#298 = DIRECTION ( 'NONE',  ( -1.000000000000000000, -0.000000000000000000, -0.000000000000000000 ) ) ;
#299 = DIRECTION ( 'NONE',  ( 1.962577471402659125E-16, -1.000000000000000000, 0.000000000000000000 ) ) ;
#300 = CIRCLE ( 'NONE', #151, 7.000000000000000000 ) ;
#301 = DIRECTION ( 'NONE',  ( -1.000000000000000000, -1.962577471402659125E-16, -0.000000000000000000 ) ) ;
#302 = CARTESIAN_POINT ( 'NONE',  ( 30.00000000000001421, -21.99999999999999289, 0.000000000000000000 ) ) ;
#303 = CYLINDRICAL_SURFACE ( 'NONE', #513, 7.000000000000000000 ) ;
#304 = DIRECTION ( 'NONE',  ( 1.962577471402659125E-16, -1.000000000000000000, 0.000000000000000000 ) ) ;
#305 = EDGE_CURVE ( 'NONE', #173, #308, #362, .T. ) ;
#306 = VERTEX_POINT ( 'NONE', #295 ) ;
#307 = CARTESIAN_POINT ( 'NONE',  ( 2.000000000000000000, 3.925154942805318249E-16, -2.097391006902104584E-94 ) ) ;
#308 = VERTEX_POINT ( 'NONE', #113 ) ;
#309 = CIRCLE ( 'NONE', #270, 8.000000000000000000 ) ;
#310 = ADVANCED_FACE ( 'NONE', ( #484 ), #335, .T. ) ;
#311 = EDGE_LOOP ( 'NONE', ( #596, #83, #259, #267, #27, #314, #434, #317 ) ) ;
#312 = DIRECTION ( 'NONE',  ( 1.962577471402659125E-16, -1.000000000000000000, 0.000000000000000000 ) ) ;
#313 = AXIS2_PLACEMENT_3D ( 'NONE', #241, #480, #426 ) ;
#314 = ORIENTED_EDGE ( 'NONE', *, *, #536, .T. ) ;
#315 = CARTESIAN_POINT ( 'NONE',  ( 30.00000000000001066, 8.000000000000005329, 9.797174393178825657E-16 ) ) ;
#316 = EDGE_CURVE ( 'NONE', #494, #402, #198, .T. ) ;
#317 = ORIENTED_EDGE ( 'NONE', *, *, #400, .F. ) ;
#318 = VERTEX_POINT ( 'NONE', #53 ) ;
#319 = ORIENTED_EDGE ( 'NONE', *, *, #76, .T. ) ;
#320 = LINE ( 'NONE', #174, #466 ) ;
#321 = EDGE_LOOP ( 'NONE', ( #511, #489, #417, #523 ) ) ;
#322 = CIRCLE ( 'NONE', #399, 22.00000000000000000 ) ;
#323 = DIRECTION ( 'NONE',  ( -1.387778780781445676E-16, 1.000000000000000000, 0.000000000000000000 ) ) ;
#324 = EDGE_CURVE ( 'NONE', #414, #558, #439, .T. ) ;
#325 = ORIENTED_EDGE ( 'NONE', *, *, #546, .T. ) ;
#326 = AXIS2_PLACEMENT_3D ( 'NONE', #55, #102, #287 ) ;
#327 = CARTESIAN_POINT ( 'NONE',  ( 2.000000000000000000, 3.925154942805318249E-16, 22.00000000000000000 ) ) ;
#328 = DIRECTION ( 'NONE',  ( -1.000000000000000000, 0.000000000000000000, 0.000000000000000000 ) ) ;
#329 = PLANE ( 'NONE',  #20 ) ;
#330 = CARTESIAN_POINT ( 'NONE',  ( 30.00000000000000355, 0.000000000000000000, 0.000000000000000000 ) ) ;
#331 = EDGE_CURVE ( 'NONE', #229, #455, #519, .T. ) ;
#332 = CARTESIAN_POINT ( 'NONE',  ( -3.925154942805313319E-16, 1.999999999999996669, -7.745966692414834931 ) ) ;
#333 = ORIENTED_EDGE ( 'NONE', *, *, #238, .F. ) ;
#334 = DIRECTION ( 'NONE',  ( 1.000000000000000000, 1.962577471402659125E-16, 0.000000000000000000 ) ) ;
#335 = CYLINDRICAL_SURFACE ( 'NONE', #279, 8.000000000000000000 ) ;
#336 = CIRCLE ( 'NONE', #326, 8.000000000000000000 ) ;
#337 = ORIENTED_EDGE ( 'NONE', *, *, #499, .T. ) ;
#338 = CARTESIAN_POINT ( 'NONE',  ( 1.999999999999997780, 1.999999999999997113, -21.90890230020664475 ) ) ;
#339 = DIRECTION ( 'NONE',  ( -1.962577471402659125E-16, 1.000000000000000000, 0.000000000000000000 ) ) ;
#340 = EDGE_CURVE ( 'NONE', #455, #599, #391, .T. ) ;
#341 = LINE ( 'NONE', #483, #162 ) ;
#342 = DIRECTION ( 'NONE',  ( 4.493836536903551601E-32, -2.312964634635743450E-16, -1.000000000000000000 ) ) ;
#343 = EDGE_CURVE ( 'NONE', #558, #224, #64, .T. ) ;
#344 = CARTESIAN_POINT ( 'NONE',  ( 30.00000000000000711, 5.887732414207976831E-15, 0.000000000000000000 ) ) ;
#345 = DIRECTION ( 'NONE',  ( -1.000000000000000000, -1.962577471402659125E-16, 0.000000000000000000 ) ) ;
#346 = DIRECTION ( 'NONE',  ( 1.000000000000000000, 1.962577471402659125E-16, -0.000000000000000000 ) ) ;
#347 = DIRECTION ( 'NONE',  ( 1.000000000000000000, 1.962577471402659125E-16, -0.000000000000000000 ) ) ;
#348 = AXIS2_PLACEMENT_3D ( 'NONE', #19, #345, #22 ) ;
#349 = AXIS2_PLACEMENT_3D ( 'NONE', #59, #103, #140 ) ;
#350 = EDGE_CURVE ( 'NONE', #318, #458, #356, .T. ) ;
#351 = CARTESIAN_POINT ( 'NONE',  ( 30.00000000000001066, 5.887732414207979198E-15, 0.000000000000000000 ) ) ;
#352 = CARTESIAN_POINT ( 'NONE',  ( 0.000000000000000000, 0.000000000000000000, -22.00000000000000000 ) ) ;
#353 = ORIENTED_EDGE ( 'NONE', *, *, #62, .T. ) ;
#354 = DIRECTION ( 'NONE',  ( 1.577021341797097314E-16, -1.000000000000000000, 0.000000000000000000 ) ) ;
#355 = ORIENTED_EDGE ( 'NONE', *, *, #468, .F. ) ;
#356 = CIRCLE ( 'NONE', #188, 8.000000000000000000 ) ;
#357 = VECTOR ( 'NONE', #148, 1000.000000000000000 ) ;
#358 = ORIENTED_EDGE ( 'NONE', *, *, #108, .T. ) ;
#359 = PLANE ( 'NONE',  #565 ) ;
#360 = ORIENTED_EDGE ( 'NONE', *, *, #87, .F. ) ;
#361 = EDGE_CURVE ( 'NONE', #190, #599, #293, .T. ) ;
#362 = CIRCLE ( 'NONE', #348, 8.000000000000000000 ) ;
#363 = ORIENTED_EDGE ( 'NONE', *, *, #479, .F. ) ;
#364 = ORIENTED_EDGE ( 'NONE', *, *, #418, .T. ) ;
#365 = VECTOR ( 'NONE', #286, 1000.000000000000000 ) ;
#366 = ORIENTED_EDGE ( 'NONE', *, *, #499, .F. ) ;
#367 = ORIENTED_EDGE ( 'NONE', *, *, #324, .F. ) ;
#368 = ORIENTED_EDGE ( 'NONE', *, *, #435, .T. ) ;
#369 = DIRECTION ( 'NONE',  ( 1.000000000000000000, 1.962577471402659125E-16, -0.000000000000000000 ) ) ;
#370 = VECTOR ( 'NONE', #574, 1000.000000000000000 ) ;
#371 = DIRECTION ( 'NONE',  ( 1.000000000000000000, 1.962577471402659125E-16, 0.000000000000000000 ) ) ;
#372 = CARTESIAN_POINT ( 'NONE',  ( 30.00000000000000355, 8.572527594031471218E-16, -7.000000000000000000 ) ) ;
#373 = PLANE ( 'NONE',  #595 ) ;
#374 = VECTOR ( 'NONE', #68, 1000.000000000000000 ) ;
#375 = FACE_OUTER_BOUND ( 'NONE', #128, .T. ) ;
#376 = CIRCLE ( 'NONE', #575, 8.000000000000000000 ) ;
#377 = DIRECTION ( 'NONE',  ( -1.000000000000000000, 0.000000000000000000, 0.000000000000000000 ) ) ;
#378 = CIRCLE ( 'NONE', #116, 25.00000000000000000 ) ;
#379 = CARTESIAN_POINT ( 'NONE',  ( 2.000000000000000000, 3.925154942805318249E-16, -22.00000000000000000 ) ) ;
#380 = ADVANCED_FACE ( 'NONE', ( #189, #388 ), #433, .F. ) ;
#381 = APPLICATION_PROTOCOL_DEFINITION ( 'draft international standard', 'automotive_design', 1998, #47 ) ;
#382 = DIRECTION ( 'NONE',  ( 2.723926114222901893E-32, -1.387933039033666935E-16, 1.000000000000000000 ) ) ;
#383 = DIRECTION ( 'NONE',  ( 0.000000000000000000, 0.000000000000000000, 1.000000000000000000 ) ) ;
#384 = CARTESIAN_POINT ( 'NONE',  ( 0.000000000000000000, 0.000000000000000000, 0.000000000000000000 ) ) ;
#385 = AXIS2_PLACEMENT_3D ( 'NONE', #284, #561, #282 ) ;
#386 = EDGE_CURVE ( 'NONE', #414, #419, #193, .T. ) ;
#387 = CARTESIAN_POINT ( 'NONE',  ( 1.999999999999998224, -1.550590760366600898E-15, -8.000000000000000000 ) ) ;
#388 = FACE_OUTER_BOUND ( 'NONE', #227, .T. ) ;
#389 = CARTESIAN_POINT ( 'NONE',  ( 30.00000000000001066, 8.000000000000005329, 9.797174393178827630E-16 ) ) ;
#390 = DIRECTION ( 'NONE',  ( 1.962577471402659371E-16, -1.000000000000000000, 0.000000000000000000 ) ) ;
#391 = CIRCLE ( 'NONE', #99, 22.00000000000000000 ) ;
#392 = CARTESIAN_POINT ( 'NONE',  ( -1.570061977122127300E-15, 8.000000000000000000, 9.797174393178825657E-16 ) ) ;
#393 = DIRECTION ( 'NONE',  ( -1.000000000000000000, -1.962577471402659125E-16, 0.000000000000000000 ) ) ;
#394 = EDGE_CURVE ( 'NONE', #402, #547, #104, .T. ) ;
#395 = CARTESIAN_POINT ( 'NONE',  ( 1.999999999999999556, 1.999999999999997113, -22.00000000000000000 ) ) ;
#396 = LINE ( 'NONE', #256, #374 ) ;
#397 = ORIENTED_EDGE ( 'NONE', *, *, #108, .F. ) ;
#398 = EDGE_CURVE ( 'NONE', #177, #455, #481, .T. ) ;
#399 = AXIS2_PLACEMENT_3D ( 'NONE', #15, #530, #109 ) ;
#400 = EDGE_CURVE ( 'NONE', #255, #173, #145, .T. ) ;
#401 = CARTESIAN_POINT ( 'NONE',  ( -3.925154942805311347E-16, 1.999999999999996669, -21.90890230020664475 ) ) ;
#402 = VERTEX_POINT ( 'NONE', #528 ) ;
#403 = ORIENTED_EDGE ( 'NONE', *, *, #154, .T. ) ;
#404 = DIRECTION ( 'NONE',  ( -1.000000000000000000, -1.962577471402659125E-16, -5.473822126268816683E-48 ) ) ;
#405 = EDGE_CURVE ( 'NONE', #506, #225, #541, .T. ) ;
#406 = ORIENTED_EDGE ( 'NONE', *, *, #203, .T. ) ;
#407 = AXIS2_PLACEMENT_3D ( 'NONE', #330, #3, #432 ) ;
#408 = ORIENTED_EDGE ( 'NONE', *, *, #266, .F. ) ;
#409 = ORIENTED_EDGE ( 'NONE', *, *, #215, .F. ) ;
#410 = CARTESIAN_POINT ( 'NONE',  ( 1.999999999999999556, 2.000000000000002220, 22.00000000000000000 ) ) ;
#411 = ORIENTED_EDGE ( 'NONE', *, *, #536, .F. ) ;
#412 = PRESENTATION_STYLE_ASSIGNMENT (( #223 ) ) ;
#413 = ORIENTED_EDGE ( 'NONE', *, *, #285, .F. ) ;
#414 = VERTEX_POINT ( 'NONE', #23 ) ;
#415 = ORIENTED_EDGE ( 'NONE', *, *, #423, .T. ) ;
#416 = UNCERTAINTY_MEASURE_WITH_UNIT (LENGTH_MEASURE( 1.000000000000000082E-05 ), #460, 'distance_accuracy_value', 'NONE');
#417 = ORIENTED_EDGE ( 'NONE', *, *, #197, .T. ) ;
#418 = EDGE_CURVE ( 'NONE', #190, #86, #250, .T. ) ;
#419 = VERTEX_POINT ( 'NONE', #387 ) ;
#420 = EDGE_CURVE ( 'NONE', #179, #547, #378, .T. ) ;
#421 = CIRCLE ( 'NONE', #8, 25.00000000000000000 ) ;
#422 = CARTESIAN_POINT ( 'NONE',  ( 1.999999999999998224, -1.550590760366602082E-15, 8.000000000000000000 ) ) ;
#423 = EDGE_CURVE ( 'NONE', #402, #494, #421, .T. ) ;
#424 = DIRECTION ( 'NONE',  ( -1.962577471402659125E-16, 1.000000000000000000, -1.387933039033666935E-16 ) ) ;
#425 = CARTESIAN_POINT ( 'NONE',  ( 0.000000000000000000, 0.000000000000000000, 0.000000000000000000 ) ) ;
#426 = DIRECTION ( 'NONE',  ( 0.000000000000000000, 0.000000000000000000, 1.000000000000000000 ) ) ;
#427 = EDGE_CURVE ( 'NONE', #457, #255, #529, .T. ) ;
#428 = FACE_OUTER_BOUND ( 'NONE', #603, .T. ) ;
#429 =( NAMED_UNIT ( * ) SI_UNIT ( $, .STERADIAN. ) SOLID_ANGLE_UNIT ( ) );
#430 = DIRECTION ( 'NONE',  ( 0.000000000000000000, -1.000000000000000000, 0.000000000000000000 ) ) ;
#431 = AXIS2_PLACEMENT_3D ( 'NONE', #289, #149, #299 ) ;
#432 = DIRECTION ( 'NONE',  ( 0.000000000000000000, 0.000000000000000000, 1.000000000000000000 ) ) ;
#433 = PLANE ( 'NONE',  #431 ) ;
#434 = ORIENTED_EDGE ( 'NONE', *, *, #305, .F. ) ;
#435 = EDGE_CURVE ( 'NONE', #597, #209, #341, .T. ) ;
#436 = LINE ( 'NONE', #283, #478 ) ;
#437 = DIRECTION ( 'NONE',  ( 1.577021341797097314E-16, -1.000000000000000000, 0.000000000000000000 ) ) ;
#438 = CIRCLE ( 'NONE', #243, 22.00000000000000000 ) ;
#439 = CIRCLE ( 'NONE', #171, 22.00000000000000000 ) ;
#440 = DIRECTION ( 'NONE',  ( 0.000000000000000000, 0.000000000000000000, 1.000000000000000000 ) ) ;
#441 = LINE ( 'NONE', #242, #141 ) ;
#442 = DIRECTION ( 'NONE',  ( 1.962577471402659125E-16, -1.000000000000000000, 0.000000000000000000 ) ) ;
#443 = DIRECTION ( 'NONE',  ( -1.000000000000000000, -1.962577471402659125E-16, -5.473822126268816683E-48 ) ) ;
#444 = ADVANCED_FACE ( 'NONE', ( #67 ), #303, .F. ) ;
#445 = DIRECTION ( 'NONE',  ( 1.000000000000000000, 1.962577471402659125E-16, -0.000000000000000000 ) ) ;
#446 = CARTESIAN_POINT ( 'NONE',  ( 30.00000000000001066, -24.99999999999999289, 3.061616997868383043E-15 ) ) ;
#447 = CARTESIAN_POINT ( 'NONE',  ( 30.00000000000001066, -7.999999999999994671, 0.000000000000000000 ) ) ;
#448 = ORIENTED_EDGE ( 'NONE', *, *, #479, .T. ) ;
#449 = VECTOR ( 'NONE', #159, 1000.000000000000000 ) ;
#450 = ORIENTED_EDGE ( 'NONE', *, *, #278, .T. ) ;
#451 = CARTESIAN_POINT ( 'NONE',  ( 30.00000000000000355, 0.000000000000000000, 7.000000000000000000 ) ) ;
#452 = EDGE_LOOP ( 'NONE', ( #553, #592, #253, #333, #406, #408, #204, #80 ) ) ;
#453 = ORIENTED_EDGE ( 'NONE', *, *, #76, .F. ) ;
#454 = FACE_OUTER_BOUND ( 'NONE', #607, .T. ) ;
#455 = VERTEX_POINT ( 'NONE', #584 ) ;
#456 = AXIS2_PLACEMENT_3D ( 'NONE', #493, #251, #598 ) ;
#457 = VERTEX_POINT ( 'NONE', #389 ) ;
#458 = VERTEX_POINT ( 'NONE', #392 ) ;
#459 = ORIENTED_EDGE ( 'NONE', *, *, #420, .F. ) ;
#460 =( LENGTH_UNIT ( ) NAMED_UNIT ( * ) SI_UNIT ( .MILLI., .METRE. ) );
#461 = ORIENTED_EDGE ( 'NONE', *, *, #285, .T. ) ;
#462 = VECTOR ( 'NONE', #21, 1000.000000000000000 ) ;
#463 = ADVANCED_FACE ( 'NONE', ( #160 ), #487, .F. ) ;
#464 = EDGE_LOOP ( 'NONE', ( #397, #601, #496, #403, #591, #366 ) ) ;
#465 = VERTEX_POINT ( 'NONE', #492 ) ;
#466 = VECTOR ( 'NONE', #371, 1000.000000000000000 ) ;
#467 = CIRCLE ( 'NONE', #39, 22.00000000000000000 ) ;
#468 = EDGE_CURVE ( 'NONE', #28, #590, #294, .T. ) ;
#469 = VECTOR ( 'NONE', #9, 1000.000000000000000 ) ;
#470 = CARTESIAN_POINT ( 'NONE',  ( 0.000000000000000000, 0.000000000000000000, 0.000000000000000000 ) ) ;
#471 = LINE ( 'NONE', #2, #365 ) ;
#472 = FACE_BOUND ( 'NONE', #49, .T. ) ;
#473 = CARTESIAN_POINT ( 'NONE',  ( 2.000000000000000000, 3.925154942805318249E-16, 22.00000000000000000 ) ) ;
#474 = ORIENTED_EDGE ( 'NONE', *, *, #579, .T. ) ;
#475 = PLANE ( 'NONE',  #606 ) ;
#476 = DIRECTION ( 'NONE',  ( 1.000000000000000000, 0.000000000000000000, 0.000000000000000000 ) ) ;
#477 = DIRECTION ( 'NONE',  ( -1.000000000000000000, -1.962577471402659125E-16, -0.000000000000000000 ) ) ;
#478 = VECTOR ( 'NONE', #182, 1000.000000000000000 ) ;
#479 = EDGE_CURVE ( 'NONE', #494, #179, #207, .T. ) ;
#480 = DIRECTION ( 'NONE',  ( -1.000000000000000000, 0.000000000000000000, 0.000000000000000000 ) ) ;
#481 = LINE ( 'NONE', #66, #84 ) ;
#482 = PRODUCT_DEFINITION_CONTEXT ( 'detailed design', #47, 'design' ) ;
#483 = CARTESIAN_POINT ( 'NONE',  ( 30.00000000000000355, 8.572527594031471218E-16, -7.000000000000000000 ) ) ;
#484 = FACE_OUTER_BOUND ( 'NONE', #452, .T. ) ;
#485 = AXIS2_PLACEMENT_3D ( 'NONE', #542, #163, #221 ) ;
#486 = ADVANCED_FACE ( 'NONE', ( #582 ), #18, .F. ) ;
#487 = CYLINDRICAL_SURFACE ( 'NONE', #540, 22.00000000000000000 ) ;
#488 = DIRECTION ( 'NONE',  ( -1.000000000000000000, -1.962577471402659125E-16, 0.000000000000000000 ) ) ;
#489 = ORIENTED_EDGE ( 'NONE', *, *, #546, .F. ) ;
#490 = DIRECTION ( 'NONE',  ( 1.577021341797097314E-16, -1.000000000000000000, 0.000000000000000000 ) ) ;
#491 = CARTESIAN_POINT ( 'NONE',  ( 30.00000000000001066, 5.887732414207979198E-15, 0.000000000000000000 ) ) ;
#492 = CARTESIAN_POINT ( 'NONE',  ( 1.999999999999997780, 1.999999999999997113, -7.745966692414834931 ) ) ;
#493 = CARTESIAN_POINT ( 'NONE',  ( 1.999999999999998224, 3.925154942805313319E-16, 0.000000000000000000 ) ) ;
#494 = VERTEX_POINT ( 'NONE', #158 ) ;
#495 = MECHANICAL_DESIGN_GEOMETRIC_PRESENTATION_REPRESENTATION (  '', ( #101 ), #276 ) ;
#496 = ORIENTED_EDGE ( 'NONE', *, *, #350, .T. ) ;
#497 = FACE_OUTER_BOUND ( 'NONE', #37, .T. ) ;
#498 = ORIENTED_EDGE ( 'NONE', *, *, #178, .T. ) ;
#499 = EDGE_CURVE ( 'NONE', #590, #224, #322, .T. ) ;
#500 = ORIENTED_EDGE ( 'NONE', *, *, #361, .T. ) ;
#501 = AXIS2_PLACEMENT_3D ( 'NONE', #576, #538, #114 ) ;
#502 = CARTESIAN_POINT ( 'NONE',  ( 30.00000000000000711, 5.887732414207976831E-15, 0.000000000000000000 ) ) ;
#503 = APPLICATION_CONTEXT ( 'automotive_design' ) ;
#504 = CYLINDRICAL_SURFACE ( 'NONE', #44, 25.00000000000000000 ) ;
#505 = ORIENTED_EDGE ( 'NONE', *, *, #331, .F. ) ;
#506 = VERTEX_POINT ( 'NONE', #106 ) ;
#507 = ORIENTED_EDGE ( 'NONE', *, *, #254, .T. ) ;
#508 = ORIENTED_EDGE ( 'NONE', *, *, #394, .T. ) ;
#509 = ADVANCED_FACE ( 'NONE', ( #234, #375 ), #329, .F. ) ;
#510 = ORIENTED_EDGE ( 'NONE', *, *, #532, .T. ) ;
#511 = ORIENTED_EDGE ( 'NONE', *, *, #435, .F. ) ;
#512 = ADVANCED_BREP_SHAPE_REPRESENTATION ( 'Pe\X2\00e7\X0\a3', ( #61, #200 ), #291 ) ;
#513 = AXIS2_PLACEMENT_3D ( 'NONE', #244, #201, #440 ) ;
#514 = ORIENTED_EDGE ( 'NONE', *, *, #420, .T. ) ;
#515 = EDGE_LOOP ( 'NONE', ( #72, #549, #88, #42 ) ) ;
#516 = VECTOR ( 'NONE', #564, 1000.000000000000000 ) ;
#517 =( LENGTH_UNIT ( ) NAMED_UNIT ( * ) SI_UNIT ( .MILLI., .METRE. ) );
#518 = FACE_BOUND ( 'NONE', #464, .T. ) ;
#519 = CIRCLE ( 'NONE', #246, 22.00000000000000000 ) ;
#520 = PRODUCT_DEFINITION ( 'UNKNOWN', '', #578, #482 ) ;
#521 = CARTESIAN_POINT ( 'NONE',  ( 30.00000000000001066, 3.944626159560846918E-15, 8.000000000000000000 ) ) ;
#522 = DIRECTION ( 'NONE',  ( -1.000000000000000000, -1.962577471402659125E-16, 0.000000000000000000 ) ) ;
#523 = ORIENTED_EDGE ( 'NONE', *, *, #87, .T. ) ;
#524 = DIRECTION ( 'NONE',  ( 1.962577471402659125E-16, -1.000000000000000000, -1.387933039033666935E-16 ) ) ;
#525 = AXIS2_PLACEMENT_3D ( 'NONE', #263, #187, #11 ) ;
#526 = CARTESIAN_POINT ( 'NONE',  ( 0.000000000000000000, 0.000000000000000000, 22.00000000000000000 ) ) ;
#527 = DIRECTION ( 'NONE',  ( -1.000000000000000000, -1.962577471402659125E-16, 0.000000000000000000 ) ) ;
#528 = CARTESIAN_POINT ( 'NONE',  ( -4.906443678506647885E-15, 25.00000000000000000, 0.000000000000000000 ) ) ;
#529 = CIRCLE ( 'NONE', #501, 8.000000000000000000 ) ;
#530 = DIRECTION ( 'NONE',  ( -1.000000000000000000, -1.962577471402659125E-16, 0.000000000000000000 ) ) ;
#531 = CARTESIAN_POINT ( 'NONE',  ( 0.000000000000000000, 0.000000000000000000, 0.000000000000000000 ) ) ;
#532 = EDGE_CURVE ( 'NONE', #224, #602, #471, .T. ) ;
#533 = DIRECTION ( 'NONE',  ( -1.387778780781445676E-16, 1.000000000000000000, 0.000000000000000000 ) ) ;
#534 = DIRECTION ( 'NONE',  ( 2.168404344971008868E-16, -1.000000000000000000, 0.000000000000000000 ) ) ;
#535 = VECTOR ( 'NONE', #216, 1000.000000000000000 ) ;
#536 = EDGE_CURVE ( 'NONE', #86, #308, #50, .T. ) ;
#537 = CIRCLE ( 'NONE', #124, 22.00000000000000000 ) ;
#538 = DIRECTION ( 'NONE',  ( -1.000000000000000000, -1.962577471402659125E-16, 0.000000000000000000 ) ) ;
#539 = DIRECTION ( 'NONE',  ( 1.962577471402659371E-16, -1.000000000000000000, 0.000000000000000000 ) ) ;
#540 = AXIS2_PLACEMENT_3D ( 'NONE', #351, #301, #490 ) ;
#541 = LINE ( 'NONE', #152, #56 ) ;
#542 = CARTESIAN_POINT ( 'NONE',  ( 29.99999999999999645, 5.887732414207975254E-15, 0.000000000000000000 ) ) ;
#543 = EDGE_LOOP ( 'NONE', ( #218, #368, #474, #586 ) ) ;
#544 = FACE_OUTER_BOUND ( 'NONE', #515, .T. ) ;
#545 = ORIENTED_EDGE ( 'NONE', *, *, #361, .F. ) ;
#546 = EDGE_CURVE ( 'NONE', #136, #597, #300, .T. ) ;
#547 = VERTEX_POINT ( 'NONE', #568 ) ;
#548 = CARTESIAN_POINT ( 'NONE',  ( 1.570061977122127497E-15, -8.000000000000000000, 0.000000000000000000 ) ) ;
#549 = ORIENTED_EDGE ( 'NONE', *, *, #266, .T. ) ;
#550 = CYLINDRICAL_SURFACE ( 'NONE', #572, 8.000000000000000000 ) ;
#551 = ORIENTED_EDGE ( 'NONE', *, *, #343, .F. ) ;
#552 = EDGE_LOOP ( 'NONE', ( #213, #217, #364, #176 ) ) ;
#553 = ORIENTED_EDGE ( 'NONE', *, *, #14, .F. ) ;
#554 =( NAMED_UNIT ( * ) PLANE_ANGLE_UNIT ( ) SI_UNIT ( $, .RADIAN. ) );
#555 = EDGE_CURVE ( 'NONE', #255, #457, #272, .T. ) ;
#556 = UNCERTAINTY_MEASURE_WITH_UNIT (LENGTH_MEASURE( 1.000000000000000082E-05 ), #517, 'distance_accuracy_value', 'NONE');
#557 = FACE_OUTER_BOUND ( 'NONE', #311, .T. ) ;
#558 = VERTEX_POINT ( 'NONE', #338 ) ;
#559 = FACE_OUTER_BOUND ( 'NONE', #164, .T. ) ;
#560 = EDGE_CURVE ( 'NONE', #225, #318, #280, .T. ) ;
#561 = DIRECTION ( 'NONE',  ( -1.000000000000000000, -1.962577471402659371E-16, 4.553574718364116405E-34 ) ) ;
#562 = CIRCLE ( 'NONE', #456, 8.000000000000000000 ) ;
#563 = DIRECTION ( 'NONE',  ( -1.000000000000000000, -1.962577471402659125E-16, -0.000000000000000000 ) ) ;
#564 = DIRECTION ( 'NONE',  ( -1.000000000000000000, -1.962577471402659125E-16, 0.000000000000000000 ) ) ;
#565 = AXIS2_PLACEMENT_3D ( 'NONE', #307, #404, #304 ) ;
#566 = CARTESIAN_POINT ( 'NONE',  ( -4.317670437085850518E-15, 22.00000000000000000, 2.694222958124176809E-15 ) ) ;
#567 = LINE ( 'NONE', #139, #516 ) ;
#568 = CARTESIAN_POINT ( 'NONE',  ( 30.00000000000000355, 25.00000000000000711, 0.000000000000000000 ) ) ;
#569 = DIRECTION ( 'NONE',  ( -1.000000000000000000, -1.962577471402659125E-16, -0.000000000000000000 ) ) ;
#570 = EDGE_LOOP ( 'NONE', ( #510, #264, #78, #81 ) ) ;
#571 = CARTESIAN_POINT ( 'NONE',  ( 1.999999999999999556, 1.999999999999997113, -22.00000000000000000 ) ) ;
#572 = AXIS2_PLACEMENT_3D ( 'NONE', #127, #82, #608 ) ;
#573 = APPLICATION_PROTOCOL_DEFINITION ( 'draft international standard', 'automotive_design', 1998, #503 ) ;
#574 = DIRECTION ( 'NONE',  ( 1.000000000000000000, 1.962577471402659125E-16, -0.000000000000000000 ) ) ;
#575 = AXIS2_PLACEMENT_3D ( 'NONE', #166, #125, #312 ) ;
#576 = CARTESIAN_POINT ( 'NONE',  ( 30.00000000000001066, 5.887732414207979198E-15, 0.000000000000000000 ) ) ;
#577 = CARTESIAN_POINT ( 'NONE',  ( 30.00000000000001066, 5.887732414207979198E-15, 0.000000000000000000 ) ) ;
#578 = PRODUCT_DEFINITION_FORMATION_WITH_SPECIFIED_SOURCE ( 'ANY', '', #296, .NOT_KNOWN. ) ;
#579 = EDGE_CURVE ( 'NONE', #209, #105, #230, .T. ) ;
#580 = CARTESIAN_POINT ( 'NONE',  ( 2.000000000000000000, 3.925154942805318249E-16, 22.00000000000000000 ) ) ;
#581 = DIRECTION ( 'NONE',  ( 0.000000000000000000, 2.312964634635743943E-16, 1.000000000000000000 ) ) ;
#582 = FACE_OUTER_BOUND ( 'NONE', #570, .T. ) ;
#583 = LINE ( 'NONE', #526, #449 ) ;
#584 = CARTESIAN_POINT ( 'NONE',  ( 4.317670437085850518E-15, -22.00000000000000000, 0.000000000000000000 ) ) ;
#585 = LINE ( 'NONE', #451, #184 ) ;
#586 = ORIENTED_EDGE ( 'NONE', *, *, #197, .F. ) ;
#587 = AXIS2_PLACEMENT_3D ( 'NONE', #395, #442, #205 ) ;
#588 = EDGE_CURVE ( 'NONE', #229, #306, #436, .T. ) ;
#589 = FACE_OUTER_BOUND ( 'NONE', #175, .T. ) ;
#590 = VERTEX_POINT ( 'NONE', #566 ) ;
#591 = ORIENTED_EDGE ( 'NONE', *, *, #532, .F. ) ;
#592 = ORIENTED_EDGE ( 'NONE', *, *, #427, .T. ) ;
#593 = LINE ( 'NONE', #161, #535 ) ;
#594 = ORIENTED_EDGE ( 'NONE', *, *, #316, .F. ) ;
#595 = AXIS2_PLACEMENT_3D ( 'NONE', #379, #524, #334 ) ;
#596 = ORIENTED_EDGE ( 'NONE', *, *, #555, .T. ) ;
#597 = VERTEX_POINT ( 'NONE', #372 ) ;
#598 = DIRECTION ( 'NONE',  ( 2.168404344971008868E-16, -1.000000000000000000, 1.243449787580175325E-14 ) ) ;
#599 = VERTEX_POINT ( 'NONE', #143 ) ;
#600 = ADVANCED_FACE ( 'NONE', ( #559 ), #137, .F. ) ;
#601 = ORIENTED_EDGE ( 'NONE', *, *, #560, .T. ) ;
#602 = VERTEX_POINT ( 'NONE', #332 ) ;
#603 = EDGE_LOOP ( 'NONE', ( #273, #129, #453, #605 ) ) ;
#604 = DIRECTION ( 'NONE',  ( -1.000000000000000000, -1.962577471402659125E-16, -0.000000000000000000 ) ) ;
#605 = ORIENTED_EDGE ( 'NONE', *, *, #386, .T. ) ;
#606 = AXIS2_PLACEMENT_3D ( 'NONE', #46, #233, #6 ) ;
#607 = EDGE_LOOP ( 'NONE', ( #262, #450, #498, #258 ) ) ;
#608 = DIRECTION ( 'NONE',  ( 0.000000000000000000, -1.000000000000000000, 0.000000000000000000 ) ) ;
#609 = VECTOR ( 'NONE', #445, 1000.000000000000000 ) ;
ENDSEC;
END-ISO-10303-21;
