ISO-10303-21;
HEADER;
FILE_DESCRIPTION (( 'STEP AP214' ),
    '1' );
FILE_NAME ('Pino_ParafusoSim.STEP',
    '2026-07-02T15:06:07',
    ( '' ),
    ( '' ),
    'SwSTEP 2.0',
    'SolidWorks 2023',
    '' );
FILE_SCHEMA (( 'AUTOMOTIVE_DESIGN' ));
ENDSEC;

DATA;
#1 = DIRECTION ( 'NONE',  ( 0.000000000000000000, 0.000000000000000000, 1.000000000000000000 ) ) ;
#2 = EDGE_CURVE ( 'NONE', #175, #154, #50, .T. ) ;
#3 = FACE_OUTER_BOUND ( 'NONE', #196, .T. ) ;
#4 = CARTESIAN_POINT ( 'NONE',  ( 0.000000000000000000, 0.000000000000000000, 0.000000000000000000 ) ) ;
#5 = PRODUCT_CONTEXT ( 'NONE', #155, 'mechanical' ) ;
#6 =( NAMED_UNIT ( * ) SI_UNIT ( $, .STERADIAN. ) SOLID_ANGLE_UNIT ( ) );
#7 = VERTEX_POINT ( 'NONE', #71 ) ;
#8 = PRODUCT_DEFINITION_CONTEXT ( 'detailed design', #170, 'design' ) ;
#9 = ORIENTED_EDGE ( 'NONE', *, *, #22, .F. ) ;
#10 = ORIENTED_EDGE ( 'NONE', *, *, #22, .T. ) ;
#11 = EDGE_CURVE ( 'NONE', #176, #7, #43, .T. ) ;
#12 = VECTOR ( 'NONE', #217, 1000.000000000000000 ) ;
#13 = ORIENTED_EDGE ( 'NONE', *, *, #136, .F. ) ;
#14 = CARTESIAN_POINT ( 'NONE',  ( 0.000000000000000000, 0.000000000000000000, 3.000000000000000000 ) ) ;
#15 = STYLED_ITEM ( 'NONE', ( #213 ), #32 ) ;
#16 = ADVANCED_FACE ( 'NONE', ( #153 ), #69, .F. ) ;
#17 = DIRECTION ( 'NONE',  ( 1.000000000000000000, 0.000000000000000000, 0.000000000000000000 ) ) ;
#18 = ADVANCED_BREP_SHAPE_REPRESENTATION ( 'Pino_ParafusoSim', ( #32, #103, #199 ), #177 ) ;
#19 = AXIS2_PLACEMENT_3D ( 'NONE', #162, #228, #215 ) ;
#20 = CARTESIAN_POINT ( 'NONE',  ( 0.000000000000000000, 0.000000000000000000, 3.000000000000000000 ) ) ;
#21 = CYLINDRICAL_SURFACE ( 'NONE', #182, 2.500000000000000000 ) ;
#22 = EDGE_CURVE ( 'NONE', #208, #175, #95, .T. ) ;
#23 = DIRECTION ( 'NONE',  ( 0.000000000000000000, 0.000000000000000000, 1.000000000000000000 ) ) ;
#24 = FACE_OUTER_BOUND ( 'NONE', #118, .T. ) ;
#25 = DIRECTION ( 'NONE',  ( 0.000000000000000000, 0.000000000000000000, 1.000000000000000000 ) ) ;
#26 = AXIS2_PLACEMENT_3D ( 'NONE', #190, #205, #150 ) ;
#27 = CARTESIAN_POINT ( 'NONE',  ( 0.000000000000000000, 0.000000000000000000, 0.000000000000000000 ) ) ;
#28 = UNCERTAINTY_MEASURE_WITH_UNIT (LENGTH_MEASURE( 1.000000000000000082E-05 ), #171, 'distance_accuracy_value', 'NONE');
#29 = ORIENTED_EDGE ( 'NONE', *, *, #56, .F. ) ;
#30 = CARTESIAN_POINT ( 'NONE',  ( 0.000000000000000000, 0.000000000000000000, 0.000000000000000000 ) ) ;
#31 = VERTEX_POINT ( 'NONE', #37 ) ;
#32 = MANIFOLD_SOLID_BREP ( 'Ressalto-extrusão1', #152 ) ;
#33 = ORIENTED_EDGE ( 'NONE', *, *, #36, .F. ) ;
#34 = CIRCLE ( 'NONE', #26, 2.500000000000000000 ) ;
#35 = ORIENTED_EDGE ( 'NONE', *, *, #2, .T. ) ;
#36 = EDGE_CURVE ( 'NONE', #208, #159, #160, .T. ) ;
#37 = CARTESIAN_POINT ( 'NONE',  ( 2.500000000000000000, 3.061616997868383141E-16, 3.000000000000000000 ) ) ;
#38 = SURFACE_SIDE_STYLE ('',( #122 ) ) ;
#39 = CARTESIAN_POINT ( 'NONE',  ( -2.500000000000000000, 0.000000000000000000, 0.000000000000000000 ) ) ;
#40 = AXIS2_PLACEMENT_3D ( 'NONE', #53, #179, #17 ) ;
#41 = FILL_AREA_STYLE_COLOUR ( '', #58 ) ;
#42 = SURFACE_STYLE_FILL_AREA ( #147 ) ;
#43 = CIRCLE ( 'NONE', #210, 2.500000000000000000 ) ;
#44 = APPLICATION_PROTOCOL_DEFINITION ( 'draft international standard', 'automotive_design', 1998, #170 ) ;
#45 = FACE_OUTER_BOUND ( 'NONE', #138, .T. ) ;
#46 = VERTEX_POINT ( 'NONE', #132 ) ;
#47 = EDGE_CURVE ( 'NONE', #154, #159, #78, .T. ) ;
#48 = DIRECTION ( 'NONE',  ( 1.000000000000000000, 0.000000000000000000, -0.000000000000000000 ) ) ;
#49 = EDGE_LOOP ( 'NONE', ( #157, #194, #84, #101 ) ) ;
#50 = LINE ( 'NONE', #225, #72 ) ;
#51 = ADVANCED_FACE ( 'NONE', ( #61 ), #65, .T. ) ;
#52 = AXIS2_PLACEMENT_3D ( 'NONE', #169, #207, #48 ) ;
#53 = CARTESIAN_POINT ( 'NONE',  ( 0.000000000000000000, 0.000000000000000000, 3.000000000000000000 ) ) ;
#54 = DIRECTION ( 'NONE',  ( 1.000000000000000000, 0.000000000000000000, -0.000000000000000000 ) ) ;
#55 = MECHANICAL_DESIGN_GEOMETRIC_PRESENTATION_REPRESENTATION (  '', ( #15 ), #161 ) ;
#56 = EDGE_CURVE ( 'NONE', #159, #154, #120, .T. ) ;
#57 = DIRECTION ( 'NONE',  ( 1.000000000000000000, 0.000000000000000000, 0.000000000000000000 ) ) ;
#58 = COLOUR_RGB ( '',0.7921568627450980005, 0.8196078431372548767, 0.9333333333333333481 ) ;
#59 = CARTESIAN_POINT ( 'NONE',  ( 0.000000000000000000, 0.000000000000000000, 3.000000000000000000 ) ) ;
#60 = DIRECTION ( 'NONE',  ( -1.000000000000000000, 0.000000000000000000, 0.000000000000000000 ) ) ;
#61 = FACE_OUTER_BOUND ( 'NONE', #49, .T. ) ;
#62 = CARTESIAN_POINT ( 'NONE',  ( -2.500000000000000000, 0.000000000000000000, 10.00000000000000000 ) ) ;
#63 = AXIS2_PLACEMENT_3D ( 'NONE', #30, #172, #80 ) ;
#64 = SURFACE_SIDE_STYLE ('',( #42 ) ) ;
#65 = CYLINDRICAL_SURFACE ( 'NONE', #195, 2.500000000000000000 ) ;
#66 = PRODUCT_DEFINITION_FORMATION_WITH_SPECIFIED_SOURCE ( 'ANY', '', #165, .NOT_KNOWN. ) ;
#67 = CARTESIAN_POINT ( 'NONE',  ( 0.000000000000000000, 0.000000000000000000, 0.000000000000000000 ) ) ;
#68 = DIRECTION ( 'NONE',  ( 1.000000000000000000, 0.000000000000000000, -0.000000000000000000 ) ) ;
#69 = PLANE ( 'NONE',  #104 ) ;
#70 = EDGE_LOOP ( 'NONE', ( #33, #98, #35, #85 ) ) ;
#71 = CARTESIAN_POINT ( 'NONE',  ( -2.500000000000000000, 0.000000000000000000, 10.00000000000000000 ) ) ;
#72 = VECTOR ( 'NONE', #222, 1000.000000000000000 ) ;
#73 = DIRECTION ( 'NONE',  ( 0.000000000000000000, 0.000000000000000000, 1.000000000000000000 ) ) ;
#74 = FILL_AREA_STYLE ('',( #140 ) ) ;
#75 = CLOSED_SHELL ( 'NONE', ( #144, #51, #102, #16 ) ) ;
#76 = FACE_OUTER_BOUND ( 'NONE', #137, .T. ) ;
#77 = PRESENTATION_STYLE_ASSIGNMENT (( #167 ) ) ;
#78 = CIRCLE ( 'NONE', #63, 2.500000000000000000 ) ;
#79 =( NAMED_UNIT ( * ) SI_UNIT ( $, .STERADIAN. ) SOLID_ANGLE_UNIT ( ) );
#80 = DIRECTION ( 'NONE',  ( 1.000000000000000000, 0.000000000000000000, 0.000000000000000000 ) ) ;
#81 = ORIENTED_EDGE ( 'NONE', *, *, #192, .F. ) ;
#82 = AXIS2_PLACEMENT_3D ( 'NONE', #27, #23, #68 ) ;
#83 = CARTESIAN_POINT ( 'NONE',  ( 0.000000000000000000, 0.000000000000000000, 10.00000000000000000 ) ) ;
#84 = ORIENTED_EDGE ( 'NONE', *, *, #192, .T. ) ;
#85 = ORIENTED_EDGE ( 'NONE', *, *, #47, .T. ) ;
#86 = EDGE_LOOP ( 'NONE', ( #116, #29 ) ) ;
#87 = ORIENTED_EDGE ( 'NONE', *, *, #56, .T. ) ;
#88 = EDGE_CURVE ( 'NONE', #46, #31, #34, .T. ) ;
#89 = AXIS2_PLACEMENT_3D ( 'NONE', #106, #183, #57 ) ;
#90 = DIRECTION ( 'NONE',  ( -1.000000000000000000, 0.000000000000000000, 0.000000000000000000 ) ) ;
#91 = CARTESIAN_POINT ( 'NONE',  ( 2.500000000000000000, 3.061616997868383141E-16, 10.00000000000000000 ) ) ;
#92 = FACE_OUTER_BOUND ( 'NONE', #86, .T. ) ;
#93 = PLANE ( 'NONE',  #52 ) ;
#94 = APPLICATION_PROTOCOL_DEFINITION ( 'draft international standard', 'automotive_design', 1998, #155 ) ;
#95 = CIRCLE ( 'NONE', #40, 2.500000000000000000 ) ;
#96 = ADVANCED_FACE ( 'NONE', ( #92 ), #112, .F. ) ;
#97 = DIRECTION ( 'NONE',  ( 1.000000000000000000, 0.000000000000000000, 0.000000000000000000 ) ) ;
#98 = ORIENTED_EDGE ( 'NONE', *, *, #156, .F. ) ;
#99 = UNCERTAINTY_MEASURE_WITH_UNIT (LENGTH_MEASURE( 1.000000000000000082E-05 ), #204, 'distance_accuracy_value', 'NONE');
#100 = EDGE_LOOP ( 'NONE', ( #206, #13 ) ) ;
#101 = ORIENTED_EDGE ( 'NONE', *, *, #88, .T. ) ;
#102 = ADVANCED_FACE ( 'NONE', ( #45 ), #166, .T. ) ;
#103 = MANIFOLD_SOLID_BREP ( 'Ressalto-extrusão2', #75 ) ;
#104 = AXIS2_PLACEMENT_3D ( 'NONE', #14, #73, #54 ) ;
#105 = CARTESIAN_POINT ( 'NONE',  ( 2.500000000000000000, 3.061616997868383141E-16, 10.00000000000000000 ) ) ;
#106 = CARTESIAN_POINT ( 'NONE',  ( 0.000000000000000000, 0.000000000000000000, 10.00000000000000000 ) ) ;
#107 = AXIS2_PLACEMENT_3D ( 'NONE', #146, #1, #127 ) ;
#108 = DIRECTION ( 'NONE',  ( 0.000000000000000000, 0.000000000000000000, 1.000000000000000000 ) ) ;
#109 = ADVANCED_FACE ( 'NONE', ( #3 ), #130, .T. ) ;
#110 = DIRECTION ( 'NONE',  ( 0.000000000000000000, 0.000000000000000000, 1.000000000000000000 ) ) ;
#111 = LINE ( 'NONE', #91, #224 ) ;
#112 = PLANE ( 'NONE',  #82 ) ;
#113 = DIRECTION ( 'NONE',  ( 1.000000000000000000, 0.000000000000000000, 0.000000000000000000 ) ) ;
#114 = AXIS2_PLACEMENT_3D ( 'NONE', #141, #129, #90 ) ;
#115 = DIRECTION ( 'NONE',  ( -1.000000000000000000, 0.000000000000000000, 0.000000000000000000 ) ) ;
#116 = ORIENTED_EDGE ( 'NONE', *, *, #47, .F. ) ;
#117 =( NAMED_UNIT ( * ) PLANE_ANGLE_UNIT ( ) SI_UNIT ( $, .RADIAN. ) );
#118 = EDGE_LOOP ( 'NONE', ( #158, #10 ) ) ;
#119 =( LENGTH_UNIT ( ) NAMED_UNIT ( * ) SI_UNIT ( .MILLI., .METRE. ) );
#120 = CIRCLE ( 'NONE', #128, 2.500000000000000000 ) ;
#121 = ORIENTED_EDGE ( 'NONE', *, *, #36, .T. ) ;
#122 = SURFACE_STYLE_FILL_AREA ( #74 ) ;
#123 = CARTESIAN_POINT ( 'NONE',  ( 0.000000000000000000, 0.000000000000000000, 10.00000000000000000 ) ) ;
#124 =( NAMED_UNIT ( * ) SI_UNIT ( $, .STERADIAN. ) SOLID_ANGLE_UNIT ( ) );
#125 = CIRCLE ( 'NONE', #148, 2.500000000000000000 ) ;
#126 = EDGE_CURVE ( 'NONE', #7, #176, #174, .T. ) ;
#127 = DIRECTION ( 'NONE',  ( 1.000000000000000000, 0.000000000000000000, 0.000000000000000000 ) ) ;
#128 = AXIS2_PLACEMENT_3D ( 'NONE', #4, #110, #97 ) ;
#129 = DIRECTION ( 'NONE',  ( -0.000000000000000000, -0.000000000000000000, -1.000000000000000000 ) ) ;
#130 = CYLINDRICAL_SURFACE ( 'NONE', #114, 2.500000000000000000 ) ;
#131 = CARTESIAN_POINT ( 'NONE',  ( 0.000000000000000000, 0.000000000000000000, 10.00000000000000000 ) ) ;
#132 = CARTESIAN_POINT ( 'NONE',  ( -2.500000000000000000, 0.000000000000000000, 3.000000000000000000 ) ) ;
#133 = DIRECTION ( 'NONE',  ( 0.000000000000000000, 0.000000000000000000, 1.000000000000000000 ) ) ;
#134 = DIRECTION ( 'NONE',  ( 1.000000000000000000, 0.000000000000000000, -0.000000000000000000 ) ) ;
#135 = ORIENTED_EDGE ( 'NONE', *, *, #136, .T. ) ;
#136 = EDGE_CURVE ( 'NONE', #31, #46, #180, .T. ) ;
#137 = EDGE_LOOP ( 'NONE', ( #173, #151, #135, #81 ) ) ;
#138 = EDGE_LOOP ( 'NONE', ( #211, #221 ) ) ;
#139 = DIRECTION ( 'NONE',  ( 0.000000000000000000, 0.000000000000000000, 1.000000000000000000 ) ) ;
#140 = FILL_AREA_STYLE_COLOUR ( '', #168 ) ;
#141 = CARTESIAN_POINT ( 'NONE',  ( 0.000000000000000000, 0.000000000000000000, 3.000000000000000000 ) ) ;
#142 = AXIS2_PLACEMENT_3D ( 'NONE', #83, #25, #134 ) ;
#143 = LINE ( 'NONE', #62, #12 ) ;
#144 = ADVANCED_FACE ( 'NONE', ( #76 ), #145, .T. ) ;
#145 = CYLINDRICAL_SURFACE ( 'NONE', #19, 2.500000000000000000 ) ;
#146 = CARTESIAN_POINT ( 'NONE',  ( 0.000000000000000000, 0.000000000000000000, 3.000000000000000000 ) ) ;
#147 = FILL_AREA_STYLE ('',( #41 ) ) ;
#148 = AXIS2_PLACEMENT_3D ( 'NONE', #20, #108, #164 ) ;
#149 = SHAPE_DEFINITION_REPRESENTATION ( #201, #18 ) ;
#150 = DIRECTION ( 'NONE',  ( 1.000000000000000000, 0.000000000000000000, 0.000000000000000000 ) ) ;
#151 = ORIENTED_EDGE ( 'NONE', *, *, #214, .T. ) ;
#152 = CLOSED_SHELL ( 'NONE', ( #109, #200, #223, #96 ) ) ;
#153 = FACE_OUTER_BOUND ( 'NONE', #100, .T. ) ;
#154 = VERTEX_POINT ( 'NONE', #39 ) ;
#155 = APPLICATION_CONTEXT ( 'automotive_design' ) ;
#156 = EDGE_CURVE ( 'NONE', #175, #208, #125, .T. ) ;
#157 = ORIENTED_EDGE ( 'NONE', *, *, #214, .F. ) ;
#158 = ORIENTED_EDGE ( 'NONE', *, *, #156, .T. ) ;
#159 = VERTEX_POINT ( 'NONE', #163 ) ;
#160 = LINE ( 'NONE', #186, #185 ) ;
#161 =( GEOMETRIC_REPRESENTATION_CONTEXT ( 3 ) GLOBAL_UNCERTAINTY_ASSIGNED_CONTEXT ( ( #191 ) ) GLOBAL_UNIT_ASSIGNED_CONTEXT ( ( #119, #178, #124 ) ) REPRESENTATION_CONTEXT ( 'NONE', 'WORKASPACE' ) );
#162 = CARTESIAN_POINT ( 'NONE',  ( 0.000000000000000000, 0.000000000000000000, 10.00000000000000000 ) ) ;
#163 = CARTESIAN_POINT ( 'NONE',  ( 2.500000000000000000, 3.061616997868383141E-16, 0.000000000000000000 ) ) ;
#164 = DIRECTION ( 'NONE',  ( 1.000000000000000000, 0.000000000000000000, 0.000000000000000000 ) ) ;
#165 = PRODUCT ( 'Pino_ParafusoSim', 'Pino_ParafusoSim', '', ( #5 ) ) ;
#166 = PLANE ( 'NONE',  #142 ) ;
#167 = SURFACE_STYLE_USAGE ( .BOTH. , #64 ) ;
#168 = COLOUR_RGB ( '',0.7921568627450980005, 0.8196078431372548767, 0.9333333333333333481 ) ;
#169 = CARTESIAN_POINT ( 'NONE',  ( 0.000000000000000000, 0.000000000000000000, 3.000000000000000000 ) ) ;
#170 = APPLICATION_CONTEXT ( 'automotive_design' ) ;
#171 =( LENGTH_UNIT ( ) NAMED_UNIT ( * ) SI_UNIT ( .MILLI., .METRE. ) );
#172 = DIRECTION ( 'NONE',  ( 0.000000000000000000, 0.000000000000000000, 1.000000000000000000 ) ) ;
#173 = ORIENTED_EDGE ( 'NONE', *, *, #11, .F. ) ;
#174 = CIRCLE ( 'NONE', #89, 2.500000000000000000 ) ;
#175 = VERTEX_POINT ( 'NONE', #219 ) ;
#176 = VERTEX_POINT ( 'NONE', #105 ) ;
#177 =( GEOMETRIC_REPRESENTATION_CONTEXT ( 3 ) GLOBAL_UNCERTAINTY_ASSIGNED_CONTEXT ( ( #28 ) ) GLOBAL_UNIT_ASSIGNED_CONTEXT ( ( #171, #117, #79 ) ) REPRESENTATION_CONTEXT ( 'NONE', 'WORKASPACE' ) );
#178 =( NAMED_UNIT ( * ) PLANE_ANGLE_UNIT ( ) SI_UNIT ( $, .RADIAN. ) );
#179 = DIRECTION ( 'NONE',  ( 0.000000000000000000, 0.000000000000000000, 1.000000000000000000 ) ) ;
#180 = CIRCLE ( 'NONE', #107, 2.500000000000000000 ) ;
#181 = PRESENTATION_LAYER_ASSIGNMENT (  '', '', ( #15 ) ) ;
#182 = AXIS2_PLACEMENT_3D ( 'NONE', #59, #218, #60 ) ;
#183 = DIRECTION ( 'NONE',  ( 0.000000000000000000, 0.000000000000000000, 1.000000000000000000 ) ) ;
#184 = CARTESIAN_POINT ( 'NONE',  ( 2.500000000000000000, 3.061616997868383141E-16, 3.000000000000000000 ) ) ;
#185 = VECTOR ( 'NONE', #193, 1000.000000000000000 ) ;
#186 = CARTESIAN_POINT ( 'NONE',  ( 2.500000000000000000, 3.061616997868383141E-16, 3.000000000000000000 ) ) ;
#187 = DIRECTION ( 'NONE',  ( -0.000000000000000000, -0.000000000000000000, -1.000000000000000000 ) ) ;
#188 =( NAMED_UNIT ( * ) PLANE_ANGLE_UNIT ( ) SI_UNIT ( $, .RADIAN. ) );
#189 = PRESENTATION_LAYER_ASSIGNMENT (  '', '', ( #227 ) ) ;
#190 = CARTESIAN_POINT ( 'NONE',  ( 0.000000000000000000, 0.000000000000000000, 3.000000000000000000 ) ) ;
#191 = UNCERTAINTY_MEASURE_WITH_UNIT (LENGTH_MEASURE( 1.000000000000000082E-05 ), #119, 'distance_accuracy_value', 'NONE');
#192 = EDGE_CURVE ( 'NONE', #7, #46, #143, .T. ) ;
#193 = DIRECTION ( 'NONE',  ( -0.000000000000000000, -0.000000000000000000, -1.000000000000000000 ) ) ;
#194 = ORIENTED_EDGE ( 'NONE', *, *, #126, .F. ) ;
#195 = AXIS2_PLACEMENT_3D ( 'NONE', #131, #220, #115 ) ;
#196 = EDGE_LOOP ( 'NONE', ( #9, #121, #87, #209 ) ) ;
#197 = DIRECTION ( 'NONE',  ( 1.000000000000000000, 0.000000000000000000, 0.000000000000000000 ) ) ;
#198 = PRODUCT_DEFINITION ( 'UNKNOWN', '', #66, #8 ) ;
#199 = AXIS2_PLACEMENT_3D ( 'NONE', #67, #133, #113 ) ;
#200 = ADVANCED_FACE ( 'NONE', ( #202 ), #21, .T. ) ;
#201 = PRODUCT_DEFINITION_SHAPE ( 'NONE', 'NONE',  #198 ) ;
#202 = FACE_OUTER_BOUND ( 'NONE', #70, .T. ) ;
#203 = PRODUCT_RELATED_PRODUCT_CATEGORY ( 'part', '', ( #165 ) ) ;
#204 =( LENGTH_UNIT ( ) NAMED_UNIT ( * ) SI_UNIT ( .MILLI., .METRE. ) );
#205 = DIRECTION ( 'NONE',  ( 0.000000000000000000, 0.000000000000000000, 1.000000000000000000 ) ) ;
#206 = ORIENTED_EDGE ( 'NONE', *, *, #88, .F. ) ;
#207 = DIRECTION ( 'NONE',  ( 0.000000000000000000, 0.000000000000000000, 1.000000000000000000 ) ) ;
#208 = VERTEX_POINT ( 'NONE', #184 ) ;
#209 = ORIENTED_EDGE ( 'NONE', *, *, #2, .F. ) ;
#210 = AXIS2_PLACEMENT_3D ( 'NONE', #123, #139, #197 ) ;
#211 = ORIENTED_EDGE ( 'NONE', *, *, #126, .T. ) ;
#212 = MECHANICAL_DESIGN_GEOMETRIC_PRESENTATION_REPRESENTATION (  '', ( #227 ), #216 ) ;
#213 = PRESENTATION_STYLE_ASSIGNMENT (( #226 ) ) ;
#214 = EDGE_CURVE ( 'NONE', #176, #31, #111, .T. ) ;
#215 = DIRECTION ( 'NONE',  ( -1.000000000000000000, 0.000000000000000000, 0.000000000000000000 ) ) ;
#216 =( GEOMETRIC_REPRESENTATION_CONTEXT ( 3 ) GLOBAL_UNCERTAINTY_ASSIGNED_CONTEXT ( ( #99 ) ) GLOBAL_UNIT_ASSIGNED_CONTEXT ( ( #204, #188, #6 ) ) REPRESENTATION_CONTEXT ( 'NONE', 'WORKASPACE' ) );
#217 = DIRECTION ( 'NONE',  ( -0.000000000000000000, -0.000000000000000000, -1.000000000000000000 ) ) ;
#218 = DIRECTION ( 'NONE',  ( -0.000000000000000000, -0.000000000000000000, -1.000000000000000000 ) ) ;
#219 = CARTESIAN_POINT ( 'NONE',  ( -2.500000000000000000, 0.000000000000000000, 3.000000000000000000 ) ) ;
#220 = DIRECTION ( 'NONE',  ( -0.000000000000000000, -0.000000000000000000, -1.000000000000000000 ) ) ;
#221 = ORIENTED_EDGE ( 'NONE', *, *, #11, .T. ) ;
#222 = DIRECTION ( 'NONE',  ( -0.000000000000000000, -0.000000000000000000, -1.000000000000000000 ) ) ;
#223 = ADVANCED_FACE ( 'NONE', ( #24 ), #93, .T. ) ;
#224 = VECTOR ( 'NONE', #187, 1000.000000000000000 ) ;
#225 = CARTESIAN_POINT ( 'NONE',  ( -2.500000000000000000, 0.000000000000000000, 3.000000000000000000 ) ) ;
#226 = SURFACE_STYLE_USAGE ( .BOTH. , #38 ) ;
#227 = STYLED_ITEM ( 'NONE', ( #77 ), #103 ) ;
#228 = DIRECTION ( 'NONE',  ( -0.000000000000000000, -0.000000000000000000, -1.000000000000000000 ) ) ;
ENDSEC;
END-ISO-10303-21;
