ISO-10303-21;
HEADER;
FILE_DESCRIPTION (( 'STEP AP214' ),
    '1' );
FILE_NAME ('Seção_Tubo.STEP',
    '2026-07-02T15:19:19',
    ( '' ),
    ( '' ),
    'SwSTEP 2.0',
    'SolidWorks 2023',
    '' );
FILE_SCHEMA (( 'AUTOMOTIVE_DESIGN' ));
ENDSEC;

DATA;
#1 = MECHANICAL_DESIGN_GEOMETRIC_PRESENTATION_REPRESENTATION (  '', ( #206 ), #150 ) ;
#2 = DIRECTION ( 'NONE',  ( -0.000000000000000000, -0.000000000000000000, -1.000000000000000000 ) ) ;
#3 = DIRECTION ( 'NONE',  ( 1.000000000000000000, 0.000000000000000000, 0.000000000000000000 ) ) ;
#4 = DIRECTION ( 'NONE',  ( 1.000000000000000000, 0.000000000000000000, 0.000000000000000000 ) ) ;
#5 = SURFACE_STYLE_USAGE ( .BOTH. , #184 ) ;
#6 = DIRECTION ( 'NONE',  ( -1.000000000000000000, 0.000000000000000000, 0.000000000000000000 ) ) ;
#7 = CARTESIAN_POINT ( 'NONE',  ( 0.000000000000000000, 0.000000000000000000, 200.0000000000000000 ) ) ;
#8 = APPLICATION_PROTOCOL_DEFINITION ( 'draft international standard', 'automotive_design', 1998, #123 ) ;
#9 = LINE ( 'NONE', #69, #258 ) ;
#10 = CARTESIAN_POINT ( 'NONE',  ( 0.000000000000000000, 0.000000000000000000, 0.000000000000000000 ) ) ;
#11 = EDGE_LOOP ( 'NONE', ( #115, #224, #132, #112 ) ) ;
#12 = VECTOR ( 'NONE', #159, 1000.000000000000000 ) ;
#13 = CIRCLE ( 'NONE', #35, 22.23000000000000043 ) ;
#14 = DIRECTION ( 'NONE',  ( -0.000000000000000000, -0.000000000000000000, -1.000000000000000000 ) ) ;
#15 =( GEOMETRIC_REPRESENTATION_CONTEXT ( 3 ) GLOBAL_UNCERTAINTY_ASSIGNED_CONTEXT ( ( #17 ) ) GLOBAL_UNIT_ASSIGNED_CONTEXT ( ( #130, #92, #75 ) ) REPRESENTATION_CONTEXT ( 'NONE', 'WORKASPACE' ) );
#16 = LINE ( 'NONE', #96, #135 ) ;
#17 = UNCERTAINTY_MEASURE_WITH_UNIT (LENGTH_MEASURE( 1.000000000000000082E-05 ), #130, 'distance_accuracy_value', 'NONE');
#18 = FACE_OUTER_BOUND ( 'NONE', #11, .T. ) ;
#19 = CYLINDRICAL_SURFACE ( 'NONE', #26, 25.39999999999999858 ) ;
#20 = EDGE_LOOP ( 'NONE', ( #256, #179, #193, #234, #117, #94 ) ) ;
#21 = EDGE_CURVE ( 'NONE', #237, #38, #120, .T. ) ;
#22 = CARTESIAN_POINT ( 'NONE',  ( 0.000000000000000000, -25.39999999999999858, 200.0000000000000000 ) ) ;
#23 = PRODUCT_CONTEXT ( 'NONE', #113, 'mechanical' ) ;
#24 = FACE_OUTER_BOUND ( 'NONE', #261, .T. ) ;
#25 = AXIS2_PLACEMENT_3D ( 'NONE', #244, #62, #3 ) ;
#26 = AXIS2_PLACEMENT_3D ( 'NONE', #137, #14, #119 ) ;
#27 = PLANE ( 'NONE',  #235 ) ;
#28 = ADVANCED_FACE ( 'NONE', ( #163 ), #19, .T. ) ;
#29 = CARTESIAN_POINT ( 'NONE',  ( -22.23000000000000043, 0.000000000000000000, 200.0000000000000000 ) ) ;
#30 = CARTESIAN_POINT ( 'NONE',  ( 0.000000000000000000, -25.39999999999999858, 200.0000000000000000 ) ) ;
#31 = AXIS2_PLACEMENT_3D ( 'NONE', #56, #2, #162 ) ;
#32 = ORIENTED_EDGE ( 'NONE', *, *, #245, .F. ) ;
#33 = EDGE_CURVE ( 'NONE', #238, #38, #59, .T. ) ;
#34 = ORIENTED_EDGE ( 'NONE', *, *, #157, .T. ) ;
#35 = AXIS2_PLACEMENT_3D ( 'NONE', #52, #128, #233 ) ;
#36 = ORIENTED_EDGE ( 'NONE', *, *, #76, .F. ) ;
#37 = CIRCLE ( 'NONE', #241, 22.23000000000000043 ) ;
#38 = VERTEX_POINT ( 'NONE', #100 ) ;
#39 = EDGE_LOOP ( 'NONE', ( #48, #213, #129, #201, #77, #114 ) ) ;
#40 = CARTESIAN_POINT ( 'NONE',  ( -25.39999999999999858, 0.000000000000000000, 200.0000000000000000 ) ) ;
#41 = DIRECTION ( 'NONE',  ( -1.000000000000000000, 0.000000000000000000, 0.000000000000000000 ) ) ;
#42 = LINE ( 'NONE', #144, #236 ) ;
#43 = UNCERTAINTY_MEASURE_WITH_UNIT (LENGTH_MEASURE( 1.000000000000000082E-05 ), #172, 'distance_accuracy_value', 'NONE');
#44 = LINE ( 'NONE', #30, #191 ) ;
#45 = CIRCLE ( 'NONE', #25, 25.39999999999999858 ) ;
#46 = DIRECTION ( 'NONE',  ( -1.000000000000000000, 0.000000000000000000, 0.000000000000000000 ) ) ;
#47 = FILL_AREA_STYLE ('',( #232 ) ) ;
#48 = ORIENTED_EDGE ( 'NONE', *, *, #195, .T. ) ;
#49 = PRODUCT_DEFINITION_FORMATION_WITH_SPECIFIED_SOURCE ( 'ANY', '', #188, .NOT_KNOWN. ) ;
#50 = AXIS2_PLACEMENT_3D ( 'NONE', #204, #143, #227 ) ;
#51 = VERTEX_POINT ( 'NONE', #134 ) ;
#52 = CARTESIAN_POINT ( 'NONE',  ( 0.000000000000000000, 0.000000000000000000, 200.0000000000000000 ) ) ;
#53 = VERTEX_POINT ( 'NONE', #198 ) ;
#54 = ORIENTED_EDGE ( 'NONE', *, *, #55, .F. ) ;
#55 = EDGE_CURVE ( 'NONE', #240, #237, #199, .T. ) ;
#56 = CARTESIAN_POINT ( 'NONE',  ( 0.000000000000000000, 0.000000000000000000, 200.0000000000000000 ) ) ;
#57 = CARTESIAN_POINT ( 'NONE',  ( 0.000000000000000000, -22.23000000000000043, 200.0000000000000000 ) ) ;
#58 = CIRCLE ( 'NONE', #116, 25.39999999999999858 ) ;
#59 = LINE ( 'NONE', #136, #104 ) ;
#60 = PRESENTATION_LAYER_ASSIGNMENT (  '', '', ( #206 ) ) ;
#61 = ADVANCED_BREP_SHAPE_REPRESENTATION ( 'Se\X2\00e700e3\X0\o_Tubo', ( #215, #50 ), #15 ) ;
#62 = DIRECTION ( 'NONE',  ( 0.000000000000000000, 0.000000000000000000, 1.000000000000000000 ) ) ;
#63 = CARTESIAN_POINT ( 'NONE',  ( 0.000000000000000000, 0.000000000000000000, 0.000000000000000000 ) ) ;
#64 = EDGE_CURVE ( 'NONE', #38, #239, #37, .T. ) ;
#65 = CARTESIAN_POINT ( 'NONE',  ( -25.39999999999999858, 0.000000000000000000, 0.000000000000000000 ) ) ;
#66 = CLOSED_SHELL ( 'NONE', ( #164, #98, #28, #169, #133, #126, #202, #223 ) ) ;
#67 = DIRECTION ( 'NONE',  ( -0.000000000000000000, -0.000000000000000000, -1.000000000000000000 ) ) ;
#68 = PLANE ( 'NONE',  #93 ) ;
#69 = CARTESIAN_POINT ( 'NONE',  ( 0.000000000000000000, 22.23000000000000043, 0.000000000000000000 ) ) ;
#70 = PLANE ( 'NONE',  #207 ) ;
#71 = DIRECTION ( 'NONE',  ( 1.000000000000000000, 0.000000000000000000, -0.000000000000000000 ) ) ;
#72 = CARTESIAN_POINT ( 'NONE',  ( 0.000000000000000000, -22.23000000000000043, 200.0000000000000000 ) ) ;
#73 = EDGE_LOOP ( 'NONE', ( #216, #118, #54, #97 ) ) ;
#74 = VECTOR ( 'NONE', #221, 1000.000000000000000 ) ;
#75 =( NAMED_UNIT ( * ) SI_UNIT ( $, .STERADIAN. ) SOLID_ANGLE_UNIT ( ) );
#76 = EDGE_CURVE ( 'NONE', #110, #51, #16, .T. ) ;
#77 = ORIENTED_EDGE ( 'NONE', *, *, #245, .T. ) ;
#78 = ORIENTED_EDGE ( 'NONE', *, *, #109, .F. ) ;
#79 = EDGE_CURVE ( 'NONE', #155, #196, #158, .T. ) ;
#80 = ORIENTED_EDGE ( 'NONE', *, *, #138, .F. ) ;
#81 = ORIENTED_EDGE ( 'NONE', *, *, #200, .T. ) ;
#82 = AXIS2_PLACEMENT_3D ( 'NONE', #226, #121, #187 ) ;
#83 = DIRECTION ( 'NONE',  ( 0.000000000000000000, 1.000000000000000000, 0.000000000000000000 ) ) ;
#84 = LINE ( 'NONE', #246, #248 ) ;
#85 = CARTESIAN_POINT ( 'NONE',  ( 0.000000000000000000, 0.000000000000000000, 200.0000000000000000 ) ) ;
#86 = PRESENTATION_STYLE_ASSIGNMENT (( #5 ) ) ;
#87 = DIRECTION ( 'NONE',  ( 0.000000000000000000, 0.000000000000000000, 1.000000000000000000 ) ) ;
#88 = CARTESIAN_POINT ( 'NONE',  ( -25.39999999999999858, 0.000000000000000000, 200.0000000000000000 ) ) ;
#89 = DIRECTION ( 'NONE',  ( 0.000000000000000000, 0.000000000000000000, 1.000000000000000000 ) ) ;
#90 = CARTESIAN_POINT ( 'NONE',  ( 0.000000000000000000, -25.39999999999999858, 0.000000000000000000 ) ) ;
#91 = CARTESIAN_POINT ( 'NONE',  ( -22.23000000000000043, 0.000000000000000000, 0.000000000000000000 ) ) ;
#92 =( NAMED_UNIT ( * ) PLANE_ANGLE_UNIT ( ) SI_UNIT ( $, .RADIAN. ) );
#93 = AXIS2_PLACEMENT_3D ( 'NONE', #209, #41, #142 ) ;
#94 = ORIENTED_EDGE ( 'NONE', *, *, #194, .F. ) ;
#95 = ORIENTED_EDGE ( 'NONE', *, *, #111, .F. ) ;
#96 = CARTESIAN_POINT ( 'NONE',  ( 1.361194917252283120E-15, 22.23000000000000043, 200.0000000000000000 ) ) ;
#97 = ORIENTED_EDGE ( 'NONE', *, *, #183, .T. ) ;
#98 = ADVANCED_FACE ( 'NONE', ( #18 ), #99, .T. ) ;
#99 = CYLINDRICAL_SURFACE ( 'NONE', #31, 25.39999999999999858 ) ;
#100 = CARTESIAN_POINT ( 'NONE',  ( 0.000000000000000000, -22.23000000000000043, 0.000000000000000000 ) ) ;
#101 = DIRECTION ( 'NONE',  ( 0.000000000000000000, 1.000000000000000000, 0.000000000000000000 ) ) ;
#102 = CIRCLE ( 'NONE', #161, 25.39999999999999858 ) ;
#103 = DIRECTION ( 'NONE',  ( -0.000000000000000000, -0.000000000000000000, -1.000000000000000000 ) ) ;
#104 = VECTOR ( 'NONE', #83, 1000.000000000000000 ) ;
#105 = DIRECTION ( 'NONE',  ( -0.000000000000000000, -0.000000000000000000, -1.000000000000000000 ) ) ;
#106 = CARTESIAN_POINT ( 'NONE',  ( 0.000000000000000000, 0.000000000000000000, 0.000000000000000000 ) ) ;
#107 = CARTESIAN_POINT ( 'NONE',  ( 0.000000000000000000, 0.000000000000000000, 200.0000000000000000 ) ) ;
#108 = EDGE_CURVE ( 'NONE', #156, #196, #45, .T. ) ;
#109 = EDGE_CURVE ( 'NONE', #53, #156, #84, .T. ) ;
#110 = VERTEX_POINT ( 'NONE', #208 ) ;
#111 = EDGE_CURVE ( 'NONE', #110, #53, #42, .T. ) ;
#112 = ORIENTED_EDGE ( 'NONE', *, *, #183, .F. ) ;
#113 = APPLICATION_CONTEXT ( 'automotive_design' ) ;
#114 = ORIENTED_EDGE ( 'NONE', *, *, #111, .T. ) ;
#115 = ORIENTED_EDGE ( 'NONE', *, *, #176, .F. ) ;
#116 = AXIS2_PLACEMENT_3D ( 'NONE', #148, #89, #252 ) ;
#117 = ORIENTED_EDGE ( 'NONE', *, *, #33, .F. ) ;
#118 = ORIENTED_EDGE ( 'NONE', *, *, #21, .F. ) ;
#119 = DIRECTION ( 'NONE',  ( -1.000000000000000000, 0.000000000000000000, 0.000000000000000000 ) ) ;
#120 = LINE ( 'NONE', #57, #12 ) ;
#121 = DIRECTION ( 'NONE',  ( -0.000000000000000000, -0.000000000000000000, -1.000000000000000000 ) ) ;
#122 = DIRECTION ( 'NONE',  ( -0.000000000000000000, -0.000000000000000000, -1.000000000000000000 ) ) ;
#123 = APPLICATION_CONTEXT ( 'automotive_design' ) ;
#124 = DIRECTION ( 'NONE',  ( -0.000000000000000000, -0.000000000000000000, -1.000000000000000000 ) ) ;
#125 = FACE_OUTER_BOUND ( 'NONE', #131, .T. ) ;
#126 = ADVANCED_FACE ( 'NONE', ( #125 ), #68, .F. ) ;
#127 = DIRECTION ( 'NONE',  ( -0.000000000000000000, -0.000000000000000000, -1.000000000000000000 ) ) ;
#128 = DIRECTION ( 'NONE',  ( -0.000000000000000000, -0.000000000000000000, -1.000000000000000000 ) ) ;
#129 = ORIENTED_EDGE ( 'NONE', *, *, #55, .T. ) ;
#130 =( LENGTH_UNIT ( ) NAMED_UNIT ( * ) SI_UNIT ( .MILLI., .METRE. ) );
#131 = EDGE_LOOP ( 'NONE', ( #81, #78, #95, #178 ) ) ;
#132 = ORIENTED_EDGE ( 'NONE', *, *, #194, .T. ) ;
#133 = ADVANCED_FACE ( 'NONE', ( #24 ), #249, .F. ) ;
#134 = CARTESIAN_POINT ( 'NONE',  ( 1.361194917252283120E-15, 22.23000000000000043, 0.000000000000000000 ) ) ;
#135 = VECTOR ( 'NONE', #181, 1000.000000000000000 ) ;
#136 = CARTESIAN_POINT ( 'NONE',  ( 0.000000000000000000, -25.39999999999999858, 0.000000000000000000 ) ) ;
#137 = CARTESIAN_POINT ( 'NONE',  ( 0.000000000000000000, 0.000000000000000000, 200.0000000000000000 ) ) ;
#138 = EDGE_CURVE ( 'NONE', #237, #259, #220, .T. ) ;
#139 = ORIENTED_EDGE ( 'NONE', *, *, #109, .T. ) ;
#140 = VECTOR ( 'NONE', #182, 1000.000000000000000 ) ;
#141 = FACE_OUTER_BOUND ( 'NONE', #39, .T. ) ;
#142 = DIRECTION ( 'NONE',  ( 0.000000000000000000, 0.000000000000000000, 1.000000000000000000 ) ) ;
#143 = DIRECTION ( 'NONE',  ( 0.000000000000000000, 0.000000000000000000, 1.000000000000000000 ) ) ;
#144 = CARTESIAN_POINT ( 'NONE',  ( 0.000000000000000000, 22.23000000000000043, 200.0000000000000000 ) ) ;
#145 = SHAPE_DEFINITION_REPRESENTATION ( #255, #61 ) ;
#146 = PLANE ( 'NONE',  #229 ) ;
#147 = EDGE_CURVE ( 'NONE', #259, #239, #203, .T. ) ;
#148 = CARTESIAN_POINT ( 'NONE',  ( 0.000000000000000000, 0.000000000000000000, 200.0000000000000000 ) ) ;
#149 = DIRECTION ( 'NONE',  ( 0.000000000000000000, 0.000000000000000000, 1.000000000000000000 ) ) ;
#150 =( GEOMETRIC_REPRESENTATION_CONTEXT ( 3 ) GLOBAL_UNCERTAINTY_ASSIGNED_CONTEXT ( ( #43 ) ) GLOBAL_UNIT_ASSIGNED_CONTEXT ( ( #172, #214, #211 ) ) REPRESENTATION_CONTEXT ( 'NONE', 'WORKASPACE' ) );
#151 = CARTESIAN_POINT ( 'NONE',  ( 0.000000000000000000, -25.39999999999999858, 200.0000000000000000 ) ) ;
#152 = EDGE_LOOP ( 'NONE', ( #32, #217, #34, #36 ) ) ;
#153 = FACE_OUTER_BOUND ( 'NONE', #20, .T. ) ;
#154 = ORIENTED_EDGE ( 'NONE', *, *, #108, .T. ) ;
#155 = VERTEX_POINT ( 'NONE', #88 ) ;
#156 = VERTEX_POINT ( 'NONE', #205 ) ;
#157 = EDGE_CURVE ( 'NONE', #239, #51, #177, .T. ) ;
#158 = LINE ( 'NONE', #40, #74 ) ;
#159 = DIRECTION ( 'NONE',  ( -0.000000000000000000, -0.000000000000000000, -1.000000000000000000 ) ) ;
#160 = EDGE_LOOP ( 'NONE', ( #260, #180, #139, #154 ) ) ;
#161 = AXIS2_PLACEMENT_3D ( 'NONE', #107, #228, #167 ) ;
#162 = DIRECTION ( 'NONE',  ( -1.000000000000000000, 0.000000000000000000, 0.000000000000000000 ) ) ;
#163 = FACE_OUTER_BOUND ( 'NONE', #160, .T. ) ;
#164 = ADVANCED_FACE ( 'NONE', ( #247 ), #210, .F. ) ;
#165 = DIRECTION ( 'NONE',  ( 0.000000000000000000, 1.000000000000000000, 0.000000000000000000 ) ) ;
#166 = DIRECTION ( 'NONE',  ( -1.000000000000000000, 0.000000000000000000, 0.000000000000000000 ) ) ;
#167 = DIRECTION ( 'NONE',  ( 1.000000000000000000, 0.000000000000000000, 0.000000000000000000 ) ) ;
#168 = FACE_OUTER_BOUND ( 'NONE', #73, .T. ) ;
#169 = ADVANCED_FACE ( 'NONE', ( #168 ), #27, .F. ) ;
#170 = CARTESIAN_POINT ( 'NONE',  ( 0.000000000000000000, 0.000000000000000000, 200.0000000000000000 ) ) ;
#171 = CARTESIAN_POINT ( 'NONE',  ( -22.23000000000000043, 0.000000000000000000, 200.0000000000000000 ) ) ;
#172 =( LENGTH_UNIT ( ) NAMED_UNIT ( * ) SI_UNIT ( .MILLI., .METRE. ) );
#173 = VECTOR ( 'NONE', #122, 1000.000000000000000 ) ;
#174 = COLOUR_RGB ( '',0.7921568627450980005, 0.8196078431372548767, 0.9333333333333333481 ) ;
#175 = ORIENTED_EDGE ( 'NONE', *, *, #64, .T. ) ;
#176 = EDGE_CURVE ( 'NONE', #155, #240, #102, .T. ) ;
#177 = CIRCLE ( 'NONE', #82, 22.23000000000000043 ) ;
#178 = ORIENTED_EDGE ( 'NONE', *, *, #76, .T. ) ;
#179 = ORIENTED_EDGE ( 'NONE', *, *, #200, .F. ) ;
#180 = ORIENTED_EDGE ( 'NONE', *, *, #195, .F. ) ;
#181 = DIRECTION ( 'NONE',  ( -0.000000000000000000, -0.000000000000000000, -1.000000000000000000 ) ) ;
#182 = DIRECTION ( 'NONE',  ( 0.000000000000000000, 1.000000000000000000, 0.000000000000000000 ) ) ;
#183 = EDGE_CURVE ( 'NONE', #240, #238, #44, .T. ) ;
#184 = SURFACE_SIDE_STYLE ('',( #189 ) ) ;
#185 = DIRECTION ( 'NONE',  ( 1.000000000000000000, 0.000000000000000000, 0.000000000000000000 ) ) ;
#186 = DIRECTION ( 'NONE',  ( 1.000000000000000000, 0.000000000000000000, 0.000000000000000000 ) ) ;
#187 = DIRECTION ( 'NONE',  ( 1.000000000000000000, 0.000000000000000000, 0.000000000000000000 ) ) ;
#188 = PRODUCT ( 'Se\X2\00e700e3\X0\o_Tubo', 'Se\X2\00e700e3\X0\o_Tubo', '', ( #23 ) ) ;
#189 = SURFACE_STYLE_FILL_AREA ( #47 ) ;
#190 = ORIENTED_EDGE ( 'NONE', *, *, #21, .T. ) ;
#191 = VECTOR ( 'NONE', #67, 1000.000000000000000 ) ;
#192 = CIRCLE ( 'NONE', #243, 25.39999999999999858 ) ;
#193 = ORIENTED_EDGE ( 'NONE', *, *, #157, .F. ) ;
#194 = EDGE_CURVE ( 'NONE', #196, #238, #192, .T. ) ;
#195 = EDGE_CURVE ( 'NONE', #53, #155, #58, .T. ) ;
#196 = VERTEX_POINT ( 'NONE', #65 ) ;
#197 = PRODUCT_DEFINITION ( 'UNKNOWN', '', #49, #250 ) ;
#198 = CARTESIAN_POINT ( 'NONE',  ( 0.000000000000000000, 25.39999999999999858, 200.0000000000000000 ) ) ;
#199 = LINE ( 'NONE', #219, #140 ) ;
#200 = EDGE_CURVE ( 'NONE', #51, #156, #9, .T. ) ;
#201 = ORIENTED_EDGE ( 'NONE', *, *, #138, .T. ) ;
#202 = ADVANCED_FACE ( 'NONE', ( #141 ), #146, .T. ) ;
#203 = LINE ( 'NONE', #29, #173 ) ;
#204 = CARTESIAN_POINT ( 'NONE',  ( 0.000000000000000000, 0.000000000000000000, 0.000000000000000000 ) ) ;
#205 = CARTESIAN_POINT ( 'NONE',  ( 0.000000000000000000, 25.39999999999999858, 0.000000000000000000 ) ) ;
#206 = STYLED_ITEM ( 'NONE', ( #86 ), #215 ) ;
#207 = AXIS2_PLACEMENT_3D ( 'NONE', #10, #149, #71 ) ;
#208 = CARTESIAN_POINT ( 'NONE',  ( 1.361194917252283120E-15, 22.23000000000000043, 200.0000000000000000 ) ) ;
#209 = CARTESIAN_POINT ( 'NONE',  ( 0.000000000000000000, 22.23000000000000043, 200.0000000000000000 ) ) ;
#210 = CYLINDRICAL_SURFACE ( 'NONE', #218, 22.23000000000000043 ) ;
#211 =( NAMED_UNIT ( * ) SI_UNIT ( $, .STERADIAN. ) SOLID_ANGLE_UNIT ( ) );
#212 = AXIS2_PLACEMENT_3D ( 'NONE', #85, #105, #166 ) ;
#213 = ORIENTED_EDGE ( 'NONE', *, *, #176, .T. ) ;
#214 =( NAMED_UNIT ( * ) PLANE_ANGLE_UNIT ( ) SI_UNIT ( $, .RADIAN. ) );
#215 = MANIFOLD_SOLID_BREP ( 'Ressalto-extrusão1', #66 ) ;
#216 = ORIENTED_EDGE ( 'NONE', *, *, #33, .T. ) ;
#217 = ORIENTED_EDGE ( 'NONE', *, *, #147, .T. ) ;
#218 = AXIS2_PLACEMENT_3D ( 'NONE', #231, #124, #46 ) ;
#219 = CARTESIAN_POINT ( 'NONE',  ( 0.000000000000000000, -25.39999999999999858, 200.0000000000000000 ) ) ;
#220 = CIRCLE ( 'NONE', #257, 22.23000000000000043 ) ;
#221 = DIRECTION ( 'NONE',  ( -0.000000000000000000, -0.000000000000000000, -1.000000000000000000 ) ) ;
#222 = DIRECTION ( 'NONE',  ( -0.000000000000000000, -0.000000000000000000, -1.000000000000000000 ) ) ;
#223 = ADVANCED_FACE ( 'NONE', ( #153 ), #70, .F. ) ;
#224 = ORIENTED_EDGE ( 'NONE', *, *, #79, .T. ) ;
#225 = DIRECTION ( 'NONE',  ( 1.000000000000000000, 0.000000000000000000, -0.000000000000000000 ) ) ;
#226 = CARTESIAN_POINT ( 'NONE',  ( 0.000000000000000000, 0.000000000000000000, 0.000000000000000000 ) ) ;
#227 = DIRECTION ( 'NONE',  ( 1.000000000000000000, 0.000000000000000000, 0.000000000000000000 ) ) ;
#228 = DIRECTION ( 'NONE',  ( 0.000000000000000000, 0.000000000000000000, 1.000000000000000000 ) ) ;
#229 = AXIS2_PLACEMENT_3D ( 'NONE', #170, #253, #225 ) ;
#230 = PRODUCT_RELATED_PRODUCT_CATEGORY ( 'part', '', ( #188 ) ) ;
#231 = CARTESIAN_POINT ( 'NONE',  ( 0.000000000000000000, 0.000000000000000000, 200.0000000000000000 ) ) ;
#232 = FILL_AREA_STYLE_COLOUR ( '', #174 ) ;
#233 = DIRECTION ( 'NONE',  ( 1.000000000000000000, 0.000000000000000000, 0.000000000000000000 ) ) ;
#234 = ORIENTED_EDGE ( 'NONE', *, *, #64, .F. ) ;
#235 = AXIS2_PLACEMENT_3D ( 'NONE', #22, #6, #87 ) ;
#236 = VECTOR ( 'NONE', #101, 1000.000000000000000 ) ;
#237 = VERTEX_POINT ( 'NONE', #72 ) ;
#238 = VERTEX_POINT ( 'NONE', #90 ) ;
#239 = VERTEX_POINT ( 'NONE', #91 ) ;
#240 = VERTEX_POINT ( 'NONE', #151 ) ;
#241 = AXIS2_PLACEMENT_3D ( 'NONE', #63, #222, #4 ) ;
#242 = ORIENTED_EDGE ( 'NONE', *, *, #147, .F. ) ;
#243 = AXIS2_PLACEMENT_3D ( 'NONE', #106, #251, #186 ) ;
#244 = CARTESIAN_POINT ( 'NONE',  ( 0.000000000000000000, 0.000000000000000000, 0.000000000000000000 ) ) ;
#245 = EDGE_CURVE ( 'NONE', #259, #110, #13, .T. ) ;
#246 = CARTESIAN_POINT ( 'NONE',  ( 0.000000000000000000, 25.39999999999999858, 200.0000000000000000 ) ) ;
#247 = FACE_OUTER_BOUND ( 'NONE', #152, .T. ) ;
#248 = VECTOR ( 'NONE', #127, 1000.000000000000000 ) ;
#249 = CYLINDRICAL_SURFACE ( 'NONE', #212, 22.23000000000000043 ) ;
#250 = PRODUCT_DEFINITION_CONTEXT ( 'detailed design', #123, 'design' ) ;
#251 = DIRECTION ( 'NONE',  ( 0.000000000000000000, 0.000000000000000000, 1.000000000000000000 ) ) ;
#252 = DIRECTION ( 'NONE',  ( 1.000000000000000000, 0.000000000000000000, 0.000000000000000000 ) ) ;
#253 = DIRECTION ( 'NONE',  ( 0.000000000000000000, 0.000000000000000000, 1.000000000000000000 ) ) ;
#254 = APPLICATION_PROTOCOL_DEFINITION ( 'draft international standard', 'automotive_design', 1998, #113 ) ;
#255 = PRODUCT_DEFINITION_SHAPE ( 'NONE', 'NONE',  #197 ) ;
#256 = ORIENTED_EDGE ( 'NONE', *, *, #108, .F. ) ;
#257 = AXIS2_PLACEMENT_3D ( 'NONE', #7, #103, #185 ) ;
#258 = VECTOR ( 'NONE', #165, 1000.000000000000000 ) ;
#259 = VERTEX_POINT ( 'NONE', #171 ) ;
#260 = ORIENTED_EDGE ( 'NONE', *, *, #79, .F. ) ;
#261 = EDGE_LOOP ( 'NONE', ( #242, #80, #190, #175 ) ) ;
ENDSEC;
END-ISO-10303-21;
