ISO-10303-21;
HEADER;
/* Generated by software containing ST-Developer
 * from STEP Tools, Inc. (www.steptools.com) 
 */

FILE_DESCRIPTION(
/* description */ (''),
/* implementation_level */ '2;1');

FILE_NAME(
/* name */ 'lado1500.step',
/* time_stamp */ '2026-07-06T21:29:25-03:00',
/* author */ (''),
/* organization */ (''),
/* preprocessor_version */ 'ST-DEVELOPER v20.1',
/* originating_system */ 'Autodesk Translation Framework v15.8.0.0',
/* authorisation */ '');

FILE_SCHEMA (('AUTOMOTIVE_DESIGN { 1 0 10303 214 3 1 1 }'));
ENDSEC;

DATA;
#10=MECHANICAL_DESIGN_GEOMETRIC_PRESENTATION_REPRESENTATION('',(#13),#357);
#11=SHAPE_REPRESENTATION_RELATIONSHIP('SRR','None',#364,#12);
#12=ADVANCED_BREP_SHAPE_REPRESENTATION('',(#14),#356);
#13=STYLED_ITEM('',(#374),#14);
#14=MANIFOLD_SOLID_BREP('Corpo2',#203);
#15=CONICAL_SURFACE('',#225,23.75,0.0831412318884412);
#16=CYLINDRICAL_SURFACE('',#220,25.);
#17=CYLINDRICAL_SURFACE('',#226,22.5);
#18=CYLINDRICAL_SURFACE('',#230,21.);
#19=CYLINDRICAL_SURFACE('',#234,10.);
#20=FACE_OUTER_BOUND('',#31,.T.);
#21=FACE_OUTER_BOUND('',#32,.T.);
#22=FACE_OUTER_BOUND('',#33,.T.);
#23=FACE_OUTER_BOUND('',#34,.T.);
#24=FACE_OUTER_BOUND('',#35,.T.);
#25=FACE_OUTER_BOUND('',#36,.T.);
#26=FACE_OUTER_BOUND('',#37,.T.);
#27=FACE_OUTER_BOUND('',#38,.T.);
#28=FACE_OUTER_BOUND('',#39,.T.);
#29=FACE_OUTER_BOUND('',#40,.T.);
#30=FACE_OUTER_BOUND('',#41,.T.);
#31=EDGE_LOOP('',(#132,#133,#134,#135));
#32=EDGE_LOOP('',(#136,#137,#138,#139));
#33=EDGE_LOOP('',(#140,#141,#142,#143));
#34=EDGE_LOOP('',(#144,#145,#146,#147));
#35=EDGE_LOOP('',(#148,#149,#150,#151));
#36=EDGE_LOOP('',(#152,#153,#154,#155));
#37=EDGE_LOOP('',(#156,#157,#158,#159));
#38=EDGE_LOOP('',(#160,#161,#162,#163));
#39=EDGE_LOOP('',(#164,#165,#166,#167));
#40=EDGE_LOOP('',(#168,#169,#170,#171,#172,#173,#174,#175,#176));
#41=EDGE_LOOP('',(#177,#178,#179,#180,#181,#182,#183,#184,#185));
#42=CIRCLE('',#218,25.);
#43=CIRCLE('',#219,22.5);
#44=CIRCLE('',#221,25.);
#45=CIRCLE('',#223,10.);
#46=CIRCLE('',#224,22.5);
#47=CIRCLE('',#227,22.5);
#48=CIRCLE('',#229,21.);
#49=CIRCLE('',#231,21.);
#50=CIRCLE('',#233,10.);
#51=LINE('',#301,#69);
#52=LINE('',#305,#70);
#53=LINE('',#309,#71);
#54=LINE('',#312,#72);
#55=LINE('',#316,#73);
#56=LINE('',#320,#74);
#57=LINE('',#323,#75);
#58=LINE('',#324,#76);
#59=LINE('',#327,#77);
#60=LINE('',#329,#78);
#61=LINE('',#333,#79);
#62=LINE('',#335,#80);
#63=LINE('',#339,#81);
#64=LINE('',#341,#82);
#65=LINE('',#345,#83);
#66=LINE('',#347,#84);
#67=LINE('',#350,#85);
#68=LINE('',#351,#86);
#69=VECTOR('',#241,10.);
#70=VECTOR('',#244,10.);
#71=VECTOR('',#249,10.);
#72=VECTOR('',#252,10.);
#73=VECTOR('',#255,10.);
#74=VECTOR('',#258,10.);
#75=VECTOR('',#263,10.);
#76=VECTOR('',#264,10.);
#77=VECTOR('',#267,10.);
#78=VECTOR('',#268,10.);
#79=VECTOR('',#273,10.);
#80=VECTOR('',#274,10.);
#81=VECTOR('',#279,10.);
#82=VECTOR('',#280,10.);
#83=VECTOR('',#285,10.);
#84=VECTOR('',#286,10.);
#85=VECTOR('',#291,10.);
#86=VECTOR('',#292,10.);
#87=VERTEX_POINT('',#299);
#88=VERTEX_POINT('',#300);
#89=VERTEX_POINT('',#302);
#90=VERTEX_POINT('',#304);
#91=VERTEX_POINT('',#308);
#92=VERTEX_POINT('',#310);
#93=VERTEX_POINT('',#314);
#94=VERTEX_POINT('',#315);
#95=VERTEX_POINT('',#317);
#96=VERTEX_POINT('',#319);
#97=VERTEX_POINT('',#326);
#98=VERTEX_POINT('',#328);
#99=VERTEX_POINT('',#332);
#100=VERTEX_POINT('',#334);
#101=VERTEX_POINT('',#338);
#102=VERTEX_POINT('',#340);
#103=VERTEX_POINT('',#344);
#104=VERTEX_POINT('',#346);
#105=EDGE_CURVE('',#87,#88,#51,.T.);
#106=EDGE_CURVE('',#89,#87,#42,.T.);
#107=EDGE_CURVE('',#90,#89,#52,.T.);
#108=EDGE_CURVE('',#90,#88,#43,.T.);
#109=EDGE_CURVE('',#91,#87,#53,.T.);
#110=EDGE_CURVE('',#92,#91,#44,.T.);
#111=EDGE_CURVE('',#89,#92,#54,.T.);
#112=EDGE_CURVE('',#93,#94,#55,.T.);
#113=EDGE_CURVE('',#93,#95,#45,.T.);
#114=EDGE_CURVE('',#96,#95,#56,.T.);
#115=EDGE_CURVE('',#94,#96,#46,.T.);
#116=EDGE_CURVE('',#94,#91,#57,.T.);
#117=EDGE_CURVE('',#92,#96,#58,.T.);
#118=EDGE_CURVE('',#88,#97,#59,.T.);
#119=EDGE_CURVE('',#98,#90,#60,.T.);
#120=EDGE_CURVE('',#98,#97,#47,.T.);
#121=EDGE_CURVE('',#97,#99,#61,.T.);
#122=EDGE_CURVE('',#100,#98,#62,.T.);
#123=EDGE_CURVE('',#99,#100,#48,.T.);
#124=EDGE_CURVE('',#99,#101,#63,.T.);
#125=EDGE_CURVE('',#102,#100,#64,.T.);
#126=EDGE_CURVE('',#101,#102,#49,.T.);
#127=EDGE_CURVE('',#101,#103,#65,.T.);
#128=EDGE_CURVE('',#104,#102,#66,.T.);
#129=EDGE_CURVE('',#104,#103,#50,.T.);
#130=EDGE_CURVE('',#103,#93,#67,.T.);
#131=EDGE_CURVE('',#95,#104,#68,.T.);
#132=ORIENTED_EDGE('',*,*,#105,.F.);
#133=ORIENTED_EDGE('',*,*,#106,.F.);
#134=ORIENTED_EDGE('',*,*,#107,.F.);
#135=ORIENTED_EDGE('',*,*,#108,.T.);
#136=ORIENTED_EDGE('',*,*,#109,.F.);
#137=ORIENTED_EDGE('',*,*,#110,.F.);
#138=ORIENTED_EDGE('',*,*,#111,.F.);
#139=ORIENTED_EDGE('',*,*,#106,.T.);
#140=ORIENTED_EDGE('',*,*,#112,.F.);
#141=ORIENTED_EDGE('',*,*,#113,.T.);
#142=ORIENTED_EDGE('',*,*,#114,.F.);
#143=ORIENTED_EDGE('',*,*,#115,.F.);
#144=ORIENTED_EDGE('',*,*,#116,.F.);
#145=ORIENTED_EDGE('',*,*,#115,.T.);
#146=ORIENTED_EDGE('',*,*,#117,.F.);
#147=ORIENTED_EDGE('',*,*,#110,.T.);
#148=ORIENTED_EDGE('',*,*,#118,.F.);
#149=ORIENTED_EDGE('',*,*,#108,.F.);
#150=ORIENTED_EDGE('',*,*,#119,.F.);
#151=ORIENTED_EDGE('',*,*,#120,.T.);
#152=ORIENTED_EDGE('',*,*,#121,.F.);
#153=ORIENTED_EDGE('',*,*,#120,.F.);
#154=ORIENTED_EDGE('',*,*,#122,.F.);
#155=ORIENTED_EDGE('',*,*,#123,.F.);
#156=ORIENTED_EDGE('',*,*,#124,.F.);
#157=ORIENTED_EDGE('',*,*,#123,.T.);
#158=ORIENTED_EDGE('',*,*,#125,.F.);
#159=ORIENTED_EDGE('',*,*,#126,.F.);
#160=ORIENTED_EDGE('',*,*,#127,.F.);
#161=ORIENTED_EDGE('',*,*,#126,.T.);
#162=ORIENTED_EDGE('',*,*,#128,.F.);
#163=ORIENTED_EDGE('',*,*,#129,.T.);
#164=ORIENTED_EDGE('',*,*,#130,.F.);
#165=ORIENTED_EDGE('',*,*,#129,.F.);
#166=ORIENTED_EDGE('',*,*,#131,.F.);
#167=ORIENTED_EDGE('',*,*,#113,.F.);
#168=ORIENTED_EDGE('',*,*,#118,.T.);
#169=ORIENTED_EDGE('',*,*,#121,.T.);
#170=ORIENTED_EDGE('',*,*,#124,.T.);
#171=ORIENTED_EDGE('',*,*,#127,.T.);
#172=ORIENTED_EDGE('',*,*,#130,.T.);
#173=ORIENTED_EDGE('',*,*,#112,.T.);
#174=ORIENTED_EDGE('',*,*,#116,.T.);
#175=ORIENTED_EDGE('',*,*,#109,.T.);
#176=ORIENTED_EDGE('',*,*,#105,.T.);
#177=ORIENTED_EDGE('',*,*,#119,.T.);
#178=ORIENTED_EDGE('',*,*,#107,.T.);
#179=ORIENTED_EDGE('',*,*,#111,.T.);
#180=ORIENTED_EDGE('',*,*,#117,.T.);
#181=ORIENTED_EDGE('',*,*,#114,.T.);
#182=ORIENTED_EDGE('',*,*,#131,.T.);
#183=ORIENTED_EDGE('',*,*,#128,.T.);
#184=ORIENTED_EDGE('',*,*,#125,.T.);
#185=ORIENTED_EDGE('',*,*,#122,.T.);
#186=PLANE('',#217);
#187=PLANE('',#222);
#188=PLANE('',#228);
#189=PLANE('',#232);
#190=PLANE('',#235);
#191=PLANE('',#236);
#192=ADVANCED_FACE('',(#20),#186,.T.);
#193=ADVANCED_FACE('',(#21),#16,.T.);
#194=ADVANCED_FACE('',(#22),#187,.F.);
#195=ADVANCED_FACE('',(#23),#15,.T.);
#196=ADVANCED_FACE('',(#24),#17,.F.);
#197=ADVANCED_FACE('',(#25),#188,.T.);
#198=ADVANCED_FACE('',(#26),#18,.F.);
#199=ADVANCED_FACE('',(#27),#189,.T.);
#200=ADVANCED_FACE('',(#28),#19,.F.);
#201=ADVANCED_FACE('',(#29),#190,.T.);
#202=ADVANCED_FACE('',(#30),#191,.T.);
#203=CLOSED_SHELL('',(#192,#193,#194,#195,#196,#197,#198,#199,#200,#201,
#202));
#204=DERIVED_UNIT_ELEMENT(#206,1.);
#205=DERIVED_UNIT_ELEMENT(#359,-3.);
#206=(
MASS_UNIT()
NAMED_UNIT(*)
SI_UNIT(.KILO.,.GRAM.)
);
#207=DERIVED_UNIT((#204,#205));
#208=MEASURE_REPRESENTATION_ITEM('density measure',
POSITIVE_RATIO_MEASURE(7850.),#207);
#209=PROPERTY_DEFINITION_REPRESENTATION(#214,#211);
#210=PROPERTY_DEFINITION_REPRESENTATION(#215,#212);
#211=REPRESENTATION('material name',(#213),#356);
#212=REPRESENTATION('density',(#208),#356);
#213=DESCRIPTIVE_REPRESENTATION_ITEM('A\X\E7o','A\X\E7o');
#214=PROPERTY_DEFINITION('material property','material name',#366);
#215=PROPERTY_DEFINITION('material property','density of part',#366);
#216=AXIS2_PLACEMENT_3D('',#297,#237,#238);
#217=AXIS2_PLACEMENT_3D('',#298,#239,#240);
#218=AXIS2_PLACEMENT_3D('',#303,#242,#243);
#219=AXIS2_PLACEMENT_3D('',#306,#245,#246);
#220=AXIS2_PLACEMENT_3D('',#307,#247,#248);
#221=AXIS2_PLACEMENT_3D('',#311,#250,#251);
#222=AXIS2_PLACEMENT_3D('',#313,#253,#254);
#223=AXIS2_PLACEMENT_3D('',#318,#256,#257);
#224=AXIS2_PLACEMENT_3D('',#321,#259,#260);
#225=AXIS2_PLACEMENT_3D('',#322,#261,#262);
#226=AXIS2_PLACEMENT_3D('',#325,#265,#266);
#227=AXIS2_PLACEMENT_3D('',#330,#269,#270);
#228=AXIS2_PLACEMENT_3D('',#331,#271,#272);
#229=AXIS2_PLACEMENT_3D('',#336,#275,#276);
#230=AXIS2_PLACEMENT_3D('',#337,#277,#278);
#231=AXIS2_PLACEMENT_3D('',#342,#281,#282);
#232=AXIS2_PLACEMENT_3D('',#343,#283,#284);
#233=AXIS2_PLACEMENT_3D('',#348,#287,#288);
#234=AXIS2_PLACEMENT_3D('',#349,#289,#290);
#235=AXIS2_PLACEMENT_3D('',#352,#293,#294);
#236=AXIS2_PLACEMENT_3D('',#353,#295,#296);
#237=DIRECTION('axis',(0.,0.,1.));
#238=DIRECTION('refdir',(1.,0.,0.));
#239=DIRECTION('center_axis',(0.,1.,0.));
#240=DIRECTION('ref_axis',(-1.,0.,0.));
#241=DIRECTION('',(0.,0.,1.));
#242=DIRECTION('center_axis',(0.,-1.,0.));
#243=DIRECTION('ref_axis',(1.,0.,0.));
#244=DIRECTION('',(0.,0.,1.));
#245=DIRECTION('center_axis',(0.,-1.,0.));
#246=DIRECTION('ref_axis',(-1.,0.,0.));
#247=DIRECTION('center_axis',(0.,-1.,0.));
#248=DIRECTION('ref_axis',(-1.,0.,-1.22464679914735E-16));
#249=DIRECTION('',(0.,1.,0.));
#250=DIRECTION('center_axis',(0.,-1.,0.));
#251=DIRECTION('ref_axis',(1.,0.,0.));
#252=DIRECTION('',(0.,-1.,0.));
#253=DIRECTION('center_axis',(0.,1.,0.));
#254=DIRECTION('ref_axis',(1.,0.,0.));
#255=DIRECTION('',(0.,0.,-1.));
#256=DIRECTION('center_axis',(0.,1.,0.));
#257=DIRECTION('ref_axis',(1.,0.,0.));
#258=DIRECTION('',(0.,0.,-1.));
#259=DIRECTION('center_axis',(0.,1.,0.));
#260=DIRECTION('ref_axis',(1.,0.,0.));
#261=DIRECTION('center_axis',(0.,1.,0.));
#262=DIRECTION('ref_axis',(-1.,0.,-1.22464679914735E-16));
#263=DIRECTION('',(0.,0.99654575824488,-0.08304547985374));
#264=DIRECTION('',(0.,-0.99654575824488,-0.08304547985374));
#265=DIRECTION('center_axis',(0.,-1.,0.));
#266=DIRECTION('ref_axis',(-1.,0.,0.));
#267=DIRECTION('',(0.,-1.,0.));
#268=DIRECTION('',(0.,1.,0.));
#269=DIRECTION('center_axis',(0.,-1.,0.));
#270=DIRECTION('ref_axis',(-1.,0.,0.));
#271=DIRECTION('center_axis',(0.,1.,0.));
#272=DIRECTION('ref_axis',(-1.,0.,0.));
#273=DIRECTION('',(0.,0.,1.));
#274=DIRECTION('',(0.,0.,1.));
#275=DIRECTION('center_axis',(0.,1.,0.));
#276=DIRECTION('ref_axis',(1.,0.,0.));
#277=DIRECTION('center_axis',(0.,1.,0.));
#278=DIRECTION('ref_axis',(-1.,0.,-1.22464679914735E-16));
#279=DIRECTION('',(0.,-1.,0.));
#280=DIRECTION('',(0.,1.,0.));
#281=DIRECTION('center_axis',(0.,1.,0.));
#282=DIRECTION('ref_axis',(1.,0.,0.));
#283=DIRECTION('center_axis',(0.,1.,0.));
#284=DIRECTION('ref_axis',(1.,0.,0.));
#285=DIRECTION('',(0.,0.,1.));
#286=DIRECTION('',(0.,0.,1.));
#287=DIRECTION('center_axis',(0.,-1.,0.));
#288=DIRECTION('ref_axis',(1.,0.,0.));
#289=DIRECTION('center_axis',(0.,1.,0.));
#290=DIRECTION('ref_axis',(-1.,0.,-1.22464679914735E-16));
#291=DIRECTION('',(0.,-1.,0.));
#292=DIRECTION('',(0.,1.,0.));
#293=DIRECTION('center_axis',(1.,0.,0.));
#294=DIRECTION('ref_axis',(0.,0.,-1.));
#295=DIRECTION('center_axis',(1.,0.,0.));
#296=DIRECTION('ref_axis',(0.,0.,-1.));
#297=CARTESIAN_POINT('',(0.,0.,0.));
#298=CARTESIAN_POINT('Origin',(0.,115.,0.));
#299=CARTESIAN_POINT('',(0.,115.,-25.));
#300=CARTESIAN_POINT('',(0.,115.,-22.5));
#301=CARTESIAN_POINT('',(0.,115.,0.));
#302=CARTESIAN_POINT('',(0.,115.,25.));
#303=CARTESIAN_POINT('Origin',(0.,115.,0.));
#304=CARTESIAN_POINT('',(0.,115.,22.5));
#305=CARTESIAN_POINT('',(0.,115.,0.));
#306=CARTESIAN_POINT('Origin',(0.,115.,0.));
#307=CARTESIAN_POINT('Origin',(0.,-30.,0.));
#308=CARTESIAN_POINT('',(0.,-30.,-25.));
#309=CARTESIAN_POINT('',(0.,-30.,-25.));
#310=CARTESIAN_POINT('',(0.,-30.,25.));
#311=CARTESIAN_POINT('Origin',(0.,-30.,0.));
#312=CARTESIAN_POINT('',(0.,-30.,25.));
#313=CARTESIAN_POINT('Origin',(0.,-60.,0.));
#314=CARTESIAN_POINT('',(0.,-60.,-10.));
#315=CARTESIAN_POINT('',(0.,-60.,-22.5));
#316=CARTESIAN_POINT('',(0.,-60.,0.));
#317=CARTESIAN_POINT('',(0.,-60.,10.));
#318=CARTESIAN_POINT('Origin',(0.,-60.,0.));
#319=CARTESIAN_POINT('',(0.,-60.,22.5));
#320=CARTESIAN_POINT('',(0.,-60.,0.));
#321=CARTESIAN_POINT('Origin',(0.,-60.,0.));
#322=CARTESIAN_POINT('Origin',(0.,-45.,0.));
#323=CARTESIAN_POINT('',(0.,-45.,-23.75));
#324=CARTESIAN_POINT('',(0.,-45.,23.75));
#325=CARTESIAN_POINT('Origin',(0.,115.,0.));
#326=CARTESIAN_POINT('',(0.,105.,-22.5));
#327=CARTESIAN_POINT('',(0.,115.,-22.5));
#328=CARTESIAN_POINT('',(0.,105.,22.5));
#329=CARTESIAN_POINT('',(0.,115.,22.5));
#330=CARTESIAN_POINT('Origin',(0.,105.,0.));
#331=CARTESIAN_POINT('Origin',(0.,105.,0.));
#332=CARTESIAN_POINT('',(0.,105.,-21.));
#333=CARTESIAN_POINT('',(0.,105.,0.));
#334=CARTESIAN_POINT('',(0.,105.,21.));
#335=CARTESIAN_POINT('',(0.,105.,0.));
#336=CARTESIAN_POINT('Origin',(0.,105.,0.));
#337=CARTESIAN_POINT('Origin',(0.,-30.,0.));
#338=CARTESIAN_POINT('',(0.,-20.,-21.));
#339=CARTESIAN_POINT('',(0.,-30.,-21.));
#340=CARTESIAN_POINT('',(0.,-20.,21.));
#341=CARTESIAN_POINT('',(0.,-30.,21.));
#342=CARTESIAN_POINT('Origin',(0.,-20.,0.));
#343=CARTESIAN_POINT('Origin',(0.,-20.,0.));
#344=CARTESIAN_POINT('',(0.,-20.,-10.));
#345=CARTESIAN_POINT('',(0.,-20.,0.));
#346=CARTESIAN_POINT('',(0.,-20.,10.));
#347=CARTESIAN_POINT('',(0.,-20.,0.));
#348=CARTESIAN_POINT('Origin',(0.,-20.,0.));
#349=CARTESIAN_POINT('Origin',(0.,-60.,0.));
#350=CARTESIAN_POINT('',(0.,-60.,-10.));
#351=CARTESIAN_POINT('',(0.,-60.,10.));
#352=CARTESIAN_POINT('Origin',(0.,27.5,0.));
#353=CARTESIAN_POINT('Origin',(0.,27.5,0.));
#354=UNCERTAINTY_MEASURE_WITH_UNIT(LENGTH_MEASURE(0.01),#358,
'DISTANCE_ACCURACY_VALUE',
'Maximum model space distance between geometric entities at asserted c
onnectivities');
#355=UNCERTAINTY_MEASURE_WITH_UNIT(LENGTH_MEASURE(0.01),#358,
'DISTANCE_ACCURACY_VALUE',
'Maximum model space distance between geometric entities at asserted c
onnectivities');
#356=(
GEOMETRIC_REPRESENTATION_CONTEXT(3)
GLOBAL_UNCERTAINTY_ASSIGNED_CONTEXT((#354))
GLOBAL_UNIT_ASSIGNED_CONTEXT((#358,#360,#361))
REPRESENTATION_CONTEXT('','3D')
);
#357=(
GEOMETRIC_REPRESENTATION_CONTEXT(3)
GLOBAL_UNCERTAINTY_ASSIGNED_CONTEXT((#355))
GLOBAL_UNIT_ASSIGNED_CONTEXT((#358,#360,#361))
REPRESENTATION_CONTEXT('','3D')
);
#358=(
LENGTH_UNIT()
NAMED_UNIT(*)
SI_UNIT(.MILLI.,.METRE.)
);
#359=(
LENGTH_UNIT()
NAMED_UNIT(*)
SI_UNIT($,.METRE.)
);
#360=(
NAMED_UNIT(*)
PLANE_ANGLE_UNIT()
SI_UNIT($,.RADIAN.)
);
#361=(
NAMED_UNIT(*)
SI_UNIT($,.STERADIAN.)
SOLID_ANGLE_UNIT()
);
#362=SHAPE_DEFINITION_REPRESENTATION(#363,#364);
#363=PRODUCT_DEFINITION_SHAPE('',$,#366);
#364=SHAPE_REPRESENTATION('',(#216),#356);
#365=PRODUCT_DEFINITION_CONTEXT('part definition',#370,'design');
#366=PRODUCT_DEFINITION('molde100m2026','molde100m2026 v5',#367,#365);
#367=PRODUCT_DEFINITION_FORMATION('',$,#372);
#368=PRODUCT_RELATED_PRODUCT_CATEGORY('molde100m2026 v5',
'molde100m2026 v5',(#372));
#369=APPLICATION_PROTOCOL_DEFINITION('international standard',
'automotive_design',2009,#370);
#370=APPLICATION_CONTEXT(
'Core Data for Automotive Mechanical Design Process');
#371=PRODUCT_CONTEXT('part definition',#370,'mechanical');
#372=PRODUCT('molde100m2026','molde100m2026 v5',$,(#371));
#373=PRESENTATION_STYLE_ASSIGNMENT((#376));
#374=PRESENTATION_STYLE_ASSIGNMENT((#377));
#375=PRESENTATION_STYLE_ASSIGNMENT((#378));
#376=SURFACE_STYLE_USAGE(.BOTH.,#379);
#377=SURFACE_STYLE_USAGE(.BOTH.,#380);
#378=SURFACE_STYLE_USAGE(.BOTH.,#381);
#379=SURFACE_SIDE_STYLE('',(#382));
#380=SURFACE_SIDE_STYLE('',(#383));
#381=SURFACE_SIDE_STYLE('',(#384));
#382=SURFACE_STYLE_FILL_AREA(#385);
#383=SURFACE_STYLE_FILL_AREA(#386);
#384=SURFACE_STYLE_FILL_AREA(#387);
#385=FILL_AREA_STYLE('A\X\E7o - Acetinado',(#388));
#386=FILL_AREA_STYLE('Pintura - Met\X\E1lica (Verde)',(#389));
#387=FILL_AREA_STYLE('Pintura - Met\X\E1lica (Vermelho)',(#390));
#388=FILL_AREA_STYLE_COLOUR('A\X\E7o - Acetinado',#391);
#389=FILL_AREA_STYLE_COLOUR('Pintura - Met\X\E1lica (Verde)',#392);
#390=FILL_AREA_STYLE_COLOUR('Pintura - Met\X\E1lica (Vermelho)',#393);
#391=COLOUR_RGB('A\X\E7o - Acetinado',0.627450980392157,0.627450980392157,
0.627450980392157);
#392=COLOUR_RGB('Pintura - Met\X\E1lica (Verde)',0.266666666666667,0.588235294117647,
0.282352941176471);
#393=COLOUR_RGB('Pintura - Met\X\E1lica (Vermelho)',0.768627450980392,0.207843137254902,
0.152941176470588);
ENDSEC;
END-ISO-10303-21;
